/* XPM */
static char * onex_rate_normal[] = {
"26 25 22 1",
" 	c None",
".	c #374E72",
"+	c #202D42",
"@	c #202E43",
"#	c #637591",
"$	c #7A89A1",
"%	c #BCC4D0",
"&	c #FFFFFF",
"*	c #909CB0",
"=	c #A6B0C0",
"-	c #E8EBEF",
";	c #4D6181",
">	c #212E44",
",	c #212F44",
"'	c #D2D7DF",
")	c #212F45",
"!	c #223046",
"~	c #223047",
"{	c #233148",
"]	c #233249",
"^	c #24334A",
"/	c #24334B",
".........................+",
".........................+",
".........................+",
".........................+",
".........................+",
".........................+",
".........................@",
"......#$$$...............@",
".....%&&&&...............@",
".....*==&&...............@",
".......$&&...$&&#.=&-;...@",
".......$&&....=&-$&&#....@",
".......$&&.....%&&&$.....>",
".......$&&.....#&&-......,",
".......$&&.....'&&&*.....)",
".....#%'&&%%..=&';&&#....)",
".....$&&&&&&.$&&;.*&-;...!",
".........................~",
".........................{",
".........................{",
".........................]",
".........................]",
".........................^",
"........................./",
".........................]"};
