/* XPM */
static char * onex_rate_active[] = {
"26 25 11 1",
" 	c None",
".	c #750924",
"+	c #933F54",
"@	c #A35B6D",
"#	c #D1ADB6",
"$	c #FFFFFF",
"%	c #B27685",
"&	c #C1919D",
"*	c #EFE3E6",
"=	c #84243C",
"-	c #E0C8CE",
"..........................",
"..........................",
"..........................",
"..........................",
"..........................",
"..........................",
"..........................",
"......+@@@................",
".....#$$$$................",
".....%&&$$................",
".......@$$...@$$+.&$*=....",
".......@$$....&$*@$$+.....",
".......@$$.....#$$$@......",
".......@$$.....+$$*.......",
".......@$$.....-$$$%......",
".....+#-$$##..&$-=$$+.....",
".....@$$$$$$.@$$=.%$*=....",
"..........................",
"..........................",
"..........................",
"..........................",
"..........................",
"..........................",
"..........................",
".........................."};
