/* XPM */
static char *onex_rate_disabled[] = {
/* columns rows colors chars-per-pixel */
"26 25 27 1",
"  c #101621",
". c #141C29",
"X c #141C2A",
"o c #141D2A",
"O c #151D2B",
"+ c #182231",
"@ c #202D42",
"# c #202E43",
"$ c #212E44",
"% c #212F44",
"& c #212F45",
"* c #223046",
"= c #223047",
"- c #233148",
"; c #233249",
": c #24334A",
"> c #24334B",
", c #475160",
"< c #5B6471",
"1 c #6F7783",
"2 c #848B95",
"3 c #999EA6",
"4 c #ADB1B8",
"5 c #C2C5CA",
"6 c #D6D8DB",
"7 c #EAEBED",
"8 c gray100",
/* pixels */
",,,,,,,,,,,,,,,,,,,,,,,,,#",
",,,,,,,,,,,,,,,,,,,,,,,,,#",
",,,,,,,,,,,,,,,,,,,,,,,,,@",
",,,,,,,,,,,,,,,,,,,,,,,,,#",
",,,,,,,,,,,,,,,,,,,,,,,,,@",
",,,,,,,,,,,,,,,,,,,,,,,,,@",
",,,,,,,,,,,,,,,,,,,,,,,,,#",
",,,,,,1222,,,,,,,,,,,,,,,#",
",,,,,58888,,,,,,,,,,,,,,,#",
",,,,,34488,,,,,,,,,,,,,,,#",
",,,,,,,288,,,2881,487<,,,#",
",,,,,,,288,,,,4872881,,,,#",
",,,,,,,288,,,,,58882,,,,,&",
",,,,,,,288,,,,,1887,,,,,,#",
",,,,,,,288,,,,,68883,,,,,&",
",,,,,1568855,,486<881,,,,&",
",,,,,2888888,288<,387<,,,=",
",,,,,,,,,,,,,,,,,,,,,,,,,=",
",,,,,,,,,,,,,,,,,,,,,,,,,=",
",,,,,,,,,,,,,,,,,,,,,,,,,&",
",,,,,,,,,,,,,,,,,,,,,,,,,>",
",,,,,,,,,,,,,,,,,,,,,,,,,>",
",,,,,,,,,,,,,,,,,,,,,,,,,>",
",,,,,,,,,,,,,,,,,,,,,,,,,>",
"OOOoooooooooo...........+ "
};
