/* XPM */
static char *delay_normal[] = {
/* columns rows colors chars-per-pixel */
"77 25 52 1",
"  c #0A0E15",
". c #0B1017",
"X c #0E141D",
"o c #0F151E",
"O c #0F151F",
"+ c #0F1620",
"@ c #101620",
"# c #101621",
"$ c #101721",
"% c #101722",
"& c #111822",
"* c #111823",
"= c #111824",
"- c #141C29",
"; c #172130",
": c #182131",
"> c #182231",
", c #182232",
"< c #182333",
"1 c #192333",
"2 c #192334",
"3 c #192434",
"4 c #192435",
"5 c #1A2435",
"6 c #1A2536",
"7 c #1E2B3F",
"8 c #1F2B3F",
"9 c #1F2C40",
"0 c #1F2C41",
"q c #1F2D41",
"w c #202D42",
"e c #202E43",
"r c #212E44",
"t c #283953",
"y c #283954",
"u c #293A54",
"i c #293A55",
"p c #293B56",
"a c #2A3B56",
"s c #2A3B57",
"d c #2A3C57",
"f c #2A3C58",
"g c #374E72",
"h c #4D6181",
"j c #637591",
"k c #7A89A1",
"l c #909CB0",
"z c #A6B0C0",
"x c #BCC4D0",
"c c #D2D7DF",
"v c #E8EBEF",
"b c gray100",
/* pixels */
" ==*%*******%%%%++*+*+%%%%OO%OO+OOOOOOOOOOOOOOOOOOOOOOOOOOOOOOOOOOOOOOOOOOOO.",
"wgggggggggggggggggggggggggggggggggggggggggggggggggggggggggggggggggggggggggggu",
"qgggggggggggggggggggggggggggggggggggggggggggggggggggggggggggggggggggggggggggt",
"qgggggggggggggggggggggggggggggggggggggggggggggggggggggggggggggggggggggggggggt",
"qgggggggggggggggggggggggggggggggggggggggggggggggggggggggggggggggggggggggggggy",
"9gggggggggggggggggggggggggggggggggggggggggggggggggggggggggggggggggggggggggggt",
"9gggggggggggggggggggggggjxxgggggggggggjxxgggggggggggggggggggggggggggggggggggy",
"9gggggggggggggggggggggggkbbgggggggggggkbbgggggggggggggggggggggggggggggggggggy",
"8gggggggggggggggggggggggkbbgggggggggggkbbgggggggggggggggggggggggggggggggggggy",
"8gggggggggggggggggggzbbzlbbggglcbbcjggkbbgglvbbbxhghxxjgghxxhgggggggggggggggy",
"8ggggggggggggggggggxbbccbbbggzbbxcbbjgkbbggxvxxvbvggcbzggzbvggggggggggggggggy",
"8ggggggggggggggggghbbxggxbbghbbjgglbcgkbbgghggghbbkglbvggvbzggggggggggggggggy",
"8gggggggggggggggggkbbkggkbbgkbbbbbbbbgkbbggkcbbbbbkggvbkjbbhggggggggggggggggy",
"8gggggggggggggggggkbbkggkbbgkbbxxxxxxgkbbghbbzkkbbkggzbczbcgggggggggggggggggy",
"8ggggggggggggggggghbbxggxbbghbbkggghkgkbbgkbbggkbbkgghbbvbkgggggggggggggggggy",
"8ggggggggggggggggggxbbccbbbggzbbxxcbxgkbbghbbcxbbbkgggxbbvggggggggggggggggggy",
"qgggggggggggggggggggzbbzlbbggglcbbbxkgkbbggkvbckbbkgggjbbzggggggggggggggggggy",
"qggggggggggggggggggggggggggggggggggggggggggggggggggggghbbjggggggggggggggggggp",
"qggggggggggggggggggggggggggggggggggggggggggggggggggggxvbcgggggggggggggggggggp",
"qggggggggggggggggggggggggggggggggggggggggggggggggggggbbchgggggggggggggggggggp",
"qgggggggggggggggggggggggggggggggggggggggggggggggggggggggggggggggggggggggggggp",
"qgggggggggggggggggggggggggggggggggggggggggggggggggggggggggggggggggggggggggggp",
"qgggggggggggggggggggggggggggggggggggggggggggggggggggggggggggggggggggggggggggf",
"rgggggggggggggggggggggggggggggggggggggggggggggggggggggggggggggggggggggggggggf",
"+,;;,,,,,,,,,,,,,,3,3,35,5535555555555666666666666655555555555555556666<6555-"
};
