/* XPM */
static char *delay_active[] = {
/* columns rows colors chars-per-pixel */
"77 25 11 1",
"  c #730923",
". c #750924",
"X c #84243C",
"o c #933F54",
"O c #A35B6D",
"+ c #B27685",
"@ c #C1919D",
"# c #D1ADB6",
"$ c #E0C8CE",
"% c #EFE3E6",
"& c gray100",
/* pixels */
"............................................................................ ",
".............................................................................",
".............................................................................",
".............................................................................",
".............................................................................",
".............................................................................",
"........................o##...........o##....................................",
"........................O&&...........O&&....................................",
"........................O&&...........O&&....................................",
"....................@&&@+&&...+$&&$o..O&&..+%&&&#X.X##o..X##X................",
"...................#&&$$&&&..@&&#$&&o.O&&..#%##%&%..$&@..@&%.................",
"..................X&&#..#&&.X&&o..+&$.O&&..X...X&&O.+&%..%&@.................",
"..................O&&O..O&&.O&&&&&&&&.O&&..O$&&&&&O..%&Oo&&X.................",
"..................O&&O..O&&.O&&######.O&&.X&&@OO&&O..@&$@&$..................",
"..................X&&#..#&&.X&&O...XO.O&&.O&&..O&&O..X&&%&O..................",
"...................#&&$$&&&..@&&##$&#.O&&.X&&$#&&&O...#&&%...................",
"....................@&&@+&&...+$&&&#O.O&&..O%&$O&&O...o&&@...................",
"......................................................X&&o...................",
".....................................................#%&$....................",
".....................................................&&$X....................",
".............................................................................",
".............................................................................",
".............................................................................",
".............................................................................",
"............................................................................."
};
