/* XPM */
static char * double_rate_disabled[] = {
"26 25 22 1",
" 	c None",
".	c #475160",
"+	c #202D42",
"@	c #202E43",
"#	c #6F7783",
"$	c #999EA6",
"%	c #C2C5CA",
"&	c #ADB1B8",
"*	c #FFFFFF",
"=	c #848B95",
"-	c #D6D8DB",
";	c #5B6471",
">	c #EAEBED",
",	c #212E44",
"'	c #212F44",
")	c #212F45",
"!	c #223046",
"~	c #223047",
"{	c #233148",
"]	c #233249",
"^	c #24334A",
"/	c #24334B",
".........................+",
".........................+",
".........................+",
".........................+",
".........................+",
".........................+",
".........................@",
".....#$%%&#..............@",
".....******=.............@",
".....-=.;%*>.............@",
".........=**.=**#.&*>;...@",
".........%*-..&*>=**#....@",
"........%*>;...%***=.....,",
"......;-*>;....#**>......'",
".....;>*-;.....-***$.....)",
".....>**%%%%..&*-;**#....)",
".....*******.=**;.$*>;...!",
".........................~",
".........................{",
".........................{",
".........................]",
".........................]",
".........................^",
"........................./",
".........................{"};
