/* XPM */
static char *double_rate_active[] = {
/* columns rows colors chars-per-pixel */
"26 25 16 1",
"  c #101621",
". c #141C29",
"X c #141C2A",
"o c #141D2A",
"O c #151D2B",
"+ c #182231",
"@ c #750924",
"# c #84243C",
"$ c #933F54",
"% c #A35B6D",
"& c #B27685",
"* c #C1919D",
"= c #D1ADB6",
"- c #E0C8CE",
"; c #EFE3E6",
": c gray100",
/* pixels */
"@@@@@@@@@@@@@@@@@@@@@@@@@@",
"@@@@@@@@@@@@@@@@@@@@@@@@@@",
"@@@@@@@@@@@@@@@@@@@@@@@@@@",
"@@@@@@@@@@@@@@@@@@@@@@@@@@",
"@@@@@@@@@@@@@@@@@@@@@@@@@@",
"@@@@@@@@@@@@@@@@@@@@@@@@@@",
"@@@@@@@@@@@@@@@@@@@@@@@@@@",
"@@@@@$&==*$@@@@@@@@@@@@@@@",
"@@@@@::::::%@@@@@@@@@@@@@@",
"@@@@@-%@#=:;@@@@@@@@@@@@@@",
"@@@@@@@@@%::@%::$@*:;#@@@@",
"@@@@@@@@@=:-@@*:;%::$@@@@@",
"@@@@@@@@=:;#@@@=:::%@@@@@@",
"@@@@@@#-:;#@@@@$::;@@@@@@@",
"@@@@@#;:-#@@@@@-:::&@@@@@@",
"@@@@@;::====@@*:-#::$@@@@@",
"@@@@@:::::::@%::#@&:;#@@@@",
"@@@@@@@@@@@@@@@@@@@@@@@@@@",
"@@@@@@@@@@@@@@@@@@@@@@@@@@",
"@@@@@@@@@@@@@@@@@@@@@@@@@@",
"@@@@@@@@@@@@@@@@@@@@@@@@@@",
"@@@@@@@@@@@@@@@@@@@@@@@@@@",
"@@@@@@@@@@@@@@@@@@@@@@@@@@",
"@@@@@@@@@@@@@@@@@@@@@@@@@@",
"OOOoooooooooo...........+ "
};
