/* XPM */
static char *half_rate_normal[] = {
/* columns rows colors chars-per-pixel */
"26 25 32 1",
"  c #101621",
". c #141C29",
"X c #141C2A",
"o c #141D2A",
"O c #151D2B",
"+ c #182131",
"@ c #182231",
"# c #202D42",
"$ c #202E43",
"% c #212E44",
"& c #212F44",
"* c #212F45",
"= c #223046",
"- c #223047",
"; c #233148",
": c #233249",
"> c #24334A",
", c #24334B",
"< c #374E72",
"1 c #4D6181",
"2 c #637591",
"3 c #7A89A1",
"4 c #909CB0",
"5 c #A6B0C0",
"6 c #BCC4D0",
"7 c #C0C7D3",
"8 c #C7CED8",
"9 c #CAD0D9",
"0 c #CAD0DA",
"q c #D2D7DF",
"w c #E8EBEF",
"e c gray100",
/* pixels */
"<<<<<<<<<<<<<<<<<<<<<<<<<$",
"<<<<<<<<<<<<<<<<<<<<<<<<<$",
"<<<<<<<<<<<<<<<<<<<<<<<<<#",
"<<<<<<<<<<<<<<<<<<<<<<<<<$",
"<<<<<464<<<<<<<<<<<<<<<<<#",
"<<<<<5q6<<<<<<<<<<<<<<<<<#",
"<<<<<<66<<<<<<<<<<<<<<<<<$",
"<<<<<<66<<<<<<<<<<<<<<<<<$",
"<<<<<<66<<<<<<<<<<<<<<<<<$",
"<<<<<6ww6<<<<<<<<<<<<<<<<$",
"<<<<<3333<<<<3ee2<5ew1<<<$",
"<<<<<<<<<<<<<<5ew3ee2<<<<$",
"<<<<8999997<<<<6eee3<<<<<$",
"<<<<<<<<<<<<<<<2eew<<<<<<$",
"<<<<<15651<<<<<qeee4<<<<<&",
"<<<<<3536w<<<<5eq1ee2<<<<-",
"<<<<<<<<3e<<<3ee1<4ew1<<<-",
"<<<<<<<2w6<<<<<<<<<<<<<<<-",
"<<<<<<3e6<<<<<<<<<<<<<<<<:",
"<<<<<2ee66<<<<<<<<<<<<<<<-",
"<<<<<13333<<<<<<<<<<<<<<<:",
"<<<<<<<<<<<<<<<<<<<<<<<<<:",
"<<<<<<<<<<<<<<<<<<<<<<<<<>",
"<<<<<<<<<<<<<<<<<<<<<<<<<:",
"OOOooooooooooXXXXXX....++ "
};
