/* XPM */
static char *half_rate_selected[] = {
/* columns rows colors chars-per-pixel */
"26 25 32 1",
"  c #101621",
". c #141C29",
"X c #141C2A",
"o c #141D2A",
"O c #151D2B",
"+ c #182131",
"@ c #182231",
"# c #202D42",
"$ c #202E43",
"% c #212E44",
"& c #212F44",
"* c #212F45",
"= c #223046",
"- c #223047",
"; c #233148",
": c #233249",
"> c #24334A",
", c #24334B",
"< c #2F7868",
"1 c #468779",
"2 c #5D9689",
"3 c #74A59A",
"4 c #8BB4AB",
"5 c #A2C3BB",
"6 c #BAD2CD",
"7 c #BED5D0",
"8 c #C5D9D5",
"9 c #C8DBD7",
"0 c #C8DCD7",
"q c #D1E1DD",
"w c #E7F0EE",
"e c gray100",
/* pixels */
"<<<<<<<<<<<<<<<<<<<<<<<<<$",
"<<<<<<<<<<<<<<<<<<<<<<<<<$",
"<<<<<<<<<<<<<<<<<<<<<<<<<#",
"<<<<<<<<<<<<<<<<<<<<<<<<<$",
"<<<<<464<<<<<<<<<<<<<<<<<#",
"<<<<<5q6<<<<<<<<<<<<<<<<<#",
"<<<<<<66<<<<<<<<<<<<<<<<<$",
"<<<<<<66<<<<<<<<<<<<<<<<<$",
"<<<<<<66<<<<<<<<<<<<<<<<<$",
"<<<<<6ww6<<<<<<<<<<<<<<<<$",
"<<<<<3333<<<<3ee2<5ew1<<<$",
"<<<<<<<<<<<<<<5ew3ee2<<<<$",
"<<<<8990097<<<<6eee3<<<<<*",
"<<<<<<<<<<<<<<<2eew<<<<<<$",
"<<<<<15651<<<<<qeee4<<<<<*",
"<<<<<3536w<<<<5eq1ee2<<<<*",
"<<<<<<<<3e<<<3ee1<4ew1<<<*",
"<<<<<<<2w6<<<<<<<<<<<<<<<,",
"<<<<<<3e6<<<<<<<<<<<<<<<<*",
"<<<<<2ee66<<<<<<<<<<<<<<<*",
"<<<<<13333<<<<<<<<<<<<<<<,",
"<<<<<<<<<<<<<<<<<<<<<<<<<,",
"<<<<<<<<<<<<<<<<<<<<<<<<<,",
"<<<<<<<<<<<<<<<<<<<<<<<<<,",
"OOOoooooooooo..........++ "
};
