/* XPM */
static char *half_rate_disabled[] = {
/* columns rows colors chars-per-pixel */
"26 25 31 1",
"  c #101621",
". c #141C29",
"X c #141C2A",
"o c #141D2A",
"O c #151D2B",
"+ c #182231",
"@ c #202D42",
"# c #202E43",
"$ c #212E44",
"% c #212F44",
"& c #212F45",
"* c #223046",
"= c #223047",
"- c #233148",
"; c #233249",
": c #24334A",
"> c #24334B",
", c #475160",
"< c #5B6471",
"1 c #6F7783",
"2 c #848B95",
"3 c #999EA6",
"4 c #ADB1B8",
"5 c #C2C5CA",
"6 c #C5C8CD",
"7 c #CCCFD3",
"8 c #CED1D5",
"9 c #CFD1D5",
"0 c #D6D8DB",
"q c #EAEBED",
"w c gray100",
/* pixels */
",,,,,,,,,,,,,,,,,,,,,,,,,#",
",,,,,,,,,,,,,,,,,,,,,,,,,#",
",,,,,,,,,,,,,,,,,,,,,,,,,@",
",,,,,,,,,,,,,,,,,,,,,,,,,#",
",,,,,353,,,,,,,,,,,,,,,,,@",
",,,,,405,,,,,,,,,,,,,,,,,@",
",,,,,,55,,,,,,,,,,,,,,,,,#",
",,,,,,55,,,,,,,,,,,,,,,,,#",
",,,,,,55,,,,,,,,,,,,,,,,,#",
",,,,,5qq5,,,,,,,,,,,,,,,,#",
",,,,,2222,,,,2ww1,4wq<,,,#",
",,,,,,,,,,,,,,4wq2ww1,,,,#",
",,,,7889886,,,,5www2,,,,,&",
",,,,,,,,,,,,,,,1wwq,,,,,,#",
",,,,,<454<,,,,,0www3,,,,,&",
",,,,,2425q,,,,4w0<ww1,,,,&",
",,,,,,,,2w,,,2ww<,3wq<,,,=",
",,,,,,,1q5,,,,,,,,,,,,,,,=",
",,,,,,2w5,,,,,,,,,,,,,,,,=",
",,,,,1ww55,,,,,,,,,,,,,,,&",
",,,,,<2222,,,,,,,,,,,,,,,>",
",,,,,,,,,,,,,,,,,,,,,,,,,>",
",,,,,,,,,,,,,,,,,,,,,,,,,>",
",,,,,,,,,,,,,,,,,,,,,,,,,>",
"OOOoooooooooo...........+ "
};
