/* XPM */
static char * half_rate_active[] = {
"26 25 15 1",
" 	c None",
".	c #750924",
"+	c #B27685",
"@	c #D1ADB6",
"#	c #C1919D",
"$	c #E0C8CE",
"%	c #EFE3E6",
"&	c #A35B6D",
"*	c #FFFFFF",
"=	c #933F54",
"-	c #84243C",
";	c #D9BBC2",
">	c #DABDC5",
",	c #DBBEC5",
"'	c #D4B2BA",
"..........................",
"..........................",
"..........................",
"..........................",
".....+@+..................",
".....#$@..................",
"......@@..................",
"......@@..................",
"......@@..................",
".....@%%@.................",
".....&&&&....&**=.#*%-....",
"..............#*%&**=.....",
"....;>>,,>'....@***&......",
"...............=**%.......",
".....-#@#-.....$***+......",
".....&#&@%....#*$-**=.....",
"........&*...&**-.+*%-....",
".......=%@................",
"......&*@.................",
".....=**@@................",
".....-&&&&................",
"..........................",
"..........................",
"..........................",
".........................."};
