/* XPM */
static char *insert_active[] = {
/* columns rows colors chars-per-pixel */
"77 25 11 1",
"  c #730923",
". c #750924",
"X c #84243C",
"o c #933F54",
"O c #A35B6D",
"+ c #B27685",
"@ c #C1919D",
"# c #D1ADB6",
"$ c #E0C8CE",
"% c #EFE3E6",
"& c gray100",
/* pixels */
"............................................................................ ",
".............................................................................",
".............................................................................",
".............................................................................",
".............................................................................",
".............................................................................",
".................+#+.........................................................",
".................#&#....................................o##..................",
".................oOo....................................O&&..................",
".................+#+..##O@&&@...@&&&%+...+$&&$o..o##O%&$$&&##+...............",
".................#&#..&&&&&&&O.@&&##%#..@&&#$&&o.O&&&&&&&&&&&#...............",
".................#&#..&&%XX%&#.#&$...X.X&&o..+&$.O&&#..XO&&..................",
".................#&#..&&O..#&#.+&&&%#o.O&&&&&&&&.O&&X...O&&..................",
".................#&#..&&O..#&#..O#$&&&XO&&######.O&&....O&&..................",
".................#&#..&&O..#&#.X...X&&OX&&O...XO.O&&....O&&..................",
".................#&#..&&O..#&#.#&##$&&X.@&&##$&#.O&&....o&&$#o...............",
".................#&#..&&O..#&#.+%&&&$O...+$&&&#O.O&&.....@&&&O...............",
".............................................................................",
".............................................................................",
".............................................................................",
".............................................................................",
".............................................................................",
".............................................................................",
".............................................................................",
"............................................................................."
};
