/* XPM */
static char * insert_focus_xpm[] = {
"77 24 165 2",
"  	c None",
". 	c #172130",
"+ 	c #304463",
"@ 	c #314667",
"# 	c #324767",
"$ 	c #344A6C",
"% 	c #364D71",
"& 	c #395176",
"* 	c #3A5379",
"= 	c #3D577E",
"- 	c #3D5880",
"; 	c #3D5980",
"> 	c #3E5981",
", 	c #3F5A82",
"' 	c #283954",
") 	c #1C283B",
"! 	c #43608C",
"~ 	c #2D405E",
"{ 	c #1D293B",
"] 	c #2C3E5B",
"^ 	c #2C3E5A",
"/ 	c #1D293C",
"( 	c #536685",
"_ 	c #576A88",
": 	c #516B92",
"< 	c #2B3D59",
"[ 	c #E5E8ED",
"} 	c #FFFFFF",
"| 	c #95A1B4",
"1 	c #546887",
"2 	c #677994",
"3 	c #5B6D8B",
"4 	c #1D2A3D",
"5 	c #D8DCE3",
"6 	c #F0F1F4",
"7 	c #8E9BAF",
"8 	c #B0B9C7",
"9 	c #CCD1DB",
"0 	c #2A3C58",
"a 	c #45618C",
"b 	c #556987",
"c 	c #4D6890",
"d 	c #49658E",
"e 	c #2A3B57",
"f 	c #1E2A3D",
"g 	c #96A2B5",
"h 	c #F3F4F6",
"i 	c #C1C8D3",
"j 	c #FEFEFE",
"k 	c #EAECF0",
"l 	c #5C6F8C",
"m 	c #4F6383",
"n 	c #D7DCE3",
"o 	c #E0E3E9",
"p 	c #627490",
"q 	c #48648D",
"r 	c #B2BBC9",
"s 	c #FCFCFD",
"t 	c #FDFDFD",
"u 	c #AAB4C3",
"v 	c #8896AB",
"w 	c #ABB4C3",
"x 	c #C4CBD6",
"y 	c #F0F2F5",
"z 	c #F6F7F8",
"A 	c #DBDFE6",
"B 	c #4B6790",
"C 	c #293B56",
"D 	c #1E2A3E",
"E 	c #F5F6F8",
"F 	c #ECEFF2",
"G 	c #E1E5EA",
"H 	c #DADFE5",
"I 	c #F4F5F7",
"J 	c #F7F8F9",
"K 	c #F7F8FA",
"L 	c #4F6384",
"M 	c #C0C7D2",
"N 	c #B9C1CE",
"O 	c #EEF0F3",
"P 	c #E4E7EC",
"Q 	c #47638E",
"R 	c #D4D9E1",
"S 	c #B9C1CD",
"T 	c #E9ECF0",
"U 	c #C8CED8",
"V 	c #4A668F",
"W 	c #293A55",
"X 	c #1E2B3E",
"Y 	c #4B668E",
"Z 	c #A7B1C1",
"` 	c #506689",
" .	c #4E6282",
"..	c #71819A",
"+.	c #E1E4E9",
"@.	c #7A89A1",
"#.	c #5B6E8B",
"$.	c #526B90",
"%.	c #F8F9FA",
"&.	c #8C99AE",
"*.	c #97A3B6",
"=.	c #293A54",
"-.	c #1E2B3F",
";.	c #586B89",
">.	c #B6BFCC",
",.	c #7D8CA3",
"'.	c #4F6990",
").	c #919EB2",
"!.	c #77869F",
"~.	c #B8C0CD",
"{.	c #283953",
"].	c #8794AA",
"^.	c #FAFAFB",
"/.	c #AEB7C6",
"(.	c #4E6991",
"_.	c #ACB6C4",
":.	c #CFD5DD",
"<.	c #8A97AC",
"[.	c #6F7F99",
"}.	c #ADB6C5",
"|.	c #ECEEF1",
"1.	c #9EA9BA",
"2.	c #DADEE5",
"3.	c #657692",
"4.	c #1F2B3F",
"5.	c #6D7D98",
"6.	c #D3D8E0",
"7.	c #BCC4D0",
"8.	c #7C8BA2",
"9.	c #F1F3F5",
"0.	c #98A4B6",
"a.	c #A2ADBD",
"b.	c #75859E",
"c.	c #CED3DC",
"d.	c #1F2C40",
"e.	c #5F718E",
"f.	c #BDC4D0",
"g.	c #8A98AD",
"h.	c #D5DAE1",
"i.	c #C8CFD8",
"j.	c #5E708D",
"k.	c #9CA8B9",
"l.	c #8593A9",
"m.	c #FBFBFC",
"n.	c #ABB5C4",
"o.	c #70809A",
"p.	c #1F2C41",
"q.	c #697A95",
"r.	c #8290A7",
"s.	c #71829B",
"t.	c #4E6383",
"u.	c #46628D",
"v.	c #818FA6",
"w.	c #7E8DA4",
"x.	c #6D7E98",
"y.	c #45628C",
"z.	c #1F2D41",
"A.	c #202D42",
"B.	c #2A3B56",
"C.	c #202E43",
"D.	c #2A3C57",
"E.	c #1B2738",
"F.	c #304363",
"G.	c #2B3D5A",
"H.	c #212F44",
". + + @ @ # # $ $ $ $ % % % % & & & & & & * * * * = = = = - ; ; > > > > > > > > > > > > > > > > > > > > > > > > > > > > > > > > > > > > > > > > > > > , ' ",
") ! ! ! ! ! ! ! ! ! ! ! ! ! ! ! ! ! ! ! ! ! ! ! ! ! ! ! ! ! ! ! ! ! ! ! ! ! ! ! ! ! ! ! ! ! ! ! ! ! ! ! ! ! ! ! ! ! ! ! ! ! ! ! ! ! ! ! ! ! ! ! ! ! ! ! ~ ",
"{ ! ! ! ! ! ! ! ! ! ! ! ! ! ! ! ! ! ! ! ! ! ! ! ! ! ! ! ! ! ! ! ! ! ! ! ! ! ! ! ! ! ! ! ! ! ! ! ! ! ! ! ! ! ! ! ! ! ! ! ! ! ! ! ! ! ! ! ! ! ! ! ! ! ! ! ] ",
"{ ! ! ! ! ! ! ! ! ! ! ! ! ! ! ! ! ! ! ! ! ! ! ! ! ! ! ! ! ! ! ! ! ! ! ! ! ! ! ! ! ! ! ! ! ! ! ! ! ! ! ! ! ! ! ! ! ! ! ! ! ! ! ! ! ! ! ! ! ! ! ! ! ! ! ! ^ ",
"/ ! ! ! ! ! ! ! ! ! ! ! ! ! ! ! ! ! ( _ : ! ! ! ! ! ! ! ! ! ! ! ! ! ! ! ! ! ! ! ! ! ! ! ! ! ! ! ! ! ! ! ! ! ! ! ! ! ! ! ! ! ! ! ! ! ! ! ! ! ! ! ! ! ! ! < ",
"/ ! ! ! ! ! ! ! ! ! ! ! ! ! ! ! ! ! [ } | ! ! ! ! ! ! ! ! ! ! ! ! ! ! ! ! ! ! ! ! ! ! ! ! ! ! ! ! ! ! ! ! ! ! ! ! ! 1 2 3 ! ! ! ! ! ! ! ! ! ! ! ! ! ! ! < ",
"4 ! ! ! ! ! ! ! ! ! ! ! ! ! ! ! ! ! 5 6 7 ! ! ! ! ! ! ! ! ! ! ! ! ! ! ! ! ! ! ! ! ! ! ! ! ! ! ! ! ! ! ! ! ! ! ! ! ! 8 } 9 ! ! ! ! ! ! ! ! ! ! ! ! ! ! ! 0 ",
"4 ! ! ! ! ! ! ! ! ! ! ! ! ! ! ! ! ! a a ! ! ! a a ! ! ! 1 ! ! ! ! ! ! ! b a ! ! ! ! ! ! ! 1 ! ! ! ! ! ! a a ! ! c d 8 } 9 ! ! ! ! ! ! ! ! ! ! ! ! ! ! ! e ",
"f ! ! ! ! ! ! ! ! ! ! ! ! ! ! ! ! ! [ } g ! ! h } 7 i j } k l ! ! m n } } } o p ! ! q r s } t u c ! ! ! h } v w s x y } z A B ! ! ! ! ! ! ! ! ! ! ! ! ! C ",
"D ! ! ! ! ! ! ! ! ! ! ! ! ! ! ! ! ! [ } g ! ! h } E } F } } G ! ! H } I i J } K L ! M } s N O } P Q ! ! h } R } } S T } y U V ! ! ! ! ! ! ! ! ! ! ! ! ! W ",
"X ! ! ! ! ! ! ! ! ! ! ! ! ! ! ! ! ! [ } g ! ! h } G Y ! Z } } `  .} } ..! B +.T @.#.} } 3 ! $.%.} &.! ! h } z *.3 c 8 } 9 ! ! ! ! ! ! ! ! ! ! ! ! ! ! ! =.",
"-.! ! ! ! ! ! ! ! ! ! ! ! ! ! ! ! ! [ } g ! ! h } *.! ! p } } ;.q h } I >.,.'.! ! ).} O !.!.!.H } r ! ! h } ~.! ! ! 8 } 9 ! ! ! ! ! ! ! ! ! ! ! ! ! ! ! {.",
"-.! ! ! ! ! ! ! ! ! ! ! ! ! ! ! ! ! [ } g ! ! h } v ! ! #.} } ;.! ].^.} } } s /.(._.} } } } } } } :.! ! h } <.! ! ! 8 } 9 ! ! ! ! ! ! ! ! ! ! ! ! ! ! ! {.",
"-.! ! ! ! ! ! ! ! ! ! ! ! ! ! ! ! ! [ } g ! ! h } v ! ! #.} } ;.! ! Q [.}.|.} } g 1.} 2.3.3.3.3.3.#.! ! h } v ! ! ! 8 } 9 ! ! ! ! ! ! ! ! ! ! ! ! ! ! ! ' ",
"4.! ! ! ! ! ! ! ! ! ! ! ! ! ! ! ! ! [ } g ! ! h } v ! ! #.} } ;.5.r }.a ! ! 6.} 7.8.} 9.d ! ! 0.a.b.! ! h } v ! ! ! 8 } c.! ! ! ! ! ! ! ! ! ! ! ! ! ! ! =.",
"d.! ! ! ! ! ! ! ! ! ! ! ! ! ! ! ! ! [ } g ! ! h } v ! ! #.} } ;.e.} } R | f.j } g.Q G } h.<.i.} t j.! ! h } v ! ! ! k.} h l.Q ! ! ! ! ! ! ! ! ! ! ! ! ! =.",
"d.! ! ! ! ! ! ! ! ! ! ! ! ! ! ! ! ! [ } g ! ! h } v ! ! #.} } ;.! <.m.} } } j n.! ! _ +.} } } E o.! ! ! h } v ! ! ! _ j } } (.! ! ! ! ! ! ! ! ! ! ! ! ! W ",
"p.! ! ! ! ! ! ! ! ! ! ! ! ! ! ! ! ! ! ! ! ! ! ! ! ! ! ! ! ! ! ! ! ! (.q.r.s.t.! ! ! ! u.j.v.l ! ! ! ! ! ! ! ! ! ! ! ! u.w.x.y.! ! ! ! ! ! ! ! ! ! ! ! ! W ",
"z.! ! ! ! ! ! ! ! ! ! ! ! ! ! ! ! ! ! ! ! ! ! ! ! ! ! ! ! ! ! ! ! ! ! ! ! ! ! ! ! ! ! ! ! ! ! ! ! ! ! ! ! ! ! ! ! ! ! ! ! ! ! ! ! ! ! ! ! ! ! ! ! ! ! ! C ",
"A.! ! ! ! ! ! ! ! ! ! ! ! ! ! ! ! ! ! ! ! ! ! ! ! ! ! ! ! ! ! ! ! ! ! ! ! ! ! ! ! ! ! ! ! ! ! ! ! ! ! ! ! ! ! ! ! ! ! ! ! ! ! ! ! ! ! ! ! ! ! ! ! ! ! ! B.",
"A.! ! ! ! ! ! ! ! ! ! ! ! ! ! ! ! ! ! ! ! ! ! ! ! ! ! ! ! ! ! ! ! ! ! ! ! ! ! ! ! ! ! ! ! ! ! ! ! ! ! ! ! ! ! ! ! ! ! ! ! ! ! ! ! ! ! ! ! ! ! ! ! ! ! ! e ",
"C.! ! ! ! ! ! ! ! ! ! ! ! ! ! ! ! ! ! ! ! ! ! ! ! ! ! ! ! ! ! ! ! ! ! ! ! ! ! ! ! ! ! ! ! ! ! ! ! ! ! ! ! ! ! ! ! ! ! ! ! ! ! ! ! ! ! ! ! ! ! ! ! ! ! ! D.",
"C.! ! ! ! ! ! ! ! ! ! ! ! ! ! ! ! ! ! ! ! ! ! ! ! ! ! ! ! ! ! ! ! ! ! ! ! ! ! ! ! ! ! ! ! ! ! ! ! ! ! ! ! ! ! ! ! ! ! ! ! ! ! ! ! ! ! ! ! ! ! ! ! ! ! ! 0 ",
"E.% % % % % % % % % & & & & & & & & & & & & & & * * * * * * * * * = = = = = = = * * * * & & & & & % % % $ $ $ # # @ + + + + F.~ ~ ~ ~ ] ] ] ^ G.G.< < < H."};
