/* XPM */
static char * insert_disabled_xpm[] = {
"77 24 163 2",
"  	c None",
". 	c #172130",
"+ 	c #30405A",
"@ 	c #314159",
"# 	c #334259",
"$ 	c #344258",
"% 	c #364357",
"& 	c #394456",
"* 	c #3B4554",
"= 	c #3E4653",
"- 	c #3F4754",
"; 	c #3F4854",
"> 	c #404855",
", 	c #404957",
"' 	c #283954",
") 	c #1C283B",
"! 	c #475160",
"~ 	c #2D3F5B",
"{ 	c #1D293B",
"] 	c #2C3E5B",
"^ 	c #2C3E5A",
"/ 	c #1D293C",
"( 	c #536685",
"_ 	c #576A88",
": 	c #545D6B",
"< 	c #2B3D59",
"[ 	c #E5E8ED",
"} 	c #FFFFFF",
"| 	c #95A1B4",
"1 	c #546887",
"2 	c #677994",
"3 	c #5B6D8B",
"4 	c #1D2A3D",
"5 	c #D8DCE3",
"6 	c #F0F1F4",
"7 	c #8E9BAF",
"8 	c #B0B9C7",
"9 	c #CCD1DB",
"0 	c #2A3C58",
"a 	c #495260",
"b 	c #556987",
"c 	c #505967",
"d 	c #4D5664",
"e 	c #2A3B57",
"f 	c #1E2A3D",
"g 	c #96A2B5",
"h 	c #F3F4F6",
"i 	c #C1C8D3",
"j 	c #FEFEFE",
"k 	c #EAECF0",
"l 	c #5C6F8C",
"m 	c #4F6383",
"n 	c #D7DCE3",
"o 	c #E0E3E9",
"p 	c #627490",
"q 	c #4C5563",
"r 	c #B2BBC9",
"s 	c #FCFCFD",
"t 	c #FDFDFD",
"u 	c #AAB4C3",
"v 	c #8896AB",
"w 	c #ABB4C3",
"x 	c #C4CBD6",
"y 	c #F0F2F5",
"z 	c #F6F7F8",
"A 	c #DBDFE6",
"B 	c #4F5866",
"C 	c #293B56",
"D 	c #1E2A3E",
"E 	c #F5F6F8",
"F 	c #ECEFF2",
"G 	c #E1E5EA",
"H 	c #DADFE5",
"I 	c #F4F5F7",
"J 	c #F7F8F9",
"K 	c #F7F8FA",
"L 	c #4F617D",
"M 	c #C0C7D2",
"N 	c #B9C1CE",
"O 	c #EEF0F3",
"P 	c #E4E7EC",
"Q 	c #4B5564",
"R 	c #D4D9E1",
"S 	c #B9C1CD",
"T 	c #E9ECF0",
"U 	c #C8CED8",
"V 	c #4E5765",
"W 	c #293A55",
"X 	c #1E2B3E",
"Y 	c #A7B1C1",
"Z 	c #516077",
"` 	c #4E6282",
" .	c #71819A",
"..	c #E1E4E9",
"+.	c #7A89A1",
"@.	c #5B6E8B",
"#.	c #545F6F",
"$.	c #F8F9FA",
"%.	c #8C99AE",
"&.	c #97A3B6",
"*.	c #293A54",
"=.	c #1E2B3F",
"-.	c #586B89",
";.	c #B6BFCC",
">.	c #7D8CA3",
",.	c #525B69",
"'.	c #919EB2",
").	c #77869F",
"!.	c #B8C0CD",
"~.	c #283953",
"{.	c #8794AA",
"].	c #FAFAFB",
"^.	c #AEB7C6",
"/.	c #515A68",
"(.	c #ACB6C4",
"_.	c #CFD5DD",
":.	c #8A97AC",
"<.	c #6F7F99",
"[.	c #ADB6C5",
"}.	c #ECEEF1",
"|.	c #9EA9BA",
"1.	c #DADEE5",
"2.	c #657692",
"3.	c #1F2B3F",
"4.	c #6D7D98",
"5.	c #D3D8E0",
"6.	c #BCC4D0",
"7.	c #7C8BA2",
"8.	c #F1F3F5",
"9.	c #98A4B6",
"0.	c #A2ADBD",
"a.	c #75859E",
"b.	c #CED3DC",
"c.	c #1F2C40",
"d.	c #5F718E",
"e.	c #BDC4D0",
"f.	c #8A98AD",
"g.	c #D5DAE1",
"h.	c #C8CFD8",
"i.	c #5E708D",
"j.	c #9CA8B9",
"k.	c #8593A9",
"l.	c #FBFBFC",
"m.	c #ABB5C4",
"n.	c #70809A",
"o.	c #1F2C41",
"p.	c #697A95",
"q.	c #8290A7",
"r.	c #71829B",
"s.	c #4E6281",
"t.	c #4A5463",
"u.	c #818FA6",
"v.	c #7E8DA4",
"w.	c #6D7E98",
"x.	c #495362",
"y.	c #1F2D41",
"z.	c #202D42",
"A.	c #2A3B56",
"B.	c #202E43",
"C.	c #2A3C57",
"D.	c #1B2738",
"E.	c #2B3D5A",
"F.	c #212F44",
". + + @ @ # # $ $ $ $ % % % % & & & & & & * * * * = = = = - ; ; > > > > > > > > > > > > > > > > > > > > > > > > > > > > > > > > > > > > > > > > > > > , ' ",
") ! ! ! ! ! ! ! ! ! ! ! ! ! ! ! ! ! ! ! ! ! ! ! ! ! ! ! ! ! ! ! ! ! ! ! ! ! ! ! ! ! ! ! ! ! ! ! ! ! ! ! ! ! ! ! ! ! ! ! ! ! ! ! ! ! ! ! ! ! ! ! ! ! ! ! ~ ",
"{ ! ! ! ! ! ! ! ! ! ! ! ! ! ! ! ! ! ! ! ! ! ! ! ! ! ! ! ! ! ! ! ! ! ! ! ! ! ! ! ! ! ! ! ! ! ! ! ! ! ! ! ! ! ! ! ! ! ! ! ! ! ! ! ! ! ! ! ! ! ! ! ! ! ! ! ] ",
"{ ! ! ! ! ! ! ! ! ! ! ! ! ! ! ! ! ! ! ! ! ! ! ! ! ! ! ! ! ! ! ! ! ! ! ! ! ! ! ! ! ! ! ! ! ! ! ! ! ! ! ! ! ! ! ! ! ! ! ! ! ! ! ! ! ! ! ! ! ! ! ! ! ! ! ! ^ ",
"/ ! ! ! ! ! ! ! ! ! ! ! ! ! ! ! ! ! ( _ : ! ! ! ! ! ! ! ! ! ! ! ! ! ! ! ! ! ! ! ! ! ! ! ! ! ! ! ! ! ! ! ! ! ! ! ! ! ! ! ! ! ! ! ! ! ! ! ! ! ! ! ! ! ! ! < ",
"/ ! ! ! ! ! ! ! ! ! ! ! ! ! ! ! ! ! [ } | ! ! ! ! ! ! ! ! ! ! ! ! ! ! ! ! ! ! ! ! ! ! ! ! ! ! ! ! ! ! ! ! ! ! ! ! ! 1 2 3 ! ! ! ! ! ! ! ! ! ! ! ! ! ! ! < ",
"4 ! ! ! ! ! ! ! ! ! ! ! ! ! ! ! ! ! 5 6 7 ! ! ! ! ! ! ! ! ! ! ! ! ! ! ! ! ! ! ! ! ! ! ! ! ! ! ! ! ! ! ! ! ! ! ! ! ! 8 } 9 ! ! ! ! ! ! ! ! ! ! ! ! ! ! ! 0 ",
"4 ! ! ! ! ! ! ! ! ! ! ! ! ! ! ! ! ! a a ! ! ! a a ! ! ! 1 ! ! ! ! ! ! ! b a ! ! ! ! ! ! ! 1 ! ! ! ! ! ! a a ! ! c d 8 } 9 ! ! ! ! ! ! ! ! ! ! ! ! ! ! ! e ",
"f ! ! ! ! ! ! ! ! ! ! ! ! ! ! ! ! ! [ } g ! ! h } 7 i j } k l ! ! m n } } } o p ! ! q r s } t u c ! ! ! h } v w s x y } z A B ! ! ! ! ! ! ! ! ! ! ! ! ! C ",
"D ! ! ! ! ! ! ! ! ! ! ! ! ! ! ! ! ! [ } g ! ! h } E } F } } G ! ! H } I i J } K L ! M } s N O } P Q ! ! h } R } } S T } y U V ! ! ! ! ! ! ! ! ! ! ! ! ! W ",
"X ! ! ! ! ! ! ! ! ! ! ! ! ! ! ! ! ! [ } g ! ! h } G V ! Y } } Z ` } }  .! B ..T +.@.} } 3 ! #.$.} %.! ! h } z &.3 c 8 } 9 ! ! ! ! ! ! ! ! ! ! ! ! ! ! ! *.",
"=.! ! ! ! ! ! ! ! ! ! ! ! ! ! ! ! ! [ } g ! ! h } &.! ! p } } -.q h } I ;.>.,.! ! '.} O ).).).H } r ! ! h } !.! ! ! 8 } 9 ! ! ! ! ! ! ! ! ! ! ! ! ! ! ! ~.",
"=.! ! ! ! ! ! ! ! ! ! ! ! ! ! ! ! ! [ } g ! ! h } v ! ! @.} } -.! {.].} } } s ^./.(.} } } } } } } _.! ! h } :.! ! ! 8 } 9 ! ! ! ! ! ! ! ! ! ! ! ! ! ! ! ~.",
"=.! ! ! ! ! ! ! ! ! ! ! ! ! ! ! ! ! [ } g ! ! h } v ! ! @.} } -.! ! Q <.[.}.} } g |.} 1.2.2.2.2.2.@.! ! h } v ! ! ! 8 } 9 ! ! ! ! ! ! ! ! ! ! ! ! ! ! ! ' ",
"3.! ! ! ! ! ! ! ! ! ! ! ! ! ! ! ! ! [ } g ! ! h } v ! ! @.} } -.4.r [.a ! ! 5.} 6.7.} 8.d ! ! 9.0.a.! ! h } v ! ! ! 8 } b.! ! ! ! ! ! ! ! ! ! ! ! ! ! ! *.",
"c.! ! ! ! ! ! ! ! ! ! ! ! ! ! ! ! ! [ } g ! ! h } v ! ! @.} } -.d.} } R | e.j } f.Q G } g.:.h.} t i.! ! h } v ! ! ! j.} h k.Q ! ! ! ! ! ! ! ! ! ! ! ! ! *.",
"c.! ! ! ! ! ! ! ! ! ! ! ! ! ! ! ! ! [ } g ! ! h } v ! ! @.} } -.! :.l.} } } j m.! ! _ ..} } } E n.! ! ! h } v ! ! ! _ j } } /.! ! ! ! ! ! ! ! ! ! ! ! ! W ",
"o.! ! ! ! ! ! ! ! ! ! ! ! ! ! ! ! ! ! ! ! ! ! ! ! ! ! ! ! ! ! ! ! ! /.p.q.r.s.! ! ! ! t.i.u.l ! ! ! ! ! ! ! ! ! ! ! ! t.v.w.x.! ! ! ! ! ! ! ! ! ! ! ! ! W ",
"y.! ! ! ! ! ! ! ! ! ! ! ! ! ! ! ! ! ! ! ! ! ! ! ! ! ! ! ! ! ! ! ! ! ! ! ! ! ! ! ! ! ! ! ! ! ! ! ! ! ! ! ! ! ! ! ! ! ! ! ! ! ! ! ! ! ! ! ! ! ! ! ! ! ! ! C ",
"z.! ! ! ! ! ! ! ! ! ! ! ! ! ! ! ! ! ! ! ! ! ! ! ! ! ! ! ! ! ! ! ! ! ! ! ! ! ! ! ! ! ! ! ! ! ! ! ! ! ! ! ! ! ! ! ! ! ! ! ! ! ! ! ! ! ! ! ! ! ! ! ! ! ! ! A.",
"z.! ! ! ! ! ! ! ! ! ! ! ! ! ! ! ! ! ! ! ! ! ! ! ! ! ! ! ! ! ! ! ! ! ! ! ! ! ! ! ! ! ! ! ! ! ! ! ! ! ! ! ! ! ! ! ! ! ! ! ! ! ! ! ! ! ! ! ! ! ! ! ! ! ! ! e ",
"B.! ! ! ! ! ! ! ! ! ! ! ! ! ! ! ! ! ! ! ! ! ! ! ! ! ! ! ! ! ! ! ! ! ! ! ! ! ! ! ! ! ! ! ! ! ! ! ! ! ! ! ! ! ! ! ! ! ! ! ! ! ! ! ! ! ! ! ! ! ! ! ! ! ! ! C.",
"B.! ! ! ! ! ! ! ! ! ! ! ! ! ! ! ! ! ! ! ! ! ! ! ! ! ! ! ! ! ! ! ! ! ! ! ! ! ! ! ! ! ! ! ! ! ! ! ! ! ! ! ! ! ! ! ! ! ! ! ! ! ! ! ! ! ! ! ! ! ! ! ! ! ! ! 0 ",
"D.% % % % % % % % % & & & & & & & & & & & & & & * * * * * * * * * = = = = = = = * * * * & & & & & % % % $ $ $ # # @ + + + + + ~ ~ ~ ~ ] ] ] ^ E.E.< < < F."};
