/* XPM */
static char * insert_normal_xpm[] = {
"77 24 169 2",
"  	c None",
". 	c #172130",
"+ 	c #2D405D",
"@ 	c #2D405E",
"# 	c #2E415E",
"$ 	c #2E415F",
"% 	c #2E4160",
"& 	c #2E4260",
"* 	c #2F4261",
"= 	c #2F4361",
"- 	c #2F4362",
"; 	c #304463",
"> 	c #304464",
", 	c #304564",
"' 	c #314565",
") 	c #314666",
"! 	c #324667",
"~ 	c #283954",
"{ 	c #1C283B",
"] 	c #374E72",
"^ 	c #2C3F5C",
"/ 	c #1D293B",
"( 	c #2C3E5B",
"_ 	c #2C3E5A",
": 	c #1D293C",
"< 	c #536685",
"[ 	c #576A88",
"} 	c #455B7C",
"| 	c #2B3D59",
"1 	c #E5E8ED",
"2 	c #FFFFFF",
"3 	c #95A1B4",
"4 	c #546887",
"5 	c #677994",
"6 	c #5B6D8B",
"7 	c #1D2A3D",
"8 	c #D8DCE3",
"9 	c #F0F1F4",
"0 	c #8E9BAF",
"a 	c #B0B9C7",
"b 	c #CCD1DB",
"c 	c #2A3C58",
"d 	c #384F73",
"e 	c #556987",
"f 	c #405678",
"g 	c #3D5376",
"h 	c #2A3B57",
"i 	c #1E2A3D",
"j 	c #96A2B5",
"k 	c #F3F4F6",
"l 	c #C1C8D3",
"m 	c #FEFEFE",
"n 	c #EAECF0",
"o 	c #5C6F8C",
"p 	c #4F6383",
"q 	c #D7DCE3",
"r 	c #E0E3E9",
"s 	c #627490",
"t 	c #3C5275",
"u 	c #B2BBC9",
"v 	c #FCFCFD",
"w 	c #FDFDFD",
"x 	c #AAB4C3",
"y 	c #8896AB",
"z 	c #ABB4C3",
"A 	c #C4CBD6",
"B 	c #F0F2F5",
"C 	c #F6F7F8",
"D 	c #DBDFE6",
"E 	c #3F5578",
"F 	c #293B56",
"G 	c #1E2A3E",
"H 	c #F5F6F8",
"I 	c #ECEFF2",
"J 	c #E1E5EA",
"K 	c #DADFE5",
"L 	c #F4F5F7",
"M 	c #F7F8F9",
"N 	c #F7F8FA",
"O 	c #4C6080",
"P 	c #C0C7D2",
"Q 	c #B9C1CE",
"R 	c #EEF0F3",
"S 	c #E4E7EC",
"T 	c #3B5275",
"U 	c #D4D9E1",
"V 	c #B9C1CD",
"W 	c #E9ECF0",
"X 	c #C8CED8",
"Y 	c #3E5477",
"Z 	c #293A55",
"` 	c #1E2B3E",
" .	c #3E5476",
"..	c #A7B1C1",
"+.	c #4A5F7F",
"@.	c #4E6282",
"#.	c #71819A",
"$.	c #E1E4E9",
"%.	c #7A89A1",
"&.	c #5B6E8B",
"*.	c #475C7D",
"=.	c #F8F9FA",
"-.	c #8C99AE",
";.	c #97A3B6",
">.	c #293A54",
",.	c #1E2B3F",
"'.	c #586B89",
").	c #B6BFCC",
"!.	c #7D8CA3",
"~.	c #42587A",
"{.	c #919EB2",
"].	c #77869F",
"^.	c #B8C0CD",
"/.	c #283953",
"(.	c #8794AA",
"_.	c #FAFAFB",
":.	c #AEB7C6",
"<.	c #415779",
"[.	c #ACB6C4",
"}.	c #CFD5DD",
"|.	c #8A97AC",
"1.	c #6F7F99",
"2.	c #ADB6C5",
"3.	c #ECEEF1",
"4.	c #9EA9BA",
"5.	c #DADEE5",
"6.	c #657692",
"7.	c #1F2B3F",
"8.	c #6D7D98",
"9.	c #D3D8E0",
"0.	c #BCC4D0",
"a.	c #7C8BA2",
"b.	c #F1F3F5",
"c.	c #98A4B6",
"d.	c #A2ADBD",
"e.	c #75859E",
"f.	c #CED3DC",
"g.	c #1F2C40",
"h.	c #5F718E",
"i.	c #BDC4D0",
"j.	c #8A98AD",
"k.	c #D5DAE1",
"l.	c #C8CFD8",
"m.	c #5E708D",
"n.	c #9CA8B9",
"o.	c #8593A9",
"p.	c #FBFBFC",
"q.	c #ABB5C4",
"r.	c #70809A",
"s.	c #1F2C41",
"t.	c #697A95",
"u.	c #8290A7",
"v.	c #71829B",
"w.	c #4D6282",
"x.	c #3A5074",
"y.	c #818FA6",
"z.	c #3A5174",
"A.	c #7E8DA4",
"B.	c #6D7E98",
"C.	c #395073",
"D.	c #1F2D41",
"E.	c #202D42",
"F.	c #2A3B56",
"G.	c #202E43",
"H.	c #2A3C57",
"I.	c #1B2738",
"J.	c #2D3F5D",
"K.	c #2B3D5A",
"L.	c #212F44",
". + + @ @ # # $ $ $ $ % % & & * * * * = = - - - - ; ; ; ; > , , ' ' ' ' ' ' ) ) ) ) ) ) ) ) ) ) ) ) ) ) ) ) ) ) ) ) ) ) ) ) ) ) ) ) ) ) ) ) ) ) ) ) ) ! ~ ",
"{ ] ] ] ] ] ] ] ] ] ] ] ] ] ] ] ] ] ] ] ] ] ] ] ] ] ] ] ] ] ] ] ] ] ] ] ] ] ] ] ] ] ] ] ] ] ] ] ] ] ] ] ] ] ] ] ] ] ] ] ] ] ] ] ] ] ] ] ] ] ] ] ] ] ] ] ^ ",
"/ ] ] ] ] ] ] ] ] ] ] ] ] ] ] ] ] ] ] ] ] ] ] ] ] ] ] ] ] ] ] ] ] ] ] ] ] ] ] ] ] ] ] ] ] ] ] ] ] ] ] ] ] ] ] ] ] ] ] ] ] ] ] ] ] ] ] ] ] ] ] ] ] ] ] ] ( ",
"/ ] ] ] ] ] ] ] ] ] ] ] ] ] ] ] ] ] ] ] ] ] ] ] ] ] ] ] ] ] ] ] ] ] ] ] ] ] ] ] ] ] ] ] ] ] ] ] ] ] ] ] ] ] ] ] ] ] ] ] ] ] ] ] ] ] ] ] ] ] ] ] ] ] ] ] _ ",
": ] ] ] ] ] ] ] ] ] ] ] ] ] ] ] ] ] < [ } ] ] ] ] ] ] ] ] ] ] ] ] ] ] ] ] ] ] ] ] ] ] ] ] ] ] ] ] ] ] ] ] ] ] ] ] ] ] ] ] ] ] ] ] ] ] ] ] ] ] ] ] ] ] ] | ",
": ] ] ] ] ] ] ] ] ] ] ] ] ] ] ] ] ] 1 2 3 ] ] ] ] ] ] ] ] ] ] ] ] ] ] ] ] ] ] ] ] ] ] ] ] ] ] ] ] ] ] ] ] ] ] ] ] ] 4 5 6 ] ] ] ] ] ] ] ] ] ] ] ] ] ] ] | ",
"7 ] ] ] ] ] ] ] ] ] ] ] ] ] ] ] ] ] 8 9 0 ] ] ] ] ] ] ] ] ] ] ] ] ] ] ] ] ] ] ] ] ] ] ] ] ] ] ] ] ] ] ] ] ] ] ] ] ] a 2 b ] ] ] ] ] ] ] ] ] ] ] ] ] ] ] c ",
"7 ] ] ] ] ] ] ] ] ] ] ] ] ] ] ] ] ] d d ] ] ] d d ] ] ] 4 ] ] ] ] ] ] ] e d ] ] ] ] ] ] ] 4 ] ] ] ] ] ] d d ] ] f g a 2 b ] ] ] ] ] ] ] ] ] ] ] ] ] ] ] h ",
"i ] ] ] ] ] ] ] ] ] ] ] ] ] ] ] ] ] 1 2 j ] ] k 2 0 l m 2 n o ] ] p q 2 2 2 r s ] ] t u v 2 w x f ] ] ] k 2 y z v A B 2 C D E ] ] ] ] ] ] ] ] ] ] ] ] ] F ",
"G ] ] ] ] ] ] ] ] ] ] ] ] ] ] ] ] ] 1 2 j ] ] k 2 H 2 I 2 2 J ] ] K 2 L l M 2 N O ] P 2 v Q R 2 S T ] ] k 2 U 2 2 V W 2 B X Y ] ] ] ] ] ] ] ] ] ] ] ] ] Z ",
"` ] ] ] ] ] ] ] ] ] ] ] ] ] ] ] ] ] 1 2 j ] ] k 2 J  .] ..2 2 +.@.2 2 #.] E $.W %.&.2 2 6 ] *.=.2 -.] ] k 2 C ;.6 f a 2 b ] ] ] ] ] ] ] ] ] ] ] ] ] ] ] >.",
",.] ] ] ] ] ] ] ] ] ] ] ] ] ] ] ] ] 1 2 j ] ] k 2 ;.] ] s 2 2 '.t k 2 L ).!.~.] ] {.2 R ].].].K 2 u ] ] k 2 ^.] ] ] a 2 b ] ] ] ] ] ] ] ] ] ] ] ] ] ] ] /.",
",.] ] ] ] ] ] ] ] ] ] ] ] ] ] ] ] ] 1 2 j ] ] k 2 y ] ] &.2 2 '.] (._.2 2 2 v :.<.[.2 2 2 2 2 2 2 }.] ] k 2 |.] ] ] a 2 b ] ] ] ] ] ] ] ] ] ] ] ] ] ] ] /.",
",.] ] ] ] ] ] ] ] ] ] ] ] ] ] ] ] ] 1 2 j ] ] k 2 y ] ] &.2 2 '.] ] T 1.2.3.2 2 j 4.2 5.6.6.6.6.6.&.] ] k 2 y ] ] ] a 2 b ] ] ] ] ] ] ] ] ] ] ] ] ] ] ] ~ ",
"7.] ] ] ] ] ] ] ] ] ] ] ] ] ] ] ] ] 1 2 j ] ] k 2 y ] ] &.2 2 '.8.u 2.d ] ] 9.2 0.a.2 b.g ] ] c.d.e.] ] k 2 y ] ] ] a 2 f.] ] ] ] ] ] ] ] ] ] ] ] ] ] ] >.",
"g.] ] ] ] ] ] ] ] ] ] ] ] ] ] ] ] ] 1 2 j ] ] k 2 y ] ] &.2 2 '.h.2 2 U 3 i.m 2 j.T J 2 k.|.l.2 w m.] ] k 2 y ] ] ] n.2 k o.T ] ] ] ] ] ] ] ] ] ] ] ] ] >.",
"g.] ] ] ] ] ] ] ] ] ] ] ] ] ] ] ] ] 1 2 j ] ] k 2 y ] ] &.2 2 '.] |.p.2 2 2 m q.] ] [ $.2 2 2 H r.] ] ] k 2 y ] ] ] [ m 2 2 <.] ] ] ] ] ] ] ] ] ] ] ] ] Z ",
"s.] ] ] ] ] ] ] ] ] ] ] ] ] ] ] ] ] ] ] ] ] ] ] ] ] ] ] ] ] ] ] ] ] <.t.u.v.w.] ] ] ] x.m.y.o ] ] ] ] ] ] ] ] ] ] ] ] z.A.B.C.] ] ] ] ] ] ] ] ] ] ] ] ] Z ",
"D.] ] ] ] ] ] ] ] ] ] ] ] ] ] ] ] ] ] ] ] ] ] ] ] ] ] ] ] ] ] ] ] ] ] ] ] ] ] ] ] ] ] ] ] ] ] ] ] ] ] ] ] ] ] ] ] ] ] ] ] ] ] ] ] ] ] ] ] ] ] ] ] ] ] ] F ",
"E.] ] ] ] ] ] ] ] ] ] ] ] ] ] ] ] ] ] ] ] ] ] ] ] ] ] ] ] ] ] ] ] ] ] ] ] ] ] ] ] ] ] ] ] ] ] ] ] ] ] ] ] ] ] ] ] ] ] ] ] ] ] ] ] ] ] ] ] ] ] ] ] ] ] ] F.",
"E.] ] ] ] ] ] ] ] ] ] ] ] ] ] ] ] ] ] ] ] ] ] ] ] ] ] ] ] ] ] ] ] ] ] ] ] ] ] ] ] ] ] ] ] ] ] ] ] ] ] ] ] ] ] ] ] ] ] ] ] ] ] ] ] ] ] ] ] ] ] ] ] ] ] ] h ",
"G.] ] ] ] ] ] ] ] ] ] ] ] ] ] ] ] ] ] ] ] ] ] ] ] ] ] ] ] ] ] ] ] ] ] ] ] ] ] ] ] ] ] ] ] ] ] ] ] ] ] ] ] ] ] ] ] ] ] ] ] ] ] ] ] ] ] ] ] ] ] ] ] ] ] ] H.",
"G.] ] ] ] ] ] ] ] ] ] ] ] ] ] ] ] ] ] ] ] ] ] ] ] ] ] ] ] ] ] ] ] ] ] ] ] ] ] ] ] ] ] ] ] ] ] ] ] ] ] ] ] ] ] ] ] ] ] ] ] ] ] ] ] ] ] ] ] ] ] ] ] ] ] ] c ",
"I.% % % % & & & & & * * * * * * * * * = = = = = - - - - - - - - - ; ; ; ; ; ; ; - - - - = * * * * & % % $ $ $ # # @ + + + + J.^ ^ ^ ^ ( ( ( _ K.K.| | | L."};
