/* XPM */
static char * insert_selected_xpm[] = {
"77 24 166 2",
"  	c None",
". 	c #172130",
"+ 	c #2C475B",
"@ 	c #2B4B5B",
"# 	c #2C4C5B",
"$ 	c #2B515B",
"% 	c #2A575B",
"& 	c #2B5C5B",
"* 	c #2B5D5B",
"= 	c #29625A",
"- 	c #29685A",
"; 	c #2A695B",
"> 	c #2A695A",
", 	c #2A6B5C",
"' 	c #2B6C5D",
") 	c #283954",
"! 	c #1C283B",
"~ 	c #2F7868",
"{ 	c #2C415B",
"] 	c #1D293B",
"^ 	c #2C3E5B",
"/ 	c #2C3E5A",
"( 	c #1D293C",
"_ 	c #536685",
": 	c #576A88",
"< 	c #3E8172",
"[ 	c #2B3D59",
"} 	c #E5E8ED",
"| 	c #FFFFFF",
"1 	c #95A1B4",
"2 	c #546887",
"3 	c #677994",
"4 	c #5B6D8B",
"5 	c #1D2A3D",
"6 	c #D8DCE3",
"7 	c #F0F1F4",
"8 	c #8E9BAF",
"9 	c #B0B9C7",
"0 	c #CCD1DB",
"a 	c #2A3C58",
"b 	c #317868",
"c 	c #556987",
"d 	c #397E6E",
"e 	c #367B6C",
"f 	c #2A3B57",
"g 	c #1E2A3D",
"h 	c #96A2B5",
"i 	c #F3F4F6",
"j 	c #C1C8D3",
"k 	c #FEFEFE",
"l 	c #EAECF0",
"m 	c #5C6F8C",
"n 	c #4F6383",
"o 	c #D7DCE3",
"p 	c #E0E3E9",
"q 	c #627490",
"r 	c #357A6B",
"s 	c #B2BBC9",
"t 	c #FCFCFD",
"u 	c #FDFDFD",
"v 	c #AAB4C3",
"w 	c #8896AB",
"x 	c #ABB4C3",
"y 	c #C4CBD6",
"z 	c #F0F2F5",
"A 	c #F6F7F8",
"B 	c #DBDFE6",
"C 	c #387D6E",
"D 	c #293B56",
"E 	c #1E2A3E",
"F 	c #F5F6F8",
"G 	c #ECEFF2",
"H 	c #E1E5EA",
"I 	c #DADFE5",
"J 	c #F4F5F7",
"K 	c #F7F8F9",
"L 	c #F7F8FA",
"M 	c #4B687E",
"N 	c #C0C7D2",
"O 	c #B9C1CE",
"P 	c #EEF0F3",
"Q 	c #E4E7EC",
"R 	c #347B6B",
"S 	c #D4D9E1",
"T 	c #B9C1CD",
"U 	c #E9ECF0",
"V 	c #C8CED8",
"W 	c #377C6D",
"X 	c #293A55",
"Y 	c #1E2B3E",
"Z 	c #377C6C",
"` 	c #A7B1C1",
" .	c #47707A",
"..	c #4E6282",
"+.	c #71819A",
"@.	c #E1E4E9",
"#.	c #7A89A1",
"$.	c #5B6E8B",
"%.	c #417E75",
"&.	c #F8F9FA",
"*.	c #8C99AE",
"=.	c #97A3B6",
"-.	c #293A54",
";.	c #1E2B3F",
">.	c #586B89",
",.	c #B6BFCC",
"'.	c #7D8CA3",
").	c #3C7F70",
"!.	c #919EB2",
"~.	c #77869F",
"{.	c #B8C0CD",
"].	c #283953",
"^.	c #8794AA",
"/.	c #FAFAFB",
"(.	c #AEB7C6",
"_.	c #3A7F6F",
":.	c #ACB6C4",
"<.	c #CFD5DD",
"[.	c #8A97AC",
"}.	c #6F7F99",
"|.	c #ADB6C5",
"1.	c #ECEEF1",
"2.	c #9EA9BA",
"3.	c #DADEE5",
"4.	c #657692",
"5.	c #1F2B3F",
"6.	c #6D7D98",
"7.	c #D3D8E0",
"8.	c #BCC4D0",
"9.	c #7C8BA2",
"0.	c #F1F3F5",
"a.	c #98A4B6",
"b.	c #A2ADBD",
"c.	c #75859E",
"d.	c #CED3DC",
"e.	c #1F2C40",
"f.	c #5F718E",
"g.	c #BDC4D0",
"h.	c #8A98AD",
"i.	c #D5DAE1",
"j.	c #C8CFD8",
"k.	c #5E708D",
"l.	c #9CA8B9",
"m.	c #8593A9",
"n.	c #FBFBFC",
"o.	c #ABB5C4",
"p.	c #70809A",
"q.	c #1F2C41",
"r.	c #697A95",
"s.	c #8290A7",
"t.	c #71829B",
"u.	c #4D6481",
"v.	c #337A6A",
"w.	c #818FA6",
"x.	c #7E8DA4",
"y.	c #6D7E98",
"z.	c #327969",
"A.	c #1F2D41",
"B.	c #202D42",
"C.	c #2A3B56",
"D.	c #202E43",
"E.	c #2A3C57",
"F.	c #1B2738",
"G.	c #2C465C",
"H.	c #2B3D5A",
"I.	c #212F44",
". + + @ @ # # $ $ $ $ % % % % & & & & * * = = = = - - - - ; > > , , , , , , , , , , , , , , , , , , , , , , , , , , , , , , , , , , , , , , , , , , , ' ) ",
"! ~ ~ ~ ~ ~ ~ ~ ~ ~ ~ ~ ~ ~ ~ ~ ~ ~ ~ ~ ~ ~ ~ ~ ~ ~ ~ ~ ~ ~ ~ ~ ~ ~ ~ ~ ~ ~ ~ ~ ~ ~ ~ ~ ~ ~ ~ ~ ~ ~ ~ ~ ~ ~ ~ ~ ~ ~ ~ ~ ~ ~ ~ ~ ~ ~ ~ ~ ~ ~ ~ ~ ~ ~ ~ ~ { ",
"] ~ ~ ~ ~ ~ ~ ~ ~ ~ ~ ~ ~ ~ ~ ~ ~ ~ ~ ~ ~ ~ ~ ~ ~ ~ ~ ~ ~ ~ ~ ~ ~ ~ ~ ~ ~ ~ ~ ~ ~ ~ ~ ~ ~ ~ ~ ~ ~ ~ ~ ~ ~ ~ ~ ~ ~ ~ ~ ~ ~ ~ ~ ~ ~ ~ ~ ~ ~ ~ ~ ~ ~ ~ ~ ~ ^ ",
"] ~ ~ ~ ~ ~ ~ ~ ~ ~ ~ ~ ~ ~ ~ ~ ~ ~ ~ ~ ~ ~ ~ ~ ~ ~ ~ ~ ~ ~ ~ ~ ~ ~ ~ ~ ~ ~ ~ ~ ~ ~ ~ ~ ~ ~ ~ ~ ~ ~ ~ ~ ~ ~ ~ ~ ~ ~ ~ ~ ~ ~ ~ ~ ~ ~ ~ ~ ~ ~ ~ ~ ~ ~ ~ ~ / ",
"( ~ ~ ~ ~ ~ ~ ~ ~ ~ ~ ~ ~ ~ ~ ~ ~ ~ _ : < ~ ~ ~ ~ ~ ~ ~ ~ ~ ~ ~ ~ ~ ~ ~ ~ ~ ~ ~ ~ ~ ~ ~ ~ ~ ~ ~ ~ ~ ~ ~ ~ ~ ~ ~ ~ ~ ~ ~ ~ ~ ~ ~ ~ ~ ~ ~ ~ ~ ~ ~ ~ ~ ~ ~ [ ",
"( ~ ~ ~ ~ ~ ~ ~ ~ ~ ~ ~ ~ ~ ~ ~ ~ ~ } | 1 ~ ~ ~ ~ ~ ~ ~ ~ ~ ~ ~ ~ ~ ~ ~ ~ ~ ~ ~ ~ ~ ~ ~ ~ ~ ~ ~ ~ ~ ~ ~ ~ ~ ~ ~ ~ ~ 2 3 4 ~ ~ ~ ~ ~ ~ ~ ~ ~ ~ ~ ~ ~ ~ ~ [ ",
"5 ~ ~ ~ ~ ~ ~ ~ ~ ~ ~ ~ ~ ~ ~ ~ ~ ~ 6 7 8 ~ ~ ~ ~ ~ ~ ~ ~ ~ ~ ~ ~ ~ ~ ~ ~ ~ ~ ~ ~ ~ ~ ~ ~ ~ ~ ~ ~ ~ ~ ~ ~ ~ ~ ~ ~ ~ 9 | 0 ~ ~ ~ ~ ~ ~ ~ ~ ~ ~ ~ ~ ~ ~ ~ a ",
"5 ~ ~ ~ ~ ~ ~ ~ ~ ~ ~ ~ ~ ~ ~ ~ ~ ~ b b ~ ~ ~ b b ~ ~ ~ 2 ~ ~ ~ ~ ~ ~ ~ c b ~ ~ ~ ~ ~ ~ ~ 2 ~ ~ ~ ~ ~ ~ b b ~ ~ d e 9 | 0 ~ ~ ~ ~ ~ ~ ~ ~ ~ ~ ~ ~ ~ ~ ~ f ",
"g ~ ~ ~ ~ ~ ~ ~ ~ ~ ~ ~ ~ ~ ~ ~ ~ ~ } | h ~ ~ i | 8 j k | l m ~ ~ n o | | | p q ~ ~ r s t | u v d ~ ~ ~ i | w x t y z | A B C ~ ~ ~ ~ ~ ~ ~ ~ ~ ~ ~ ~ ~ D ",
"E ~ ~ ~ ~ ~ ~ ~ ~ ~ ~ ~ ~ ~ ~ ~ ~ ~ } | h ~ ~ i | F | G | | H ~ ~ I | J j K | L M ~ N | t O P | Q R ~ ~ i | S | | T U | z V W ~ ~ ~ ~ ~ ~ ~ ~ ~ ~ ~ ~ ~ X ",
"Y ~ ~ ~ ~ ~ ~ ~ ~ ~ ~ ~ ~ ~ ~ ~ ~ ~ } | h ~ ~ i | H Z ~ ` | |  ...| | +.~ C @.U #.$.| | 4 ~ %.&.| *.~ ~ i | A =.4 d 9 | 0 ~ ~ ~ ~ ~ ~ ~ ~ ~ ~ ~ ~ ~ ~ ~ -.",
";.~ ~ ~ ~ ~ ~ ~ ~ ~ ~ ~ ~ ~ ~ ~ ~ ~ } | h ~ ~ i | =.~ ~ q | | >.r i | J ,.'.).~ ~ !.| P ~.~.~.I | s ~ ~ i | {.~ ~ ~ 9 | 0 ~ ~ ~ ~ ~ ~ ~ ~ ~ ~ ~ ~ ~ ~ ~ ].",
";.~ ~ ~ ~ ~ ~ ~ ~ ~ ~ ~ ~ ~ ~ ~ ~ ~ } | h ~ ~ i | w ~ ~ $.| | >.~ ^./.| | | t (._.:.| | | | | | | <.~ ~ i | [.~ ~ ~ 9 | 0 ~ ~ ~ ~ ~ ~ ~ ~ ~ ~ ~ ~ ~ ~ ~ ].",
";.~ ~ ~ ~ ~ ~ ~ ~ ~ ~ ~ ~ ~ ~ ~ ~ ~ } | h ~ ~ i | w ~ ~ $.| | >.~ ~ R }.|.1.| | h 2.| 3.4.4.4.4.4.$.~ ~ i | w ~ ~ ~ 9 | 0 ~ ~ ~ ~ ~ ~ ~ ~ ~ ~ ~ ~ ~ ~ ~ ) ",
"5.~ ~ ~ ~ ~ ~ ~ ~ ~ ~ ~ ~ ~ ~ ~ ~ ~ } | h ~ ~ i | w ~ ~ $.| | >.6.s |.b ~ ~ 7.| 8.9.| 0.e ~ ~ a.b.c.~ ~ i | w ~ ~ ~ 9 | d.~ ~ ~ ~ ~ ~ ~ ~ ~ ~ ~ ~ ~ ~ ~ -.",
"e.~ ~ ~ ~ ~ ~ ~ ~ ~ ~ ~ ~ ~ ~ ~ ~ ~ } | h ~ ~ i | w ~ ~ $.| | >.f.| | S 1 g.k | h.R H | i.[.j.| u k.~ ~ i | w ~ ~ ~ l.| i m.R ~ ~ ~ ~ ~ ~ ~ ~ ~ ~ ~ ~ ~ -.",
"e.~ ~ ~ ~ ~ ~ ~ ~ ~ ~ ~ ~ ~ ~ ~ ~ ~ } | h ~ ~ i | w ~ ~ $.| | >.~ [.n.| | | k o.~ ~ : @.| | | F p.~ ~ ~ i | w ~ ~ ~ : k | | _.~ ~ ~ ~ ~ ~ ~ ~ ~ ~ ~ ~ ~ X ",
"q.~ ~ ~ ~ ~ ~ ~ ~ ~ ~ ~ ~ ~ ~ ~ ~ ~ ~ ~ ~ ~ ~ ~ ~ ~ ~ ~ ~ ~ ~ ~ ~ ~ _.r.s.t.u.~ ~ ~ ~ v.k.w.m ~ ~ ~ ~ ~ ~ ~ ~ ~ ~ ~ ~ v.x.y.z.~ ~ ~ ~ ~ ~ ~ ~ ~ ~ ~ ~ ~ X ",
"A.~ ~ ~ ~ ~ ~ ~ ~ ~ ~ ~ ~ ~ ~ ~ ~ ~ ~ ~ ~ ~ ~ ~ ~ ~ ~ ~ ~ ~ ~ ~ ~ ~ ~ ~ ~ ~ ~ ~ ~ ~ ~ ~ ~ ~ ~ ~ ~ ~ ~ ~ ~ ~ ~ ~ ~ ~ ~ ~ ~ ~ ~ ~ ~ ~ ~ ~ ~ ~ ~ ~ ~ ~ ~ ~ D ",
"B.~ ~ ~ ~ ~ ~ ~ ~ ~ ~ ~ ~ ~ ~ ~ ~ ~ ~ ~ ~ ~ ~ ~ ~ ~ ~ ~ ~ ~ ~ ~ ~ ~ ~ ~ ~ ~ ~ ~ ~ ~ ~ ~ ~ ~ ~ ~ ~ ~ ~ ~ ~ ~ ~ ~ ~ ~ ~ ~ ~ ~ ~ ~ ~ ~ ~ ~ ~ ~ ~ ~ ~ ~ ~ ~ C.",
"B.~ ~ ~ ~ ~ ~ ~ ~ ~ ~ ~ ~ ~ ~ ~ ~ ~ ~ ~ ~ ~ ~ ~ ~ ~ ~ ~ ~ ~ ~ ~ ~ ~ ~ ~ ~ ~ ~ ~ ~ ~ ~ ~ ~ ~ ~ ~ ~ ~ ~ ~ ~ ~ ~ ~ ~ ~ ~ ~ ~ ~ ~ ~ ~ ~ ~ ~ ~ ~ ~ ~ ~ ~ ~ ~ f ",
"D.~ ~ ~ ~ ~ ~ ~ ~ ~ ~ ~ ~ ~ ~ ~ ~ ~ ~ ~ ~ ~ ~ ~ ~ ~ ~ ~ ~ ~ ~ ~ ~ ~ ~ ~ ~ ~ ~ ~ ~ ~ ~ ~ ~ ~ ~ ~ ~ ~ ~ ~ ~ ~ ~ ~ ~ ~ ~ ~ ~ ~ ~ ~ ~ ~ ~ ~ ~ ~ ~ ~ ~ ~ ~ ~ E.",
"D.~ ~ ~ ~ ~ ~ ~ ~ ~ ~ ~ ~ ~ ~ ~ ~ ~ ~ ~ ~ ~ ~ ~ ~ ~ ~ ~ ~ ~ ~ ~ ~ ~ ~ ~ ~ ~ ~ ~ ~ ~ ~ ~ ~ ~ ~ ~ ~ ~ ~ ~ ~ ~ ~ ~ ~ ~ ~ ~ ~ ~ ~ ~ ~ ~ ~ ~ ~ ~ ~ ~ ~ ~ ~ ~ a ",
"F.% % % % % % % % % & & & & & & & & & * * * * * = = = = = = = = = - - - - - - - = = = = * & & & & % % % $ $ $ # # @ + + + + G.{ { { { ^ ^ ^ / H.H.[ [ [ I."};
