/* XPM */
static char *load_normal[] = {
/* columns rows colors chars-per-pixel */
"46 25 35 1",
"  c #101621",
". c #141C29",
"X c #141C2A",
"o c #141D2A",
"O c #151D2B",
"+ c #151E2B",
"@ c #151E2C",
"# c #161F2D",
"$ c #161F2E",
"% c #16202E",
"& c #17202F",
"* c #172130",
"= c #182131",
"- c #182231",
"; c #202D42",
": c #202E43",
"> c #212E44",
", c #212F44",
"< c #212F45",
"1 c #223046",
"2 c #223047",
"3 c #233148",
"4 c #233249",
"5 c #24334A",
"6 c #24334B",
"7 c #374E72",
"8 c #4D6181",
"9 c #637591",
"0 c #7A89A1",
"q c #909CB0",
"w c #A6B0C0",
"e c #BCC4D0",
"r c #D2D7DF",
"t c #E8EBEF",
"y c gray100",
/* pixels */
"777777777777777777777777777777777777777777777;",
"777777777777777777777777777777777777777777777;",
"777777777777777777777777777777777777777777777;",
"777777777777777777777777777777777777777777777:",
"777777777777777777777777777777777777777777777:",
"777777777777777777777777777777777777777777777:",
"777777900777777777777777777777777777700977777:",
"777777eyy7777777777777777777777777777yye77777:",
"777777eyy7777777777777777777777777777yye77777:",
"777777eyy7778qeew97778qeeew977778weq7yye77777:",
"777777eyy778tyyyyy0770yyyyyyw778tyyytyye77777:",
"777777eyy77tyyq0tyy9790778eyy87wyye0tyye77777:",
"777777eyy79yyw779yyw777900wyy07tyr778yye77777:",
"777777eyy70yy0777yye70tyyyyyy07yye777yye777771",
"777777eyy70yy0778yye7tytq0wyy07yye777yye77777:",
"777777eyy77yyt87eyy07yye77eyy07eyy97eyye777772",
"777777eyy770yyyyyye77ryyeryyy079yyyyyyye777772",
"777777eyy7770ryytw7778ryywqyy0770tyr9yye777772",
"7777777777777777777777777777777777777777777772",
"7777777777777777777777777777777777777777777774",
"7777777777777777777777777777777777777777777772",
"7777777777777777777777777777777777777777777774",
"7777777777777777777777777777777777777777777775",
"7777777777777777777777777777777777777777777775",
"XXXXXX%.XXXXXXXXX......XXXXXX%X%%%%%%%&&%-%-& "
};
