/* XPM */
static char *multiply_active[] = {
/* columns rows colors chars-per-pixel */
"96 33 10 1",
"  c #750924",
". c #84243C",
"X c #933F54",
"o c #A35B6D",
"O c #B27685",
"+ c #C1919D",
"@ c #D1ADB6",
"# c #E0C8CE",
"$ c #EFE3E6",
"% c gray100",
/* pixels */
"                                                                                                ",
"                                                                                                ",
"                                                                                                ",
"                                                                                                ",
"                                                                                                ",
"                                                                                                ",
"                                                                                                ",
"                                                                                                ",
"                                                                                                ",
"                                                                                                ",
"                                          @%%   ooX    @%%              %%@                     ",
"                                          @%%   %%@    @%%              %%@                     ",
"                                          @%%   %%@    Xoo              %%@                     ",
"              O@@X#%$O +$%#.   @@O   @@O  @%% X@%%$@@O O@@  X@@X+%%#.   %%@ o@@X   O@@.         ",
"              @%%%%%%%#%%%%$   %%@   %%@  @%% o%%%%%%@ @%%  o%%%%%%%$.  %%@ .%%+   $%$          ",
"              @%%@ o%%%o @%%o  %%@   %%@  @%% .o%%#ooX @%%  o%%$. @%%+  %%@  #%%  X%%O          ",
"              @%%.  %%#  o%%o  %%@   %%@  @%%   %%@    @%%  o%%O  .%%$  %%@  X%%O +%%.          ",
"              @%%   %%@  o%%o  %%@   %%@  @%%   %%@    @%%  o%%o   %%%  %%@   $%# $%@           ",
"              @%%   %%@  o%%o  %%@   %%@  @%%   %%@    @%%  o%%o   %%%  %%@   O%%O%%X           ",
"              @%%   %%@  o%%o  %%#  O%%@  @%%   %%#    @%%  o%%#  O%%@  %%@    $%$%$            ",
"              @%%   %%@  o%%o  #%%#@%%%@  @%%   #%%%%o @%%  o%%%#@%%%X  %%@    +%%%O            ",
"              @%%   %%@  o%%o  .$%%%O%%@  @%%   .#%%%o @%%  o%%@$%%%O   %%@    .%%%.            ",
"                                 oo.                        o%%o oo.            $%@             ",
"                                                            o%%o             X@#%%X             ",
"                                                            o%%o             o%%%@              ",
"                                                                                                ",
"                                                                                                ",
"                                                                                                ",
"                                                                                                ",
"                                                                                                ",
"                                                                                                ",
"                                                                                                ",
"                                                                                                "
};
