/* XPM */
static char * multiply_disabled_xpm[] = {
"96 33 165 2",
"  	c None",
". 	c #26354E",
"+ 	c #475160",
"@ 	c #26364E",
"# 	c #25354D",
"$ 	c #25344C",
"% 	c #5F728E",
"& 	c #6C7D97",
"* 	c #61738F",
"= 	c #D1D6DE",
"- 	c #FFFFFF",
"; 	c #D5DAE1",
"> 	c #506484",
", 	c #4B5564",
"' 	c #96A2B5",
") 	c #535F72",
"! 	c #495260",
"~ 	c #24344C",
"{ 	c #CCD1DB",
"] 	c #DCE0E6",
"^ 	c #A1ACBD",
"/ 	c #7A89A1",
"( 	c #D7DCE3",
"_ 	c #F8F9FA",
": 	c #B9C1CE",
"< 	c #4F617D",
"[ 	c #515A68",
"} 	c #B5BDCB",
"| 	c #F6F7F8",
"1 	c #ECEEF1",
"2 	c #C1C8D3",
"3 	c #545D6B",
"4 	c #D2D7DF",
"5 	c #9EA9BA",
"6 	c #A3ADBE",
"7 	c #CDD3DC",
"8 	c #94A0B3",
"9 	c #BAC2CE",
"0 	c #77869F",
"a 	c #B6BFCC",
"b 	c #73839C",
"c 	c #F7F8FA",
"d 	c #C5CCD6",
"e 	c #697B95",
"f 	c #A7B1C1",
"g 	c #555E6C",
"h 	c #CFD4DD",
"i 	c #ACB6C4",
"j 	c #EBEDF1",
"k 	c #E7EAEE",
"l 	c #F7F8F9",
"m 	c #E1E5EA",
"n 	c #F2F3F6",
"o 	c #B4BDCA",
"p 	c #ECEFF2",
"q 	c #9DA8BA",
"r 	c #D9DDE4",
"s 	c #FBFCFC",
"t 	c #FCFCFD",
"u 	c #71829B",
"v 	c #7E8DA4",
"w 	c #8593A9",
"x 	c #576B89",
"y 	c #24334B",
"z 	c #B6BECB",
"A 	c #C8CFD8",
"B 	c #F1F3F5",
"C 	c #8C99AE",
"D 	c #627490",
"E 	c #E6E9ED",
"F 	c #FBFBFC",
"G 	c #505967",
"H 	c #546786",
"I 	c #4E5765",
"J 	c #C8CED8",
"K 	c #566988",
"L 	c #8391A7",
"M 	c #4A5463",
"N 	c #4F5866",
"O 	c #F5F6F8",
"P 	c #919DB1",
"Q 	c #F9FAFB",
"R 	c #535C6A",
"S 	c #E3E6EB",
"T 	c #637591",
"U 	c #ABB4C3",
"V 	c #9CA8B9",
"W 	c #536075",
"X 	c #FEFEFE",
"Y 	c #6B7C97",
"Z 	c #CAD0D9",
"` 	c #BCC4D0",
" .	c #5B6E8B",
"..	c #95A1B4",
"+.	c #DBDFE6",
"@.	c #697A95",
"#.	c #8996AC",
"$.	c #6E7F99",
"%.	c #74849D",
"&.	c #FAFAFB",
"*.	c #7B8AA2",
"=.	c #BBC3CF",
"-.	c #516584",
";.	c #495362",
">.	c #B0B9C7",
",.	c #CCD2DB",
"'.	c #F4F5F7",
").	c #78879F",
"!.	c #A6B0C0",
"~.	c #AFB8C7",
"{.	c #B7BFCC",
"].	c #F3F4F6",
"^.	c #525B69",
"/.	c #71819A",
"(.	c #4E6282",
"_.	c #D3D8E0",
":.	c #516077",
"<.	c #5E708D",
"[.	c #26364F",
"}.	c #FDFDFD",
"|.	c #DFE3E8",
"1.	c #8A98AD",
"2.	c #C2C9D4",
"3.	c #C4CBD6",
"4.	c #F0F2F5",
"5.	c #AAB4C3",
"6.	c #DEE1E7",
"7.	c #EFF1F3",
"8.	c #4F6383",
"9.	c #F0F1F4",
"0.	c #B9C1CD",
"a.	c #C7CDD7",
"b.	c #B8C0CD",
"c.	c #4D5664",
"d.	c #ADB6C5",
"e.	c #8794AA",
"f.	c #586B89",
"g.	c #6A7B96",
"h.	c #8896AB",
"i.	c #4E6281",
"j.	c #667793",
"k.	c #677994",
"l.	c #EAECF0",
"m.	c #8B98AD",
"n.	c #263650",
"o.	c #8492A8",
"p.	c #DADEE5",
"q.	c #ABB5C4",
"r.	c #273750",
"s.	c #273751",
"t.	c #1F2C40",
"u.	c #394456",
"v.	c #3B4554",
"w.	c #3E4653",
"x.	c #3F4754",
"y.	c #3F4854",
"z.	c #404855",
"A.	c #364357",
"B.	c #344258",
"C.	c #334259",
"D.	c #314159",
"E.	c #30405A",
"F.	c #2D3F5B",
"G.	c #2C3E5B",
"H.	c #2C3E5A",
". + + + + + + + + + + + + + + + + + + + + + + + + + + + + + + + + + + + + + + + + + + + + + + + + + + + + + + + + + + + + + + + + + + + + + + + + + + + + + + + + + + + + + + + + + + + + + + @ ",
"# + + + + + + + + + + + + + + + + + + + + + + + + + + + + + + + + + + + + + + + + + + + + + + + + + + + + + + + + + + + + + + + + + + + + + + + + + + + + + + + + + + + + + + + + + + + + + + @ ",
"# + + + + + + + + + + + + + + + + + + + + + + + + + + + + + + + + + + + + + + + + + + + + + + + + + + + + + + + + + + + + + + + + + + + + + + + + + + + + + + + + + + + + + + + + + + + + + + @ ",
"# + + + + + + + + + + + + + + + + + + + + + + + + + + + + + + + + + + + + + + + + + + + + + + + + + + + + + + + + + + + + + + + + + + + + + + + + + + + + + + + + + + + + + + + + + + + + + + @ ",
"# + + + + + + + + + + + + + + + + + + + + + + + + + + + + + + + + + + + + + + + + + + + + + + + + + + + + + + + + + + + + + + + + + + + + + + + + + + + + + + + + + + + + + + + + + + + + + + @ ",
"# + + + + + + + + + + + + + + + + + + + + + + + + + + + + + + + + + + + + + + + + + + + + + + + + + + + + + + + + + + + + + + + + + + + + + + + + + + + + + + + + + + + + + + + + + + + + + + @ ",
"$ + + + + + + + + + + + + + + + + + + + + + + + + + + + + + + + + + + + + + + + + + + + + + + + + + + + + + + + + + + + + + + + + + + + + + + + + + + + + + + + + + + + + + + + + + + + + + + @ ",
"$ + + + + + + + + + + + + + + + + + + + + + + + + + + + + + + + + + + + + + + + + % & * + + + + + + + + % & * + + + + + + + + + + + + + % & * + + + + + + + + + + + + + + + + + + + + + + + + @ ",
"$ + + + + + + + + + + + + + + + + + + + + + + + + + + + + + + + + + + + + + + + + = - ; + + > & & , + + = - ; + + + + + + + + + + + + + = - ; + + + + + + + + + + + + + + + + + + + + + + + + @ ",
"$ + + + + + + + + + + + + + + + + + + + + + + + + + + + + + + + + + + + + + + + + = - ; + + ' - - ) + + = - ; + + + + + + + + + + + + + = - ; + + + + + + + + + + + + + + + + + + + + + + + + @ ",
"$ + + + + + + + + + + + + + + + + + + + + + + + + + + + + + + + + + + + + + + + + = - ; + + ' - - ) + + ! ! ! + + + + + + + + + + + + + = - ; + + + + + + + + + + + + + + + + + + + + + + + + @ ",
"~ + + + + + + + + + + + + { ] ^ / ( _ : < [ } | 1 2 3 + + 4 ] 5 + + + 6 ] 7 + + + = - ; + 8 ( - - 9 0 + a ] : + + 4 ] 5 b = c d e + + + = - ; + f ] ] g + + + h ] i + + + + + + + + + + + + + @ ",
"~ + + + + + + + + + + + + j - k - - - - l m - - - - 2 + + n - o + + + : - p + + + = - ; + { - - - - q + = - ; + + n - r s - - - t u + + = - ; + v - - w + + x - - w + + + + + + + + + + + + + @ ",
"y + + + + + + + + + + + + j - - z * A - - B C D E - F , + n - o + + + : - p + + + = - ; + G q - - H I + = - ; + + n - - J K L l - E M + = - ; + N O - 2 + + P - Q R + + + + + + + + + + + + + @ ",
"y + + + + + + + + + + + + j - S + + T - - U + + V - - W + n - o + + + : - p + + + = - ; + + ' - - ) + + = - ; + + n - X W + + q - - Y + = - ; + + z - l I + Z - 2 + + + + + + + + + + + + + + @ ",
"y + + + + + + + + + + + + j - ` + +  .- - L + + ..- - W + n - o + + + : - p + + + = - ; + + ' - - ) + + = - ; + + n - +.+ + + @.- - #.+ = - ; + + $.- - %.G &.- *.+ + + + + + + + + + + + + + @ ",
"y + + + + + + + + + + + + j - =.+ +  .- - L + + ..- - W + n - o + + + : - p + + + = - ; + + ' - - ) + + = - ; + + n - d + + + -.- - 8 + = - ; + + ;.1 - >.%.- O I + + + + + + + + + + + + + + @ ",
"y + + + + + + + + + + + + j - =.+ +  .- - L + + ..- - W + n - ` + + + ,.- p + + + = - ; + + ' - - ) + + = - ; + + n - '.M + + w - - ).+ = - ; + + + !.- 1 ~.- {.+ + + + + + + + + + + + + + + @ ",
"y + + + + + + + + + + + + j - =.+ +  .- - L + + ..- - W + S - ].^.+ /.X - p + + + = - ; + + ' - - (.+ + = - ; + + n - - v + M _.- s :.+ = - ; + + + <.- - _ - u + + + + + + + + + + + + + + + [.",
"y + + + + + + + + + + + + j - =.+ +  .- - L + + ..- - W + {.- - }.|.- s - p + + + = - ; + + 1.- - 2./.+ = - ; + + n - t t 3.4.- - 5.+ + = - ; + + + + 6.- - 7.M + + + + + + + + + + + + + + + [.",
"y + + + + + + + + + + + + j - =.+ +  .- - L + + ..- - W + 8.B - - - z ` - p + + + = - ; + + :.9.- - q + = - ; + + n - 0.a.- - - b.c.+ + = - ; + + + + ' - - d.+ + + + + + + + + + + + + + + + [.",
"y + + + + + + + + + + + + + + + + + + + + + + + + + + + + + I $.e.f.+ + + + + + + + + + + + + ! g.h.i.+ + + + + + n - o M T #.f.+ + + + + + + + + + + j.- - k.+ + + + + + + + + + + + + + + + [.",
"y + + + + + + + + + + + + + + + + + + + + + + + + + + + + + + + + + + + + + + + + + + + + + + + + + + + + + + + + n - o + + + + + + + + + + + + + + M 9 - l.+ + + + + + + + + + + + + + + + + [.",
"y + + + + + + + + + + + + + + + + + + + + + + + + + + + + + + + + + + + + + + + + + + + + + + + + + + + + + + + + n - o + + + + + + + + + + + + + m.| - - P + + + + + + + + + + + + + + + + + n.",
"~ + + + + + + + + + + + + + + + + + + + + + + + + + + + + + + + + + + + + + + + + + + + + + + + + + + + + + + + + 1 _ >.+ + + + + + + + + + + + + o.&.p.q.M + + + + + + + + + + + + + + + + + n.",
"~ + + + + + + + + + + + + + + + + + + + + + + + + + + + + + + + + + + + + + + + + + + + + + + + + + + + + + + + + + + + + + + + + + + + + + + + + + + + + + + + + + + + + + + + + + + + + + + n.",
"~ + + + + + + + + + + + + + + + + + + + + + + + + + + + + + + + + + + + + + + + + + + + + + + + + + + + + + + + + + + + + + + + + + + + + + + + + + + + + + + + + + + + + + + + + + + + + + + r.",
"~ + + + + + + + + + + + + + + + + + + + + + + + + + + + + + + + + + + + + + + + + + + + + + + + + + + + + + + + + + + + + + + + + + + + + + + + + + + + + + + + + + + + + + + + + + + + + + + r.",
"~ + + + + + + + + + + + + + + + + + + + + + + + + + + + + + + + + + + + + + + + + + + + + + + + + + + + + + + + + + + + + + + + + + + + + + + + + + + + + + + + + + + + + + + + + + + + + + + r.",
"~ + + + + + + + + + + + + + + + + + + + + + + + + + + + + + + + + + + + + + + + + + + + + + + + + + + + + + + + + + + + + + + + + + + + + + + + + + + + + + + + + + + + + + + + + + + + + + + r.",
"$ + + + + + + + + + + + + + + + + + + + + + + + + + + + + + + + + + + + + + + + + + + + + + + + + + + + + + + + + + + + + + + + + + + + + + + + + + + + + + + + + + + + + + + + + + + + + + + s.",
"$ + + + + + + + + + + + + + + + + + + + + + + + + + + + + + + + + + + + + + + + + + + + + + + + + + + + + + + + + + + + + + + + + + + + + + + + + + + + + + + + + + + + + + + + + + + + + + + s.",
"t.u.u.u.u.u.u.u.u.u.u.u.u.u.v.v.v.v.v.v.v.v.v.w.w.w.w.w.w.w.w.x.x.x.x.x.y.y.y.y.z.z.z.z.z.z.z.z.z.z.z.y.y.x.x.w.w.w.w.v.v.v.v.u.u.u.u.u.u.A.A.A.A.B.B.B.C.C.D.D.E.E.E.E.E.E.F.F.F.F.G.G.G.G.H.t."};
