/* XPM */
static char *multiply_selected[] = {
/* columns rows colors chars-per-pixel */
"96 33 32 1",
"  c #24334A",
". c #24334B",
"X c #24344C",
"o c #25344C",
"O c #25354D",
"+ c #26354E",
"@ c #26364E",
"# c #26364F",
"$ c #263650",
"% c #273750",
"& c #273751",
"* c #273851",
"= c #273852",
"- c #283852",
"; c #283953",
": c #283954",
"> c #293A54",
", c #293A55",
"< c #293B56",
"1 c #2A3B56",
"2 c #2A3B57",
"3 c #2A3C57",
"4 c #2F7868",
"5 c #468779",
"6 c #5D9689",
"7 c #74A59A",
"8 c #8BB4AB",
"9 c #A2C3BB",
"0 c #BAD2CD",
"q c #D1E1DD",
"w c #E7F0EE",
"e c gray100",
/* pixels */
"&4444444444444444444444444444444444444444444444444444444444444444444444444444444444444444444444&",
"&4444444444444444444444444444444444444444444444444444444444444444444444444444444444444444444444#",
"#4444444444444444444444444444444444444444444444444444444444444444444444444444444444444444444444%",
"&4444444444444444444444444444444444444444444444444444444444444444444444444444444444444444444444%",
"#4444444444444444444444444444444444444444444444444444444444444444444444444444444444444444444444%",
"#4444444444444444444444444444444444444444444444444444444444444444444444444444444444444444444444%",
"#4444444444444444444444444444444444444444444444444444444444444444444444444444444444444444444444#",
"#4444444444444444444444444444444444444444444444444444444444444444444444444444444444444444444444&",
"#4444444444444444444444444444444444444444444444444444444444444444444444444444444444444444444444&",
"o4444444444444444444444444444444444444444444444444444444444444444444444444444444444444444444444&",
"#444444444444444444444444444444444444444440ee44477644440ee44444444444444ee044444444444444444444=",
" 444444444444444444444444444444444444444440ee444ee044440ee44444444444444ee044444444444444444444=",
"o444444444444444444444444444444444444444440ee444ee0444467744444444444444ee044444444444444444444=",
"o44444444444448006qew849weq5444008444008440ee460eew00848004460069eeq5444ee047006444800544444444=",
"o44444444444440eeeeeeeqeeeew444ee0444ee0440ee47eeeeee040ee447eeeeeeew544ee045ee9444wew444444444=",
" 44444444444440ee047eee740ee744ee0444ee0440ee457eeq77640ee447eew540ee944ee044qee446ee8444444444=",
" 44444444444440ee544eeq447ee744ee0444ee0440ee444ee044440ee447ee8445eew44ee0446ee849ee5444444444=",
" 44444444444440ee444ee0447ee744ee0444ee0440ee444ee044440ee447ee7444eee44ee0444weq4we04444444444=",
" 44444444444440ee444ee0447ee744ee0444ee0440ee444ee044440ee447ee7444eee44ee04448ee8ee64444444444=",
"X44444444444440ee444ee0447ee744eeq448ee0440ee444eeq44440ee447eeq448ee044ee04444wewew44444444444=",
" 44444444444440ee444ee0447ee744qeeq0eee0440ee444qeeee740ee447eeeq0eee644ee044449eee844444444444=",
"X44444444444440ee444ee0447ee7445weee8ee0440ee4445qeee740ee447ee0weee8444ee044445eee5444444444442",
" 444444444444444444444444444444447754444444444444444444444447ee74775444444444444we0444444444444=",
"X444444444444444444444444444444444444444444444444444444444447ee7444444444444460qee6444444444444=",
" 444444444444444444444444444444444444444444444444444444444447ee744444444444447eee044444444444442",
"X44444444444444444444444444444444444444444444444444444444444444444444444444444444444444444444442",
" 4444444444444444444444444444444444444444444444444444444444444444444444444444444444444444444444=",
" 44444444444444444444444444444444444444444444444444444444444444444444444444444444444444444444442",
" 44444444444444444444444444444444444444444444444444444444444444444444444444444444444444444444442",
" 44444444444444444444444444444444444444444444444444444444444444444444444444444444444444444444442",
" 44444444444444444444444444444444444444444444444444444444444444444444444444444444444444444444442",
" 44444444444444444444444444444444444444444444444444444444444444444444444444444444444444444444442",
" 44444444444444444444444444444444444444444444444444444444444444444444444444444444444444444444442"
};
