/* XPM */
static char * multiply_normal_xpm[] = {
"96 33 170 2",
"  	c None",
". 	c #26354E",
"+ 	c #374E72",
"@ 	c #26364E",
"# 	c #25354D",
"$ 	c #25344C",
"% 	c #5F728E",
"& 	c #6C7D97",
"* 	c #61738F",
"= 	c #D1D6DE",
"- 	c #FFFFFF",
"; 	c #D5DAE1",
"> 	c #506484",
", 	c #3B5275",
"' 	c #96A2B5",
") 	c #485D7E",
"! 	c #384F73",
"~ 	c #24344C",
"{ 	c #CCD1DB",
"] 	c #DCE0E6",
"^ 	c #A1ACBD",
"/ 	c #7A89A1",
"( 	c #D7DCE3",
"_ 	c #F8F9FA",
": 	c #B9C1CE",
"< 	c #4C6080",
"[ 	c #415779",
"} 	c #B5BDCB",
"| 	c #F6F7F8",
"1 	c #ECEEF1",
"2 	c #C1C8D3",
"3 	c #455B7C",
"4 	c #D2D7DF",
"5 	c #9EA9BA",
"6 	c #A3ADBE",
"7 	c #CDD3DC",
"8 	c #94A0B3",
"9 	c #BAC2CE",
"0 	c #77869F",
"a 	c #B6BFCC",
"b 	c #73839C",
"c 	c #F7F8FA",
"d 	c #C5CCD6",
"e 	c #697B95",
"f 	c #A7B1C1",
"g 	c #465B7D",
"h 	c #CFD4DD",
"i 	c #ACB6C4",
"j 	c #EBEDF1",
"k 	c #E7EAEE",
"l 	c #F7F8F9",
"m 	c #E1E5EA",
"n 	c #F2F3F6",
"o 	c #B4BDCA",
"p 	c #ECEFF2",
"q 	c #9DA8BA",
"r 	c #D9DDE4",
"s 	c #FBFCFC",
"t 	c #FCFCFD",
"u 	c #71829B",
"v 	c #7E8DA4",
"w 	c #8593A9",
"x 	c #576B89",
"y 	c #24334B",
"z 	c #B6BECB",
"A 	c #C8CFD8",
"B 	c #F1F3F5",
"C 	c #8C99AE",
"D 	c #627490",
"E 	c #E6E9ED",
"F 	c #FBFBFC",
"G 	c #405678",
"H 	c #546786",
"I 	c #3E5476",
"J 	c #C8CED8",
"K 	c #566988",
"L 	c #8391A7",
"M 	c #3A5174",
"N 	c #3F5578",
"O 	c #F5F6F8",
"P 	c #919DB1",
"Q 	c #F9FAFB",
"R 	c #44597B",
"S 	c #E3E6EB",
"T 	c #637591",
"U 	c #ABB4C3",
"V 	c #9CA8B9",
"W 	c #495E7F",
"X 	c #FEFEFE",
"Y 	c #6B7C97",
"Z 	c #3E5477",
"` 	c #CAD0D9",
" .	c #BCC4D0",
"..	c #5B6E8B",
"+.	c #95A1B4",
"@.	c #DBDFE6",
"#.	c #697A95",
"$.	c #8996AC",
"%.	c #6E7F99",
"&.	c #74849D",
"*.	c #FAFAFB",
"=.	c #7B8AA2",
"-.	c #BBC3CF",
";.	c #516584",
">.	c #395073",
",.	c #B0B9C7",
"'.	c #CCD2DB",
").	c #F4F5F7",
"!.	c #78879F",
"~.	c #A6B0C0",
"{.	c #AFB8C7",
"].	c #B7BFCC",
"^.	c #F3F4F6",
"/.	c #42587A",
"(.	c #71819A",
"_.	c #4E6282",
":.	c #3A5074",
"<.	c #D3D8E0",
"[.	c #4A5F7F",
"}.	c #5E708D",
"|.	c #26364F",
"1.	c #FDFDFD",
"2.	c #DFE3E8",
"3.	c #8A98AD",
"4.	c #C2C9D4",
"5.	c #C4CBD6",
"6.	c #F0F2F5",
"7.	c #AAB4C3",
"8.	c #DEE1E7",
"9.	c #EFF1F3",
"0.	c #4F6383",
"a.	c #F0F1F4",
"b.	c #B9C1CD",
"c.	c #C7CDD7",
"d.	c #B8C0CD",
"e.	c #3D5376",
"f.	c #ADB6C5",
"g.	c #8794AA",
"h.	c #586B89",
"i.	c #6A7B96",
"j.	c #8896AB",
"k.	c #4D6282",
"l.	c #667793",
"m.	c #677994",
"n.	c #EAECF0",
"o.	c #8B98AD",
"p.	c #263650",
"q.	c #8492A8",
"r.	c #DADEE5",
"s.	c #ABB5C4",
"t.	c #273750",
"u.	c #273751",
"v.	c #1F2C40",
"w.	c #2F4261",
"x.	c #2F4361",
"y.	c #2F4362",
"z.	c #304463",
"A.	c #304464",
"B.	c #304564",
"C.	c #314565",
"D.	c #2E4260",
"E.	c #2E4160",
"F.	c #2E415F",
"G.	c #2E415E",
"H.	c #2D405E",
"I.	c #2D405D",
"J.	c #2D3F5D",
"K.	c #2C3F5C",
"L.	c #2C3E5B",
"M.	c #2C3E5A",
". + + + + + + + + + + + + + + + + + + + + + + + + + + + + + + + + + + + + + + + + + + + + + + + + + + + + + + + + + + + + + + + + + + + + + + + + + + + + + + + + + + + + + + + + + + + + + + @ ",
"# + + + + + + + + + + + + + + + + + + + + + + + + + + + + + + + + + + + + + + + + + + + + + + + + + + + + + + + + + + + + + + + + + + + + + + + + + + + + + + + + + + + + + + + + + + + + + + @ ",
"# + + + + + + + + + + + + + + + + + + + + + + + + + + + + + + + + + + + + + + + + + + + + + + + + + + + + + + + + + + + + + + + + + + + + + + + + + + + + + + + + + + + + + + + + + + + + + + @ ",
"# + + + + + + + + + + + + + + + + + + + + + + + + + + + + + + + + + + + + + + + + + + + + + + + + + + + + + + + + + + + + + + + + + + + + + + + + + + + + + + + + + + + + + + + + + + + + + + @ ",
"# + + + + + + + + + + + + + + + + + + + + + + + + + + + + + + + + + + + + + + + + + + + + + + + + + + + + + + + + + + + + + + + + + + + + + + + + + + + + + + + + + + + + + + + + + + + + + + @ ",
"# + + + + + + + + + + + + + + + + + + + + + + + + + + + + + + + + + + + + + + + + + + + + + + + + + + + + + + + + + + + + + + + + + + + + + + + + + + + + + + + + + + + + + + + + + + + + + + @ ",
"$ + + + + + + + + + + + + + + + + + + + + + + + + + + + + + + + + + + + + + + + + + + + + + + + + + + + + + + + + + + + + + + + + + + + + + + + + + + + + + + + + + + + + + + + + + + + + + + @ ",
"$ + + + + + + + + + + + + + + + + + + + + + + + + + + + + + + + + + + + + + + + + % & * + + + + + + + + % & * + + + + + + + + + + + + + % & * + + + + + + + + + + + + + + + + + + + + + + + + @ ",
"$ + + + + + + + + + + + + + + + + + + + + + + + + + + + + + + + + + + + + + + + + = - ; + + > & & , + + = - ; + + + + + + + + + + + + + = - ; + + + + + + + + + + + + + + + + + + + + + + + + @ ",
"$ + + + + + + + + + + + + + + + + + + + + + + + + + + + + + + + + + + + + + + + + = - ; + + ' - - ) + + = - ; + + + + + + + + + + + + + = - ; + + + + + + + + + + + + + + + + + + + + + + + + @ ",
"$ + + + + + + + + + + + + + + + + + + + + + + + + + + + + + + + + + + + + + + + + = - ; + + ' - - ) + + ! ! ! + + + + + + + + + + + + + = - ; + + + + + + + + + + + + + + + + + + + + + + + + @ ",
"~ + + + + + + + + + + + + { ] ^ / ( _ : < [ } | 1 2 3 + + 4 ] 5 + + + 6 ] 7 + + + = - ; + 8 ( - - 9 0 + a ] : + + 4 ] 5 b = c d e + + + = - ; + f ] ] g + + + h ] i + + + + + + + + + + + + + @ ",
"~ + + + + + + + + + + + + j - k - - - - l m - - - - 2 + + n - o + + + : - p + + + = - ; + { - - - - q + = - ; + + n - r s - - - t u + + = - ; + v - - w + + x - - w + + + + + + + + + + + + + @ ",
"y + + + + + + + + + + + + j - - z * A - - B C D E - F , + n - o + + + : - p + + + = - ; + G q - - H I + = - ; + + n - - J K L l - E M + = - ; + N O - 2 + + P - Q R + + + + + + + + + + + + + @ ",
"y + + + + + + + + + + + + j - S + + T - - U + + V - - W + n - o + + + : - p + + + = - ; + + ' - - ) + + = - ; + + n - X W + + q - - Y + = - ; + + z - l Z + ` - 2 + + + + + + + + + + + + + + @ ",
"y + + + + + + + + + + + + j -  .+ + ..- - L + + +.- - W + n - o + + + : - p + + + = - ; + + ' - - ) + + = - ; + + n - @.+ + + #.- - $.+ = - ; + + %.- - &.G *.- =.+ + + + + + + + + + + + + + @ ",
"y + + + + + + + + + + + + j - -.+ + ..- - L + + +.- - W + n - o + + + : - p + + + = - ; + + ' - - ) + + = - ; + + n - d + + + ;.- - 8 + = - ; + + >.1 - ,.&.- O Z + + + + + + + + + + + + + + @ ",
"y + + + + + + + + + + + + j - -.+ + ..- - L + + +.- - W + n -  .+ + + '.- p + + + = - ; + + ' - - ) + + = - ; + + n - ).M + + w - - !.+ = - ; + + + ~.- 1 {.- ].+ + + + + + + + + + + + + + + @ ",
"y + + + + + + + + + + + + j - -.+ + ..- - L + + +.- - W + S - ^./.+ (.X - p + + + = - ; + + ' - - _.+ + = - ; + + n - - v + :.<.- s [.+ = - ; + + + }.- - _ - u + + + + + + + + + + + + + + + |.",
"y + + + + + + + + + + + + j - -.+ + ..- - L + + +.- - W + ].- - 1.2.- s - p + + + = - ; + + 3.- - 4.(.+ = - ; + + n - t t 5.6.- - 7.+ + = - ; + + + + 8.- - 9.M + + + + + + + + + + + + + + + |.",
"y + + + + + + + + + + + + j - -.+ + ..- - L + + +.- - W + 0.B - - - z  .- p + + + = - ; + + [.a.- - q + = - ; + + n - b.c.- - - d.e.+ + = - ; + + + + ' - - f.+ + + + + + + + + + + + + + + + |.",
"y + + + + + + + + + + + + + + + + + + + + + + + + + + + + + I %.g.h.+ + + + + + + + + + + + + ! i.j.k.+ + + + + + n - o :.T $.h.+ + + + + + + + + + + l.- - m.+ + + + + + + + + + + + + + + + |.",
"y + + + + + + + + + + + + + + + + + + + + + + + + + + + + + + + + + + + + + + + + + + + + + + + + + + + + + + + + n - o + + + + + + + + + + + + + + :.9 - n.+ + + + + + + + + + + + + + + + + |.",
"y + + + + + + + + + + + + + + + + + + + + + + + + + + + + + + + + + + + + + + + + + + + + + + + + + + + + + + + + n - o + + + + + + + + + + + + + o.| - - P + + + + + + + + + + + + + + + + + p.",
"~ + + + + + + + + + + + + + + + + + + + + + + + + + + + + + + + + + + + + + + + + + + + + + + + + + + + + + + + + 1 _ ,.+ + + + + + + + + + + + + q.*.r.s.M + + + + + + + + + + + + + + + + + p.",
"~ + + + + + + + + + + + + + + + + + + + + + + + + + + + + + + + + + + + + + + + + + + + + + + + + + + + + + + + + + + + + + + + + + + + + + + + + + + + + + + + + + + + + + + + + + + + + + + p.",
"~ + + + + + + + + + + + + + + + + + + + + + + + + + + + + + + + + + + + + + + + + + + + + + + + + + + + + + + + + + + + + + + + + + + + + + + + + + + + + + + + + + + + + + + + + + + + + + + t.",
"~ + + + + + + + + + + + + + + + + + + + + + + + + + + + + + + + + + + + + + + + + + + + + + + + + + + + + + + + + + + + + + + + + + + + + + + + + + + + + + + + + + + + + + + + + + + + + + + t.",
"~ + + + + + + + + + + + + + + + + + + + + + + + + + + + + + + + + + + + + + + + + + + + + + + + + + + + + + + + + + + + + + + + + + + + + + + + + + + + + + + + + + + + + + + + + + + + + + + t.",
"~ + + + + + + + + + + + + + + + + + + + + + + + + + + + + + + + + + + + + + + + + + + + + + + + + + + + + + + + + + + + + + + + + + + + + + + + + + + + + + + + + + + + + + + + + + + + + + + t.",
"$ + + + + + + + + + + + + + + + + + + + + + + + + + + + + + + + + + + + + + + + + + + + + + + + + + + + + + + + + + + + + + + + + + + + + + + + + + + + + + + + + + + + + + + + + + + + + + + u.",
"$ + + + + + + + + + + + + + + + + + + + + + + + + + + + + + + + + + + + + + + + + + + + + + + + + + + + + + + + + + + + + + + + + + + + + + + + + + + + + + + + + + + + + + + + + + + + + + + u.",
"v.w.w.w.w.w.w.w.w.x.x.x.x.x.y.y.y.y.y.y.y.y.y.z.z.z.z.z.z.z.z.A.A.A.A.A.B.B.B.B.C.C.C.C.C.C.C.C.C.C.C.B.B.A.A.z.z.z.z.y.y.y.y.x.x.w.w.w.w.D.D.E.E.F.F.F.G.G.H.H.I.I.I.I.J.J.K.K.K.K.L.L.L.L.M.v."};
