/* XPM */
static char * mute_disabled_xpm[] = {
"57 52 167 2",
"  	c None",
". 	c #424B59",
"+ 	c #475160",
"@ 	c #404957",
"# 	c #2D3F5B",
"$ 	c #25354D",
"% 	c #1B2739",
"& 	c #121925",
"* 	c #080B10",
"= 	c #000101",
"- 	c #000000",
"; 	c #16202E",
"> 	c #3E4653",
", 	c #1C283B",
"' 	c #06080C",
") 	c #283852",
"! 	c #010202",
"~ 	c #3F4854",
"{ 	c #151D2B",
"] 	c #010101",
"^ 	c #344258",
"/ 	c #111924",
"( 	c #2B3D5A",
"_ 	c #070A0E",
": 	c #46505F",
"< 	c #1E2B3F",
"[ 	c #020305",
"} 	c #101721",
"| 	c #233248",
"1 	c #020204",
"2 	c #30405A",
"3 	c #080C11",
"4 	c #444D5B",
"5 	c #131B27",
"6 	c #202D42",
"7 	c #233148",
"8 	c #010102",
"9 	c #263650",
"0 	c #020304",
"a 	c #2A3C58",
"b 	c #030406",
"c 	c #2A3C57",
"d 	c #273750",
"e 	c #1E2A3D",
"f 	c #090C12",
"g 	c #414A58",
"h 	c #050609",
"i 	c #24344C",
"j 	c #506484",
"k 	c #6C7D97",
"l 	c #4B5564",
"m 	c #101722",
"n 	c #96A2B5",
"o 	c #FFFFFF",
"p 	c #535F72",
"q 	c #404855",
"r 	c #192333",
"s 	c #CCD1DB",
"t 	c #DCE0E6",
"u 	c #A1ACBD",
"v 	c #7A89A1",
"w 	c #D7DCE3",
"x 	c #F8F9FA",
"y 	c #B9C1CE",
"z 	c #4F617D",
"A 	c #515A68",
"B 	c #B5BDCB",
"C 	c #F6F7F8",
"D 	c #ECEEF1",
"E 	c #C1C8D3",
"F 	c #545D6B",
"G 	c #D2D7DF",
"H 	c #9EA9BA",
"I 	c #A3ADBE",
"J 	c #CDD3DC",
"K 	c #94A0B3",
"L 	c #BAC2CE",
"M 	c #77869F",
"N 	c #526685",
"O 	c #B9C1CD",
"P 	c #EEF0F3",
"Q 	c #CCD2DB",
"R 	c #627490",
"S 	c #EBEDF1",
"T 	c #E7EAEE",
"U 	c #F7F8F9",
"V 	c #E1E5EA",
"W 	c #F2F3F6",
"X 	c #B4BDCA",
"Y 	c #ECEFF2",
"Z 	c #9DA8BA",
"` 	c #75859E",
" .	c #FDFDFD",
"..	c #FEFEFE",
"+.	c #1C283A",
"@.	c #B6BECB",
"#.	c #61738F",
"$.	c #C8CFD8",
"%.	c #F1F3F5",
"&.	c #8C99AE",
"*.	c #E6E9ED",
"=.	c #FBFBFC",
"-.	c #505967",
";.	c #546786",
">.	c #4E5765",
",.	c #4F5866",
"'.	c #555E6C",
").	c #536075",
"!.	c #D6DAE2",
"~.	c #F5F6F8",
"{.	c #030405",
"].	c #E3E6EB",
"^.	c #637591",
"/.	c #ABB4C3",
"(.	c #9CA8B9",
"_.	c #7989A1",
":.	c #697B95",
"<.	c #78879F",
"[.	c #172130",
"}.	c #BCC4D0",
"|.	c #5B6E8B",
"1.	c #8391A7",
"2.	c #95A1B4",
"3.	c #D9DDE4",
"4.	c #DBDFE6",
"5.	c #BBC3CF",
"6.	c #A6B0C0",
"7.	c #E8EAEE",
"8.	c #A0ABBC",
"9.	c #0E141E",
"0.	c #4D5664",
"a.	c #25344C",
"b.	c #F3F4F6",
"c.	c #525B69",
"d.	c #71819A",
"e.	c #4E6282",
"f.	c #7B8AA2",
"g.	c #CFD5DD",
"h.	c #677994",
"i.	c #454E5C",
"j.	c #B7BFCC",
"k.	c #DFE3E8",
"l.	c #FBFCFC",
"m.	c #8A98AD",
"n.	c #C2C9D4",
"o.	c #C3CAD4",
"p.	c #A8B2C2",
"q.	c #495260",
"r.	c #141C2A",
"s.	c #4F6383",
"t.	c #516077",
"u.	c #F0F1F4",
"v.	c #C4CAD5",
"w.	c #B2BBC9",
"x.	c #273751",
"y.	c #6E7F99",
"z.	c #8794AA",
"A.	c #586B89",
"B.	c #6A7B96",
"C.	c #8896AB",
"D.	c #4E6281",
"E.	c #8492A8",
"F.	c #030507",
"G.	c #090D13",
"H.	c #0F151E",
"I.	c #161F2D",
"J.	c #151E2C",
". + + + + + + + @ # $ % & * = - - - - - - - - - - - - - - - - - - - - - - - - - - - - - - - - - - - - - - - - - - ",
". + + + + + + + + + + + + + . $ ; * - - - - - - - - - - - - - - - - - - - - - - - - - - - - - - - - - - - - - - - ",
". + + + + + + + + + + + + + + + + + > , ' - - - - - - - - - - - - - - - - - - - - - - - - - - - - - - - - - - - - ",
". + + + + + + + + + + + + + + + + + + + + ) & ! - - - - - - - - - - - - - - - - - - - - - - - - - - - - - - - - - ",
". + + + + + + + + + + + + + + + + + + + + + + ~ { ] - - - - - - - - - - - - - - - - - - - - - - - - - - - - - - - ",
". + + + + + + + + + + + + + + + + + + + + + + + + ^ / - - - - - - - - - - - - - - - - - - - - - - - - - - - - - - ",
". + + + + + + + + + + + + + + + + + + + + + + + + + + ( _ - - - - - - - - - - - - - - - - - - - - - - - - - - - - ",
". + + + + + + + + + + + + + + + + + + + + + + + + + + + : < [ - - - - - - - - - - - - - - - - - - - - - - - - - - ",
". + + + + + + + + + + + + + + + + + + + + + + + + + + + + + ~ } - - - - - - - - - - - - - - - - - - - - - - - - - ",
". + + + + + + + + + + + + + + + + + + + + + + + + + + + + + + + | 1 - - - - - - - - - - - - - - - - - - - - - - - ",
". + + + + + + + + + + + + + + + + + + + + + + + + + + + + + + + + 2 3 - - - - - - - - - - - - - - - - - - - - - - ",
". + + + + + + + + + + + + + + + + + + + + + + + + + + + + + + + + + 4 5 - - - - - - - - - - - - - - - - - - - - - ",
". + + + + + + + + + + + + + + + + + + + + + + + + + + + + + + + + + + + 6 - - - - - - - - - - - - - - - - - - - - ",
". + + + + + + + + + + + + + + + + + + + + + + + + + + + + + + + + + + + + 7 8 - - - - - - - - - - - - - - - - - - ",
". + + + + + + + + + + + + + + + + + + + + + + + + + + + + + + + + + + + + + 9 0 - - - - - - - - - - - - - - - - - ",
". + + + + + + + + + + + + + + + + + + + + + + + + + + + + + + + + + + + + + + a b - - - - - - - - - - - - - - - - ",
". + + + + + + + + + + + + + + + + + + + + + + + + + + + + + + + + + + + + + + + c 0 - - - - - - - - - - - - - - - ",
". + + + + + + + + + + + + + + + + + + + + + + + + + + + + + + + + + + + + + + + + d 8 - - - - - - - - - - - - - - ",
". + + + + + + + + + + + + + + + + + + + + + + + + + + + + + + + + + + + + + + + + + 7 - - - - - - - - - - - - - - ",
". + + + + + + + + + + + + + + + + + + + + + + + + + + + + + + + + + + + + + + + + + + e - - - - - - - - - - - - - ",
". + + + + + + + + + + + + + + + + + + + + + + + + + + + + + + + + + + + + + + + + + + + 5 - - - - - - - - - - - - ",
". + + + + + + + + + + + + + + + + + + + + + + + + + + + + + + + + + + + + + + + + + + + 4 f - - - - - - - - - - - ",
". + + + + + + + + + + + + + + + + + + + + + + + + + + + + + + + + + + + + + + + + + + + + ^ [ - - - - - - - - - - ",
". + + + + + + + + + + + + + + + + + + + + + + + + + + + + + + + + + + + + + + + + + + + + + | - - - - - - - - - - ",
". + + + + + + + + + + + + + + + + + + + + + + + + + + + + + + + + + + + + + + + + + + + + + + & - - - - - - - - - ",
". + + + + + + + + + + + + + + + + + + + + + + + + + + + + + + + + + + + + + + + + + + + + + + g h - - - - - - - - ",
". + + + + + + + + + + + + + + + + + + + + + + + + + + + + + + + + + + + + + + + + + + + + + + + i - - - - - - - - ",
"g + + + + + + + + + + + + + + + + + + + + + + + + + + + + + + + + + j k k l + + + + + + + + + + + m - - - - - - - ",
"g + + + + + + + + + + + + + + + + + + + + + + + + + + + + + + + + + n o o p + + + + + + + + + + + q 1 - - - - - - ",
"g + + + + + + + + + + + + + + + + + + + + + + + + + + + + + + + + + n o o p + + + + + + + + + + + + r - - - - - - ",
"g + + + + + s t u v w x y z A B C D E F + + G t H + + + I t J + + K w o o L M + + N O C P Q R + + + . b - - - - - ",
"g + + + + + S o T o o o o U V o o o o E + + W o X + + + y o Y + + s o o o o Z + `  .o ..o o  .M + + + +.- - - - - ",
"g + + + + + S o o @.#.$.o o %.&.R *.o =.l + W o X + + + y o Y + + -.Z o o ;.>.,.S o J '.).!.o ~.F + + 4 {.- - - - ",
"g + + + + + S o ].+ + ^.o o /.+ + (.o o ).+ W o X + + + y o Y + + + n o o p + _.o o :.+ + :.o o <.+ + + [.- - - - ",
"g + + + + + S o }.+ + |.o o 1.+ + 2.o o ).+ W o X + + + y o Y + + + n o o p + n o o 3.w w 4.o o 2.+ + + ^ - - - - ",
"@ + + + + + S o 5.+ + |.o o 1.+ + 2.o o ).+ W o X + + + y o Y + + + n o o p + 6.o ..7.7.7.7.7.7.8.+ + + + 9.- - - ",
"@ + + + + + S o 5.+ + |.o o 1.+ + 2.o o ).+ W o }.+ + + Q o Y + + + n o o p + &.o ..0.+ + + + + + + + + + a.- - - ",
"@ + + + + + S o 5.+ + |.o o 1.+ + 2.o o ).+ ].o b.c.+ d...o Y + + + n o o e.+ |.o o f.+ + :.g.g.h.+ + + + i.b - - ",
"@ + + + + + S o 5.+ + |.o o 1.+ + 2.o o ).+ j.o o  .k.o l.o Y + + + m.o o n.d.+ o.o  .$.p.~.o 4.q.+ + + + + r.- - ",
"@ + + + + + S o 5.+ + |.o o 1.+ + 2.o o ).+ s.%.o o o @.}.o Y + + + t.u.o o Z + F v.o o o o w.,.+ + + + + + x.- - ",
"q + + + + + + + + + + + + + + + + + + + + + + >.y.z.A.+ + + + + + + + q.B.C.D.+ + + t.E._.N + + + + + + + + : F.- ",
"q + + + + + + + + + + + + + + + + + + + + + + + + + + + + + + + + + + + + + + + + + + + + + + + + + + + + + + } - ",
"q + + + + + + + + + + + + + + + + + + + + + + + + + + + + + + + + + + + + + + + + + + + + + + + + + + + + + + % - ",
"q + + + + + + + + + + + + + + + + + + + + + + + + + + + + + + + + + + + + + + + + + + + + + + + + + + + + + + d - ",
"q + + + + + + + + + + + + + + + + + + + + + + + + + + + + + + + + + + + + + + + + + + + + + + + + + + + + + + . - ",
"q + + + + + + + + + + + + + + + + + + + + + + + + + + + + + + + + + + + + + + + + + + + + + + + + + + + + + + + F.",
"q + + + + + + + + + + + + + + + + + + + + + + + + + + + + + + + + + + + + + + + + + + + + + + + + + + + + + + + G.",
"q + + + + + + + + + + + + + + + + + + + + + + + + + + + + + + + + + + + + + + + + + + + + + + + + + + + + + + + H.",
"q + + + + + + + + + + + + + + + + + + + + + + + + + + + + + + + + + + + + + + + + + + + + + + + + + + + + + + + r.",
"q + + + + + + + + + + + + + + + + + + + + + + + + + + + + + + + + + + + + + + + + + + + + + + + + + + + + + + + I.",
"q + + + + + + + + + + + + + + + + + + + + + + + + + + + + + + + + + + + + + + + + + + + + + + + + + + + + + + + J.",
"> : : : : : + + + + + + + + + + + + + + + + + + + + + + + + + + + + + + + + + + + + + + + + + + + + + + + + + + { "};
