/* XPM */
static char *mute_normal[] = {
/* columns rows colors chars-per-pixel */
"57 52 105 2",
"   c black",
".  c #000101",
"X  c #010101",
"o  c #010102",
"O  c #010203",
"+  c #020203",
"@  c #020304",
"#  c #020305",
"$  c #030406",
"%  c #040608",
"&  c #050609",
"*  c #05070A",
"=  c #06090D",
"-  c #070A0E",
";  c #070A0F",
":  c #080C11",
">  c #090C12",
",  c #090D12",
"<  c #090D13",
"1  c #0A0E14",
"2  c #0A0E15",
"3  c #0A0F15",
"4  c #0B1017",
"5  c #0C1118",
"6  c #0D131C",
"7  c #0E141D",
"8  c #0F151F",
"9  c #111822",
"0  c #121925",
"q  c #131B28",
"w  c #141C29",
"e  c #151E2C",
"r  c #161F2E",
"t  c #17202F",
"y  c #182232",
"u  c #182333",
"i  c #192333",
"p  c #192435",
"a  c #1B2739",
"s  c #1D293C",
"d  c #1E2B3F",
"f  c #1F2C40",
"g  c #1F2C41",
"h  c #202D42",
"j  c #202E43",
"k  c #212E44",
"l  c #212F44",
"z  c #212F45",
"x  c #223046",
"c  c #223047",
"v  c #223147",
"b  c #233148",
"n  c #233248",
"m  c #233249",
"M  c #24324A",
"N  c #24334A",
"B  c #24334B",
"V  c #24344C",
"C  c #25344C",
"Z  c #25354D",
"A  c #26354E",
"S  c #26364E",
"D  c #26364F",
"F  c #263650",
"G  c #273852",
"H  c #293A55",
"J  c #293B56",
"K  c #2A3B57",
"L  c #2B3D59",
"P  c #2B3D5A",
"I  c #2C3E5A",
"U  c #2C3E5B",
"Y  c #2D405D",
"T  c #2D405E",
"R  c #2E4160",
"E  c #2E4260",
"W  c #2F4362",
"Q  c #304463",
"!  c #304464",
"~  c #314666",
"^  c #324767",
"/  c #324768",
"(  c #33486A",
")  c #33496A",
"_  c #344A6C",
"`  c #344A6D",
"'  c #354B6D",
"]  c #354B6E",
"[  c #354C6E",
"{  c #354C6F",
"}  c #364C6F",
"|  c #364C70",
" . c #364D70",
".. c #364D71",
"X. c #374D71",
"o. c #374E72",
"O. c #4D6181",
"+. c #637591",
"@. c #7A89A1",
"#. c #909CB0",
"$. c #A6B0C0",
"%. c #BCC4D0",
"&. c #D2D7DF",
"*. c #E8EBEF",
"=. c gray100",
/* pixels */
"z o.o.o.o.o./ W P G B d w , . . . . . . . . . . . . . . . . . . . . . . . . . . . . . . . . . . . . . . . . . . . ",
"z o.o.o.o.o.o.o.o.o.o.o.o.o.o.U h - . . . . . . . . . . . . . . . . . . . . . . . . . . . . . . . . . . . . . . . ",
"x o.o.o.o.o.o.o.o.o.o.o.o.o.o.o.o.o.U p - . . . . . . . . . . . . . . . . . . . . . . . . . . . . . . . . . . . . ",
"x o.o.o.o.o.o.o.o.o.o.o.o.o.o.o.o.o.o.o.o.H w . . . . . . . . . . . . . . . . . . . . . . . . . . . . . . . . . . ",
"x o.o.o.o.o.o.o.o.o.o.o.o.o.o.o.o.o.o.o.o.o.o.~ y . . . . . . . . . . . . . . . . . . . . . . . . . . . . . . . . ",
"x o.o.o.o.o.o.o.o.o.o.o.o.o.o.o.o.o.o.o.o.o.o.o.X.! e . . . . . . . . . . . . . . . . . . . . . . . . . . . . . . ",
"b o.o.o.o.o.o.o.o.o.o.o.o.o.o.o.o.o.o.o.o.o.o.o.X.X.X.Q w . . . . . . . . . . . . . . . . . . . . . . . . . . . . ",
"b o.o.o.o.o.o.o.o.o.o.o.o.o.o.o.o.o.o.o.o.o.o.o.o.X.X.X.X.U : . . . . . . . . . . . . . . . . . . . . . . . . . . ",
"b o.o.o.o.o.o.o.o.o.o.o.o.o.o.o.o.o.o.o.o.o.o.o.o.o.o.o.o.o.o.y . . . . . . . . . . . . . . . . . . . . . . . . . ",
"b o.o.o.o.o.o.o.o.o.o.o.o.o.o.o.o.o.o.o.o.o.o.o.o.o.o.o.o.o.o.o.H - . . . . . . . . . . . . . . . . . . . . . . . ",
"b o.o.o.o.o.o.o.o.o.o.o.o.o.o.o.o.o.o.o.o.o.o.o.o.o.o.o.o.o.o.o.o.{ t . . . . . . . . . . . . . . . . . . . . . . ",
"b o.o.o.o.o.o.o.o.o.o.o.o.o.o.o.o.o.o.o.o.o.o.o.o.o.o.o.o.o.o.o.o.X.X.D . . . . . . . . . . . . . . . . . . . . . ",
"b o.o.o.o.o.o.o.o.o.o.o.o.o.o.o.o.o.o.o.o.o.o.o.o.o.o.o.o.o.o.o.o.o.o.o.K & . . . . . . . . . . . . . . . . . . . ",
"b o.o.o.o.o.o.o.o.o.o.o.o.o.o.o.o.o.o.o.o.o.o.o.o.o.o.o.o.o.o.o.o.o.o.o.X.R - . . . . . . . . . . . . . . . . . . ",
"V o.o.o.o.o.o.o.o.o.o.o.o.o.o.o.o.o.o.o.o.o.o.o.o.o.o.o.o.o.o.o.o.o.o.o.X.X.^ 3 . . . . . . . . . . . . . . . . . ",
"B o.o.o.o.o.o.o.o.o.o.o.o.o.o.o.o.o.o.o.o.o.o.o.o.o.o.o.o.o.o.o.o.o.o.o.X.X.X.] 8 . . . . . . . . . . . . . . . . ",
"B o.o.o.o.o.o.o.o.o.o.o.o.o.o.o.o.o.o.o.o.o.o.o.o.o.o.o.o.o.o.o.o.o.o.o.o.o.o.o.o.7 . . . . . . . . . . . . . . . ",
"B o.o.o.o.o.o.o.o.o.o.o.o.o.o.o.o.o.o.o.o.o.o.o.o.o.o.o.o.o.o.o.o.o.o.o.o.o.o.o.o.) , . . . . . . . . . . . . . . ",
"B o.o.o.o.o.o.o.o.o.o.o.o.o.o.o.o.o.o.o.o.o.o.o.o.o.o.o.o.o.o.o.o.o.o.o.o.o.o.o.o.o.Q & . . . . . . . . . . . . . ",
"B o.o.o.o.o.o.o.o.o.o.o.o.o.o.o.o.o.o.o.o.o.o.o.o.o.o.o.o.o.o.o.o.o.o.o.o.o.o.o.o.o.o.P . . . . . . . . . . . . . ",
"V o.o.o.o.o.o.o.o.o.o.o.o.o.o.o.o.o.o.o.o.o.o.o.o.o.o.o.o.o.o.o.o.o.o.o.o.o.o.o.o.o.o.o.A . . . . . . . . . . . . ",
"V o.o.o.o.o.o.o.o.o.o.o.o.o.o.o.o.o.o.o.o.o.o.o.o.o.o.o.o.o.o.o.o.o.o.o.o.o.o.o.o.o.o.o.o.s . . . . . . . . . . . ",
"V o.o.o.o.o.o.o.o.o.o.o.o.o.o.o.o.o.o.o.o.o.o.o.o.o.o.o.o.o.o.o.o.o.o.o.o.o.o.o.o.o.o.o.o.o.6 . . . . . . . . . . ",
"V o.o.o.o.o.o.o.o.o.o.o.o.o.o.o.o.o.o.o.o.o.o.o.o.o.o.o.o.o.o.o.o.o.o.o.o.o.o.o.o.o.o.o.o.o.Q @ . . . . . . . . . ",
"A X.o.o.o.o.o.o.o.o.o.o.o.o.o.o.o.o.o.o.o.o.o.o.o.o.o.o.o.o.o.o.o.o.o.o.o.o.o.o.o.o.o.o.o.o.o.x . . . . . . . . . ",
"A X.o.o.o.o.o.o.o.o.o.o.o.o.o.o.o.o.o.o.o.o.o.o.o.o.o.o.o.o.o.o.o.o.o.o.o.o.o.o.o.o.o.o.o.o.o.o.9 . . . . . . . . ",
"A o.o.o.o.o.o.o.o.o.o.o.o.o.o.o.o.o.o.o.o.o.o.o.o.o.o.o.o.o.o.o.o.o.o.o.o.o.o.o.o.o.o.o.o.o.o.o.~ & . . . . . . . ",
"V o.o.o.o.o.o.o.o.o.o.o.o.o.o.o.o.o.o.o.o.o.o.o.o.o.o.o.o.o.o.o.o.o.o.o.o.o.o.o.o.o.o.o.o.o.o.o.X.B . . . . . . . ",
"V o.o.o.o.o.o.o.o.o.o.o.o.o.o.o.o.o.o.o.o.o.o.o.o.o.o.o.o.o.o.o.o.o.o.o.o.o.o.o.o.o.o.o.o.o.o.o.X.X., . . . . . . ",
"V o.o.o.o.o.o.o.o.o.o.o.o.o.o.o.o.o.o.o.o.o.o.o.o.o.o.o.o.o.o.o.o.o.o.o.o.o.o.o.o.o.o.o.o.o.o.o.X.X.A . . . . . . ",
"V X.o.o.o.o.o.o.o.o.o.o.o.o.o.o.o.o.o.o.o.o.o.o.o.o.o.o.o.o.o.o.o.o.o.o.o.o.o.o.o.o.o.o.o.o.o.o.o.o.X.2 . . . . . ",
"V X.o.o.o.o.o.o.o.o.o.o.o.o.o.o.o.o.o.o.o.o.o.o.o.o.o.o.o.o.o.o.o.o.o.o.o.o.o.o.o.o.o.o.o.o.o.o.o.o.X.A . . . . . ",
"V X.X.X.o.o.o.o.o.o.o.o.o.o.o.o.o.o.o.o.o.o.o.o.o.o.o.o.o.o.o.o.o.O.@.@.O.o.o.o.o.o.o.o.o.o.o.o.o.o.o.o.2 . . . . ",
"B X.o.o.o.o.o.o.o.o.o.o.o.o.o.o.o.o.o.o.o.o.o.o.o.o.o.o.o.o.o.o.o.@.=.=.@.o.o.o.o.o.o.o.o.o.o.o.o.o.o.o.A . . . . ",
"V o.o.o.o.o.o.o.o.o.o.o.o.o.o.o.o.o.o.o.o.o.o.o.o.o.o.o.o.o.o.o.o.@.=.=.@.o.o.o.o.o.o.o.o.o.o.o.o.o.o.o.o.- . . . ",
"x o.o.o.o.#.%.%.+.&.=.*.#.o.$.*.=.&.O.o.o.o.%.%.#.o.o.o.%.%.#.o.#.&.=.=.&.%.%.+.o.o.#.&.=.=.*.#.o.o.o.o.o.y . . . ",
"n o.o.o.o.%.=.=.=.=.=.=.=.&.=.=.=.=.*.o.o.o.=.=.%.o.o.o.=.=.%.o.%.=.=.=.=.=.=.@.o.%.=.=.=.=.=.=.%.o.o.o.o.U . . . ",
"n o.o.o.o.%.=.=.%.o.@.=.=.=.@.o.%.=.=.@.o.o.=.=.%.o.o.o.=.=.%.o.+.$.=.=.$.@.@.O.+.=.=.%.O.o.$.=.=.+.o.o.o.o.: . . ",
"n o.o.o.o.%.=.=.O.o.o.=.=.&.o.o.@.=.=.@.o.o.=.=.%.o.o.o.=.=.%.o.o.@.=.=.@.o.o.o.$.=.=.#.@.@.@.=.=.$.o.o.o.o.a . . ",
"x X.o.o.o.%.=.=.o.o.o.=.=.%.o.o.@.=.=.@.o.o.=.=.%.o.o.o.=.=.%.o.o.@.=.=.@.o.o.o.%.=.=.=.=.=.=.=.=.%.o.o.o.o.W . . ",
"x o.o.o.o.%.=.=.o.o.o.=.=.%.o.o.@.=.=.@.o.o.=.=.%.o.o.o.=.=.%.o.o.@.=.=.@.o.o.o.%.=.=.@.@.@.@.@.@.+.o.o.o.o.o.2 . ",
"x o.o.o.o.%.=.=.o.o.o.=.=.%.o.o.@.=.=.@.o.o.=.=.&.o.o.#.=.=.%.o.o.@.=.=.#.o.o.o.@.=.=.#.o.o.o.o.+.+.o.o.o.o.o.t . ",
"x o.o.o.o.%.=.=.o.o.o.=.=.%.o.o.@.=.=.@.o.o.&.=.=.&.%.=.=.=.%.o.o.O.=.=.=.=.=.o.o.*.=.=.&.%.%.=.=.@.o.o.o.o.o.x . ",
"z o.o.o.o.%.=.=.o.o.o.=.=.%.o.o.@.=.=.@.o.o.O.*.=.=.=.#.=.=.%.o.o.o.@.*.=.=.=.o.o.O.&.=.=.=.=.=.&.O.o.o.o.o.o.T . ",
"z o.o.o.o.o.o.o.o.o.o.o.o.o.o.o.o.o.o.o.o.o.o.o.@.@.O.o.o.o.o.o.o.o.o.o.o.o.o.o.o.o.o.O.@.@.@.o.o.o.o.o.o.o.o.o.@ ",
"z o.o.o.o.o.o.o.o.o.o.o.o.o.o.o.o.o.o.o.o.o.o.o.o.o.o.o.o.o.o.o.o.o.o.o.o.o.o.o.o.o.o.o.o.o.o.o.o.o.o.o.o.o.o.o.5 ",
"z o.o.o.o.o.o.o.o.o.o.o.o.o.o.o.o.o.o.o.o.o.o.o.o.o.o.o.o.o.o.o.o.o.o.o.o.o.o.o.o.o.o.o.o.o.o.o.o.o.o.o.o.o.X.X.0 ",
"h o.o.o.o.o.o.o.o.o.o.o.o.o.o.o.o.o.o.o.o.o.o.o.o.o.o.o.o.o.o.o.o.o.o.o.o.o.o.o.o.o.o.o.o.o.o.o.o.o.o.o.o.o.X.X.y ",
"h o.o.o.o.o.o.o.o.o.o.o.o.o.o.o.o.o.o.o.o.o.o.o.o.o.o.o.o.o.o.o.o.o.o.o.o.o.o.o.o.o.o.o.o.o.o.o.o.o.o.o.o.o.o.o.d ",
"h o.o.o.o.o.o.o.o.o.o.o.o.o.o.o.o.o.o.o.o.o.o.o.o.o.o.o.o.o.o.o.o.o.o.o.o.o.o.o.o.o.o.o.o.o.o.o.o.o.o.o.o.o.o.o.h ",
"h o.o.o.o.o.o.o.o.o.o.o.o.o.o.o.o.o.o.o.o.o.o.o.o.o.o.o.o.o.o.o.o.o.o.o.o.o.o.o.o.o.o.o.o.o.o.o.o.o.o.o.o.o.o.o.z ",
"g o.o.{ o.] o.{ { { ] ] { { { { ] ] ] ] ] ' ' ' ] ) ' ' ) ] _ ] ] ] ] ] { { ] o.o.o.o.o.o.o.o.o.o.o.o.o.o.o.o.o.z "
};
