/* XPM */
static char * mute_normal[] = {
"46 25 89 1",
" 	c #374E72",
".	c #202D42",
"+	c #202E43",
"@	c #3D5476",
"#	c #3A5174",
"$	c #FFFFFF",
"%	c #A5AFBF",
"&	c #AAB3C3",
"*	c #ABB5C4",
"=	c #F4F5F7",
"-	c #EDEFF2",
";	c #919EB2",
">	c #475D7E",
",	c #BEC5D1",
"'	c #F7F8F9",
")	c #909CB0",
"!	c #677894",
"~	c #CAD0DA",
"{	c #F5F6F8",
"]	c #F9F9FB",
"^	c #D1D6DE",
"/	c #6A7B96",
"(	c #FAFAFB",
"_	c #EBEDF1",
":	c #EEF0F3",
"<	c #E7E9EE",
"[	c #EAECF0",
"}	c #EFF0F3",
"|	c #637591",
"1	c #D4D9E1",
"2	c #EBEEF1",
"3	c #697A95",
"4	c #FCFCFD",
"5	c #E7EAEE",
"6	c #E4E7EC",
"7	c #3E5477",
"8	c #526685",
"9	c #E3E6EB",
"0	c #97A3B6",
"a	c #CED4DD",
"b	c #BAC2CE",
"c	c #384F73",
"d	c #C7CED8",
"e	c #CBD1DB",
"f	c #ADB7C5",
"g	c #395074",
"h	c #A4AEBF",
"i	c #F6F7F8",
"j	c #223046",
"k	c #A6B0C0",
"l	c #415779",
"m	c #E6E9ED",
"n	c #D3D8E0",
"o	c #BBC3CF",
"p	c #7988A0",
"q	c #CDD3DC",
"r	c #C7CDD7",
"s	c #3C5275",
"t	c #455A7C",
"u	c #8290A7",
"v	c #223047",
"w	c #C3CAD4",
"x	c #FEFEFE",
"y	c #DDE1E7",
"z	c #FBFCFC",
"A	c #D7DCE3",
"B	c #657793",
"C	c #FAFBFC",
"D	c #F2F3F6",
"E	c #D8DCE3",
"F	c #FDFEFE",
"G	c #506484",
"H	c #818FA6",
"I	c #DCE0E7",
"J	c #60728F",
"K	c #C0C7D3",
"L	c #F0F2F4",
"M	c #FDFDFD",
"N	c #CCD2DB",
"O	c #929FB2",
"P	c #233249",
"Q	c #24334A",
"R	c #141C2A",
"S	c #16202E",
"T	c #141C29",
"U	c #172130",
"V	c #17202F",
"W	c #182231",
"X	c #101621",
"                                             .",
"                                             .",
"                                             .",
"                                             +",
"                                             +",
"                                             +",
"                                             +",
"                             @@#             +",
"                             $$%             +",
"                             $$%             +",
"    $$&*=-;>,'-)   $$%  $$% $$$$$$  !~{]^/   +",
"    $$(_:$$<[}$$|  $$%  $$% 1$$211 34$5<$4!  +",
"    $$678$$978$$0  $$%  $$%  $$%   a$bccd$e  +",
"    $$f g$$f c$$h  $$%  $$%  $$%   '$$$$$$i  j",
"    $$%  $$%  $$%  $$k l$$%  $$%   '$m1111n  +",
"    $$%  $$%  $$%  =$o p$$%  4$f   q$rs  tu  v",
"    $$%  $$%  $$%  w$x~=$$%  y$zA1 BC$DE6F$  v",
"    $$%  $$%  $$%  G^z5H$$%  3I4$$  JKLMLNO  v",
"                                             v",
"                                             P",
"                                             v",
"                                             P",
"                                             Q",
"                                             Q",
"RRRRRSTRRRRRRRRRRTTTTTTRRRRRRSRSSSSSSSSUVVVWVX"};
