/* XPM */
static char * mute_active[] = {
"46 25 85 1",
" 	c #750924",
".	c #500619",
"+	c #79112B",
"@	c #770D27",
"#	c #FFFFFF",
"$	c #C1909C",
"%	c #C496A1",
"&	c #C598A3",
"*	c #F7F1F3",
"=	c #F3E9EB",
"-	c #B37887",
";	c #801D36",
">	c #D2AFB8",
",	c #FAF5F6",
"'	c #B27685",
")	c #964458",
"!	c #DBBEC5",
"~	c #F8F2F4",
"{	c #FBF7F8",
"]	c #DFC6CC",
"^	c #98485C",
"/	c #FBF8F9",
"(	c #F1E6E9",
"_	c #F3EAEC",
":	c #EEE1E4",
"<	c #F0E5E8",
"[	c #F4EBED",
"}	c #933F54",
"|	c #E1CAD0",
"1	c #F1E7EA",
"2	c #98475B",
"3	c #FDFBFC",
"4	c #EFE2E5",
"5	c #EDDEE2",
"6	c #7A122C",
"7	c #882B42",
"8	c #ECDCE0",
"9	c #B8808E",
"0	c #DDC3CA",
"a	c #CFAAB3",
"b	c #760A25",
"c	c #D9BBC2",
"d	c #DBBFC6",
"e	c #C79BA6",
"f	c #770C27",
"g	c #C08F9B",
"h	c #F9F3F5",
"i	c #C1919D",
"j	c #7C162F",
"k	c #EEE0E4",
"l	c #E1C9CF",
"m	c #D0ABB4",
"n	c #A25A6C",
"o	c #DCC1C8",
"p	c #D8BAC1",
"q	c #780F29",
"r	c #7F1A33",
"s	c #A86576",
"t	c #D5B5BD",
"u	c #FEFEFE",
"v	c #E8D6DA",
"w	c #FCFAFB",
"x	c #E3CED3",
"y	c #954257",
"z	c #FCF9FA",
"A	c #F6EFF0",
"B	c #E4CFD4",
"C	c #ECDDE1",
"D	c #FEFDFD",
"E	c #86283F",
"F	c #A86475",
"G	c #E7D5D9",
"H	c #913B51",
"I	c #D4B2BA",
"J	c #F5EDEF",
"K	c #FDFCFC",
"L	c #DCC0C7",
"M	c #B47988",
"N	c #141C2A",
"O	c #16202E",
"P	c #141C29",
"Q	c #172130",
"R	c #17202F",
"S	c #182231",
"T	c #101621",
"                                             .",
"                                             .",
"                                             .",
"                                             .",
"                                             .",
"                                             .",
"                                             .",
"                             ++@             .",
"                             ##$             .",
"                             ##$             .",
"    ##%&*=-;>,='   ##$  ##$ ######  )!~{]^   .",
"    ##/(_##:<[##}  ##$  ##$ |##1|| 23#4:#3)  .",
"    ##567##867##9  ##$  ##$  ##$   0#abbc#d  .",
"    ##e f##e b##g  ##$  ##$  ##$   ,######h  .",
"    ##$  ##$  ##$  ##i j##$  ##$   ,#k||||l  .",
"    ##$  ##$  ##$  *#m n##$  3#e   o#pq  rs  .",
"    ##$  ##$  ##$  t#u!*##$  v#wx| yz#ABCD#  .",
"    ##$  ##$  ##$  E]w4F##$  2G3##  HIJKJLM  .",
"                                             .",
"                                             .",
"                                             .",
"                                             .",
"                                             .",
"                                             .",
"NNNNNOPNNNNNNNNNNPPPPPPNNNNNNONOOOOOOOOQRRRSRT"};
