/* XPM */
static char * mute_selected[] = {
"46 25 87 1",
" 	c #2F7868",
".	c #202D42",
"+	c #202E43",
"@	c #367C6D",
"#	c #327A6A",
"$	c #FFFFFF",
"%	c #A1C2BB",
"&	c #A6C5BE",
"*	c #A8C6C0",
"=	c #F4F8F7",
"-	c #ECF3F1",
";	c #8DB5AC",
">	c #408374",
",	c #BBD3CE",
"'	c #F7FAF9",
")	c #8BB4AB",
"!	c #61988C",
"~	c #C8DCD7",
"{	c #F8FBFA",
"]	c #CFE0DC",
"^	c #649A8E",
"/	c #F9FBFB",
"(	c #EAF1F0",
"_	c #EDF3F2",
":	c #E6EFED",
"<	c #E9F1EF",
"[	c #EEF4F3",
"}	c #5D9689",
"|	c #D2E2DE",
"1	c #EBF2F0",
"2	c #639A8E",
"3	c #FCFDFD",
"4	c #E7EFED",
"5	c #E3EDEB",
"6	c #367D6D",
"7	c #4C8B7D",
"8	c #E2ECEA",
"9	c #93B9B1",
"0	c #CCDEDA",
"a	c #B7D0CB",
"b	c #307969",
"c	c #C5D9D5",
"d	c #C9DCD8",
"e	c #AAC8C1",
"f	c #317A6A",
"g	c #A0C2BA",
"h	c #F5F9F8",
"i	c #223046",
"j	c #A2C3BB",
"k	c #3A7F70",
"l	c #E5EEEC",
"m	c #D1E1DE",
"n	c #B8D1CB",
"o	c #74A49A",
"p	c #CBDDD9",
"q	c #C4D9D4",
"r	c #347B6C",
"s	c #3E8273",
"t	c #7CAAA0",
"u	c #223047",
"v	c #C0D6D1",
"w	c #FEFEFE",
"x	c #DCE8E6",
"y	c #FBFCFC",
"z	c #D5E4E1",
"A	c #5F978B",
"B	c #FAFCFB",
"C	c #F1F6F5",
"D	c #D6E5E1",
"E	c #FDFEFE",
"F	c #49897B",
"G	c #DBE8E5",
"H	c #599487",
"I	c #BED5D0",
"J	c #F0F5F4",
"K	c #FDFDFD",
"L	c #CADDD9",
"M	c #8EB5AD",
"N	c #233249",
"O	c #24334A",
"P	c #141C2A",
"Q	c #16202E",
"R	c #141C29",
"S	c #172130",
"T	c #17202F",
"U	c #182231",
"V	c #101621",
"                                             .",
"                                             .",
"                                             .",
"                                             +",
"                                             +",
"                                             +",
"                                             +",
"                             @@#             +",
"                             $$%             +",
"                             $$%             +",
"    $$&*=-;>,'-)   $$%  $$% $$$$$$  !~={]^   +",
"    $$/(_$$:<[$$}  $$%  $$% |$$1|| 23$4:$3!  +",
"    $$567$$867$$9  $$%  $$%  $$%   0$abbc$d  +",
"    $$e f$$e b$$g  $$%  $$%  $$%   '$$$$$$h  i",
"    $$%  $$%  $$%  $$j k$$%  $$%   '$l||||m  +",
"    $$%  $$%  $$%  =$n o$$%  3$e   p$qr  st  u",
"    $$%  $$%  $$%  v$w~=$$%  x$yz| AB$CD8E$  u",
"    $$%  $$%  $$%  F]y4t$$%  2G3$$  HIJKJLM  u",
"                                             u",
"                                             N",
"                                             u",
"                                             N",
"                                             O",
"                                             O",
"PPPPPQRPPPPPPPPPPRRRRRRPPPPPPQPQQQQQQQQSTTTUTV"};
