/* XPM */
static char *mute_focus[] = {
/* columns rows colors chars-per-pixel */
"57 52 100 2",
"   c black",
".  c #000101",
"X  c #010101",
"o  c #010102",
"O  c #010203",
"+  c #020203",
"@  c #020304",
"#  c #020305",
"$  c #030406",
"%  c #040608",
"&  c #050609",
"*  c #05070A",
"=  c #06090D",
"-  c #070A0E",
";  c #070A0F",
":  c #080C11",
">  c #090C12",
",  c #090D12",
"<  c #090D13",
"1  c #0A0E14",
"2  c #0A0E15",
"3  c #0A0F15",
"4  c #0B1017",
"5  c #0C1118",
"6  c #0D131C",
"7  c #0E141D",
"8  c #0F151F",
"9  c #111822",
"0  c #121925",
"q  c #131B28",
"w  c #141C29",
"e  c #151E2C",
"r  c #161F2E",
"t  c #17202F",
"y  c #182232",
"u  c #182333",
"i  c #192333",
"p  c #192435",
"a  c #1B2739",
"s  c #1D293C",
"d  c #1E2B3F",
"f  c #1F2C40",
"g  c #1F2C41",
"h  c #202D42",
"j  c #202E43",
"k  c #212E44",
"l  c #212F44",
"z  c #212F45",
"x  c #223046",
"c  c #223047",
"v  c #223147",
"b  c #233148",
"n  c #233248",
"m  c #233249",
"M  c #24324A",
"N  c #24334A",
"B  c #24334B",
"V  c #24344C",
"C  c #25344C",
"Z  c #25354D",
"A  c #26354E",
"S  c #26364E",
"D  c #26364F",
"F  c #263650",
"G  c #273852",
"H  c #293A55",
"J  c #293B56",
"K  c #2A3B57",
"L  c #2B3D59",
"P  c #2B3D5A",
"I  c #2C3E5A",
"U  c #2C3E5B",
"Y  c #304463",
"T  c #314667",
"R  c #364D71",
"E  c #3A5379",
"W  c #3D577E",
"Q  c #3D5880",
"!  c #3E5981",
"~  c #3F5A82",
"^  c #3F5B84",
"/  c #405C87",
"(  c #415D86",
")  c #425E87",
"_  c #415D88",
"`  c #415F88",
"'  c #425E89",
"]  c #425F8B",
"[  c #435F8A",
"{  c #43608C",
"}  c #44608B",
"|  c #587199",
" . c #6C83A5",
".. c #8295B2",
"X. c #96A6BF",
"o. c #ABB8CC",
"O. c #C0CAD9",
"+. c #D5DBE5",
"@. c #EAEDF2",
"#. c gray100",
/* pixels */
"z { { { { } ^ E U G m h q > X X X X X X X X X X X X X X X X X X X X X X X X X X X X X X X X X X X X X X X X X X X ",
"z { { { { { { { { { { { { { } U h - X X X X X X X X X X X X X X X X X X X X X X X X X X X X X X X X X X X X X X X ",
"x { { { { { { { { { { { { { { { { { Y u - X X X X X X X X X X X X X X X X X X X X X X X X X X X X X X X X X X X X ",
"x { { { { { { { { { { { { { { { { { { ] { H q X X X X X X X X X X X X X X X X X X X X X X X X X X X X X X X X X X ",
"x { { { { { { { { { { { { { { { { { { { { { { ! t X X X X X X X X X X X X X X X X X X X X X X X X X X X X X X X X ",
"x { { { { { { { { { { { { { { { { { { { { { { { { W e X X X X X X X X X X X X X X X X X X X X X X X X X X X X X X ",
"x { { { { { { { { { { { { { { { { { { { { { { { { { { E w X X X X X X X X X X X X X X X X X X X X X X X X X X X X ",
"m { { { { { { { { { { { { { { { { { { { { { { { { { { { ] P : X X X X X X X X X X X X X X X X X X X X X X X X X X ",
"m ] { { { { { { { { { { { { { { { { { { { { { { { { { { { { _ p X X X X X X X X X X X X X X X X X X X X X X X X X ",
"m ] { { { { { { { { { { { { { { { { { { { { { { { { { { { { { { H - X X X X X X X X X X X X X X X X X X X X X X X ",
"m { { { { { { { { { { { { { { { { { { { { { { { { { { { { { { { { ( r X X X X X X X X X X X X X X X X X X X X X X ",
"m { { { { { { { { { { { { { { { { { { { { { { { { { { { { { { { { { { A X X X X X X X X X X X X X X X X X X X X X ",
"m { { { { { { { { { { { { { { { { { { { { { { { { { { { { { { { { { { { H $ X X X X X X X X X X X X X X X X X X X ",
"m { { { { { { { { { { { { { { { { { { { { { { { { { { { { { { { { { { { { R - X X X X X X X X X X X X X X X X X X ",
"m { { { { { { { { { { { { { { { { { { { { { { { { { { { { { { { { { { { { { ! 6 X X X X X X X X X X X X X X X X X ",
"m { { { { { { { { { { { { { { { { { { { { { { { { { { { { { { { { { { { { { { ( 7 X X X X X X X X X X X X X X X X ",
"m { { { { { { { { { { { { { { { { { { { { { { { { { { { { { { { { { { { { { { { _ 7 X X X X X X X X X X X X X X X ",
"V { { { { { { { { { { { { { { { { { { { { { { { { { { { { { { { { { { { { { { { { ^ > X X X X X X X X X X X X X X ",
"m { { { { { { { { { { { { { { { { { { { { { { { { { { { { { { { { { { { { { { { { { W & X X X X X X X X X X X X X ",
"V { { { { { { { { { { { { { { { { { { { { { { { { { { { { { { { { { { { { { { { { { } P X X X X X X X X X X X X X ",
"V { { { { { { { { { { { { { { { { { { { { { { { { { { { { { { { { { { { { { { { { { { { A X X X X X X X X X X X X ",
"V { { { { { { { { { { { { { { { { { { { { { { { { { { { { { { { { { { { { { { { { { { { { s X X X X X X X X X X X ",
"V { { { { { { { { { { { { { { { { { { { { { { { { { { { { { { { { { { { { { { { { { { { { } 6 X X X X X X X X X X ",
"V { { { { { { { { { { { { { { { { { { { { { { { { { { { { { { { { { { { { { { { { { { { { { W $ X X X X X X X X X ",
"A { { { { { { { { { { { { { { { { { { { { { { { { { { { { { { { { { { { { { { { { { { { { { { x X X X X X X X X X ",
"A { { { { { { { { { { { { { { { { { { { { { { { { { { { { { { { { { { { { { { { { { { { { { { { 9 X X X X X X X X ",
"A { { { { { { { { { { { { { { { { { { { { { { { { { { { { { { { { { { { { { { { { { { { { { { { ! & X X X X X X X ",
"m { { { { { { { { { { { { { { { { { { { { { { { { { { { { { { { { { { { { { { { { { { { { { { { ] m X X X X X X X ",
"A { { { { { { { { { { { { { { { { { { { { { { { { { { { { { { { { { { { { { { { { { { { { { { { { } > X X X X X X ",
"A { { { { { { { { { { { { { { { { { { { { { { { { { { { { { { { { { { { { { { { { { { { { { { { { { A X X X X X X ",
"m { { { { { { { { { { { { { { { { { { { { { { { { { { { { { { { { { { { { { { { { { { { { { { { { { { 2 X X X X X ",
"m { { { { { { { { { { { { { { { { { { { { { { { { { { { { { { { { { { { { { { { { { { { { { { { { { ] A X X X X X ",
"B { { { { { { { { { { { { { { { { { { { { { { { { { { { { { { { { | ....| { { { { { { { { { { { { { { { 4 X X X X ",
"m { { { { { { { { { { { { { { { { { { { { { { { { { { { { { { { { ..#.#...{ { { { { { { { { { { { { { { A X X X X ",
"m { { { { { { { { { { { { { { { { { { { { { { { { { { { { { { { { ..#.#...{ { { { { { { { { { { { { { { } - X X X ",
"m { { { { X.O.O. .+.#.@.X.{ o.@.#.+.| { { { O.O.X.{ { { O.O.X.{ X.+.#.#.+.O.O. .{ { X.+.#.#.@.X.{ { { { { u X X X ",
"m { { { { O.#.#.#.#.#.#.#.+.#.#.#.#.@.{ { { #.#.O.{ { { #.#.O.{ O.#.#.#.#.#.#...{ O.#.#.#.#.#.#.O.{ { { { P X X X ",
"m { { { { O.#.#.O.{ ..#.#.#...{ O.#.#...{ { #.#.O.{ { { #.#.O.{  .o.#.#.o.....|  .#.#.O.| { o.#.#. .{ { { { ; X X ",
"m { { { { O.#.#.| { { #.#.+.{ { ..#.#...{ { #.#.O.{ { { #.#.O.{ { ..#.#...{ { { o.#.#.X.......#.#.o.{ { { { a X X ",
"x { { { { O.#.#.{ { { #.#.O.{ { ..#.#...{ { #.#.O.{ { { #.#.O.{ { ..#.#...{ { { O.#.#.#.#.#.#.#.#.O.{ { { { R X X ",
"x { { { { O.#.#.{ { { #.#.O.{ { ..#.#...{ { #.#.O.{ { { #.#.O.{ { ..#.#...{ { { O.#.#............. .{ { { { { 2 X ",
"x { { { { O.#.#.{ { { #.#.O.{ { ..#.#...{ { #.#.+.{ { X.#.#.O.{ { ..#.#.X.{ { { ..#.#.X.{ { { {  . .{ { { { { t X ",
"x { { { { O.#.#.{ { { #.#.O.{ { ..#.#...{ { +.#.#.+.O.#.#.#.O.{ { | #.#.#.#.#.{ { @.#.#.+.O.O.#.#...{ { { { { x X ",
"z { { { { O.#.#.{ { { #.#.O.{ { ..#.#...{ { | @.#.#.#.X.#.#.O.{ { { ..@.#.#.#.{ { | +.#.#.#.#.#.+.| { { { { { T X ",
"z { { { { { { { { { { { { { { { { { { { { { { { ....| { { { { { { { { { { { { { { { { | ......{ { { { { { { { { @ ",
"z { { { { { { { { { { { { { { { { { { { { { { { { { { { { { { { { { { { { { { { { { { { { { { { { { { { { { { { 4 ",
"z { { { { { { { { { { { { { { { { { { { { { { { { { { { { { { { { { { { { { { { { { { { { { { { { { { { { { { { 0 ",
"h { { { { { { { { { { { { { { { { { { { { { { { { { { { { { { { { { { { { { { { { { { { { { { { { { { { { { { { t ",
"h { { { { { { { { { { { { { { { { { { { { { { { { { { { { { { { { { { { { { { { { { { { { { { { { { { { { { { { d ",
"h { { { { { { { { { { { { { { { { { { { { { { { { { { { { { { { { { { { { { { { { { { { { { { { { { { { { { { { h ",
"h { { { { { { { { { { { { { { { { { { { } } { { { { { { { { { { { { { { { { { { { { { { { { { { { { { { { { { { x ",
"g ] _ { } } _ } } _ _ _ _ } } ^ _ _ _ _ ^ } ( } } ^ ^ ^ ^ ^ ^ { _ _ _ _ _ _ } } } { { { { { { { { { { { { { { { x "
};
