/* XPM */
static char *mute_disabled[] = {
/* columns rows colors chars-per-pixel */
"57 52 98 2",
"   c black",
".  c #000101",
"X  c #010101",
"o  c #010102",
"O  c #010203",
"+  c #020203",
"@  c #020304",
"#  c #020305",
"$  c #030406",
"%  c #040608",
"&  c #050609",
"*  c #05070A",
"=  c #06090D",
"-  c #070A0E",
";  c #070A0F",
":  c #080C11",
">  c #090C12",
",  c #090D12",
"<  c #090D13",
"1  c #0A0E14",
"2  c #0A0E15",
"3  c #0A0F15",
"4  c #0B1017",
"5  c #0C1118",
"6  c #0D131C",
"7  c #0E141D",
"8  c #0F151F",
"9  c #111822",
"0  c #121925",
"q  c #131B28",
"w  c #141C29",
"e  c #151E2C",
"r  c #161F2E",
"t  c #17202F",
"y  c #182232",
"u  c #182333",
"i  c #192333",
"p  c #192435",
"a  c #1B2739",
"s  c #1D293C",
"d  c #1E2B3F",
"f  c #1F2C40",
"g  c #1F2C41",
"h  c #202D42",
"j  c #202E43",
"k  c #212E44",
"l  c #212F44",
"z  c #212F45",
"x  c #223046",
"c  c #223047",
"v  c #223147",
"b  c #233148",
"n  c #233248",
"m  c #233249",
"M  c #24324A",
"N  c #24334A",
"B  c #24334B",
"V  c #24344C",
"C  c #25344C",
"Z  c #25354D",
"A  c #26354E",
"S  c #26364E",
"D  c #26364F",
"F  c #263650",
"G  c #273852",
"H  c #293A55",
"J  c #293B56",
"K  c #2A3B57",
"L  c #2B3D59",
"P  c #2B3D5A",
"I  c #2C3E5A",
"U  c #2C3E5B",
"Y  c #364357",
"T  c #314159",
"R  c #30405A",
"E  c #3B4554",
"W  c #3E4653",
"Q  c #3F4754",
"!  c #404855",
"~  c #404957",
"^  c #414A58",
"/  c #424B59",
"(  c #444D5B",
")  c #454E5C",
"_  c #454F5C",
"`  c #454F5E",
"'  c #464F5D",
"]  c #46505F",
"[  c #475160",
"{  c #5B6471",
"}  c #6F7783",
"|  c #848B95",
" . c #999EA6",
".. c #ADB1B8",
"X. c #C2C5CA",
"o. c #D6D8DB",
"O. c #EAEBED",
"+. c gray100",
/* pixels */
"z [ [ [ [ [ / E U G m h w > X X X X X X X X X X X X X X X X X X X X X X X X X X X X X X X X X X X X X X X X X X X ",
"z [ [ [ [ [ [ [ [ [ [ [ [ [ [ U h - X X X X X X X X X X X X X X X X X X X X X X X X X X X X X X X X X X X X X X X ",
"x [ [ [ [ [ [ [ [ [ [ [ [ [ [ [ [ [ U i - X X X X X X X X X X X X X X X X X X X X X X X X X X X X X X X X X X X X ",
"x [ [ [ [ [ [ [ [ [ [ [ [ [ [ [ [ [ [ ] ` H w X X X X X X X X X X X X X X X X X X X X X X X X X X X X X X X X X X ",
"x [ [ [ [ [ [ [ [ [ [ [ [ [ [ [ [ [ [ [ [ [ [ ! y X X X X X X X X X X X X X X X X X X X X X X X X X X X X X X X X ",
"x [ [ [ [ [ [ [ [ [ [ [ [ [ [ [ [ [ [ [ [ [ [ [ ] E e X X X X X X X X X X X X X X X X X X X X X X X X X X X X X X ",
"x [ [ [ [ [ [ [ [ [ [ [ [ [ [ [ [ [ [ [ [ [ [ [ [ [ [ E w X X X X X X X X X X X X X X X X X X X X X X X X X X X X ",
"m [ [ [ [ [ [ [ [ [ [ [ [ [ [ [ [ [ [ [ [ [ [ [ [ [ [ [ ` P : X X X X X X X X X X X X X X X X X X X X X X X X X X ",
"m [ [ [ [ [ [ [ [ [ [ [ [ [ [ [ [ [ [ [ [ [ [ [ [ [ [ [ [ [ ' y X X X X X X X X X X X X X X X X X X X X X X X X X ",
"m ` [ [ [ [ [ [ [ [ [ [ [ [ [ [ [ [ [ [ [ [ [ [ [ [ [ [ [ [ [ [ H ; X X X X X X X X X X X X X X X X X X X X X X X ",
"m [ [ [ [ [ [ [ [ [ [ [ [ [ [ [ [ [ [ [ [ [ [ [ [ [ [ [ [ [ [ [ [ / y X X X X X X X X X X X X X X X X X X X X X X ",
"m [ [ [ [ [ [ [ [ [ [ [ [ [ [ [ [ [ [ [ [ [ [ [ [ [ [ [ [ [ [ [ [ [ [ C X X X X X X X X X X X X X X X X X X X X X ",
"m ] [ [ [ [ [ [ [ [ [ [ [ [ [ [ [ [ [ [ [ [ [ [ [ [ [ [ [ [ [ [ [ [ [ [ H $ X X X X X X X X X X X X X X X X X X X ",
"m [ [ [ [ [ [ [ [ [ [ [ [ [ [ [ [ [ [ [ [ [ [ [ [ [ [ [ [ [ [ [ [ [ [ [ [ Y - X X X X X X X X X X X X X X X X X X ",
"m [ [ [ [ [ [ [ [ [ [ [ [ [ [ [ [ [ [ [ [ [ [ [ [ [ [ [ [ [ [ [ [ [ [ [ [ [ ! 5 X X X X X X X X X X X X X X X X X ",
"m [ [ [ [ [ [ [ [ [ [ [ [ [ [ [ [ [ [ [ [ [ [ [ [ [ [ [ [ [ [ [ [ [ [ [ [ [ ` ' 7 X X X X X X X X X X X X X X X X ",
"m [ [ [ [ [ [ [ [ [ [ [ [ [ [ [ [ [ [ [ [ [ [ [ [ [ [ [ [ [ [ [ [ [ [ [ [ [ [ [ ` 7 X X X X X X X X X X X X X X X ",
"C [ [ [ [ [ [ [ [ [ [ [ [ [ [ [ [ [ [ [ [ [ [ [ [ [ [ [ [ [ [ [ [ [ [ [ [ [ [ [ [ / > X X X X X X X X X X X X X X ",
"m [ [ [ [ [ [ [ [ [ [ [ [ [ [ [ [ [ [ [ [ [ [ [ [ [ [ [ [ [ [ [ [ [ [ [ [ [ [ [ [ [ W * X X X X X X X X X X X X X ",
"C [ [ [ [ [ [ [ [ [ [ [ [ [ [ [ [ [ [ [ [ [ [ [ [ [ [ [ [ [ [ [ [ [ [ [ [ [ [ [ [ [ ` P X X X X X X X X X X X X X ",
"C [ [ [ [ [ [ [ [ [ [ [ [ [ [ [ [ [ [ [ [ [ [ [ [ [ [ [ [ [ [ [ [ [ [ [ [ [ [ [ [ [ [ [ C X X X X X X X X X X X X ",
"C [ [ [ [ [ [ [ [ [ [ [ [ [ [ [ [ [ [ [ [ [ [ [ [ [ [ [ [ [ [ [ [ [ [ [ [ [ [ [ [ [ [ [ ` d X X X X X X X X X X X ",
"C [ [ [ [ [ [ [ [ [ [ [ [ [ [ [ [ [ [ [ [ [ [ [ [ [ [ [ [ [ [ [ [ [ [ [ [ [ [ [ [ [ [ [ [ [ 7 X X X X X X X X X X ",
"C [ [ [ [ [ [ [ [ [ [ [ [ [ [ [ [ [ [ [ [ [ [ [ [ [ [ [ [ [ [ [ [ [ [ [ [ [ [ [ [ [ [ [ [ [ W $ X X X X X X X X X ",
"C [ [ [ [ [ [ [ [ [ [ [ [ [ [ [ [ [ [ [ [ [ [ [ [ [ [ [ [ [ [ [ [ [ [ [ [ [ [ [ [ [ [ [ [ [ [ x X X X X X X X X X ",
"C [ [ [ [ [ [ [ [ [ [ [ [ [ [ [ [ [ [ [ [ [ [ [ [ [ [ [ [ [ [ [ [ [ [ [ [ [ [ [ [ [ [ [ [ [ [ [ 9 X X X X X X X X ",
"C [ [ [ [ [ [ [ [ [ [ [ [ [ [ [ [ [ [ [ [ [ [ [ [ [ [ [ [ [ [ [ [ [ [ [ [ [ [ [ [ [ [ [ [ [ [ [ ! * X X X X X X X ",
"C [ [ [ [ [ [ [ [ [ [ [ [ [ [ [ [ [ [ [ [ [ [ [ [ [ [ [ [ [ [ [ [ [ [ [ [ [ [ [ [ [ [ [ [ [ [ [ [ m X X X X X X X ",
"C [ [ [ [ [ [ [ [ [ [ [ [ [ [ [ [ [ [ [ [ [ [ [ [ [ [ [ [ [ [ [ [ [ [ [ [ [ [ [ [ [ [ [ [ [ [ [ [ [ > X X X X X X ",
"C [ [ [ [ [ [ [ [ [ [ [ [ [ [ [ [ [ [ [ [ [ [ [ [ [ [ [ [ [ [ [ [ [ [ [ [ [ [ [ [ [ [ [ [ [ [ [ [ [ C X X X X X X ",
"C [ [ [ [ [ [ [ [ [ [ [ [ [ [ [ [ [ [ [ [ [ [ [ [ [ [ [ [ [ [ [ [ [ [ [ [ [ [ [ [ [ [ [ [ [ [ [ [ [ [ 2 X X X X X ",
"C [ [ [ [ [ [ [ [ [ [ [ [ [ [ [ [ [ [ [ [ [ [ [ [ [ [ [ [ [ [ [ [ [ [ [ [ [ [ [ [ [ [ [ [ [ [ [ [ [ [ C X X X X X ",
"V [ [ [ [ [ [ [ [ [ [ [ [ [ [ [ [ [ [ [ [ [ [ [ [ [ [ [ [ [ [ [ [ { | | { [ [ [ [ [ [ [ [ [ [ [ [ [ [ [ 4 X X X X ",
"m [ [ [ [ [ [ [ [ [ [ [ [ [ [ [ [ [ [ [ [ [ [ [ [ [ [ [ [ [ [ [ [ | +.+.| [ [ [ [ [ [ [ [ [ [ [ [ [ [ [ C X X X X ",
"m [ [ [ [ [ [ [ [ [ [ [ [ [ [ [ [ [ [ [ [ [ [ [ [ [ [ [ [ [ [ [ [ | +.+.| [ [ [ [ [ [ [ [ [ [ [ [ [ [ [ [ - X X X ",
"m [ [ [ [  .X.X.} o.+.O. .[ ..O.+.o.{ [ [ [ X.X. .[ [ [ X.X. .[  .o.+.+.o.X.X.} [ [  .o.+.+.O. .[ [ [ [ [ p X X X ",
"m [ [ [ [ X.+.+.+.+.+.+.+.o.+.+.+.+.O.[ [ [ +.+.X.[ [ [ +.+.X.[ X.+.+.+.+.+.+.| [ X.+.+.+.+.+.+.X.[ [ [ [ P X X X ",
"m [ [ [ [ X.+.+.X.[ | +.+.+.| [ X.+.+.| [ [ +.+.X.[ [ [ +.+.X.[ } ..+.+...| | { } +.+.X.{ [ ..+.+.} [ [ [ [ ; X X ",
"x [ [ [ [ X.+.+.{ [ [ +.+.o.[ [ | +.+.| [ [ +.+.X.[ [ [ +.+.X.[ [ | +.+.| [ [ [ ..+.+. .| | | +.+...[ [ [ [ a X X ",
"x [ [ [ [ X.+.+.[ [ [ +.+.X.[ [ | +.+.| [ [ +.+.X.[ [ [ +.+.X.[ [ | +.+.| [ [ [ X.+.+.+.+.+.+.+.+.X.[ [ [ [ Y X X ",
"x [ [ [ [ X.+.+.[ [ [ +.+.X.[ [ | +.+.| [ [ +.+.X.[ [ [ +.+.X.[ [ | +.+.| [ [ [ X.+.+.| | | | | | } [ [ [ [ [ 2 X ",
"x [ [ [ [ X.+.+.[ [ [ +.+.X.[ [ | +.+.| [ [ +.+.o.[ [  .+.+.X.[ [ | +.+. .[ [ [ | +.+. .[ [ [ [ } } [ [ [ [ [ t X ",
"x [ [ [ [ X.+.+.[ [ [ +.+.X.[ [ | +.+.| [ [ o.+.+.o.X.+.+.+.X.[ [ { +.+.+.+.+.[ [ O.+.+.o.X.X.+.+.| [ [ [ [ [ x X ",
"z [ [ [ [ X.+.+.[ [ [ +.+.X.[ [ | +.+.| [ [ { O.+.+.+. .+.+.X.[ [ [ | O.+.+.+.[ [ { o.+.+.+.+.+.o.{ [ [ [ [ [ T X ",
"z [ [ [ [ [ [ [ [ [ [ [ [ [ [ [ [ [ [ [ [ [ [ [ | | { [ [ [ [ [ [ [ [ [ [ [ [ [ [ [ [ { | | | [ [ [ [ [ [ [ [ ' O ",
"z [ [ [ [ [ [ [ [ [ [ [ [ [ [ [ [ [ [ [ [ [ [ [ [ [ [ [ [ [ [ [ [ [ [ [ [ [ [ [ [ [ [ [ [ [ [ [ [ [ [ [ [ [ [ [ 5 ",
"z [ [ [ [ [ [ [ [ [ [ [ [ [ [ [ [ [ [ [ [ [ [ [ [ [ [ [ [ [ [ [ [ [ [ [ [ [ [ [ [ [ [ [ [ [ [ [ [ [ [ [ [ [ [ [ 0 ",
"h [ [ [ [ [ [ [ [ [ [ [ [ [ [ [ [ [ [ [ [ [ [ [ [ [ [ [ [ [ [ [ [ [ [ [ [ [ [ [ [ [ [ [ [ [ [ [ [ [ [ [ [ [ [ [ y ",
"h [ [ [ [ [ [ [ [ [ [ [ [ [ ] ] ] [ [ [ [ [ [ [ ] ] ] [ [ [ ] ] [ [ [ [ [ [ [ [ [ [ [ [ [ [ [ [ [ [ [ [ [ [ [ [ d ",
"h [ [ [ [ [ [ [ [ [ [ [ [ [ ] ] [ [ ] ] [ [ [ [ ] ] [ [ [ [ ] ] [ [ [ [ [ [ [ [ [ [ [ [ [ [ [ [ [ [ [ [ [ [ [ [ z ",
"h [ [ [ [ [ [ [ [ [ [ [ [ ] ] ] [ ] ] ] ] ] [ [ ] ] ] ] [ ] ] ] [ ` [ [ [ [ [ [ [ [ [ [ [ [ [ [ [ [ [ [ [ [ [ [ z ",
"g ` [ ` ` [ ` [ ` ` ` ` ` ` ` ] ] ' ' ' ' ' ' ] ( _ ' ' ' ' ' ' ' _ ' ' ' ' [ ` ` [ [ [ [ [ [ [ [ [ [ [ [ [ [ [ x "
};
