/* XPM */
static char * mute_focus_xpm[] = {
"57 52 170 2",
"  	c None",
". 	c #3F5B84",
"+ 	c #43608C",
"@ 	c #3F5A82",
"# 	c #2D405E",
"$ 	c #25354D",
"% 	c #1B2739",
"& 	c #121925",
"* 	c #080B10",
"= 	c #000101",
"- 	c #000000",
"; 	c #16202E",
"> 	c #3D577E",
", 	c #1C283B",
"' 	c #06080C",
") 	c #44608B",
"! 	c #283852",
"~ 	c #010202",
"{ 	c #3D5980",
"] 	c #151D2B",
"^ 	c #010101",
"/ 	c #344A6C",
"( 	c #111924",
"_ 	c #2B3D5A",
": 	c #070A0E",
"< 	c #425F8B",
"[ 	c #1E2B3F",
"} 	c #020305",
"| 	c #101721",
"1 	c #233248",
"2 	c #020204",
"3 	c #304463",
"4 	c #080C11",
"5 	c #415D86",
"6 	c #131B27",
"7 	c #202D42",
"8 	c #233148",
"9 	c #010102",
"0 	c #263650",
"a 	c #020304",
"b 	c #2A3C58",
"c 	c #030406",
"d 	c #2A3C57",
"e 	c #273750",
"f 	c #1E2A3D",
"g 	c #405B83",
"h 	c #090C12",
"i 	c #050609",
"j 	c #24344C",
"k 	c #3E5A83",
"l 	c #506484",
"m 	c #6C7D97",
"n 	c #47638E",
"o 	c #101722",
"p 	c #96A2B5",
"q 	c #FFFFFF",
"r 	c #52698E",
"s 	c #3E5981",
"t 	c #192333",
"u 	c #CCD1DB",
"v 	c #DCE0E6",
"w 	c #A1ACBD",
"x 	c #7A89A1",
"y 	c #D7DCE3",
"z 	c #F8F9FA",
"A 	c #B9C1CE",
"B 	c #4F6384",
"C 	c #4E6991",
"D 	c #B5BDCB",
"E 	c #F6F7F8",
"F 	c #ECEEF1",
"G 	c #C1C8D3",
"H 	c #516B92",
"I 	c #D2D7DF",
"J 	c #9EA9BA",
"K 	c #A3ADBE",
"L 	c #CDD3DC",
"M 	c #94A0B3",
"N 	c #BAC2CE",
"O 	c #77869F",
"P 	c #526685",
"Q 	c #B9C1CD",
"R 	c #EEF0F3",
"S 	c #CCD2DB",
"T 	c #627490",
"U 	c #EBEDF1",
"V 	c #E7EAEE",
"W 	c #F7F8F9",
"X 	c #E1E5EA",
"Y 	c #F2F3F6",
"Z 	c #B4BDCA",
"` 	c #ECEFF2",
" .	c #9DA8BA",
"..	c #75859E",
"+.	c #FDFDFD",
"@.	c #FEFEFE",
"#.	c #1C283A",
"$.	c #B6BECB",
"%.	c #61738F",
"&.	c #C8CFD8",
"*.	c #F1F3F5",
"=.	c #8C99AE",
"-.	c #E6E9ED",
";.	c #FBFBFC",
">.	c #4D6890",
",.	c #546786",
"'.	c #4B668E",
").	c #4B6790",
"!.	c #526C93",
"~.	c #51688C",
"{.	c #D6DAE2",
"].	c #F5F6F8",
"^.	c #030405",
"/.	c #E3E6EB",
"(.	c #637591",
"_.	c #ABB4C3",
":.	c #9CA8B9",
"<.	c #7989A1",
"[.	c #697B95",
"}.	c #78879F",
"|.	c #172130",
"1.	c #BCC4D0",
"2.	c #5B6E8B",
"3.	c #8391A7",
"4.	c #95A1B4",
"5.	c #D9DDE4",
"6.	c #DBDFE6",
"7.	c #BBC3CF",
"8.	c #A6B0C0",
"9.	c #E8EAEE",
"0.	c #A0ABBC",
"a.	c #0E141E",
"b.	c #49658E",
"c.	c #25344C",
"d.	c #F3F4F6",
"e.	c #4F6990",
"f.	c #71819A",
"g.	c #4E6282",
"h.	c #7B8AA2",
"i.	c #CFD5DD",
"j.	c #677994",
"k.	c #415D88",
"l.	c #B7BFCC",
"m.	c #DFE3E8",
"n.	c #FBFCFC",
"o.	c #8A98AD",
"p.	c #C2C9D4",
"q.	c #C3CAD4",
"r.	c #A8B2C2",
"s.	c #45618C",
"t.	c #141C2A",
"u.	c #4F6383",
"v.	c #506689",
"w.	c #F0F1F4",
"x.	c #C4CAD5",
"y.	c #B2BBC9",
"z.	c #273751",
"A.	c #6E7F99",
"B.	c #8794AA",
"C.	c #586B89",
"D.	c #6A7B96",
"E.	c #8896AB",
"F.	c #4E6383",
"G.	c #8492A8",
"H.	c #435F8A",
"I.	c #030507",
"J.	c #090D13",
"K.	c #0F151E",
"L.	c #161F2D",
"M.	c #151E2C",
". + + + + + + + @ # $ % & * = - - - - - - - - - - - - - - - - - - - - - - - - - - - - - - - - - - - - - - - - - - ",
". + + + + + + + + + + + + + . $ ; * - - - - - - - - - - - - - - - - - - - - - - - - - - - - - - - - - - - - - - - ",
". + + + + + + + + + + + + + + + + + > , ' - - - - - - - - - - - - - - - - - - - - - - - - - - - - - - - - - - - - ",
". + + + + + + + + + + + + + + + + + + + ) ! & ~ - - - - - - - - - - - - - - - - - - - - - - - - - - - - - - - - - ",
". + + + + + + + + + + + + + + + + + + + + + + { ] ^ - - - - - - - - - - - - - - - - - - - - - - - - - - - - - - - ",
". + + + + + + + + + + + + + + + + + + + + + + + + / ( - - - - - - - - - - - - - - - - - - - - - - - - - - - - - - ",
". + + + + + + + + + + + + + + + + + + + + + + + + + + _ : - - - - - - - - - - - - - - - - - - - - - - - - - - - - ",
". + + + + + + + + + + + + + + + + + + + + + + + + + + + < [ } - - - - - - - - - - - - - - - - - - - - - - - - - - ",
". + + + + + + + + + + + + + + + + + + + + + + + + + + + + + { | - - - - - - - - - - - - - - - - - - - - - - - - - ",
". + + + + + + + + + + + + + + + + + + + + + + + + + + + + + + + 1 2 - - - - - - - - - - - - - - - - - - - - - - - ",
". + + + + + + + + + + + + + + + + + + + + + + + + + + + + + + + + 3 4 - - - - - - - - - - - - - - - - - - - - - - ",
". + + + + + + + + + + + + + + + + + + + + + + + + + + + + + + + + + 5 6 - - - - - - - - - - - - - - - - - - - - - ",
". + + + + + + + + + + + + + + + + + + + + + + + + + + + + + + + + + + + 7 - - - - - - - - - - - - - - - - - - - - ",
". + + + + + + + + + + + + + + + + + + + + + + + + + + + + + + + + + + + + 8 9 - - - - - - - - - - - - - - - - - - ",
". + + + + + + + + + + + + + + + + + + + + + + + + + + + + + + + + + + + + + 0 a - - - - - - - - - - - - - - - - - ",
". + + + + + + + + + + + + + + + + + + + + + + + + + + + + + + + + + + + + + + b c - - - - - - - - - - - - - - - - ",
". + + + + + + + + + + + + + + + + + + + + + + + + + + + + + + + + + + + + + + + d a - - - - - - - - - - - - - - - ",
". + + + + + + + + + + + + + + + + + + + + + + + + + + + + + + + + + + + + + + + + e 9 - - - - - - - - - - - - - - ",
". + + + + + + + + + + + + + + + + + + + + + + + + + + + + + + + + + + + + + + + + + 8 - - - - - - - - - - - - - - ",
". + + + + + + + + + + + + + + + + + + + + + + + + + + + + + + + + + + + + + + + + + + f - - - - - - - - - - - - - ",
". + + + + + + + + + + + + + + + + + + + + + + + + + + + + + + + + + + + + + + + + + + + 6 - - - - - - - - - - - - ",
"g + + + + + + + + + + + + + + + + + + + + + + + + + + + + + + + + + + + + + + + + + + + 5 h - - - - - - - - - - - ",
"g + + + + + + + + + + + + + + + + + + + + + + + + + + + + + + + + + + + + + + + + + + + + / } - - - - - - - - - - ",
"g + + + + + + + + + + + + + + + + + + + + + + + + + + + + + + + + + + + + + + + + + + + + + 1 - - - - - - - - - - ",
"g + + + + + + + + + + + + + + + + + + + + + + + + + + + + + + + + + + + + + + + + + + + + + + & - - - - - - - - - ",
"g + + + + + + + + + + + + + + + + + + + + + + + + + + + + + + + + + + + + + + + + + + + + + + @ i - - - - - - - - ",
"g + + + + + + + + + + + + + + + + + + + + + + + + + + + + + + + + + + + + + + + + + + + + + + + j - - - - - - - - ",
"k + + + + + + + + + + + + + + + + + + + + + + + + + + + + + + + + + l m m n + + + + + + + + + + + o - - - - - - - ",
"k + + + + + + + + + + + + + + + + + + + + + + + + + + + + + + + + + p q q r + + + + + + + + + + + s 2 - - - - - - ",
"k + + + + + + + + + + + + + + + + + + + + + + + + + + + + + + + + + p q q r + + + + + + + + + + + + t - - - - - - ",
"@ + + + + + u v w x y z A B C D E F G H + + I v J + + + K v L + + M y q q N O + + P Q E R S T + + + g c - - - - - ",
"@ + + + + + U q V q q q q W X q q q q G + + Y q Z + + + A q ` + + u q q q q  .+ ..+.q @.q q +.O + + + #.- - - - - ",
"@ + + + + + U q q $.%.&.q q *.=.T -.q ;.n + Y q Z + + + A q ` + + >. .q q ,.'.).U q L !.~.{.q ].H + + 5 ^.- - - - ",
"@ + + + + + U q /.+ + (.q q _.+ + :.q q ~.+ Y q Z + + + A q ` + + + p q q r + <.q q [.+ + [.q q }.+ + + |.- - - - ",
"@ + + + + + U q 1.+ + 2.q q 3.+ + 4.q q ~.+ Y q Z + + + A q ` + + + p q q r + p q q 5.y y 6.q q 4.+ + + / - - - - ",
"@ + + + + + U q 7.+ + 2.q q 3.+ + 4.q q ~.+ Y q Z + + + A q ` + + + p q q r + 8.q @.9.9.9.9.9.9.0.+ + + + a.- - - ",
"@ + + + + + U q 7.+ + 2.q q 3.+ + 4.q q ~.+ Y q 1.+ + + S q ` + + + p q q r + =.q @.b.+ + + + + + + + + + c.- - - ",
"@ + + + + + U q 7.+ + 2.q q 3.+ + 4.q q ~.+ /.q d.e.+ f.@.q ` + + + p q q g.+ 2.q q h.+ + [.i.i.j.+ + + + k.c - - ",
"@ + + + + + U q 7.+ + 2.q q 3.+ + 4.q q ~.+ l.q q +.m.q n.q ` + + + o.q q p.f.+ q.q +.&.r.].q 6.s.+ + + + + t.- - ",
"@ + + + + + U q 7.+ + 2.q q 3.+ + 4.q q ~.+ u.*.q q q $.1.q ` + + + v.w.q q  .+ H x.q q q q y.).+ + + + + + z.- - ",
"s + + + + + + + + + + + + + + + + + + + + + + '.A.B.C.+ + + + + + + + s.D.E.F.+ + + v.G.<.P + + + + + + + + H.I.- ",
"s + + + + + + + + + + + + + + + + + + + + + + + + + + + + + + + + + + + + + + + + + + + + + + + + + + + + + + | - ",
"s + + + + + + + + + + + + + + + + + + + + + + + + + + + + + + + + + + + + + + + + + + + + + + + + + + + + + + % - ",
"s + + + + + + + + + + + + + + + + + + + + + + + + + + + + + + + + + + + + + + + + + + + + + + + + + + + + + + e - ",
"s + + + + + + + + + + + + + + + + + + + + + + + + + + + + + + + + + + + + + + + + + + + + + + + + + + + + + + g - ",
"s + + + + + + + + + + + + + + + + + + + + + + + + + + + + + + + + + + + + + + + + + + + + + + + + + + + + + + + I.",
"s + + + + + + + + + + + + + + + + + + + + + + + + + + + + + + + + + + + + + + + + + + + + + + + + + + + + + + + J.",
"s + + + + + + + + + + + + + + + + + + + + + + + + + + + + + + + + + + + + + + + + + + + + + + + + + + + + + + + K.",
"s + + + + + + + + + + + + + + + + + + + + + + + + + + + + + + + + + + + + + + + + + + + + + + + + + + + + + + + t.",
"s + + + + + + + + + + + + + + + + + + + + + + + + + + + + + + + + + + + + + + + + + + + + + + + + + + + + + + + L.",
"s + + + + + + + + + + + + + + + + + + + + + + + + + + + + + + + + + + + + + + + + + + + + + + + + + + + + + + + M.",
"> H.H.H.< < ) ) ) + + + + + + + + + + + + + + + + + + + + + + + + + + + + + + + + + + + + + + + + + + + + + + + ] "};
