/* XPM */
static char * mute_normal_xpm[] = {
"57 52 173 2",
"  	c None",
". 	c #33486A",
"+ 	c #374E72",
"@ 	c #324667",
"# 	c #2C3F5C",
"$ 	c #25354D",
"% 	c #1B2739",
"& 	c #121925",
"* 	c #080B10",
"= 	c #000101",
"- 	c #000000",
"; 	c #16202E",
"> 	c #304463",
", 	c #1C283B",
"' 	c #06080C",
") 	c #374D71",
"! 	c #283852",
"~ 	c #010202",
"{ 	c #304564",
"] 	c #151D2B",
"^ 	c #010101",
"/ 	c #2E415F",
"( 	c #111924",
"_ 	c #2B3D5A",
": 	c #070A0E",
"< 	c #364D71",
"[ 	c #1E2B3F",
"} 	c #020305",
"| 	c #101721",
"1 	c #233248",
"2 	c #020204",
"3 	c #2D405D",
"4 	c #080C11",
"5 	c #344A6C",
"6 	c #131B27",
"7 	c #202D42",
"8 	c #233148",
"9 	c #010102",
"0 	c #263650",
"a 	c #020304",
"b 	c #2A3C58",
"c 	c #030406",
"d 	c #2A3C57",
"e 	c #273750",
"f 	c #1E2A3D",
"g 	c #334869",
"h 	c #090C12",
"i 	c #324768",
"j 	c #050609",
"k 	c #24344C",
"l 	c #324869",
"m 	c #506484",
"n 	c #6C7D97",
"o 	c #3B5275",
"p 	c #101722",
"q 	c #96A2B5",
"r 	c #FFFFFF",
"s 	c #485D7E",
"t 	c #314565",
"u 	c #192333",
"v 	c #CCD1DB",
"w 	c #DCE0E6",
"x 	c #A1ACBD",
"y 	c #7A89A1",
"z 	c #D7DCE3",
"A 	c #F8F9FA",
"B 	c #B9C1CE",
"C 	c #4C6080",
"D 	c #415779",
"E 	c #B5BDCB",
"F 	c #F6F7F8",
"G 	c #ECEEF1",
"H 	c #C1C8D3",
"I 	c #455B7C",
"J 	c #D2D7DF",
"K 	c #9EA9BA",
"L 	c #A3ADBE",
"M 	c #CDD3DC",
"N 	c #94A0B3",
"O 	c #BAC2CE",
"P 	c #77869F",
"Q 	c #526685",
"R 	c #B9C1CD",
"S 	c #EEF0F3",
"T 	c #CCD2DB",
"U 	c #627490",
"V 	c #EBEDF1",
"W 	c #E7EAEE",
"X 	c #F7F8F9",
"Y 	c #E1E5EA",
"Z 	c #F2F3F6",
"` 	c #B4BDCA",
" .	c #ECEFF2",
"..	c #9DA8BA",
"+.	c #75859E",
"@.	c #FDFDFD",
"#.	c #FEFEFE",
"$.	c #1C283A",
"%.	c #B6BECB",
"&.	c #61738F",
"*.	c #C8CFD8",
"=.	c #F1F3F5",
"-.	c #8C99AE",
";.	c #E6E9ED",
">.	c #FBFBFC",
",.	c #405678",
"'.	c #546786",
").	c #3E5476",
"!.	c #3F5578",
"~.	c #465B7D",
"{.	c #495E7F",
"].	c #D6DAE2",
"^.	c #F5F6F8",
"/.	c #030405",
"(.	c #E3E6EB",
"_.	c #637591",
":.	c #ABB4C3",
"<.	c #9CA8B9",
"[.	c #7989A1",
"}.	c #697B95",
"|.	c #78879F",
"1.	c #172130",
"2.	c #BCC4D0",
"3.	c #5B6E8B",
"4.	c #8391A7",
"5.	c #95A1B4",
"6.	c #D9DDE4",
"7.	c #DBDFE6",
"8.	c #324767",
"9.	c #BBC3CF",
"0.	c #A6B0C0",
"a.	c #E8EAEE",
"b.	c #A0ABBC",
"c.	c #0E141E",
"d.	c #3D5376",
"e.	c #25344C",
"f.	c #F3F4F6",
"g.	c #42587A",
"h.	c #71819A",
"i.	c #4E6282",
"j.	c #7B8AA2",
"k.	c #CFD5DD",
"l.	c #677994",
"m.	c #354B6E",
"n.	c #B7BFCC",
"o.	c #DFE3E8",
"p.	c #FBFCFC",
"q.	c #8A98AD",
"r.	c #C2C9D4",
"s.	c #C3CAD4",
"t.	c #A8B2C2",
"u.	c #384F73",
"v.	c #141C2A",
"w.	c #4F6383",
"x.	c #4A5F7F",
"y.	c #F0F1F4",
"z.	c #C4CAD5",
"A.	c #B2BBC9",
"B.	c #273751",
"C.	c #314666",
"D.	c #6E7F99",
"E.	c #8794AA",
"F.	c #586B89",
"G.	c #6A7B96",
"H.	c #8896AB",
"I.	c #4D6282",
"J.	c #8492A8",
"K.	c #364D70",
"L.	c #030507",
"M.	c #090D13",
"N.	c #0F151E",
"O.	c #161F2D",
"P.	c #151E2C",
". + + + + + + + @ # $ % & * = - - - - - - - - - - - - - - - - - - - - - - - - - - - - - - - - - - - - - - - - - - ",
". + + + + + + + + + + + + + . $ ; * - - - - - - - - - - - - - - - - - - - - - - - - - - - - - - - - - - - - - - - ",
". + + + + + + + + + + + + + + + + + > , ' - - - - - - - - - - - - - - - - - - - - - - - - - - - - - - - - - - - - ",
". + + + + + + + + + + + + + + + + + + + ) ! & ~ - - - - - - - - - - - - - - - - - - - - - - - - - - - - - - - - - ",
". + + + + + + + + + + + + + + + + + + + + + + { ] ^ - - - - - - - - - - - - - - - - - - - - - - - - - - - - - - - ",
". + + + + + + + + + + + + + + + + + + + + + + + + / ( - - - - - - - - - - - - - - - - - - - - - - - - - - - - - - ",
". + + + + + + + + + + + + + + + + + + + + + + + + + + _ : - - - - - - - - - - - - - - - - - - - - - - - - - - - - ",
". + + + + + + + + + + + + + + + + + + + + + + + + + + + < [ } - - - - - - - - - - - - - - - - - - - - - - - - - - ",
". + + + + + + + + + + + + + + + + + + + + + + + + + + + + + { | - - - - - - - - - - - - - - - - - - - - - - - - - ",
". + + + + + + + + + + + + + + + + + + + + + + + + + + + + + + + 1 2 - - - - - - - - - - - - - - - - - - - - - - - ",
". + + + + + + + + + + + + + + + + + + + + + + + + + + + + + + + + 3 4 - - - - - - - - - - - - - - - - - - - - - - ",
". + + + + + + + + + + + + + + + + + + + + + + + + + + + + + + + + + 5 6 - - - - - - - - - - - - - - - - - - - - - ",
". + + + + + + + + + + + + + + + + + + + + + + + + + + + + + + + + + + + 7 - - - - - - - - - - - - - - - - - - - - ",
". + + + + + + + + + + + + + + + + + + + + + + + + + + + + + + + + + + + + 8 9 - - - - - - - - - - - - - - - - - - ",
". + + + + + + + + + + + + + + + + + + + + + + + + + + + + + + + + + + + + + 0 a - - - - - - - - - - - - - - - - - ",
". + + + + + + + + + + + + + + + + + + + + + + + + + + + + + + + + + + + + + + b c - - - - - - - - - - - - - - - - ",
". + + + + + + + + + + + + + + + + + + + + + + + + + + + + + + + + + + + + + + + d a - - - - - - - - - - - - - - - ",
". + + + + + + + + + + + + + + + + + + + + + + + + + + + + + + + + + + + + + + + + e 9 - - - - - - - - - - - - - - ",
". + + + + + + + + + + + + + + + + + + + + + + + + + + + + + + + + + + + + + + + + + 8 - - - - - - - - - - - - - - ",
". + + + + + + + + + + + + + + + + + + + + + + + + + + + + + + + + + + + + + + + + + + f - - - - - - - - - - - - - ",
". + + + + + + + + + + + + + + + + + + + + + + + + + + + + + + + + + + + + + + + + + + + 6 - - - - - - - - - - - - ",
"g + + + + + + + + + + + + + + + + + + + + + + + + + + + + + + + + + + + + + + + + + + + 5 h - - - - - - - - - - - ",
"g + + + + + + + + + + + + + + + + + + + + + + + + + + + + + + + + + + + + + + + + + + + + / } - - - - - - - - - - ",
"g + + + + + + + + + + + + + + + + + + + + + + + + + + + + + + + + + + + + + + + + + + + + + 1 - - - - - - - - - - ",
"g + + + + + + + + + + + + + + + + + + + + + + + + + + + + + + + + + + + + + + + + + + + + + + & - - - - - - - - - ",
"g + + + + + + + + + + + + + + + + + + + + + + + + + + + + + + + + + + + + + + + + + + + + + + i j - - - - - - - - ",
"g + + + + + + + + + + + + + + + + + + + + + + + + + + + + + + + + + + + + + + + + + + + + + + + k - - - - - - - - ",
"l + + + + + + + + + + + + + + + + + + + + + + + + + + + + + + + + + m n n o + + + + + + + + + + + p - - - - - - - ",
"l + + + + + + + + + + + + + + + + + + + + + + + + + + + + + + + + + q r r s + + + + + + + + + + + t 2 - - - - - - ",
"l + + + + + + + + + + + + + + + + + + + + + + + + + + + + + + + + + q r r s + + + + + + + + + + + + u - - - - - - ",
"i + + + + + v w x y z A B C D E F G H I + + J w K + + + L w M + + N z r r O P + + Q R F S T U + + + g c - - - - - ",
"i + + + + + V r W r r r r X Y r r r r H + + Z r ` + + + B r  .+ + v r r r r ..+ +.@.r #.r r @.P + + + $.- - - - - ",
"i + + + + + V r r %.&.*.r r =.-.U ;.r >.o + Z r ` + + + B r  .+ + ,...r r '.).!.V r M ~.{.].r ^.I + + 5 /.- - - - ",
"i + + + + + V r (.+ + _.r r :.+ + <.r r {.+ Z r ` + + + B r  .+ + + q r r s + [.r r }.+ + }.r r |.+ + + 1.- - - - ",
"i + + + + + V r 2.+ + 3.r r 4.+ + 5.r r {.+ Z r ` + + + B r  .+ + + q r r s + q r r 6.z z 7.r r 5.+ + + / - - - - ",
"8.+ + + + + V r 9.+ + 3.r r 4.+ + 5.r r {.+ Z r ` + + + B r  .+ + + q r r s + 0.r #.a.a.a.a.a.a.b.+ + + + c.- - - ",
"8.+ + + + + V r 9.+ + 3.r r 4.+ + 5.r r {.+ Z r 2.+ + + T r  .+ + + q r r s + -.r #.d.+ + + + + + + + + + e.- - - ",
"8.+ + + + + V r 9.+ + 3.r r 4.+ + 5.r r {.+ (.r f.g.+ h.#.r  .+ + + q r r i.+ 3.r r j.+ + }.k.k.l.+ + + + m.c - - ",
"@ + + + + + V r 9.+ + 3.r r 4.+ + 5.r r {.+ n.r r @.o.r p.r  .+ + + q.r r r.h.+ s.r @.*.t.^.r 7.u.+ + + + + v.- - ",
"@ + + + + + V r 9.+ + 3.r r 4.+ + 5.r r {.+ w.=.r r r %.2.r  .+ + + x.y.r r ..+ I z.r r r r A.!.+ + + + + + B.- - ",
"C.+ + + + + + + + + + + + + + + + + + + + + + ).D.E.F.+ + + + + + + + u.G.H.I.+ + + x.J.[.Q + + + + + + + + K.L.- ",
"C.+ + + + + + + + + + + + + + + + + + + + + + + + + + + + + + + + + + + + + + + + + + + + + + + + + + + + + + | - ",
"C.+ + + + + + + + + + + + + + + + + + + + + + + + + + + + + + + + + + + + + + + + + + + + + + + + + + + + + + % - ",
"C.+ + + + + + + + + + + + + + + + + + + + + + + + + + + + + + + + + + + + + + + + + + + + + + + + + + + + + + e - ",
"C.+ + + + + + + + + + + + + + + + + + + + + + + + + + + + + + + + + + + + + + + + + + + + + + + + + + + + + + g - ",
"t + + + + + + + + + + + + + + + + + + + + + + + + + + + + + + + + + + + + + + + + + + + + + + + + + + + + + + + L.",
"t + + + + + + + + + + + + + + + + + + + + + + + + + + + + + + + + + + + + + + + + + + + + + + + + + + + + + + + M.",
"t + + + + + + + + + + + + + + + + + + + + + + + + + + + + + + + + + + + + + + + + + + + + + + + + + + + + + + + N.",
"t + + + + + + + + + + + + + + + + + + + + + + + + + + + + + + + + + + + + + + + + + + + + + + + + + + + + + + + v.",
"t + + + + + + + + + + + + + + + + + + + + + + + + + + + + + + + + + + + + + + + + + + + + + + + + + + + + + + + O.",
"t + + + + + + + + + + + + + + + + + + + + + + + + + + + + + + + + + + + + + + + + + + + + + + + + + + + + + + + P.",
"> K.K.K.< < ) ) ) + + + + + + + + + + + + + + + + + + + + + + + + + + + + + + + + + + + + + + + + + + + + + + + ] "};
