/* XPM */
static char * mute_selected_xpm[] = {
"57 52 169 2",
"  	c None",
". 	c #2C6F60",
"+ 	c #2F7868",
"@ 	c #2B6C5D",
"# 	c #2C415B",
"$ 	c #25354D",
"% 	c #1B2739",
"& 	c #121925",
"* 	c #080B10",
"= 	c #000101",
"- 	c #000000",
"; 	c #16202E",
"> 	c #29685A",
", 	c #1C283B",
"' 	c #06080C",
") 	c #307767",
"! 	c #283852",
"~ 	c #010202",
"{ 	c #2A695A",
"] 	c #151D2B",
"^ 	c #010101",
"/ 	c #2B515B",
"( 	c #111924",
"_ 	c #2B3D5A",
": 	c #070A0E",
"< 	c #2E7766",
"[ 	c #1E2B3F",
"} 	c #020305",
"| 	c #101721",
"1 	c #233248",
"2 	c #020204",
"3 	c #2C475B",
"4 	c #080C11",
"5 	c #2D7263",
"6 	c #131B27",
"7 	c #202D42",
"8 	c #233148",
"9 	c #010102",
"0 	c #263650",
"a 	c #020304",
"b 	c #2A3C58",
"c 	c #030406",
"d 	c #2A3C57",
"e 	c #273750",
"f 	c #1E2A3D",
"g 	c #090C12",
"h 	c #2B6E5F",
"i 	c #050609",
"j 	c #24344C",
"k 	c #506484",
"l 	c #6C7D97",
"m 	c #347B6B",
"n 	c #101722",
"o 	c #96A2B5",
"p 	c #FFFFFF",
"q 	c #437A77",
"r 	c #2A6B5C",
"s 	c #192333",
"t 	c #CCD1DB",
"u 	c #DCE0E6",
"v 	c #A1ACBD",
"w 	c #7A89A1",
"x 	c #D7DCE3",
"y 	c #F8F9FA",
"z 	c #B9C1CE",
"A 	c #4B687E",
"B 	c #3A7F6F",
"C 	c #B5BDCB",
"D 	c #F6F7F8",
"E 	c #ECEEF1",
"F 	c #C1C8D3",
"G 	c #3E8172",
"H 	c #D2D7DF",
"I 	c #9EA9BA",
"J 	c #A3ADBE",
"K 	c #CDD3DC",
"L 	c #94A0B3",
"M 	c #BAC2CE",
"N 	c #77869F",
"O 	c #526685",
"P 	c #B9C1CD",
"Q 	c #EEF0F3",
"R 	c #CCD2DB",
"S 	c #627490",
"T 	c #EBEDF1",
"U 	c #E7EAEE",
"V 	c #F7F8F9",
"W 	c #E1E5EA",
"X 	c #F2F3F6",
"Y 	c #B4BDCA",
"Z 	c #ECEFF2",
"` 	c #9DA8BA",
" .	c #75859E",
"..	c #FDFDFD",
"+.	c #FEFEFE",
"@.	c #1C283A",
"#.	c #B6BECB",
"$.	c #61738F",
"%.	c #C8CFD8",
"&.	c #F1F3F5",
"*.	c #8C99AE",
"=.	c #E6E9ED",
"-.	c #FBFBFC",
";.	c #397E6E",
">.	c #546786",
",.	c #377C6C",
"'.	c #387D6E",
").	c #3F8273",
"!.	c #45757A",
"~.	c #D6DAE2",
"{.	c #F5F6F8",
"].	c #030405",
"^.	c #E3E6EB",
"/.	c #637591",
"(.	c #ABB4C3",
"_.	c #9CA8B9",
":.	c #7989A1",
"<.	c #697B95",
"[.	c #78879F",
"}.	c #172130",
"|.	c #BCC4D0",
"1.	c #5B6E8B",
"2.	c #8391A7",
"3.	c #95A1B4",
"4.	c #D9DDE4",
"5.	c #DBDFE6",
"6.	c #BBC3CF",
"7.	c #A6B0C0",
"8.	c #E8EAEE",
"9.	c #A0ABBC",
"0.	c #0E141E",
"a.	c #367B6C",
"b.	c #25344C",
"c.	c #F3F4F6",
"d.	c #3C7F70",
"e.	c #71819A",
"f.	c #4E6282",
"g.	c #7B8AA2",
"h.	c #CFD5DD",
"i.	c #677994",
"j.	c #2E7364",
"k.	c #B7BFCC",
"l.	c #DFE3E8",
"m.	c #FBFCFC",
"n.	c #8A98AD",
"o.	c #C2C9D4",
"p.	c #C3CAD4",
"q.	c #A8B2C2",
"r.	c #317868",
"s.	c #141C2A",
"t.	c #4F6383",
"u.	c #47707A",
"v.	c #F0F1F4",
"w.	c #C4CAD5",
"x.	c #B2BBC9",
"y.	c #273751",
"z.	c #6E7F99",
"A.	c #8794AA",
"B.	c #586B89",
"C.	c #6A7B96",
"D.	c #8896AB",
"E.	c #4D6481",
"F.	c #8492A8",
"G.	c #2F7666",
"H.	c #030507",
"I.	c #090D13",
"J.	c #0F151E",
"K.	c #161F2D",
"L.	c #151E2C",
". + + + + + + + @ # $ % & * = - - - - - - - - - - - - - - - - - - - - - - - - - - - - - - - - - - - - - - - - - - ",
". + + + + + + + + + + + + + . $ ; * - - - - - - - - - - - - - - - - - - - - - - - - - - - - - - - - - - - - - - - ",
". + + + + + + + + + + + + + + + + + > , ' - - - - - - - - - - - - - - - - - - - - - - - - - - - - - - - - - - - - ",
". + + + + + + + + + + + + + + + + + + + ) ! & ~ - - - - - - - - - - - - - - - - - - - - - - - - - - - - - - - - - ",
". + + + + + + + + + + + + + + + + + + + + + + { ] ^ - - - - - - - - - - - - - - - - - - - - - - - - - - - - - - - ",
". + + + + + + + + + + + + + + + + + + + + + + + + / ( - - - - - - - - - - - - - - - - - - - - - - - - - - - - - - ",
". + + + + + + + + + + + + + + + + + + + + + + + + + + _ : - - - - - - - - - - - - - - - - - - - - - - - - - - - - ",
". + + + + + + + + + + + + + + + + + + + + + + + + + + + < [ } - - - - - - - - - - - - - - - - - - - - - - - - - - ",
". + + + + + + + + + + + + + + + + + + + + + + + + + + + + + { | - - - - - - - - - - - - - - - - - - - - - - - - - ",
". + + + + + + + + + + + + + + + + + + + + + + + + + + + + + + + 1 2 - - - - - - - - - - - - - - - - - - - - - - - ",
". + + + + + + + + + + + + + + + + + + + + + + + + + + + + + + + + 3 4 - - - - - - - - - - - - - - - - - - - - - - ",
". + + + + + + + + + + + + + + + + + + + + + + + + + + + + + + + + + 5 6 - - - - - - - - - - - - - - - - - - - - - ",
". + + + + + + + + + + + + + + + + + + + + + + + + + + + + + + + + + + + 7 - - - - - - - - - - - - - - - - - - - - ",
". + + + + + + + + + + + + + + + + + + + + + + + + + + + + + + + + + + + + 8 9 - - - - - - - - - - - - - - - - - - ",
". + + + + + + + + + + + + + + + + + + + + + + + + + + + + + + + + + + + + + 0 a - - - - - - - - - - - - - - - - - ",
". + + + + + + + + + + + + + + + + + + + + + + + + + + + + + + + + + + + + + + b c - - - - - - - - - - - - - - - - ",
". + + + + + + + + + + + + + + + + + + + + + + + + + + + + + + + + + + + + + + + d a - - - - - - - - - - - - - - - ",
". + + + + + + + + + + + + + + + + + + + + + + + + + + + + + + + + + + + + + + + + e 9 - - - - - - - - - - - - - - ",
". + + + + + + + + + + + + + + + + + + + + + + + + + + + + + + + + + + + + + + + + + 8 - - - - - - - - - - - - - - ",
". + + + + + + + + + + + + + + + + + + + + + + + + + + + + + + + + + + + + + + + + + + f - - - - - - - - - - - - - ",
". + + + + + + + + + + + + + + + + + + + + + + + + + + + + + + + + + + + + + + + + + + + 6 - - - - - - - - - - - - ",
". + + + + + + + + + + + + + + + + + + + + + + + + + + + + + + + + + + + + + + + + + + + 5 g - - - - - - - - - - - ",
". + + + + + + + + + + + + + + + + + + + + + + + + + + + + + + + + + + + + + + + + + + + + / } - - - - - - - - - - ",
". + + + + + + + + + + + + + + + + + + + + + + + + + + + + + + + + + + + + + + + + + + + + + 1 - - - - - - - - - - ",
". + + + + + + + + + + + + + + + + + + + + + + + + + + + + + + + + + + + + + + + + + + + + + + & - - - - - - - - - ",
". + + + + + + + + + + + + + + + + + + + + + + + + + + + + + + + + + + + + + + + + + + + + + + h i - - - - - - - - ",
". + + + + + + + + + + + + + + + + + + + + + + + + + + + + + + + + + + + + + + + + + + + + + + + j - - - - - - - - ",
"h + + + + + + + + + + + + + + + + + + + + + + + + + + + + + + + + + k l l m + + + + + + + + + + + n - - - - - - - ",
"h + + + + + + + + + + + + + + + + + + + + + + + + + + + + + + + + + o p p q + + + + + + + + + + + r 2 - - - - - - ",
"h + + + + + + + + + + + + + + + + + + + + + + + + + + + + + + + + + o p p q + + + + + + + + + + + + s - - - - - - ",
"h + + + + + t u v w x y z A B C D E F G + + H u I + + + J u K + + L x p p M N + + O P D Q R S + + + . c - - - - - ",
"h + + + + + T p U p p p p V W p p p p F + + X p Y + + + z p Z + + t p p p p ` +  ...p +.p p ..N + + + @.- - - - - ",
"h + + + + + T p p #.$.%.p p &.*.S =.p -.m + X p Y + + + z p Z + + ;.` p p >.,.'.T p K ).!.~.p {.G + + 5 ].- - - - ",
"h + + + + + T p ^.+ + /.p p (.+ + _.p p !.+ X p Y + + + z p Z + + + o p p q + :.p p <.+ + <.p p [.+ + + }.- - - - ",
"h + + + + + T p |.+ + 1.p p 2.+ + 3.p p !.+ X p Y + + + z p Z + + + o p p q + o p p 4.x x 5.p p 3.+ + + / - - - - ",
"@ + + + + + T p 6.+ + 1.p p 2.+ + 3.p p !.+ X p Y + + + z p Z + + + o p p q + 7.p +.8.8.8.8.8.8.9.+ + + + 0.- - - ",
"@ + + + + + T p 6.+ + 1.p p 2.+ + 3.p p !.+ X p |.+ + + R p Z + + + o p p q + *.p +.a.+ + + + + + + + + + b.- - - ",
"@ + + + + + T p 6.+ + 1.p p 2.+ + 3.p p !.+ ^.p c.d.+ e.+.p Z + + + o p p f.+ 1.p p g.+ + <.h.h.i.+ + + + j.c - - ",
"@ + + + + + T p 6.+ + 1.p p 2.+ + 3.p p !.+ k.p p ..l.p m.p Z + + + n.p p o.e.+ p.p ..%.q.{.p 5.r.+ + + + + s.- - ",
"@ + + + + + T p 6.+ + 1.p p 2.+ + 3.p p !.+ t.&.p p p #.|.p Z + + + u.v.p p ` + G w.p p p p x.'.+ + + + + + y.- - ",
"r + + + + + + + + + + + + + + + + + + + + + + ,.z.A.B.+ + + + + + + + r.C.D.E.+ + + u.F.:.O + + + + + + + + G.H.- ",
"r + + + + + + + + + + + + + + + + + + + + + + + + + + + + + + + + + + + + + + + + + + + + + + + + + + + + + + | - ",
"r + + + + + + + + + + + + + + + + + + + + + + + + + + + + + + + + + + + + + + + + + + + + + + + + + + + + + + % - ",
"r + + + + + + + + + + + + + + + + + + + + + + + + + + + + + + + + + + + + + + + + + + + + + + + + + + + + + + e - ",
"r + + + + + + + + + + + + + + + + + + + + + + + + + + + + + + + + + + + + + + + + + + + + + + + + + + + + + + . - ",
"r + + + + + + + + + + + + + + + + + + + + + + + + + + + + + + + + + + + + + + + + + + + + + + + + + + + + + + + H.",
"r + + + + + + + + + + + + + + + + + + + + + + + + + + + + + + + + + + + + + + + + + + + + + + + + + + + + + + + I.",
"r + + + + + + + + + + + + + + + + + + + + + + + + + + + + + + + + + + + + + + + + + + + + + + + + + + + + + + + J.",
"r + + + + + + + + + + + + + + + + + + + + + + + + + + + + + + + + + + + + + + + + + + + + + + + + + + + + + + + s.",
"r + + + + + + + + + + + + + + + + + + + + + + + + + + + + + + + + + + + + + + + + + + + + + + + + + + + + + + + K.",
"r + + + + + + + + + + + + + + + + + + + + + + + + + + + + + + + + + + + + + + + + + + + + + + + + + + + + + + + L.",
"> G.G.G.< < ) ) ) + + + + + + + + + + + + + + + + + + + + + + + + + + + + + + + + + + + + + + + + + + + + + + + ] "};
