/* XPM */
static char *once_normal[] = {
/* columns rows colors chars-per-pixel */
"46 25 35 1",
"  c #101621",
". c #141C29",
"X c #141C2A",
"o c #141D2A",
"O c #151D2B",
"+ c #151E2B",
"@ c #151E2C",
"# c #161F2D",
"$ c #161F2E",
"% c #16202E",
"& c #17202F",
"* c #172130",
"= c #182131",
"- c #182231",
"; c #202D42",
": c #202E43",
"> c #212E44",
", c #212F44",
"< c #212F45",
"1 c #223046",
"2 c #223047",
"3 c #233148",
"4 c #233249",
"5 c #24334A",
"6 c #24334B",
"7 c #374E72",
"8 c #4D6181",
"9 c #637591",
"0 c #7A89A1",
"q c #909CB0",
"w c #A6B0C0",
"e c #BCC4D0",
"r c #D2D7DF",
"t c #E8EBEF",
"y c gray100",
/* pixels */
"777777777777777777777777777777777777777777777;",
"777777777777777777777777777777777777777777777;",
"777777777777777777777777777777777777777777777;",
"777777777777777777777777777777777777777777777:",
"777777777777777777777777777777777777777777777:",
"777777777777777777777777777777777777777777777:",
"777777777777777777777777777777777777777777777:",
"777777777777777777777777777777777777777777777:",
"777777777777777777777777777777777777777777777:",
"7777777qtyyr9777ee0wyyw7778wtyyr777qryyr97777:",
"777777eyyrryy977yyyyyyy077tyyrey77wyyeryy9777:",
"777778yyw77tyr77yyt88tye7qyyq77878yy977qyr777:",
"777770yy077eyy77yy077eye7eyy777770yyyyyyyy777:",
"777770yy077eyy77yy077eye7eyy777770yyeeeeee7771",
"777778yyw77tyr77yy077eye7qyyq77878yy077780777:",
"777777eyyeryy977yy077eye77tyyeey77wyyeerye7772",
"7777777qtyyr9777yy077eye778wtyyr777qryyye07772",
"7777777777777777777777777777777777777777777772",
"7777777777777777777777777777777777777777777772",
"7777777777777777777777777777777777777777777774",
"7777777777777777777777777777777777777777777772",
"7777777777777777777777777777777777777777777774",
"7777777777777777777777777777777777777777777775",
"7777777777777777777777777777777777777777777775",
"XXXXX%.XXXXXXXXXX......XXXXXX%X%%%%%%%%*&&&-& "
};
