/* XPM */
static char *overdub_focus[] = {
/* columns rows colors chars-per-pixel */
"96 33 32 1",
"  c #24334A",
". c #24334B",
"X c #24344C",
"o c #25344C",
"O c #25354D",
"+ c #26354E",
"@ c #26364E",
"# c #26364F",
"$ c #263650",
"% c #273750",
"& c #273751",
"* c #273851",
"= c #273852",
"- c #283852",
"; c #283953",
": c #283954",
"> c #293A54",
", c #293A55",
"< c #293B56",
"1 c #2A3B56",
"2 c #2A3B57",
"3 c #2A3C57",
"4 c #43608C",
"5 c #587199",
"6 c #6C83A5",
"7 c #8295B2",
"8 c #96A6BF",
"9 c #ABB8CC",
"0 c #C0CAD9",
"q c #D5DBE5",
"w c #EAEDF2",
"e c gray100",
/* pixels */
"&4444444444444444444444444444444444444444444444444444444444444444444444444444444444444444444444&",
"&4444444444444444444444444444444444444444444444444444444444444444444444444444444444444444444444#",
"#4444444444444444444444444444444444444444444444444444444444444444444444444444444444444444444444%",
"&4444444444444444444444444444444444444444444444444444444444444444444444444444444444444444444444%",
"#4444444444444444444444444444444444444444444444444444444444444444444444444444444444444444444444%",
"#4444444444444444444444444444444444444444444444444444444444444444444444444444444444444444444444%",
"#4444444444444444444444444444444444444444444444444444444444444444444444444444444444444444444444#",
"#4444444444444444444444444444444444444444444444444444444444444444444444444444444444444444444444&",
"#4444444444444444444444444444444444444444444444444444444444444444444444444444444444444444444444&",
"o4444444444444444444444444444444444444444444444444444444444444444444444444444444444444444444444&",
"#44444444444444444444444444444444444444444444444444444444447ee744444444444440ee4444444444444444=",
" 44444444444444444444444444444444444444444444444444444444447ee744444444444440ee4444444444444444=",
"o44444444444444444444444444444444444444444444444444444444447ee744444444444440ee4444444444444444=",
"o444444444444460eee064470064448005459weeq644460069we746qee97ee744008444008440ee5qee944444444444=",
"o4444444444447eeeeeee746ee9444wew45weeeeee7447eeweee75weeeeeee744ee0444ee0440eeeeeee04444444444=",
" 444444444444wee747eew44qew447ee849ee845qew447eee74459ee045wee744ee0444ee0440ee045wee6444444444=",
" 444444444446eeq444qee648ee740ee54wew7779ee647ee94444eee5448ee744ee0444ee0440ee5448ee9444444444=",
" 444444444447ee04440ee744ee04ee044eeeeeeeee747ee74444eee4447ee744ee0444ee0440ee4447ee0444444444=",
" 444444444447ee04440ee7449ee8ee644eeq777777547ee74444eee4447ee744ee0444ee0440ee4447ee0444444444=",
"X444444444444eee545eee4446eeeew4440ee544448447ee74444qee844qee744eeq448ee0440ee844qee7444444444=",
" 4444444444449eew0wee94444qeee84446eee00qee447ee744447eee0qeee744qeeq0eee0440eee0qeew4444444444=",
"X44444444444449eeeee9444448eee544447weeeee9447ee7444449eeew0ee7445weee8ee0440ee7eeew644444444442",
" 4444444444444447774444444444444444446776444444444444445774444444447754444444444477444444444444=",
"X4444444444444444444444444444444444444444444444444444444444444444444444444444444444444444444444=",
" 44444444444444444444444444444444444444444444444444444444444444444444444444444444444444444444442",
"X44444444444444444444444444444444444444444444444444444444444444444444444444444444444444444444442",
" 4444444444444444444444444444444444444444444444444444444444444444444444444444444444444444444444=",
" 44444444444444444444444444444444444444444444444444444444444444444444444444444444444444444444442",
" 44444444444444444444444444444444444444444444444444444444444444444444444444444444444444444444442",
" 44444444444444444444444444444444444444444444444444444444444444444444444444444444444444444444442",
" 44444444444444444444444444444444444444444444444444444444444444444444444444444444444444444444442",
" 44444444444444444444444444444444444444444444444444444444444444444444444444444444444444444444442",
" 44444444444444444444444444444444444444444444444444444444444444444444444444444444444444444444442"
};
