/* XPM */
static char * overdub_disabled_xpm[] = {
"96 33 195 2",
"  	c None",
". 	c #26364E",
"+ 	c #475160",
"@ 	c #273851",
"# 	c #26354E",
"$ 	c #273751",
"% 	c #25354D",
"& 	c #273750",
"* 	c #25344C",
"= 	c #556987",
"- 	c #6C7D97",
"; 	c #6B7C97",
"> 	c #687994",
", 	c #596C8A",
"' 	c #ABB4C3",
") 	c #FFFFFF",
"! 	c #FBFCFC",
"~ 	c #EFF1F3",
"{ 	c #B7BFCC",
"] 	c #263650",
"^ 	c #4F5866",
"/ 	c #ADB6C5",
"( 	c #D9DDE4",
"_ 	c #FAFAFB",
": 	c #DADFE5",
"< 	c #B0B9C7",
"[ 	c #525B69",
"} 	c #99A5B7",
"| 	c #DCE0E6",
"1 	c #DBDFE6",
"2 	c #4B5564",
"3 	c #D8DCE3",
"4 	c #A6B0C0",
"5 	c #526685",
"6 	c #B9C1CD",
"7 	c #F6F7F8",
"8 	c #EEF0F3",
"9 	c #CCD2DB",
"0 	c #627490",
"a 	c #C2C9D4",
"b 	c #AEB7C6",
"c 	c #BBC3CF",
"d 	c #4F617E",
"e 	c #B6BECB",
"f 	c #F7F8FA",
"g 	c #8694A9",
"h 	c #D2D7DF",
"i 	c #9EA9BA",
"j 	c #A3ADBE",
"k 	c #CDD3DC",
"l 	c #B8C0CD",
"m 	c #7E8DA4",
"n 	c #D7DBE2",
"o 	c #C5CCD6",
"p 	c #697A95",
"q 	c #24344C",
"r 	c #F7F8F9",
"s 	c #F9FAFB",
"t 	c #5B6E8B",
"u 	c #6D7E98",
"v 	c #7F8EA5",
"w 	c #6A7B96",
"x 	c #7F8DA4",
"y 	c #75859E",
"z 	c #FDFDFD",
"A 	c #FEFEFE",
"B 	c #77869F",
"C 	c #E0E3E9",
"D 	c #CCD1DB",
"E 	c #E1E4E9",
"F 	c #F2F3F6",
"G 	c #B4BDCA",
"H 	c #B9C1CE",
"I 	c #ECEFF2",
"J 	c #E4E7EC",
"K 	c #FCFCFD",
"L 	c #70809A",
"M 	c #26364F",
"N 	c #C3CAD4",
"O 	c #8392A8",
"P 	c #555E6C",
"Q 	c #F8F9FA",
"R 	c #CFD5DD",
"S 	c #4A5463",
"T 	c #A2ADBD",
"U 	c #515A68",
"V 	c #EBEDF1",
"W 	c #536075",
"X 	c #D6DAE2",
"Y 	c #F5F6F8",
"Z 	c #545D6B",
"` 	c #B1BAC8",
" .	c #95A1B4",
"..	c #566988",
"+.	c #C1C8D3",
"@.	c #C9CFD9",
"#.	c #E6E9ED",
"$.	c #24334B",
"%.	c #9CA8B9",
"&.	c #A9B3C2",
"*.	c #F3F4F6",
"=.	c #DADEE5",
"-.	c #BCC4D0",
";.	c #7989A1",
">.	c #697B95",
",.	c #78879F",
"'.	c #546887",
").	c #5E708D",
"!.	c #A7B1C1",
"~.	c #4F617D",
"{.	c #9BA6B8",
"].	c #72829C",
"^.	c #667793",
"/.	c #74849D",
"(.	c #516077",
"_.	c #76869E",
":.	c #96A2B5",
"<.	c #D7DCE3",
"[.	c #71829B",
"}.	c #D3D8E0",
"|.	c #DDE1E7",
"1.	c #657692",
"2.	c #8C99AE",
"3.	c #8290A7",
"4.	c #E3E6EB",
"5.	c #818FA6",
"6.	c #4D5664",
"7.	c #E8EAEE",
"8.	c #A0ABBC",
"9.	c #C6CDD7",
"0.	c #8A98AD",
"a.	c #CAD0D9",
"b.	c #4F6383",
"c.	c #97A3B6",
"d.	c #576A88",
"e.	c #7D8CA3",
"f.	c #9DA8BA",
"g.	c #E1E5EA",
"h.	c #B3BCC9",
"i.	c #6F7F99",
"j.	c #8E9BAF",
"k.	c #495260",
"l.	c #EDEFF2",
"m.	c #4C5563",
"n.	c #8391A7",
"o.	c #7A89A1",
"p.	c #24334A",
"q.	c #4E5765",
"r.	c #6E7F99",
"s.	c #7B8AA2",
"t.	c #677994",
"u.	c #535C6A",
"v.	c #71819A",
"w.	c #FBFBFC",
"x.	c #808FA5",
"y.	c #F0F2F5",
"z.	c #C8CFD8",
"A.	c #A8B2C2",
"B.	c #F4F5F7",
"C.	c #DFE3E8",
"D.	c #24324A",
"E.	c #8794AA",
"F.	c #929FB2",
"G.	c #ABB5C4",
"H.	c #C4CAD5",
"I.	c #B2BBC9",
"J.	c #F1F3F5",
"K.	c #667893",
"L.	c #8795AA",
"M.	c #505967",
"N.	c #8492A8",
"O.	c #506483",
"P.	c #586B89",
"Q.	c #647692",
"R.	c #233249",
"S.	c #283852",
"T.	c #283953",
"U.	c #283954",
"V.	c #293A54",
"W.	c #233248",
"X.	c #293A55",
"Y.	c #233148",
"Z.	c #2A3B56",
"`.	c #2A3B57",
" +	c #2A3C57",
".+	c #212F45",
"++	c #454E5C",
"@+	c #444D5B",
"#+	c #434C5A",
"$+	c #424B59",
"%+	c #414A58",
"&+	c #404957",
"*+	c #404855",
"=+	c #3F4854",
"-+	c #3F4754",
". + + + + + + + + + + + + + + + + + + + + + + + + + + + + + + + + + + + + + + + + + + + + + + + + + + + + + + + + + + + + + + + + + + + + + + + + + + + + + + + + + + + + + + + + + + + + + + @ ",
"# + + + + + + + + + + + + + + + + + + + + + + + + + + + + + + + + + + + + + + + + + + + + + + + + + + + + + + + + + + + + + + + + + + + + + + + + + + + + + + + + + + + + + + + + + + + + + + $ ",
"# + + + + + + + + + + + + + + + + + + + + + + + + + + + + + + + + + + + + + + + + + + + + + + + + + + + + + + + + + + + + + + + + + + + + + + + + + + + + + + + + + + + + + + + + + + + + + + $ ",
"% + + + + + + + + + + + + + + + + + + + + + + + + + + + + + + + + + + + + + + + + + + + + + + + + + + + + + + + + + + + + + + + + + + + + + + + + + + + + + + + + + + + + + + + + + + + + + + $ ",
"% + + + + + + + + + + + + + + + + + + + + + + + + + + + + + + + + + + + + + + + + + + + + + + + + + + + + + + + + + + + + + + + + + + + + + + + + + + + + + + + + + + + + + + + + + + + + + + & ",
"% + + + + + + + + + + + + + + + + + + + + + + + + + + + + + + + + + + + + + + + + + + + + + + + + + + + + + + + + + + + + + + + + + + + + + + + + + + + + + + + + + + + + + + + + + + + + + + & ",
"% + + + + + + + + + + + + + + + + + + + + + + + + + + + + + + + + + + + + + + + + + + + + + + + + + + + + + + + + + + + + + + + + + + + + + + + + + + + + + + + + + + + + + + + + + + + + + + & ",
"* + + + + + + + + + + + + + + + + + + + + + + + + + + + + + + + + + + + + + + + + + + + + + + + + + + + + + + + + = - ; + + + + + + + + + + + + + + > - , + + + + + + + + + + + + + + + + + + & ",
"* + + + + + + + + + + + + + + + + + + + + + + + + + + + + + + + + + + + + + + + + + + + + + + + + + + + + + + + + ' ) ! + + + + + + + + + + + + + + ~ ) { + + + + + + + + + + + + + + + + + + & ",
"* + + + + + + + + + + + + + + + + + + + + + + + + + + + + + + + + + + + + + + + + + + + + + + + + + + + + + + + + ' ) ! + + + + + + + + + + + + + + ~ ) { + + + + + + + + + + + + + + + + + + ] ",
"* + + + + + + + + + + + + + + + + + + + + + + + + + + + + + + + + + + + + + + + + + + + + + + + + + + + + + + + + ' ) ! + + + + + + + + + + + + + + ~ ) { + + + + + + + + + + + + + + + + + + ] ",
"* + + + + + + + + + + + + + ^ / ( _ : < [ + + } | 1 [ + + 2 3 | 4 + + 5 6 7 8 9 0 + + + a | b 5 c 9 + + d e f ( g ' ) ! + + h | i + + + j | k + + + ~ ) l m n f o p + + + + + + + + + + + + + ] ",
"q + + + + + + + + + + + + 5 r ) ) ) ) ) s t + u ) ) v + + w ) ) x + y z ) A ) ) z B + + C ) D 3 ) h + 0 _ ) ) ) ) E ) ! + + F ) G + + + H ) I + + + ~ ) J A ) ) ) K L + + + + + + + + + + + + M ",
"q + + + + + + + + + + + + N ) ! O P m Q ) R + S I ) c + + T ) r U ^ V ) k P W X ) Y Z + C ) A K `  .+ X ) s g ..+.) ) ! + + F ) G + + + H ) I + + + ~ ) ) @...O r ) #.S + + + + + + + + + + + M ",
"$.+ + + + + + + + + + + W ) ) ' + + + %.) ) ..+ &.) *.S + =.) -.+ ;.) ) >.+ + >.) ) ,.+ C ) ) '.+ + ).) ) !.+ + [ ! ) ! + + F ) G + + + H ) I + + + ~ ) ) ~.+ + {.) ) u + + + + + + + + + + + M ",
"$.+ + + + + + + + + + + > ) ) ].+ + + ^.) ) /.+ 0 ) ) w (.A ) _.+ :.) ) ( <.<.1 ) )  .+ C ) : + + + m ) ) [.+ + + }.) ! + + F ) G + + + H ) I + + + ~ ) |.+ + + 1.) ) 2.+ + + + + + + + + + + M ",
"$.+ + + + + + + + + + + /.) ) p + + + t ) ) 3.+ + 4.) 4 5.) *.6.+ 4 ) A 7.7.7.7.7.7.8.+ C ) 9.+ + + 0.) ) t + + + c ) ! + + F ) G + + + H ) I + + + ~ ) a.+ + + b.) ) c.+ + + + + + + + + + + M ",
"$.+ + + + + + + + + + + d.) ) 0.+ + + e.) ) 1.+ + f.) g.6 ) h.+ + 2.) A 6.+ + + + + + + C ) 9.+ + + i.) ) j.+ + k.l.) ! + + F ) -.+ + + 9 ) I + + + ~ ) f m.+ + n.) ) o.+ + + + + + + + + + + M ",
"p.+ + + + + + + + + + + S *.) 4.q.+ 6.| ) f U + + d.) ) r ) r.+ + t ) ) s.+ + >.R R t.+ C ) 9.+ + + u.Q ) =.2 + B ) ) ! + + 4.) *.[ + v.A ) I + + + ~ ) ) O + S }.) w.(.+ + + + + + + + + + + ] ",
"p.+ + + + + + + + + + + + x.) ) y.6 ~ ) ) 2.+ + + + ( ) ) l.S + + + N ) z z.A.Y ) 1 k.+ C ) 9.+ + + + !.) ) B.z.K ) ) ! + + { ) ) z C.) ! ) I + + + ~ ) ) z z.*.) ) !.+ + + + + + + + + + + + & ",
"D.+ + + + + + + + + + + + + E.B.) ) ) r j.k.+ + + + F.) ) G.+ + + + Z H.) ) ) ) I.^ + + C.) 9.+ + + + 2 I.) ) ) n c ) ! + + b.J.) ) ) e -.) I + + + 8 ) H.R ) ) ) h.m.+ + + + + + + + + + + + $ ",
"D.+ + + + + + + + + + + + + + ^ K.L.> M.+ + + + + + + + + + + + + + + + (.N.;.5 + + + + + + + + + + + + + O.N.K.2 + + + + + + q.r.E.P.+ + + + + + + + + + S Q.g '.+ + + + + + + + + + + + + + @ ",
"R.+ + + + + + + + + + + + + + + + + + + + + + + + + + + + + + + + + + + + + + + + + + + + + + + + + + + + + + + + + + + + + + + + + + + + + + + + + + + + + + + + + + + + + + + + + + + + + + S.",
"R.+ + + + + + + + + + + + + + + + + + + + + + + + + + + + + + + + + + + + + + + + + + + + + + + + + + + + + + + + + + + + + + + + + + + + + + + + + + + + + + + + + + + + + + + + + + + + + + T.",
"R.+ + + + + + + + + + + + + + + + + + + + + + + + + + + + + + + + + + + + + + + + + + + + + + + + + + + + + + + + + + + + + + + + + + + + + + + + + + + + + + + + + + + + + + + + + + + + + + T.",
"R.+ + + + + + + + + + + + + + + + + + + + + + + + + + + + + + + + + + + + + + + + + + + + + + + + + + + + + + + + + + + + + + + + + + + + + + + + + + + + + + + + + + + + + + + + + + + + + + U.",
"R.+ + + + + + + + + + + + + + + + + + + + + + + + + + + + + + + + + + + + + + + + + + + + + + + + + + + + + + + + + + + + + + + + + + + + + + + + + + + + + + + + + + + + + + + + + + + + + + V.",
"W.+ + + + + + + + + + + + + + + + + + + + + + + + + + + + + + + + + + + + + + + + + + + + + + + + + + + + + + + + + + + + + + + + + + + + + + + + + + + + + + + + + + + + + + + + + + + + + + X.",
"W.+ + + + + + + + + + + + + + + + + + + + + + + + + + + + + + + + + + + + + + + + + + + + + + + + + + + + + + + + + + + + + + + + + + + + + + + + + + + + + + + + + + + + + + + + + + + + + + X.",
"Y.+ + + + + + + + + + + + + + + + + + + + + + + + + + + + + + + + + + + + + + + + + + + + + + + + + + + + + + + + + + + + + + + + + + + + + + + + + + + + + + + + + + + + + + + + + + + + + + Z.",
"Y.+ + + + + + + + + + + + + + + + + + + + + + + + + + + + + + + + + + + + + + + + + + + + + + + + + + + + + + + + + + + + + + + + + + + + + + + + + + + + + + + + + + + + + + + + + + + + + + `.",
"Y.+ + + + + + + + + + + + + + + + + + + + + + + + + + + + + + + + + + + + + + + + + + + + + + + + + + + + + + + + + + + + + + + + + + + + + + + + + + + + + + + + + + + + + + + + + + + + + +  +",
".+++++++@+@+@+@+@+@+@+#+#+#+#+$+$+$+$+$+$+$+$+$+%+%+%+%+%+%+&+&+&+&+&+*+*+*+*+*+*+*+*+*+*+*+=+=+-+=+=+*+*+*+*+*+*+*+*+*+*+*+*+&+&+&+&+&+%+%+%+%+%+%+%+$+$+$+$+$+$+$+$+$+$+#+#+#+#+#+@+@+@+@+@+U."};
