/* XPM */
static char *overdub_active[] = {
/* columns rows colors chars-per-pixel */
"96 33 10 1",
"  c #750924",
". c #84243C",
"X c #933F54",
"o c #A35B6D",
"O c #B27685",
"+ c #C1919D",
"@ c #D1ADB6",
"# c #E0C8CE",
"$ c #EFE3E6",
"% c gray100",
/* pixels */
"                                                                                                ",
"                                                                                                ",
"                                                                                                ",
"                                                                                                ",
"                                                                                                ",
"                                                                                                ",
"                                                                                                ",
"                                                                                                ",
"                                                                                                ",
"                                                                                                ",
"                                                           o%%o             @%%                 ",
"                                                           o%%o             @%%                 ",
"                                                           o%%o             @%%                 ",
"              X@%%%@X  o@@X   O@@. .+$%%#X   X@@X+$%o X#%%+o%%o  @@O   @@O  @%%.#%%+            ",
"             o%%%%%%%o X%%+   $%$ .$%%%%%%o  o%%$%%%o.$%%%%%%%o  %%@   %%@  @%%%%%%%@           ",
"             $%%o o%%$  #%$  o%%O +%%O .#%$  o%%%o  .+%%@ .$%%o  %%@   %%@  @%%@ .$%%X          ",
"            X%%#   #%%X O%%o @%%. $%$ooo+%%X o%%+    %%%.  O%%o  %%@   %%@  @%%.  O%%+          ",
"            o%%@   @%%o  %%@ %%@  %%%%%%%%%o o%%o    %%%   o%%o  %%@   %%@  @%%   o%%@          ",
"            o%%@   @%%o  +%%O%%X  %%#oooooo. o%%o    %%%   o%%o  %%@   %%@  @%%   o%%@          ",
"             %%%. .%%%   X%%%%$   @%%.    O  o%%o    #%%O  #%%o  %%#  O%%@  @%%O  #%%o          ",
"             +%%$@$%%+    #%%%O   X%%%@@#%%  o%%o    o%%%@#%%%o  #%%#@%%%@  @%%%@#%%$           ",
"              +%%%%%+     O%%%.    o$%%%%%+  o%%o     +%%%$@%%o  .$%%%O%%@  @%%o%%%$X           ",
"                ooo                  XooX              .oo         oo.           oo             ",
"                                                                                                ",
"                                                                                                ",
"                                                                                                ",
"                                                                                                ",
"                                                                                                ",
"                                                                                                ",
"                                                                                                ",
"                                                                                                ",
"                                                                                                ",
"                                                                                                "
};
