/* XPM */
static char * overdub_normal_xpm[] = {
"96 33 205 2",
"  	c None",
". 	c #26364E",
"+ 	c #374E72",
"@ 	c #273851",
"# 	c #26354E",
"$ 	c #273751",
"% 	c #25354D",
"& 	c #273750",
"* 	c #25344C",
"= 	c #556987",
"- 	c #6C7D97",
"; 	c #6B7C97",
"> 	c #687994",
", 	c #596C8A",
"' 	c #ABB4C3",
") 	c #FFFFFF",
"! 	c #FBFCFC",
"~ 	c #EFF1F3",
"{ 	c #B7BFCC",
"] 	c #263650",
"^ 	c #3F5578",
"/ 	c #ADB6C5",
"( 	c #D9DDE4",
"_ 	c #FAFAFB",
": 	c #DADFE5",
"< 	c #B0B9C7",
"[ 	c #42587A",
"} 	c #99A5B7",
"| 	c #DCE0E6",
"1 	c #DBDFE6",
"2 	c #43597A",
"3 	c #3B5275",
"4 	c #D8DCE3",
"5 	c #A6B0C0",
"6 	c #526685",
"7 	c #B9C1CD",
"8 	c #F6F7F8",
"9 	c #EEF0F3",
"0 	c #CCD2DB",
"a 	c #627490",
"b 	c #C2C9D4",
"c 	c #AEB7C6",
"d 	c #BBC3CF",
"e 	c #4C6181",
"f 	c #B6BECB",
"g 	c #F7F8FA",
"h 	c #8694A9",
"i 	c #D2D7DF",
"j 	c #9EA9BA",
"k 	c #A3ADBE",
"l 	c #CDD3DC",
"m 	c #B8C0CD",
"n 	c #7E8DA4",
"o 	c #D7DBE2",
"p 	c #C5CCD6",
"q 	c #697A95",
"r 	c #24344C",
"s 	c #F7F8F9",
"t 	c #F9FAFB",
"u 	c #5B6E8B",
"v 	c #6D7E98",
"w 	c #7F8EA5",
"x 	c #6A7B96",
"y 	c #7F8DA4",
"z 	c #75859E",
"A 	c #FDFDFD",
"B 	c #FEFEFE",
"C 	c #77869F",
"D 	c #E0E3E9",
"E 	c #CCD1DB",
"F 	c #E1E4E9",
"G 	c #F2F3F6",
"H 	c #B4BDCA",
"I 	c #B9C1CE",
"J 	c #ECEFF2",
"K 	c #E4E7EC",
"L 	c #FCFCFD",
"M 	c #70809A",
"N 	c #26364F",
"O 	c #C3CAD4",
"P 	c #8392A8",
"Q 	c #465B7D",
"R 	c #F8F9FA",
"S 	c #CFD5DD",
"T 	c #3A5074",
"U 	c #A2ADBD",
"V 	c #415779",
"W 	c #EBEDF1",
"X 	c #495E7F",
"Y 	c #D6DAE2",
"Z 	c #F5F6F8",
"` 	c #455B7C",
" .	c #B1BAC8",
"..	c #95A1B4",
"+.	c #566988",
"@.	c #C1C8D3",
"#.	c #C9CFD9",
"$.	c #E6E9ED",
"%.	c #24334B",
"&.	c #9CA8B9",
"*.	c #A9B3C2",
"=.	c #F3F4F6",
"-.	c #3A5174",
";.	c #DADEE5",
">.	c #BCC4D0",
",.	c #7989A1",
"'.	c #697B95",
").	c #78879F",
"!.	c #546887",
"~.	c #5E708D",
"{.	c #A7B1C1",
"].	c #4C6080",
"^.	c #9BA6B8",
"/.	c #72829C",
"(.	c #667793",
"_.	c #74849D",
":.	c #4A5F7F",
"<.	c #76869E",
"[.	c #96A2B5",
"}.	c #D7DCE3",
"|.	c #71829B",
"1.	c #D3D8E0",
"2.	c #DDE1E7",
"3.	c #657692",
"4.	c #8C99AE",
"5.	c #8290A7",
"6.	c #E3E6EB",
"7.	c #818FA6",
"8.	c #3D5376",
"9.	c #E8EAEE",
"0.	c #A0ABBC",
"a.	c #C6CDD7",
"b.	c #8A98AD",
"c.	c #CAD0D9",
"d.	c #4F6383",
"e.	c #97A3B6",
"f.	c #576A88",
"g.	c #7D8CA3",
"h.	c #9DA8BA",
"i.	c #E1E5EA",
"j.	c #B3BCC9",
"k.	c #6F7F99",
"l.	c #8E9BAF",
"m.	c #384F73",
"n.	c #EDEFF2",
"o.	c #3C5275",
"p.	c #8391A7",
"q.	c #7A89A1",
"r.	c #24334A",
"s.	c #3E5477",
"t.	c #6E7F99",
"u.	c #7B8AA2",
"v.	c #677994",
"w.	c #44597B",
"x.	c #71819A",
"y.	c #FBFBFC",
"z.	c #808FA5",
"A.	c #F0F2F5",
"B.	c #C8CFD8",
"C.	c #A8B2C2",
"D.	c #F4F5F7",
"E.	c #DFE3E8",
"F.	c #24324A",
"G.	c #8794AA",
"H.	c #929FB2",
"I.	c #ABB5C4",
"J.	c #C4CAD5",
"K.	c #B2BBC9",
"L.	c #F1F3F5",
"M.	c #667893",
"N.	c #8795AA",
"O.	c #405678",
"P.	c #8492A8",
"Q.	c #506483",
"R.	c #3E5476",
"S.	c #586B89",
"T.	c #647692",
"U.	c #233249",
"V.	c #283852",
"W.	c #283953",
"X.	c #283954",
"Y.	c #293A54",
"Z.	c #233248",
"`.	c #293A55",
" +	c #233148",
".+	c #2A3B56",
"++	c #2A3B57",
"@+	c #2A3C57",
"#+	c #212F45",
"$+	c #354B6E",
"%+	c #354B6D",
"&+	c #344A6D",
"*+	c #344A6C",
"=+	c #34496B",
"-+	c #33496A",
";+	c #33486A",
">+	c #334869",
",+	c #324869",
"'+	c #324768",
")+	c #324767",
"!+	c #324667",
"~+	c #314666",
"{+	c #314565",
"]+	c #304564",
"^+	c #304464",
". + + + + + + + + + + + + + + + + + + + + + + + + + + + + + + + + + + + + + + + + + + + + + + + + + + + + + + + + + + + + + + + + + + + + + + + + + + + + + + + + + + + + + + + + + + + + + + @ ",
"# + + + + + + + + + + + + + + + + + + + + + + + + + + + + + + + + + + + + + + + + + + + + + + + + + + + + + + + + + + + + + + + + + + + + + + + + + + + + + + + + + + + + + + + + + + + + + + $ ",
"# + + + + + + + + + + + + + + + + + + + + + + + + + + + + + + + + + + + + + + + + + + + + + + + + + + + + + + + + + + + + + + + + + + + + + + + + + + + + + + + + + + + + + + + + + + + + + + $ ",
"% + + + + + + + + + + + + + + + + + + + + + + + + + + + + + + + + + + + + + + + + + + + + + + + + + + + + + + + + + + + + + + + + + + + + + + + + + + + + + + + + + + + + + + + + + + + + + + $ ",
"% + + + + + + + + + + + + + + + + + + + + + + + + + + + + + + + + + + + + + + + + + + + + + + + + + + + + + + + + + + + + + + + + + + + + + + + + + + + + + + + + + + + + + + + + + + + + + + & ",
"% + + + + + + + + + + + + + + + + + + + + + + + + + + + + + + + + + + + + + + + + + + + + + + + + + + + + + + + + + + + + + + + + + + + + + + + + + + + + + + + + + + + + + + + + + + + + + + & ",
"% + + + + + + + + + + + + + + + + + + + + + + + + + + + + + + + + + + + + + + + + + + + + + + + + + + + + + + + + + + + + + + + + + + + + + + + + + + + + + + + + + + + + + + + + + + + + + + & ",
"* + + + + + + + + + + + + + + + + + + + + + + + + + + + + + + + + + + + + + + + + + + + + + + + + + + + + + + + + = - ; + + + + + + + + + + + + + + > - , + + + + + + + + + + + + + + + + + + & ",
"* + + + + + + + + + + + + + + + + + + + + + + + + + + + + + + + + + + + + + + + + + + + + + + + + + + + + + + + + ' ) ! + + + + + + + + + + + + + + ~ ) { + + + + + + + + + + + + + + + + + + & ",
"* + + + + + + + + + + + + + + + + + + + + + + + + + + + + + + + + + + + + + + + + + + + + + + + + + + + + + + + + ' ) ! + + + + + + + + + + + + + + ~ ) { + + + + + + + + + + + + + + + + + + ] ",
"* + + + + + + + + + + + + + + + + + + + + + + + + + + + + + + + + + + + + + + + + + + + + + + + + + + + + + + + + ' ) ! + + + + + + + + + + + + + + ~ ) { + + + + + + + + + + + + + + + + + + ] ",
"* + + + + + + + + + + + + + ^ / ( _ : < [ + + } | 1 2 + + 3 4 | 5 + + 6 7 8 9 0 a + + + b | c 6 d 0 + + e f g ( h ' ) ! + + i | j + + + k | l + + + ~ ) m n o g p q + + + + + + + + + + + + + ] ",
"r + + + + + + + + + + + + 6 s ) ) ) ) ) t u + v ) ) w + + x ) ) y + z A ) B ) ) A C + + D ) E 4 ) i + a _ ) ) ) ) F ) ! + + G ) H + + + I ) J + + + ~ ) K B ) ) ) L M + + + + + + + + + + + + N ",
"r + + + + + + + + + + + + O ) ! P Q n R ) S + T J ) d + + U ) s V ^ W ) l Q X Y ) Z ` + D ) B L  ...+ Y ) t h +.@.) ) ! + + G ) H + + + I ) J + + + ~ ) ) #.+.P s ) $.T + + + + + + + + + + + N ",
"%.+ + + + + + + + + + + X ) ) ' + + + &.) ) +.+ *.) =.-.+ ;.) >.+ ,.) ) '.+ + '.) ) ).+ D ) ) !.+ + ~.) ) {.+ + [ ! ) ! + + G ) H + + + I ) J + + + ~ ) ) ].+ + ^.) ) v + + + + + + + + + + + N ",
"%.+ + + + + + + + + + + > ) ) /.+ + + (.) ) _.+ a ) ) x :.B ) <.+ [.) ) ( }.}.1 ) ) ..+ D ) : + + + n ) ) |.+ + + 1.) ! + + G ) H + + + I ) J + + + ~ ) 2.+ + + 3.) ) 4.+ + + + + + + + + + + N ",
"%.+ + + + + + + + + + + _.) ) q + + + u ) ) 5.+ + 6.) 5 7.) =.8.+ 5 ) B 9.9.9.9.9.9.0.+ D ) a.+ + + b.) ) u + + + d ) ! + + G ) H + + + I ) J + + + ~ ) c.+ + + d.) ) e.+ + + + + + + + + + + N ",
"%.+ + + + + + + + + + + f.) ) b.+ + + g.) ) 3.+ + h.) i.7 ) j.+ + 4.) B 8.+ + + + + + + D ) a.+ + + k.) ) l.+ + m.n.) ! + + G ) >.+ + + 0 ) J + + + ~ ) g o.+ + p.) ) q.+ + + + + + + + + + + N ",
"r.+ + + + + + + + + + + -.=.) 6.s.+ 8.| ) g V + + f.) ) s ) t.+ + u ) ) u.+ + '.S S v.+ D ) a.+ + + w.R ) ;.3 + C ) ) ! + + 6.) =.[ + x.B ) J + + + ~ ) ) P + T 1.) y.:.+ + + + + + + + + + + ] ",
"r.+ + + + + + + + + + + + z.) ) A.7 ~ ) ) 4.+ + + + ( ) ) n.T + + + O ) A B.C.Z ) 1 m.+ D ) a.+ + + + {.) ) D.B.L ) ) ! + + { ) ) A E.) ! ) J + + + ~ ) ) A B.=.) ) {.+ + + + + + + + + + + + & ",
"F.+ + + + + + + + + + + + + G.D.) ) ) s l.m.+ + + + H.) ) I.+ + + + ` J.) ) ) ) K.^ + + E.) a.+ + + + 3 K.) ) ) o d ) ! + + d.L.) ) ) f >.) J + + + 9 ) J.S ) ) ) j.o.+ + + + + + + + + + + + $ ",
"F.+ + + + + + + + + + + + + + ^ M.N.> O.+ + + + + + + + + + + + + + + + :.P.,.6 + + + + + + + + + + + + + Q.P.M.3 + + + + + + R.t.G.S.+ + + + + + + + + + -.T.h !.+ + + + + + + + + + + + + + @ ",
"U.+ + + + + + + + + + + + + + + + + + + + + + + + + + + + + + + + + + + + + + + + + + + + + + + + + + + + + + + + + + + + + + + + + + + + + + + + + + + + + + + + + + + + + + + + + + + + + + V.",
"U.+ + + + + + + + + + + + + + + + + + + + + + + + + + + + + + + + + + + + + + + + + + + + + + + + + + + + + + + + + + + + + + + + + + + + + + + + + + + + + + + + + + + + + + + + + + + + + + W.",
"U.+ + + + + + + + + + + + + + + + + + + + + + + + + + + + + + + + + + + + + + + + + + + + + + + + + + + + + + + + + + + + + + + + + + + + + + + + + + + + + + + + + + + + + + + + + + + + + + W.",
"U.+ + + + + + + + + + + + + + + + + + + + + + + + + + + + + + + + + + + + + + + + + + + + + + + + + + + + + + + + + + + + + + + + + + + + + + + + + + + + + + + + + + + + + + + + + + + + + + X.",
"U.+ + + + + + + + + + + + + + + + + + + + + + + + + + + + + + + + + + + + + + + + + + + + + + + + + + + + + + + + + + + + + + + + + + + + + + + + + + + + + + + + + + + + + + + + + + + + + + Y.",
"Z.+ + + + + + + + + + + + + + + + + + + + + + + + + + + + + + + + + + + + + + + + + + + + + + + + + + + + + + + + + + + + + + + + + + + + + + + + + + + + + + + + + + + + + + + + + + + + + + `.",
"Z.+ + + + + + + + + + + + + + + + + + + + + + + + + + + + + + + + + + + + + + + + + + + + + + + + + + + + + + + + + + + + + + + + + + + + + + + + + + + + + + + + + + + + + + + + + + + + + + `.",
" ++ + + + + + + + + + + + + + + + + + + + + + + + + + + + + + + + + + + + + + + + + + + + + + + + + + + + + + + + + + + + + + + + + + + + + + + + + + + + + + + + + + + + + + + + + + + + + + .+",
" ++ + + + + + + + + + + + + + + + + + + + + + + + + + + + + + + + + + + + + + + + + + + + + + + + + + + + + + + + + + + + + + + + + + + + + + + + + + + + + + + + + + + + + + + + + + + + + + ++",
" ++ + + + + + + + + + + + + + + + + + + + + + + + + + + + + + + + + + + + + + + + + + + + + + + + + + + + + + + + + + + + + + + + + + + + + + + + + + + + + + + + + + + + + + + + + + + + + + @+",
"#+$+%+%+&+&+&+*+*+*+*+=+=+=+=+-+-+;+;+;+;+;+>+>+,+,+'+'+'+'+)+)+)+!+!+~+~+~+~+{+{+{+{+{+{+{+]+]+^+]+]+{+{+{+{+{+{+{+~+~+~+~+~+!+!+)+)+)+'+'+'+'+'+,+,+>+>+>+;+;+;+;+;+-+-+=+=+=+=+=+*+*+*+*+*+X."};
