/* XPM */
static char * pause_disabled[] = {
"46 25 113 2",
"  	c #475160",
". 	c #202D42",
"+ 	c #202E43",
"@ 	c #FFFFFF",
"# 	c #A1A6AE",
"$ 	c #E9EBEC",
"% 	c #F9FAFA",
"& 	c #BDC1C6",
"* 	c #4D5665",
"= 	c #58616E",
"- 	c #D5D7DB",
"; 	c #F3F3F4",
"> 	c #FEFEFE",
", 	c #F2F3F4",
"' 	c #C2C5CA",
") 	c #58616F",
"! 	c #6A727E",
"~ 	c #777F8A",
"{ 	c #D9DCDF",
"] 	c #F9F9F9",
"^ 	c #FBFCFC",
"/ 	c #E6E8EA",
"( 	c #B5B9BF",
"_ 	c #485261",
": 	c #999FA7",
"< 	c #E6E7E9",
"[ 	c #EBECEE",
"} 	c #A2A7AF",
"| 	c #EFF0F1",
"1 	c #F0F1F2",
"2 	c #A9AEB5",
"3 	c #606875",
"4 	c #D4D7DA",
"5 	c #B3B7BE",
"6 	c #E1E2E5",
"7 	c #C7CACF",
"8 	c #EDEEEF",
"9 	c #D2D4D8",
"0 	c #B3B7BD",
"a 	c #CFD1D5",
"b 	c #DFE0E3",
"c 	c #9BA1A9",
"d 	c #B4B8BE",
"e 	c #E3E4E7",
"f 	c #898F99",
"g 	c #8A909A",
"h 	c #7A818C",
"i 	c #A3A8AF",
"j 	c #ADB2B9",
"k 	c #C0C4C9",
"l 	c #F6F7F8",
"m 	c #F4F5F6",
"n 	c #ABB0B7",
"o 	c #717984",
"p 	c #505967",
"q 	c #4A5462",
"r 	c #E8E9EB",
"s 	c #C1C4C9",
"t 	c #AFB3BA",
"u 	c #C2C6CB",
"v 	c #6E7682",
"w 	c #6F7782",
"x 	c #FCFCFD",
"y 	c #6D7480",
"z 	c #899099",
"A 	c #EEEFF1",
"B 	c #A0A6AD",
"C 	c #223046",
"D 	c #ECEDEE",
"E 	c #8E949D",
"F 	c #495362",
"G 	c #7C838E",
"H 	c #757D88",
"I 	c #8E959E",
"J 	c #4C5664",
"K 	c #5E6774",
"L 	c #9EA4AB",
"M 	c #F7F7F8",
"N 	c #EEEFF0",
"O 	c #ACB1B7",
"P 	c #D9DBDE",
"Q 	c #B7BBC1",
"R 	c #D7D9DD",
"S 	c #A8ADB4",
"T 	c #C7CACE",
"U 	c #B2B6BC",
"V 	c #EAEBED",
"W 	c #F5F5F6",
"X 	c #BBBFC4",
"Y 	c #B6BAC0",
"Z 	c #223047",
"` 	c #969BA4",
" .	c #C0C3C8",
"..	c #4E5866",
"+.	c #727A85",
"@.	c #E2E4E6",
"#.	c #6A727F",
"$.	c #E5E6E9",
"%.	c #C5C8CC",
"&.	c #FDFDFD",
"*.	c #9399A1",
"=.	c #FBFBFB",
"-.	c #DEE0E2",
";.	c #ABAFB6",
">.	c #233249",
",.	c #24334A",
"'.	c #141C2A",
").	c #16202E",
"!.	c #141C29",
"~.	c #172130",
"{.	c #17202F",
"].	c #182231",
"^.	c #101621",
"                                                                                          . ",
"                                                                                          . ",
"                                                                                          . ",
"                                                                                          + ",
"                                                                                          + ",
"                                                                                          + ",
"                                                                                          + ",
"                                                                                          + ",
"                                                                                          + ",
"                                                                                          + ",
"    @ @ # $ % & *     = - ; > , ' )     @ @ !   ! @ @     ~ { ] ^ / (     _ : < ^ [ } _   + ",
"    @ @ | ( 1 @ 2     3 4 ( 5 6 @ 7     @ @ !   ! @ @     8 @ 9 0 a b     c @ < d e @ #   + ",
"    @ @ f   g @ [     _ h i j k @ l     @ @ !   ! @ @     m @ n o p q     r @ s t u @ [   + ",
"    @ @ v   w @ x     ( @ @ @ @ @ @     @ @ !   y @ @     z A @ @ ^ B     x @ @ @ @ @ >   C ",
"    @ @ f   g @ D     % @ E F G @ @     ^ @ H   I @ @     J _ K L @ M     r @ G       3   + ",
"    @ @ N ( 1 @ O     / @ P Q N @ @     R @ { S , @ @     m T U - @ V     : @ W X Y P >   Z ",
"    @ @ ` e %  ...    +.@.x @.` @ @     #.b x $.# @ @     %.[ &.] - o       *.b =.% -.;.  Z ",
"    @ @ !                                                                                 Z ",
"    @ @ !                                                                                 Z ",
"    @ @ !                                                                                 >.",
"                                                                                          Z ",
"                                                                                          >.",
"                                                                                          ,.",
"                                                                                          ,.",
"'.'.'.'.'.).!.'.'.'.'.'.'.'.'.'.'.!.!.!.!.!.!.'.'.'.'.'.'.).'.).).).).).).).).~.{.{.{.].{.^."};
