/* XPM */
static char * pause_focus[] = {
"46 25 114 2",
"  	c #43608C",
". 	c #202D42",
"+ 	c #202E43",
"@ 	c #FFFFFF",
"# 	c #9FAEC4",
"$ 	c #E9ECF1",
"% 	c #F9FAFB",
"& 	c #BCC6D6",
"* 	c #496590",
"= 	c #546E96",
"- 	c #D4DBE5",
"; 	c #F2F4F7",
"> 	c #FEFEFE",
", 	c #C0CAD9",
"' 	c #556F97",
") 	c #667EA2",
"! 	c #748AAA",
"~ 	c #D9DFE8",
"{ 	c #F8F9FB",
"] 	c #FBFCFD",
"^ 	c #E6EAF0",
"/ 	c #B3BFD1",
"( 	c #44618C",
"_ 	c #97A7BF",
": 	c #E5E9EF",
"< 	c #EAEEF2",
"[ 	c #A0AFC5",
"} 	c #44618D",
"| 	c #EFF1F5",
"1 	c #B4BFD1",
"2 	c #F0F2F6",
"3 	c #A7B5C9",
"4 	c #5C759B",
"5 	c #D4DAE4",
"6 	c #B2BED0",
"7 	c #E0E5EC",
"8 	c #C6CFDC",
"9 	c #EDEFF4",
"0 	c #D1D8E3",
"a 	c #B1BDCF",
"b 	c #CED5E1",
"c 	c #DEE3EB",
"d 	c #99A9C1",
"e 	c #E2E7ED",
"f 	c #8699B5",
"g 	c #889AB6",
"h 	c #778CAC",
"i 	c #A1AFC5",
"j 	c #ACB9CC",
"k 	c #BFC9D8",
"l 	c #F6F8FA",
"m 	c #F4F6F8",
"n 	c #A9B7CB",
"o 	c #6E84A6",
"p 	c #4C6791",
"q 	c #46628E",
"r 	c #E7EBF1",
"s 	c #C0C9D8",
"t 	c #ADBACD",
"u 	c #C1CBD9",
"v 	c #6B82A4",
"w 	c #6C82A5",
"x 	c #FCFDFD",
"y 	c #6980A3",
"z 	c #8799B5",
"A 	c #EEF1F5",
"B 	c #9EADC4",
"C 	c #FEFEFF",
"D 	c #223046",
"E 	c #EBEEF3",
"F 	c #8B9DB8",
"G 	c #45628D",
"H 	c #798EAD",
"I 	c #7288A9",
"J 	c #8C9EB9",
"K 	c #48648F",
"L 	c #5B749A",
"M 	c #9CABC3",
"N 	c #F7F8FA",
"O 	c #EDF0F4",
"P 	c #AAB7CB",
"Q 	c #D8DEE7",
"R 	c #B5C1D2",
"S 	c #D6DDE6",
"T 	c #A7B4C9",
"U 	c #C5CEDC",
"V 	c #B0BCCF",
"W 	c #EAEDF2",
"X 	c #F5F6F9",
"Y 	c #BAC4D5",
"Z 	c #B5C0D1",
"` 	c #223047",
" .	c #93A4BD",
"..	c #BEC8D7",
"+.	c #4A6691",
"@.	c #6F85A7",
"#.	c #E2E6ED",
"$.	c #677FA2",
"%.	c #E4E9EF",
"&.	c #C3CCDA",
"*.	c #FDFDFE",
"=.	c #90A1BB",
"-.	c #FBFBFC",
";.	c #DDE2EA",
">.	c #A9B6CA",
",.	c #233249",
"'.	c #24334A",
").	c #141C2A",
"!.	c #16202E",
"~.	c #141C29",
"{.	c #172130",
"].	c #17202F",
"^.	c #182231",
"/.	c #101621",
"                                                                                          . ",
"                                                                                          . ",
"                                                                                          . ",
"                                                                                          + ",
"                                                                                          + ",
"                                                                                          + ",
"                                                                                          + ",
"                                                                                          + ",
"                                                                                          + ",
"                                                                                          + ",
"    @ @ # $ % & *     = - ; > ; , '     @ @ )   ) @ @     ! ~ { ] ^ /     ( _ : ] < [ }   + ",
"    @ @ | 1 2 @ 3     4 5 1 6 7 @ 8     @ @ )   ) @ @     9 @ 0 a b c     d @ : 6 e @ #   + ",
"    @ @ f   g @ <     ( h i j k @ l     @ @ )   ) @ @     m @ n o p q     r @ s t u @ <   + ",
"    @ @ v   w @ x     / @ @ @ @ @ @     @ @ )   y @ @     z A @ @ ] B     x @ @ @ @ @ C   D ",
"    @ @ f   g @ E     % @ F G H @ @     ] @ I   J @ @     K ( L M @ N     r @ H       4   + ",
"    @ @ O 1 2 @ P     ^ @ Q R O @ @     S @ ~ T ; @ @     m U V - @ W     _ @ X Y Z Q C   ` ",
"    @ @  .e % ..+.    @.#.x #. .@ @     $.c x %.# @ @     &.< *.{ - o       =.c -.% ;.>.  ` ",
"    @ @ )                                                                                 ` ",
"    @ @ )                                                                                 ` ",
"    @ @ )                                                                                 ,.",
"                                                                                          ` ",
"                                                                                          ,.",
"                                                                                          '.",
"                                                                                          '.",
").).).).).!.~.).).).).).).).).).).~.~.~.~.~.~.).).).).).).!.).!.!.!.!.!.!.!.!.{.].].].^.]./."};
