/* XPM */
static char * pause_selected[] = {
"46 25 115 2",
"  	c #2F7868",
". 	c #202D42",
"+ 	c #202E43",
"@ 	c #FFFFFF",
"# 	c #95BAB2",
"$ 	c #E7EFED",
"% 	c #F8FBFA",
"& 	c #B5CFC9",
"* 	c #367C6D",
"= 	c #428476",
"- 	c #D0E0DD",
"; 	c #F1F6F5",
"> 	c #FDFEFE",
", 	c #F0F5F4",
"' 	c #BAD2CD",
") 	c #438576",
"! 	c #569184",
"~ 	c #669B90",
"{ 	c #D5E3E0",
"] 	c #F8FAFA",
"^ 	c #FBFCFC",
"/ 	c #E3EDEB",
"( 	c #ABC8C2",
"_ 	c #307969",
": 	c #8CB4AC",
"< 	c #E2ECEA",
"[ 	c #E8F0EE",
"} 	c #96BBB3",
"| 	c #317969",
"1 	c #EDF3F2",
"2 	c #ACC9C3",
"3 	c #EEF4F3",
"4 	c #9EC0B9",
"5 	c #4B8A7C",
"6 	c #CFE0DC",
"7 	c #A9C7C1",
"8 	c #DDE9E6",
"9 	c #C0D6D1",
"0 	c #EBF2F0",
"a 	c #CCDEDA",
"b 	c #A9C7C0",
"c 	c #C8DCD7",
"d 	c #DAE7E4",
"e 	c #8EB6AD",
"f 	c #AAC8C1",
"g 	c #DFEAE8",
"h 	c #79A89E",
"i 	c #7BA99F",
"j 	c #699E92",
"k 	c #97BBB3",
"l 	c #A3C3BC",
"m 	c #B8D1CB",
"n 	c #F5F9F8",
"o 	c #F3F7F6",
"p 	c #A0C2BA",
"q 	c #5E978A",
"r 	c #397E6F",
"s 	c #327A6A",
"t 	c #E5EEEC",
"u 	c #B9D1CC",
"v 	c #A4C4BD",
"w 	c #BAD3CD",
"x 	c #5B9588",
"y 	c #5C9589",
"z 	c #FCFDFD",
"A 	c #599487",
"B 	c #7AA99E",
"C 	c #ECF3F1",
"D 	c #94BAB1",
"E 	c #FEFEFE",
"F 	c #223046",
"G 	c #E9F1EF",
"H 	c #7FACA2",
"I 	c #317A6A",
"J 	c #6B9F93",
"K 	c #639A8E",
"L 	c #80ACA3",
"M 	c #357C6C",
"N 	c #49897B",
"O 	c #92B8B0",
"P 	c #F6F9F8",
"Q 	c #EBF2F1",
"R 	c #A1C2BB",
"S 	c #D4E3E0",
"T 	c #ADCAC4",
"U 	c #D2E2DE",
"V 	c #9DBFB8",
"W 	c #BFD6D1",
"X 	c #A8C6C0",
"Y 	c #E7F0EE",
"Z 	c #F4F8F7",
"` 	c #B2CDC7",
" .	c #ADCAC3",
"..	c #223047",
"+.	c #88B2A9",
"@.	c #B7D0CB",
"#.	c #377D6E",
"$.	c #60988C",
"%.	c #DEEAE7",
"&.	c #579285",
"*.	c #BDD4CF",
"=.	c #FDFDFD",
"-.	c #85B0A6",
";.	c #FAFCFB",
">.	c #D9E7E4",
",.	c #A0C1BA",
"'.	c #233249",
").	c #24334A",
"!.	c #141C2A",
"~.	c #16202E",
"{.	c #141C29",
"].	c #172130",
"^.	c #17202F",
"/.	c #182231",
"(.	c #101621",
"                                                                                          . ",
"                                                                                          . ",
"                                                                                          . ",
"                                                                                          + ",
"                                                                                          + ",
"                                                                                          + ",
"                                                                                          + ",
"                                                                                          + ",
"                                                                                          + ",
"                                                                                          + ",
"    @ @ # $ % & *     = - ; > , ' )     @ @ !   ! @ @     ~ { ] ^ / (     _ : < ^ [ } |   + ",
"    @ @ 1 2 3 @ 4     5 6 2 7 8 @ 9     @ @ !   ! @ @     0 @ a b c d     e @ < f g @ #   + ",
"    @ @ h   i @ [     _ j k l m @ n     @ @ !   ! @ @     o @ p q r s     t @ u v w @ [   + ",
"    @ @ x   y @ z     ( @ @ @ @ @ @     @ @ !   A @ @     B C @ @ ^ D     z @ @ @ @ @ E   F ",
"    @ @ h   i @ G     % @ H I J @ @     ^ @ K   L @ @     M _ N O @ P     t @ J       5   + ",
"    @ @ Q 2 3 @ R     / @ S T Q @ @     U @ { V , @ @     o W X - @ Y     : @ Z `  .S E   ..",
"    @ @ +.g % @.#.    $.%.z %.+.@ @     &.d z < # @ @     *.[ =.] - q       -.d ;.% >.,.  ..",
"    @ @ !                                                                                 ..",
"    @ @ !                                                                                 ..",
"    @ @ !                                                                                 '.",
"                                                                                          ..",
"                                                                                          '.",
"                                                                                          ).",
"                                                                                          ).",
"!.!.!.!.!.~.{.!.!.!.!.!.!.!.!.!.!.{.{.{.{.{.{.!.!.!.!.!.!.~.!.~.~.~.~.~.~.~.~.].^.^.^./.^.(."};
