/* XPM */
static char * pause_active[] = {
"46 25 112 2",
"  	c None",
". 	c #750924",
"+ 	c #500619",
"@ 	c #FFFFFF",
"# 	c #B9828F",
"$ 	c #EFE2E5",
"% 	c #FBF7F8",
"& 	c #CEA7B1",
"* 	c #79112B",
"= 	c #811F38",
"- 	c #E0C7CD",
"; 	c #F6EFF0",
"> 	c #FEFDFD",
", 	c #F5EEF0",
"' 	c #D1ADB6",
") 	c #822039",
"! 	c #8F374D",
"~ 	c #994A5E",
"{ 	c #E3CDD2",
"] 	c #FAF6F7",
"^ 	c #FCFAFB",
"/ 	c #EDDEE2",
"( 	c #C79CA7",
"_ 	c #760A25",
": 	c #B37786",
"< 	c #ECDDE1",
"[ 	c #F0E4E7",
"} 	c #B98390",
"| 	c #760B26",
"1 	c #F3EAEC",
"2 	c #C89DA7",
"3 	c #F4EBED",
"4 	c #BF8C99",
"5 	c #872A41",
"6 	c #DFC6CC",
"7 	c #C69AA5",
"8 	c #E8D6DB",
"9 	c #D5B5BD",
"0 	c #F1E7EA",
"a 	c #DDC2C9",
"b 	c #C699A4",
"c 	c #DBBEC5",
"d 	c #E7D4D8",
"e 	c #B47A88",
"f 	c #C79BA6",
"g 	c #EAD9DE",
"h 	c #A66172",
"i 	c #A76374",
"j 	c #9B4D61",
"k 	c #BA8491",
"l 	c #C2929E",
"m 	c #D0ABB4",
"n 	c #F9F3F5",
"o 	c #F7F1F2",
"p 	c #C08F9B",
"q 	c #944156",
"r 	c #7B152E",
"s 	c #770D27",
"t 	c #EEE0E4",
"u 	c #D0ACB5",
"v 	c #C394A0",
"w 	c #D2AEB7",
"x 	c #923D52",
"y 	c #933E53",
"z 	c #FDFBFC",
"A 	c #913B51",
"B 	c #A76273",
"C 	c #F3E9EB",
"D 	c #B8818E",
"E 	c #FEFEFE",
"F 	c #F0E5E8",
"G 	c #AA6878",
"H 	c #770C27",
"I 	c #9D4F63",
"J 	c #98475B",
"K 	c #AB6979",
"L 	c #79102A",
"M 	c #86283F",
"N 	c #B67E8C",
"O 	c #F9F4F6",
"P 	c #F2E8EA",
"Q 	c #C1909C",
"R 	c #E2CCD1",
"S 	c #C99FA9",
"T 	c #E1CAD0",
"U 	c #BE8B98",
"V 	c #D5B4BC",
"W 	c #C598A3",
"X 	c #EFE3E6",
"Y 	c #F7F1F3",
"Z 	c #CCA4AE",
"` 	c #C89EA8",
" .	c #B07282",
"..	c #CFAAB3",
"+.	c #7A132D",
"@.	c #954358",
"#.	c #E9D8DD",
"$.	c #90384E",
"%.	c #ECDCE0",
"&.	c #D3B1B9",
"*.	c #FDFCFC",
"=.	c #AE6E7E",
"-.	c #FCF9FA",
";.	c #E6D3D7",
">.	c #C08E9B",
",.	c #141C2A",
"'.	c #16202E",
").	c #141C29",
"!.	c #172130",
"~.	c #17202F",
"{.	c #182231",
"].	c #101621",
". . . . . . . . . . . . . . . . . . . . . . . . . . . . . . . . . . . . . . . . . . . . . + ",
". . . . . . . . . . . . . . . . . . . . . . . . . . . . . . . . . . . . . . . . . . . . . + ",
". . . . . . . . . . . . . . . . . . . . . . . . . . . . . . . . . . . . . . . . . . . . . + ",
". . . . . . . . . . . . . . . . . . . . . . . . . . . . . . . . . . . . . . . . . . . . . + ",
". . . . . . . . . . . . . . . . . . . . . . . . . . . . . . . . . . . . . . . . . . . . . + ",
". . . . . . . . . . . . . . . . . . . . . . . . . . . . . . . . . . . . . . . . . . . . . + ",
". . . . . . . . . . . . . . . . . . . . . . . . . . . . . . . . . . . . . . . . . . . . . + ",
". . . . . . . . . . . . . . . . . . . . . . . . . . . . . . . . . . . . . . . . . . . . . + ",
". . . . . . . . . . . . . . . . . . . . . . . . . . . . . . . . . . . . . . . . . . . . . + ",
". . . . . . . . . . . . . . . . . . . . . . . . . . . . . . . . . . . . . . . . . . . . . + ",
". . @ @ # $ % & * . . = - ; > , ' ) . . @ @ ! . ! @ @ . . ~ { ] ^ / ( . . _ : < ^ [ } | . + ",
". . @ @ 1 2 3 @ 4 . . 5 6 2 7 8 @ 9 . . @ @ ! . ! @ @ . . 0 @ a b c d . . e @ < f g @ # . + ",
". . @ @ h . i @ [ . . _ j k l m @ n . . @ @ ! . ! @ @ . . o @ p q r s . . t @ u v w @ [ . + ",
". . @ @ x . y @ z . . ( @ @ @ @ @ @ . . @ @ ! . A @ @ . . B C @ @ ^ D . . z @ @ @ @ @ E . + ",
". . @ @ h . i @ F . . % @ G H I @ @ . . ^ @ J . K @ @ . . L _ M N @ O . . t @ I . . . 5 . + ",
". . @ @ P 2 3 @ Q . . / @ R S P @ @ . . T @ { U , @ @ . . o V W - @ X . . : @ Y Z ` R E . + ",
". . @ @  .g % ..+.. . @.#.z #. .@ @ . . $.d z %.# @ @ . . &.[ *.] - q . . . =.d -.% ;.>.. + ",
". . @ @ ! . . . . . . . . . . . . . . . . . . . . . . . . . . . . . . . . . . . . . . . . + ",
". . @ @ ! . . . . . . . . . . . . . . . . . . . . . . . . . . . . . . . . . . . . . . . . + ",
". . @ @ ! . . . . . . . . . . . . . . . . . . . . . . . . . . . . . . . . . . . . . . . . + ",
". . . . . . . . . . . . . . . . . . . . . . . . . . . . . . . . . . . . . . . . . . . . . + ",
". . . . . . . . . . . . . . . . . . . . . . . . . . . . . . . . . . . . . . . . . . . . . + ",
". . . . . . . . . . . . . . . . . . . . . . . . . . . . . . . . . . . . . . . . . . . . . + ",
". . . . . . . . . . . . . . . . . . . . . . . . . . . . . . . . . . . . . . . . . . . . . + ",
",.,.,.,.,.'.).,.,.,.,.,.,.,.,.,.,.).).).).).).,.,.,.,.,.,.'.,.'.'.'.'.'.'.'.'.!.~.~.~.{.~.]."};
