/* XPM */
static char * pause_normal[] = {
"46 25 115 2",
"  	c #374E72",
". 	c #202D42",
"+ 	c #202E43",
"@ 	c #FFFFFF",
"# 	c #99A5B7",
"$ 	c #E7EAEE",
"% 	c #F9F9FB",
"& 	c #B8C0CD",
"* 	c #3D5476",
"= 	c #495E7F",
"- 	c #D2D7DF",
"; 	c #F2F3F6",
"> 	c #FDFEFE",
", 	c #F1F3F5",
"' 	c #BCC4D0",
") 	c #4A5F7F",
"! 	c #5D6F8D",
"~ 	c #6C7D97",
"{ 	c #D6DBE2",
"] 	c #F8F9FA",
"^ 	c #FBFCFC",
"/ 	c #E4E7EC",
"( 	c #AEB8C6",
"_ 	c #384F73",
": 	c #909DB1",
"< 	c #E9ECF0",
"[ 	c #9AA5B8",
"} 	c #394F73",
"| 	c #EEF0F3",
"1 	c #AFB8C7",
"2 	c #EFF0F3",
"3 	c #A2ACBD",
"4 	c #526685",
"5 	c #D1D6DE",
"6 	c #ADB6C5",
"7 	c #DEE2E8",
"8 	c #C3CAD4",
"9 	c #EBEEF1",
"0 	c #CED3DC",
"a 	c #ACB5C4",
"b 	c #CAD0DA",
"c 	c #DCE0E6",
"d 	c #939FB3",
"e 	c #ADB7C5",
"f 	c #E0E4E9",
"g 	c #7E8DA4",
"h 	c #808FA5",
"i 	c #6F7F99",
"j 	c #9BA6B8",
"k 	c #A6B1C1",
"l 	c #BBC3CF",
"m 	c #F6F7F8",
"n 	c #F3F5F7",
"o 	c #A4AEBF",
"p 	c #647692",
"q 	c #405679",
"r 	c #3A5174",
"s 	c #E6E9ED",
"t 	c #BCC3CF",
"u 	c #A8B2C2",
"v 	c #BDC5D1",
"w 	c #617390",
"x 	c #627490",
"y 	c #FCFCFD",
"z 	c #60728F",
"A 	c #7F8EA5",
"B 	c #EDEFF2",
"C 	c #98A4B7",
"D 	c #FEFEFE",
"E 	c #223046",
"F 	c #EAECF0",
"G 	c #8492A8",
"H 	c #395074",
"I 	c #70819A",
"J 	c #697A95",
"K 	c #8593A9",
"L 	c #3C5376",
"M 	c #506484",
"N 	c #96A2B5",
"O 	c #F6F7F9",
"P 	c #ECEEF2",
"Q 	c #A5AFBF",
"R 	c #D5DAE2",
"S 	c #B1BAC8",
"T 	c #D4D9E1",
"U 	c #A1ACBD",
"V 	c #C2C9D4",
"W 	c #ABB5C4",
"X 	c #E8EBEF",
"Y 	c #F4F5F7",
"Z 	c #B5BECB",
"` 	c #B0B9C7",
" .	c #223047",
"..	c #8C9AAE",
"+.	c #BAC2CE",
"@.	c #3F5578",
"#.	c #667893",
"$.	c #E0E3E9",
"%.	c #5D708D",
"&.	c #E3E6EB",
"*.	c #BFC7D2",
"=.	c #FDFDFD",
"-.	c #8997AC",
";.	c #FAFBFC",
">.	c #DBDFE6",
",.	c #A3AEBE",
"'.	c #233249",
").	c #24334A",
"!.	c #141C2A",
"~.	c #16202E",
"{.	c #141C29",
"].	c #172130",
"^.	c #17202F",
"/.	c #182231",
"(.	c #101621",
"                                                                                          . ",
"                                                                                          . ",
"                                                                                          . ",
"                                                                                          + ",
"                                                                                          + ",
"                                                                                          + ",
"                                                                                          + ",
"                                                                                          + ",
"                                                                                          + ",
"                                                                                          + ",
"    @ @ # $ % & *     = - ; > , ' )     @ @ !   ! @ @     ~ { ] ^ / (     _ : / ^ < [ }   + ",
"    @ @ | 1 2 @ 3     4 5 1 6 7 @ 8     @ @ !   ! @ @     9 @ 0 a b c     d @ / e f @ #   + ",
"    @ @ g   h @ <     _ i j k l @ m     @ @ !   ! @ @     n @ o p q r     s @ t u v @ <   + ",
"    @ @ w   x @ y     ( @ @ @ @ @ @     @ @ !   z @ @     A B @ @ ^ C     y @ @ @ @ @ D   E ",
"    @ @ g   h @ F     % @ G H I @ @     ^ @ J   K @ @     L _ M N @ O     s @ I       4   + ",
"    @ @ P 1 2 @ Q     / @ R S P @ @     T @ { U , @ @     n V W - @ X     : @ Y Z ` R D    .",
"    @ @ ..f % +.@.    #.$.y $...@ @     %.c y &.# @ @     *.< =.] - p       -.c ;.% >.,.   .",
"    @ @ !                                                                                  .",
"    @ @ !                                                                                  .",
"    @ @ !                                                                                 '.",
"                                                                                           .",
"                                                                                          '.",
"                                                                                          ).",
"                                                                                          ).",
"!.!.!.!.!.~.{.!.!.!.!.!.!.!.!.!.!.{.{.{.{.{.{.!.!.!.!.!.!.~.!.~.~.~.~.~.~.~.~.].^.^.^./.^.(."};
