/* XPM */
static char * rate_selected_xpm[] = {
"46 25 130 2",
"  	c None",
". 	c #2F7868",
"+ 	c #202D42",
"@ 	c #546887",
"# 	c #677994",
"$ 	c #5B6D8B",
"% 	c #B0B9C7",
"& 	c #FFFFFF",
"* 	c #CCD1DB",
"= 	c #202E43",
"- 	c #317868",
"; 	c #397E6E",
"> 	c #367B6C",
", 	c #556987",
"' 	c #3A7F6F",
") 	c #F3F4F6",
"! 	c #8896AB",
"~ 	c #ABB4C3",
"{ 	c #FCFCFD",
"] 	c #61738F",
"^ 	c #576A88",
"/ 	c #DEE2E8",
"( 	c #EBEDF1",
"_ 	c #687994",
": 	c #B5BDCB",
"< 	c #F0F2F5",
"[ 	c #F6F7F8",
"} 	c #DBDFE6",
"| 	c #387D6E",
"1 	c #357A6B",
"2 	c #B2BBC9",
"3 	c #FDFDFD",
"4 	c #AAB4C3",
"5 	c #D4D9E1",
"6 	c #337A6A",
"7 	c #EFF1F3",
"8 	c #FBFCFC",
"9 	c #CBD1DA",
"0 	c #F7F8F9",
"a 	c #FAFAFB",
"b 	c #A6B0C0",
"c 	c #E9ECF0",
"d 	c #C8CED8",
"e 	c #377C6D",
"f 	c #C0C7D2",
"g 	c #B9C1CE",
"h 	c #EEF0F3",
"i 	c #E4E7EC",
"j 	c #347B6B",
"k 	c #97A3B6",
"l 	c #5F728E",
"m 	c #5A6D8A",
"n 	c #637591",
"o 	c #5B6E8B",
"p 	c #417E75",
"q 	c #F8F9FA",
"r 	c #8C99AE",
"s 	c #B8C0CD",
"t 	c #576B89",
"u 	c #8392A8",
"v 	c #C8CFD8",
"w 	c #6B7C97",
"x 	c #919EB2",
"y 	c #77869F",
"z 	c #DADFE5",
"A 	c #8A97AC",
"B 	c #7F8DA4",
"C 	c #E8EAEE",
"D 	c #ECEFF2",
"E 	c #ACB6C4",
"F 	c #CFD5DD",
"G 	c #212E44",
"H 	c #6D7D98",
"I 	c #A4AFBF",
"J 	c #4E6282",
"K 	c #47707A",
"L 	c #9EA9BA",
"M 	c #DADEE5",
"N 	c #657692",
"O 	c #212F44",
"P 	c #98A4B6",
"Q 	c #F2F3F6",
"R 	c #8492A8",
"S 	c #CED3DC",
"T 	c #7C8BA2",
"U 	c #F1F3F5",
"V 	c #A2ADBD",
"W 	c #75859E",
"X 	c #212F45",
"Y 	c #D3D8E0",
"Z 	c #ABB5C4",
"` 	c #72829C",
" .	c #9CA8B9",
"..	c #8593A9",
"+.	c #E1E5EA",
"@.	c #D5DAE1",
"#.	c #5E708D",
"$.	c #D2D7DF",
"%.	c #FBFBFC",
"&.	c #BDC5D1",
"*.	c #FEFEFE",
"=.	c #E1E4E9",
"-.	c #F5F6F8",
";.	c #70809A",
">.	c #223046",
",.	c #3C7F70",
"'.	c #7E8DA4",
").	c #6D7E98",
"!.	c #327969",
"~.	c #818FA6",
"{.	c #5C6F8C",
"].	c #223047",
"^.	c #233148",
"/.	c #233249",
"(.	c #24334A",
"_.	c #24334B",
":.	c #151D2B",
"<.	c #141D2A",
"[.	c #141C2A",
"}.	c #141C29",
"|.	c #151E2B",
"1.	c #151E2C",
"2.	c #161F2D",
"3.	c #161F2E",
"4.	c #16202E",
"5.	c #17202F",
"6.	c #172130",
"7.	c #182131",
"8.	c #182231",
"9.	c #101621",
". . . . . . . . . . . . . . . . . . . . . . . . . . . . . . . . . . . . . . . . . . . . . + ",
". . . . . . . . . . . . . . . . . . . . . . . . . . . . . . . . . . . . . . . . . . . . . + ",
". . . . . . . . . . . . . . . . . . . . . . . . . . . . . . . . . . . . . . . . . . . . . + ",
". . . . . . . . . . . . . . . . . . . . . . . . . . . . . . . . . . . . . . . . . . . . . + ",
". . . . . . . . . . . . . . . . . . . . . . . . . . . . . . . . . . . . . . . . . . . . . + ",
". . . . . . . . . . . . . . . . . . . . . . . . . @ # $ . . . . . . . . . . . . . . . . . + ",
". . . . . . . . . . . . . . . . . . . . . . . . . % & * . . . . . . . . . . . . . . . . . = ",
". . . . . . . . . - - . . ; > . . . . , ' . . . . % & * . . . . . . @ . . . . . . . . . . = ",
". . . . . . . . . ) & ! ~ { ] . ^ / & & & ( _ . : < & [ } | . 1 2 { & 3 4 ; . . . . . . . = ",
". . . . . . . . . ) & 5 & & ] 6 7 & 8 9 0 & a ' b c & < d e . f & { g h & i j . . . . . . = ",
". . . . . . . . . ) & [ k $ ; l 0 [ @ . m & & n . % & * . . o & & $ . p q & r . . . . . . = ",
". . . . . . . . . ) & s . . . . . . t u v & & w . % & * . . x & h y y y z & 2 . . . . . . = ",
". . . . . . . . . ) & A . . . . B C & & D & & w . % & * . . E & & & & & & & F . . . . . . G ",
". . . . . . . . . ) & ! . . . H & & I J K & & w . % & * . . L & M N N N N N o . . . . . . O ",
". . . . . . . . . ) & ! . . . P & Q . . R & & w . % & S . . T & U > . . P V W . . . . . . X ",
". . . . . . . . . ) & ! . . . R & & Y Z { & & ` .  .& ) ..j j +.& @.A v & 3 #.. . . . . . X ",
". . . . . . . . . ) & ! . . . 6 $.& & %.A D & &.. ^ *.& & ' . ^ =.& & & -.;.. . . . . . . >.",
". . . . . . . . . . . . . . . . . m B ,.. . . . . . 6 '.).!.. . 6 #.~.{.. . . . . . . . . ].",
". . . . . . . . . . . . . . . . . . . . . . . . . . . . . . . . . . . . . . . . . . . . . ^.",
". . . . . . . . . . . . . . . . . . . . . . . . . . . . . . . . . . . . . . . . . . . . . ^.",
". . . . . . . . . . . . . . . . . . . . . . . . . . . . . . . . . . . . . . . . . . . . . /.",
". . . . . . . . . . . . . . . . . . . . . . . . . . . . . . . . . . . . . . . . . . . . . /.",
". . . . . . . . . . . . . . . . . . . . . . . . . . . . . . . . . . . . . . . . . . . . . (.",
". . . . . . . . . . . . . . . . . . . . . . . . . . . . . . . . . . . . . . . . . . . . . _.",
":.:.<.<.<.<.<.<.<.<.<.<.[.[.[.[.[.}.}.}.}.}.}.}.[.<.<.<.:.|.1.1.2.2.2.3.4.4.5.5.5.6.6.7.8.9."};
