/* XPM */
static char *record_active[] = {
/* columns rows colors chars-per-pixel */
"96 33 10 1",
"  c #750924",
". c #84243C",
"X c #933F54",
"o c #A35B6D",
"O c #B27685",
"+ c #C1919D",
"@ c #D1ADB6",
"# c #E0C8CE",
"$ c #EFE3E6",
"% c gray100",
/* pixels */
"                                                                                                ",
"                                                                                                ",
"                                                                                                ",
"                                                                                                ",
"                                                                                                ",
"                                                                                                ",
"                                                                                                ",
"                                                                                                ",
"                                                                                                ",
"                                                                                                ",
"                                                                         o%%o                   ",
"                                                                         o%%o                   ",
"                                                                         o%%o                   ",
"                    O@@.@%%  X@%%%+.    X@%%%$X  .+$%%#O   X@@X+$%o X#%%+o%%o                   ",
"                    @%%$%%% o%%%%%%$.  o%%%%%%o .$%%%%%%@  o%%$%%%o.$%%%%%%%o                   ",
"                    @%%$. . $%$X X%%+  $%%@  XX +%%@ .$%%X o%%%o  .+%%@ .$%%o                   ",
"                    @%%X   X%%@ooo#%$ X%%$      $%%.  O%%+ o%%+    %%%.  O%%o                   ",
"                    @%%    o%%%%%%%%% o%%@      %%%   o%%@ o%%o    %%%   o%%o                   ",
"                    @%%    o%%+oooooo o%%#      %%%   o%%@ o%%o    %%%   o%%o                   ",
"                    @%%     %%#    .o  %%%X   . @%%O  #%%o o%%o    #%%O  #%%o                   ",
"                    @%%     +%%$@@$%@  +%%%@@$o X%%%@#%%$  o%%o    o%%%@#%%%o                   ",
"                    @%%      +%%%%%$o   +%%%%%o  o$%%%%#.  o%%o     +%%%$@%%o                   ",
"                               ooo.       oooX     Xoo.              .oo                        ",
"                                                                                                ",
"                                                                                                ",
"                                                                                                ",
"                                                                                                ",
"                                                                                                ",
"                                                                                                ",
"                                                                                                ",
"                                                                                                ",
"                                                                                                ",
"                                                                                                "
};
