/* XPM */
static char *record_selected[] = {
/* columns rows colors chars-per-pixel */
"96 33 32 1",
"  c #24334A",
". c #24334B",
"X c #24344C",
"o c #25344C",
"O c #25354D",
"+ c #26354E",
"@ c #26364E",
"# c #26364F",
"$ c #263650",
"% c #273750",
"& c #273751",
"* c #273851",
"= c #273852",
"- c #283852",
"; c #283953",
": c #283954",
"> c #293A54",
", c #293A55",
"< c #293B56",
"1 c #2A3B56",
"2 c #2A3B57",
"3 c #2A3C57",
"4 c #2F7868",
"5 c #468779",
"6 c #5D9689",
"7 c #74A59A",
"8 c #8BB4AB",
"9 c #A2C3BB",
"0 c #BAD2CD",
"q c #D1E1DD",
"w c #E7F0EE",
"e c gray100",
/* pixels */
"&4444444444444444444444444444444444444444444444444444444444444444444444444444444444444444444444&",
"&4444444444444444444444444444444444444444444444444444444444444444444444444444444444444444444444#",
"#4444444444444444444444444444444444444444444444444444444444444444444444444444444444444444444444%",
"&4444444444444444444444444444444444444444444444444444444444444444444444444444444444444444444444%",
"#4444444444444444444444444444444444444444444444444444444444444444444444444444444444444444444444%",
"#4444444444444444444444444444444444444444444444444444444444444444444444444444444444444444444444%",
"#4444444444444444444444444444444444444444444444444444444444444444444444444444444444444444444444#",
"#4444444444444444444444444444444444444444444444444444444444444444444444444444444444444444444444&",
"#4444444444444444444444444444444444444444444444444444444444444444444444444444444444444444444444&",
"o4444444444444444444444444444444444444444444444444444444444444444444444444444444444444444444444&",
"#4444444444444444444444444444444444444444444444444444444444444444444444447ee7444444444444444444=",
" 4444444444444444444444444444444444444444444444444444444444444444444444447ee7444444444444444444=",
"o4444444444444444444444444444444444444444444444444444444444444444444444447ee7444444444444444444=",
"o444444444444444444480050ee4460eee95444460eeew64459weeq844460069we746qee97ee7444444444444444444=",
"o44444444444444444440eeweee47eeeeeew5447eeeeee745weeeeee0447eeweee75weeeeeee7444444444444444444=",
" 44444444444444444440eew5454wew646ee944wee0446649ee045wee647eee74459ee045wee7444444444444444444=",
" 44444444444444444440ee64446ee0777qew46eew444444wee5448ee947ee94444eee5448ee7444444444444444444=",
" 44444444444444444440ee44447eeeeeeeee47ee0444444eee4447ee047ee74444eee4447ee7444444444444444444=",
" 44444444444444444440ee44447ee977777747eeq444444eee4447ee047ee74444eee4447ee7444444444444444444=",
"X44444444444444444440ee44444eeq44445744eee6444540ee844qee747ee74444qee844qee7444444444444444444=",
" 44444444444444444440ee444449eew00we0449eee00w746eee0qeew447ee744447eee0qeee7444444444444444444=",
"X44444444444444444440ee4444449eeeeew74449eeeee7447weeeeq5447ee7444449eeew0ee74444444444444444442",
" 4444444444444444444444444444447775444444477764444467754444444444444457744444444444444444444444=",
"X4444444444444444444444444444444444444444444444444444444444444444444444444444444444444444444444=",
" 44444444444444444444444444444444444444444444444444444444444444444444444444444444444444444444442",
"X44444444444444444444444444444444444444444444444444444444444444444444444444444444444444444444442",
" 4444444444444444444444444444444444444444444444444444444444444444444444444444444444444444444444=",
" 44444444444444444444444444444444444444444444444444444444444444444444444444444444444444444444442",
" 44444444444444444444444444444444444444444444444444444444444444444444444444444444444444444444442",
" 44444444444444444444444444444444444444444444444444444444444444444444444444444444444444444444442",
" 44444444444444444444444444444444444444444444444444444444444444444444444444444444444444444444442",
" 44444444444444444444444444444444444444444444444444444444444444444444444444444444444444444444442",
" 44444444444444444444444444444444444444444444444444444444444444444444444444444444444444444444442"
};
