/* XPM */
static char * record_disabled_xpm[] = {
"96 33 157 2",
"  	c None",
". 	c #273751",
"+ 	c #475160",
"@ 	c #263650",
"# 	c #273750",
"$ 	c #26364F",
"% 	c #26364E",
"& 	c #26354E",
"* 	c #556987",
"= 	c #6C7D97",
"- 	c #6B7C97",
"; 	c #25354D",
"> 	c #ABB4C3",
", 	c #FFFFFF",
"' 	c #FBFCFC",
") 	c #273851",
"! 	c #25344C",
"~ 	c #C2C9D4",
"{ 	c #DCE0E6",
"] 	c #AEB7C6",
"^ 	c #526685",
"/ 	c #BBC3CF",
"( 	c #CCD2DB",
"_ 	c #B9C1CD",
": 	c #F6F7F8",
"< 	c #EEF0F3",
"[ 	c #627490",
"} 	c #555E6C",
"| 	c #B4BDCA",
"1 	c #E0E3E9",
"2 	c #FAFAFB",
"3 	c #8C99AE",
"4 	c #495362",
"5 	c #4F5866",
"6 	c #ADB6C5",
"7 	c #D9DDE4",
"8 	c #DADFE5",
"9 	c #B0B9C7",
"0 	c #525B69",
"a 	c #4F617E",
"b 	c #B6BECB",
"c 	c #F7F8FA",
"d 	c #8694A9",
"e 	c #273852",
"f 	c #CCD1DB",
"g 	c #D8DCE3",
"h 	c #D2D7DF",
"i 	c #75859E",
"j 	c #FDFDFD",
"k 	c #FEFEFE",
"l 	c #77869F",
"m 	c #5E708D",
"n 	c #B5BDCB",
"o 	c #F7F8F9",
"p 	c #F9FAFB",
"q 	c #5B6E8B",
"r 	c #E1E4E9",
"s 	c #24344C",
"t 	c #FCFCFD",
"u 	c #B1BAC8",
"v 	c #95A1B4",
"w 	c #EBEDF1",
"x 	c #CDD3DC",
"y 	c #536075",
"z 	c #D6DAE2",
"A 	c #F5F6F8",
"B 	c #545D6B",
"C 	c #CED3DC",
"D 	c #F2F3F6",
"E 	c #72829C",
"F 	c #50617A",
"G 	c #BDC4D0",
"H 	c #5F728E",
"I 	c #C3CAD4",
"J 	c #8392A8",
"K 	c #7E8DA4",
"L 	c #F8F9FA",
"M 	c #CFD5DD",
"N 	c #566988",
"O 	c #C1C8D3",
"P 	c #24334B",
"Q 	c #546887",
"R 	c #7989A1",
"S 	c #697B95",
"T 	c #78879F",
"U 	c #506483",
"V 	c #A6B0C0",
"W 	c #DEE2E8",
"X 	c #8492A8",
"Y 	c #9CA8B9",
"Z 	c #A7B1C1",
"` 	c #283852",
" .	c #96A2B5",
"..	c #D7DCE3",
"+.	c #DBDFE6",
"@.	c #7C8BA3",
"#.	c #687994",
"$.	c #667793",
"%.	c #74849D",
"&.	c #71829B",
"*.	c #D3D8E0",
"=.	c #C6CDD7",
"-.	c #E8EAEE",
";.	c #A0ABBC",
">.	c #6A7B96",
",.	c #697A95",
"'.	c #8290A7",
").	c #8A98AD",
"!.	c #283953",
"~.	c #4D5664",
"{.	c #98A4B6",
"].	c #8795AA",
"^.	c #576A88",
"/.	c #7D8CA3",
"(.	c #657692",
"_.	c #6F7F99",
":.	c #8E9BAF",
"<.	c #495260",
"[.	c #EDEFF2",
"}.	c #7B8AA2",
"|.	c #677994",
"1.	c #505967",
"2.	c #7A89A1",
"3.	c #4A5463",
"4.	c #F3F4F6",
"5.	c #E3E6EB",
"6.	c #4E5765",
"7.	c #515A68",
"8.	c #535C6A",
"9.	c #DADEE5",
"0.	c #4B5564",
"a.	c #C8CFD8",
"b.	c #A8B2C2",
"c.	c #E5E8EC",
"d.	c #808FA5",
"e.	c #F0F2F5",
"f.	c #EFF1F3",
"g.	c #F4F5F7",
"h.	c #283954",
"i.	c #DFE3E8",
"j.	c #C4CAD5",
"k.	c #B2BBC9",
"l.	c #9FAABB",
"m.	c #E6E9ED",
"n.	c #8794AA",
"o.	c #D7DBE2",
"p.	c #293A54",
"q.	c #516077",
"r.	c #70809A",
"s.	c #586B89",
"t.	c #667893",
"u.	c #293A55",
"v.	c #24334A",
"w.	c #293B56",
"x.	c #2A3B56",
"y.	c #2A3B57",
"z.	c #2A3C57",
". + + + + + + + + + + + + + + + + + + + + + + + + + + + + + + + + + + + + + + + + + + + + + + + + + + + + + + + + + + + + + + + + + + + + + + + + + + + + + + + + + + + + + + + + + + + + + + @ ",
"# + + + + + + + + + + + + + + + + + + + + + + + + + + + + + + + + + + + + + + + + + + + + + + + + + + + + + + + + + + + + + + + + + + + + + + + + + + + + + + + + + + + + + + + + + + + + + + @ ",
"# + + + + + + + + + + + + + + + + + + + + + + + + + + + + + + + + + + + + + + + + + + + + + + + + + + + + + + + + + + + + + + + + + + + + + + + + + + + + + + + + + + + + + + + + + + + + + + # ",
"@ + + + + + + + + + + + + + + + + + + + + + + + + + + + + + + + + + + + + + + + + + + + + + + + + + + + + + + + + + + + + + + + + + + + + + + + + + + + + + + + + + + + + + + + + + + + + + + # ",
"$ + + + + + + + + + + + + + + + + + + + + + + + + + + + + + + + + + + + + + + + + + + + + + + + + + + + + + + + + + + + + + + + + + + + + + + + + + + + + + + + + + + + + + + + + + + + + + + # ",
"$ + + + + + + + + + + + + + + + + + + + + + + + + + + + + + + + + + + + + + + + + + + + + + + + + + + + + + + + + + + + + + + + + + + + + + + + + + + + + + + + + + + + + + + + + + + + + + + # ",
"$ + + + + + + + + + + + + + + + + + + + + + + + + + + + + + + + + + + + + + + + + + + + + + + + + + + + + + + + + + + + + + + + + + + + + + + + + + + + + + + + + + + + + + + + + + + + + + + # ",
"% + + + + + + + + + + + + + + + + + + + + + + + + + + + + + + + + + + + + + + + + + + + + + + + + + + + + + + + + + + + + + + + + + + + + + + + + + + + + + + + + + + + + + + + + + + + + + + . ",
"& + + + + + + + + + + + + + + + + + + + + + + + + + + + + + + + + + + + + + + + + + + + + + + + + + + + + + + + + + + + + + + + + + + + + + + + * = - + + + + + + + + + + + + + + + + + + + + . ",
"; + + + + + + + + + + + + + + + + + + + + + + + + + + + + + + + + + + + + + + + + + + + + + + + + + + + + + + + + + + + + + + + + + + + + + + + > , ' + + + + + + + + + + + + + + + + + + + + . ",
"; + + + + + + + + + + + + + + + + + + + + + + + + + + + + + + + + + + + + + + + + + + + + + + + + + + + + + + + + + + + + + + + + + + + + + + + > , ' + + + + + + + + + + + + + + + + + + + + ) ",
"! + + + + + + + + + + + + + + + + + + + + + + + + + + + + + + + + + + + + + + + + + + + + + + + + + + + + + + + + + + + + + + + + + + + + + + + > , ' + + + + + + + + + + + + + + + + + + + + ) ",
"! + + + + + + + + + + + + + + + + + + + ~ { ] ^ / ( + + ^ _ : < ( [ + + + + } | 1 2 ( 3 4 + + + + 5 6 7 2 8 9 0 + + + ~ { ] ^ / ( + + a b c 7 d > , ' + + + + + + + + + + + + + + + + + + + + e ",
"! + + + + + + + + + + + + + + + + + + + 1 , f g , h + i j , k , , j l + + m 2 , , , , , n + + + ^ o , , , , , p q + + 1 , f g , h + [ 2 , , , , r , ' + + + + + + + + + + + + + + + + + + + + e ",
"s + + + + + + + + + + + + + + + + + + + 1 , k t u v 5 w , x } y z , A B + C , D E F G , , H + + I , ' J } K L , M + + 1 , k t u v + z , p d N O , , ' + + + + + + + + + + + + + + + + + + + + e ",
"P + + + + + + + + + + + + + + + + + + + 1 , , Q + + R , , S + + S , , T U , , V + + B W r X + y , , > + + + Y , , N + 1 , , Q + + m , , Z + + 0 ' , ' + + + + + + + + + + + + + + + + + + + + ` ",
"P + + + + + + + + + + + + + + + + + + + 1 , 8 + + +  ., , 7 ....+., , v = , , @.+ + + + + + + #., , E + + + $., , %.+ 1 , 8 + + + K , , &.+ + + *., ' + + + + + + + + + + + + + + + + + + + + ` ",
"P + + + + + + + + + + + + + + + + + + + 1 , =.+ + + V , k -.-.-.-.-.-.;.R , , >.+ + + + + + + %., , ,.+ + + q , , '.+ 1 , =.+ + + )., , q + + + / , ' + + + + + + + + + + + + + + + + + + + + !.",
"P + + + + + + + + + + + + + + + + + + + 1 , =.+ + + 3 , k ~.+ + + + + + H , , {.+ + + d ].H + ^., , ).+ + + /., , (.+ 1 , =.+ + + _., , :.+ + <.[., ' + + + + + + + + + + + + + + + + + + + + !.",
"P + + + + + + + + + + + + + + + + + + + 1 , =.+ + + q , , }.+ + S M M |.1.p , 7 4 + 2., , i + 3.4., 5.6.+ ~.{ , c 7.+ 1 , =.+ + + 8.L , 9.0.+ l , , ' + + + + + + + + + + + + + + + + + + + + !.",
"P + + + + + + + + + + + + + + + + + + + 1 , =.+ + + + I , j a.b.A , +.<.+  ., , -.G j , c.6.+ + d., , e._ f., , 3 + + 1 , =.+ + + + Z , , g.a.t , , ' + + + + + + + + + + + + + + + + + + + + h.",
"P + + + + + + + + + + + + + + + + + + + i., =.+ + + + B j., , , , k.5 + + 3.l.t , , , m.* + + + + n.g., , , o :.<.+ + i., =.+ + + + 0.k., , , o./ , ' + + + + + + + + + + + + + + + + + + + + p.",
"P + + + + + + + + + + + + + + + + + + + + + + + + + + + + q.X R ^ + + + + + + B r.].s.+ + + + + + + 5 t.].#.1.+ + + + + + + + + + + + + U X t.0.+ + + + + + + + + + + + + + + + + + + + + + + p.",
"P + + + + + + + + + + + + + + + + + + + + + + + + + + + + + + + + + + + + + + + + + + + + + + + + + + + + + + + + + + + + + + + + + + + + + + + + + + + + + + + + + + + + + + + + + + + + + + p.",
"P + + + + + + + + + + + + + + + + + + + + + + + + + + + + + + + + + + + + + + + + + + + + + + + + + + + + + + + + + + + + + + + + + + + + + + + + + + + + + + + + + + + + + + + + + + + + + + u.",
"P + + + + + + + + + + + + + + + + + + + + + + + + + + + + + + + + + + + + + + + + + + + + + + + + + + + + + + + + + + + + + + + + + + + + + + + + + + + + + + + + + + + + + + + + + + + + + + u.",
"P + + + + + + + + + + + + + + + + + + + + + + + + + + + + + + + + + + + + + + + + + + + + + + + + + + + + + + + + + + + + + + + + + + + + + + + + + + + + + + + + + + + + + + + + + + + + + + u.",
"v.+ + + + + + + + + + + + + + + + + + + + + + + + + + + + + + + + + + + + + + + + + + + + + + + + + + + + + + + + + + + + + + + + + + + + + + + + + + + + + + + + + + + + + + + + + + + + + + w.",
"v.+ + + + + + + + + + + + + + + + + + + + + + + + + + + + + + + + + + + + + + + + + + + + + + + + + + + + + + + + + + + + + + + + + + + + + + + + + + + + + + + + + + + + + + + + + + + + + + x.",
"v.+ + + + + + + + + + + + + + + + + + + + + + + + + + + + + + + + + + + + + + + + + + + + + + + + + + + + + + + + + + + + + + + + + + + + + + + + + + + + + + + + + + + + + + + + + + + + + + x.",
"v.+ + + + + + + + + + + + + + + + + + + + + + + + + + + + + + + + + + + + + + + + + + + + + + + + + + + + + + + + + + + + + + + + + + + + + + + + + + + + + + + + + + + + + + + + + + + + + + y.",
"v.+ + + + + + + + + + + + + + + + + + + + + + + + + + + + + + + + + + + + + + + + + + + + + + + + + + + + + + + + + + + + + + + + + + + + + + + + + + + + + + + + + + + + + + + + + + + + + + z.",
"v.+ + + + + + + + + + + + + + + + + + + + + + + + + + + + + + + + + + + + + + + + + + + + + + + + + + + + + + + + + + + + + + + + + + + + + + + + + + + + + + + + + + + + + + + + + + + + + + z."};
