/* XPM */
static char *redo_focus[] = {
/* columns rows colors chars-per-pixel */
"57 52 100 2",
"   c black",
".  c #000101",
"X  c #010101",
"o  c #010102",
"O  c #010203",
"+  c #020203",
"@  c #020304",
"#  c #020305",
"$  c #030406",
"%  c #040608",
"&  c #050609",
"*  c #05070A",
"=  c #06090D",
"-  c #070A0E",
";  c #070A0F",
":  c #080C11",
">  c #090C12",
",  c #090D12",
"<  c #090D13",
"1  c #0A0E14",
"2  c #0A0E15",
"3  c #0A0F15",
"4  c #0B1017",
"5  c #0C1118",
"6  c #0D131C",
"7  c #0E141D",
"8  c #0F151F",
"9  c #111822",
"0  c #121925",
"q  c #131B28",
"w  c #141C29",
"e  c #151E2C",
"r  c #161F2E",
"t  c #17202F",
"y  c #182232",
"u  c #182333",
"i  c #192333",
"p  c #192435",
"a  c #1B2739",
"s  c #1D293C",
"d  c #1E2B3F",
"f  c #1F2C40",
"g  c #1F2C41",
"h  c #202D42",
"j  c #202E43",
"k  c #212E44",
"l  c #212F44",
"z  c #212F45",
"x  c #223046",
"c  c #223047",
"v  c #223147",
"b  c #233148",
"n  c #233248",
"m  c #233249",
"M  c #24324A",
"N  c #24334A",
"B  c #24334B",
"V  c #24344C",
"C  c #25344C",
"Z  c #25354D",
"A  c #26354E",
"S  c #26364E",
"D  c #26364F",
"F  c #263650",
"G  c #273852",
"H  c #293A55",
"J  c #293B56",
"K  c #2A3B57",
"L  c #2B3D59",
"P  c #2B3D5A",
"I  c #2C3E5A",
"U  c #2C3E5B",
"Y  c #304463",
"T  c #314667",
"R  c #364D71",
"E  c #3A5379",
"W  c #3D577E",
"Q  c #3D5880",
"!  c #3E5981",
"~  c #3F5A82",
"^  c #3F5B84",
"/  c #405C87",
"(  c #415D86",
")  c #425E87",
"_  c #415D88",
"`  c #415F88",
"'  c #425E89",
"]  c #425F8B",
"[  c #435F8A",
"{  c #43608C",
"}  c #44608B",
"|  c #587199",
" . c #6C83A5",
".. c #8295B2",
"X. c #96A6BF",
"o. c #ABB8CC",
"O. c #C0CAD9",
"+. c #D5DBE5",
"@. c #EAEDF2",
"#. c gray100",
/* pixels */
"x { { { { { { { { { { { { { { } ] ] ] ] ] ) ] ) ] ) ) ^ ) ] ^ / ^ ] ) ) ] ) ] ) ^ ] ] ) ] ) ] ] ) ] ] ] [ ] ] ] g ",
"z { { { { { { { { { { { { { { { { { } [ { { ] } ] ] { { ] ] ] ] { { { { ] ] { { ] ] { { { { } } { ] { { } } } } h ",
"z { { { { { { { { { { { { { { { { { { { { { { { ] { { { { { ] ] { { { { ] { { { { { { { { { { { { { { { { { { { h ",
"d { { { { { { { { { { { { { { { { { { { { { { { { { { { { { ] ] { { { { { { { { { { { { { { { { { { { { { { { { h ",
"y { { { { { { { { { { { { { { { { { { { { { { { { { { { { { { { { { { { { { { { { { { { { { { { { { { { { { { { h ",
"0 { { { { { { { { { { { { { { { { { { { { { { { { { { { { { { { { { { { { { { { { { { { { { { { { { { { { { { { z ",
"5 { { { { { { { { { { { { { { { { { { { { { { { { { { { { { { { { { { { { { { { { { { { { { { { { { { { { { { { z ",
"@ ] { { { { { { { { { { { { { { { { { { { { { { { { { { { { { { { { { { { { { { { { { { { { { { { { { { { { { { z ",
"  T { { { { { { { { { { { { { { { { { { { { { { { { { { { { { { { { { { { O.#.#.{ { { { { { { { { { { { { { { { z ",
"  x { { { { { { { { { { { { { { { { { { { { { { { { ] ] { { { { { { { { { O.#.#.{ { { { { { { { { { { { { { { { x ",
"  t { { { { { { { { { { { { { { { { { { { { { { { ] ] ] { { { { { { { { { O.#.#.{ { { { { { { { { { { { { { { { x ",
"  2 { { { { { { { { { { X.O.O.| O.#.#.{ {  .O.#.#.#.o.| { { { { X.@.#.@...O.#.#.{ { { | o.@.#.#.+.X.{ { { { { { x ",
"    R { { { { { { { { { O.#.#.@.#.#.#.{ ..#.#.#.#.#.#.@.| { { ..#.#.#.#.#.#.#.#.{ { | @.#.#.#.#.#.#.O.{ { { { { x ",
"    a { { { { { { { { { O.#.#.@.| { | { @.#.@. .{  .#.#.o.{ { @.#.#...{ ..#.#.#.{ { o.#.#.O.{ | @.#.#. .{ { { { v ",
"    : { { { { { { { { { O.#.#. .{ { {  .#.#.O.......+.#.@.] ..#.#.+.{ { { +.#.#.{ { @.#.#.| { { X.#.#.o.{ { { { v ",
"      U { { { { { { { { O.#.#.{ { { { ..#.#.#.#.#.#.#.#.#.] ..#.#.O.{ { { O.#.#.{ { #.#.#.{ { { ..#.#.O.{ { { { N ",
"      p { { { { { { { { O.#.#.{ { { { ..#.#.o.............{ ..#.#.O.{ { { O.#.#.{ { #.#.#.{ { { ..#.#.O.{ { { { v ",
"      - ] { { { { { { { O.#.#.{ { { { { #.#.+.{ { { { | ..{ | #.#.#.| { | #.#.#.{ { O.#.#.X.{ { +.#.#...{ { { { v ",
"        F ] { { { { { { O.#.#.{ { { { { o.#.#.@.O.O.@.#.O.{ { O.#.#.@.O.@.#.#.#.{ {  .#.#.#.O.+.#.#.@.{ { { { { N ",
"        5 ] { { { { { { O.#.#.{ { { { { { o.#.#.#.#.#.@...{ { | +.#.#.#.+.+.#.#.{ { { ..@.#.#.#.#.+.| { { { { { N ",
"          A { { { { { { { { { { { { { { { { { ......| { { { { { {  ... .{ { { { { { { { {  .....| { { { { { { { B ",
"          4 { { { { { { { { { { { { { { { { { { { { { { { { { { { { { { { { { { { { { { { { { { { { { { { { { { B ",
"            A { { { { { { { { { { { { { { { { { { { { { { { { { { { { { { { { { { { { { { { { { { { { { { { { { A ",
"            : } { { { { { { { { { { { { { { { { { { { { { { { { { { { { { { { { { { { { { { { { { { { { { { { { B ",
"              N { { { { { { { { { { { { { { { { { { { { { { { { { { { { { { { { { { { { { { { { { { { { { { { { A ",
"              & ~ { { { { { { { { { { { { { { { { { { { { { { { { { { { { { { { { { { { { { { { { { { { { { { { A ",
"                9 { { { { { { { { { { { { { { { { { { { { { { { { { { { { { { { { { { { { { { { { { { { { { { { A ",
"                  x { { { { { { { { { { { { { { { { { { { { { { { { { { { { { { { { { { { { { { { { { { { { { { A ",
"                  $ W { { { { { { { { { { { { { { { { { { { { { { { { { { { { { { { { { { { { { { { { { { { { { B ",
"                    6 } { { { { { { { { { { { { { { { { { { { { { { { { { { { { { { { { { { { { { { { { { { { { A ",
"                      d { { { { { { { { { { { { { { { { { { { { { { { { { { { { { { { { { { { { { { { { { { { { B ",
"                        A { { { { { { { { { { { { { { { { { { { { { { { { { { { { { { { { { { { { { { { { { { { B ",
"                        @ U { { { { { { { { { { { { { { { { { { { { { { { { { { { { { { { { { { { { { { { { { { N ",
"                          & W { { { { { { { { { { { { { { { { { { { { { { { { { { { { { { { { { { { { { { { { { B ",
"                            : ) ] { { { { { { { { { { { { { { { { { { { { { { { { { { { { { { { { { { { { { { { B ",
"                              5 ] { { { { { { { { { { { { { { { { { { { { { { { { { { { { { { { { { { { { { { { N ",
"                                8 ) { { { { { { { { { { { { { { { { { { { { { { { { { { { { { { { { { { { { { { N ",
"                                  4 ~ { { { { { { { { { { { { { { { { { { { { { { { { { { { { { { { { { { { { { N ",
"                                    - R { { { { { { { { { { { { { { { { { { { { { { { { { { { { { { { { { { { { v ",
"                                      & J { { { { { { { { { { { { { { { { { { { { { { { { { { { { { { { { { { { N ",
"                                        @ A } { { { { { { { { { { { { { { { { { { { { { { { { { { { { { { { { { v ",
"                                            r ) { { { } { { { { { { { { { { { { { { { { { { { { { { { { { { { { v ",
"                                              : J { ] ] { { { { { { { { { { { { { { { { { { { { { { { { { { { { N ",
"                                                  y ] { { { { { { { { { { { { { { { { { { { { { { { { { { { { { v ",
"                                                    : U ] { { { { { { { { { { { { { { { { { { { { { { { { { { { N ",
"                                                        e E { { { { { { { { { { { { { { { { { { { { { { { { { { x ",
"                                                            e ~ { ] { { { { { { { { { { { { { { { { { { { { { { x ",
"                                                              @ t ~ { { { { { { { { { { { { { { { { { { { { { { x ",
"                                                                    e J ] ] ] ] ] ] ] } } } { { { { { { { { { { x ",
"                                                                        = y T ] } } ] ] { { { { { { { { { { { { x ",
"                                                                              - x U ] ] { { { { { { { { { { { { z ",
"                                                                                    @ : r h N G I E ^ } { { { { z "
};
