/* XPM */
static char * redo_normal_xpm[] = {
"57 52 196 2",
"  	c None",
". 	c #223046",
"+ 	c #374E72",
"@ 	c #233249",
"# 	c #233148",
"$ 	c #233248",
"% 	c #24324A",
"& 	c #212E44",
"* 	c #1C283A",
"= 	c #182131",
"- 	c #223147",
"; 	c #131B27",
"> 	c #556987",
", 	c #6C7D97",
"' 	c #6B7C97",
") 	c #080C11",
"! 	c #ABB4C3",
"~ 	c #FFFFFF",
"{ 	c #FBFCFC",
"] 	c #223047",
"^ 	c #000000",
"/ 	c #334869",
"( 	c #26364F",
"_ 	c #192434",
": 	c #C2C9D4",
"< 	c #DCE0E6",
"[ 	c #AEB7C6",
"} 	c #526685",
"| 	c #BBC3CF",
"1 	c #CCD2DB",
"2 	c #B9C1CD",
"3 	c #F6F7F8",
"4 	c #EEF0F3",
"5 	c #627490",
"6 	c #4C6181",
"7 	c #B6BECB",
"8 	c #F7F8FA",
"9 	c #D9DDE4",
"0 	c #8694A9",
"a 	c #3F5578",
"b 	c #ADB6C5",
"c 	c #FAFAFB",
"d 	c #DADFE5",
"e 	c #B0B9C7",
"f 	c #42587A",
"g 	c #0A0F15",
"h 	c #E0E3E9",
"i 	c #CCD1DB",
"j 	c #D8DCE3",
"k 	c #D2D7DF",
"l 	c #75859E",
"m 	c #FDFDFD",
"n 	c #FEFEFE",
"o 	c #77869F",
"p 	c #E1E4E9",
"q 	c #F7F8F9",
"r 	c #F9FAFB",
"s 	c #5B6E8B",
"t 	c #212F45",
"u 	c #314565",
"v 	c #FCFCFD",
"w 	c #B1BAC8",
"x 	c #95A1B4",
"y 	c #EBEDF1",
"z 	c #CDD3DC",
"A 	c #465B7D",
"B 	c #495E7F",
"C 	c #D6DAE2",
"D 	c #F5F6F8",
"E 	c #455B7C",
"F 	c #566988",
"G 	c #C1C8D3",
"H 	c #C3CAD4",
"I 	c #8392A8",
"J 	c #7E8DA4",
"K 	c #F8F9FA",
"L 	c #CFD5DD",
"M 	c #202E43",
"N 	c #546887",
"O 	c #7989A1",
"P 	c #697B95",
"Q 	c #78879F",
"R 	c #5E708D",
"S 	c #A7B1C1",
"T 	c #9CA8B9",
"U 	c #101721",
"V 	c #96A2B5",
"W 	c #D7DCE3",
"X 	c #DBDFE6",
"Y 	c #71829B",
"Z 	c #D3D8E0",
"` 	c #687994",
" .	c #72829C",
"..	c #667793",
"+.	c #74849D",
"@.	c #212F44",
"#.	c #020203",
"$.	c #34496B",
"%.	c #C6CDD7",
"&.	c #A6B0C0",
"*.	c #E8EAEE",
"=.	c #A0ABBC",
"-.	c #8A98AD",
";.	c #697A95",
">.	c #8290A7",
",.	c #1B2638",
"'.	c #8C99AE",
").	c #3D5376",
"!.	c #6F7F99",
"~.	c #8E9BAF",
"{.	c #384F73",
"].	c #EDEFF2",
"^.	c #576A88",
"/.	c #7D8CA3",
"(.	c #657692",
"_.	c #040608",
":.	c #354B6D",
"<.	c #7B8AA2",
"[.	c #677994",
"}.	c #44597B",
"|.	c #DADEE5",
"1.	c #3B5275",
"2.	c #3A5174",
"3.	c #F3F4F6",
"4.	c #E3E6EB",
"5.	c #3E5477",
"6.	c #415779",
"7.	c #1F2C41",
"8.	c #C8CFD8",
"9.	c #A8B2C2",
"0.	c #F4F5F7",
"a.	c #808FA5",
"b.	c #F0F2F5",
"c.	c #EFF1F3",
"d.	c #06090D",
"e.	c #364D71",
"f.	c #DFE3E8",
"g.	c #C4CAD5",
"h.	c #B2BBC9",
"i.	c #D7DBE2",
"j.	c #8794AA",
"k.	c #1F2C40",
"l.	c #4A5F7F",
"m.	c #8492A8",
"n.	c #506483",
"o.	c #667893",
"p.	c #8795AA",
"q.	c #405678",
"r.	c #040609",
"s.	c #202D42",
"t.	c #1A2536",
"u.	c #314666",
"v.	c #111823",
"w.	c #1F2D41",
"x.	c #25344C",
"y.	c #05070B",
"z.	c #33486A",
"A.	c #151E2B",
"B.	c #273750",
"C.	c #030507",
"D.	c #2F4362",
"E.	c #0A0E15",
"F.	c #354B6E",
"G.	c #151E2C",
"H.	c #1E2A3E",
"I.	c #010101",
"J.	c #24344C",
"K.	c #010102",
"L.	c #293A55",
"M.	c #26364E",
"N.	c #000101",
"O.	c #1A2537",
"P.	c #070A0E",
"Q.	c #2C3E5B",
"R.	c #010202",
"S.	c #0D131B",
"T.	c #2E4160",
"U.	c #010203",
"V.	c #354C6E",
"W.	c #080B11",
"X.	c #0C1119",
"Y.	c #293A54",
"Z.	c #0F151F",
"`.	c #273751",
" +	c #090D13",
".+	c #1F2B3F",
"++	c #16202E",
"@+	c #24334A",
"#+	c #0E141E",
"$+	c #2D405D",
"%+	c #24334B",
"&+	c #131C28",
"*+	c #1D293B",
"=+	c #293B56",
"-+	c #2C3F5C",
";+	c #304463",
". + + + + + + + + + + + + + + + + + + + + + + + + + + + + + + + + + + + + + + + + + + + + + + + + + + + + + + + @ ",
"# + + + + + + + + + + + + + + + + + + + + + + + + + + + + + + + + + + + + + + + + + + + + + + + + + + + + + + + $ ",
"% + + + + + + + + + + + + + + + + + + + + + + + + + + + + + + + + + + + + + + + + + + + + + + + + + + + + + + + $ ",
"& + + + + + + + + + + + + + + + + + + + + + + + + + + + + + + + + + + + + + + + + + + + + + + + + + + + + + + + # ",
"* + + + + + + + + + + + + + + + + + + + + + + + + + + + + + + + + + + + + + + + + + + + + + + + + + + + + + + + # ",
"= + + + + + + + + + + + + + + + + + + + + + + + + + + + + + + + + + + + + + + + + + + + + + + + + + + + + + + + - ",
"; + + + + + + + + + + + + + + + + + + + + + + + + + + + + + + + + + + > , ' + + + + + + + + + + + + + + + + + + - ",
") + + + + + + + + + + + + + + + + + + + + + + + + + + + + + + + + + + ! ~ { + + + + + + + + + + + + + + + + + + ] ",
"^ / + + + + + + + + + + + + + + + + + + + + + + + + + + + + + + + + + ! ~ { + + + + + + + + + + + + + + + + + + . ",
"^ ( + + + + + + + + + + + + + + + + + + + + + + + + + + + + + + + + + ! ~ { + + + + + + + + + + + + + + + + + + . ",
"^ _ + + + + + + + + + + : < [ } | 1 + + } 2 3 4 1 5 + + + + 6 7 8 9 0 ! ~ { + + + a b 9 c d e f + + + + + + + + . ",
"^ g + + + + + + + + + + h ~ i j ~ k + l m ~ n ~ ~ m o + + 5 c ~ ~ ~ ~ p ~ { + + } q ~ ~ ~ ~ ~ r s + + + + + + + t ",
"^ ^ u + + + + + + + + + h ~ n v w x a y ~ z A B C ~ D E + C ~ r 0 F G ~ ~ { + + H ~ { I A J K ~ L + + + + + + + t ",
"^ ^ M + + + + + + + + + h ~ ~ N + + O ~ ~ P + + P ~ ~ Q R ~ ~ S + + f { ~ { + B ~ ~ ! + + + T ~ ~ F + + + + + + t ",
"^ ^ U + + + + + + + + + h ~ d + + + V ~ ~ 9 W W X ~ ~ x J ~ ~ Y + + + Z ~ { + ` ~ ~  .+ + + ..~ ~ +.+ + + + + + @.",
"^ ^ #.$.+ + + + + + + + h ~ %.+ + + &.~ n *.*.*.*.*.*.=.-.~ ~ s + + + | ~ { + +.~ ~ ;.+ + + s ~ ~ >.+ + + + + + & ",
"^ ^ ^ ,.+ + + + + + + + h ~ %.+ + + '.~ n ).+ + + + + + !.~ ~ ~.+ + {.].~ { + ^.~ ~ -.+ + + /.~ ~ (.+ + + + + + & ",
"^ ^ ^ _.:.+ + + + + + + h ~ %.+ + + s ~ ~ <.+ + P L L [.}.K ~ |.1.+ o ~ ~ { + 2.3.~ 4.5.+ ).< ~ 8 6.+ + + + + + & ",
"^ ^ ^ ^ 7.+ + + + + + + h ~ %.+ + + + H ~ m 8.9.D ~ X {.+ S ~ ~ 0.8.v ~ ~ { + + a.~ ~ b.2 c.~ ~ '.+ + + + + + + M ",
"^ ^ ^ ^ d.e.+ + + + + + f.~ %.+ + + + E g.~ ~ ~ ~ h.a + + 1.h.~ ~ ~ i.| ~ { + + + j.0.~ ~ ~ q ~.{.+ + + + + + + M ",
"^ ^ ^ ^ ^ k.+ + + + + + + + + + + + + + + l.m.O } + + + + + + n.m.o.1.+ + + + + + + a o.p.` q.+ + + + + + + + + M ",
"^ ^ ^ ^ ^ r.$.+ + + + + + + + + + + + + + + + + + + + + + + + + + + + + + + + + + + + + + + + + + + + + + + + + s.",
"^ ^ ^ ^ ^ ^ t.+ + + + + + + + + + + + + + + + + + + + + + + + + + + + + + + + + + + + + + + + + + + + + + + + + s.",
"^ ^ ^ ^ ^ ^ #.u.+ + + + + + + + + + + + + + + + + + + + + + + + + + + + + + + + + + + + + + + + + + + + + + + + s.",
"^ ^ ^ ^ ^ ^ ^ v.+ + + + + + + + + + + + + + + + + + + + + + + + + + + + + + + + + + + + + + + + + + + + + + + + w.",
"^ ^ ^ ^ ^ ^ ^ ^ x.+ + + + + + + + + + + + + + + + + + + + + + + + + + + + + + + + + + + + + + + + + + + + + + + 7.",
"^ ^ ^ ^ ^ ^ ^ ^ y.z.+ + + + + + + + + + + + + + + + + + + + + + + + + + + + + + + + + + + + + + + + + + + + + + w.",
"^ ^ ^ ^ ^ ^ ^ ^ ^ A.+ + + + + + + + + + + + + + + + + + + + + + + + + + + + + + + + + + + + + + + + + + + + + + s.",
"^ ^ ^ ^ ^ ^ ^ ^ ^ ^ B.+ + + + + + + + + + + + + + + + + + + + + + + + + + + + + + + + + + + + + + + + + + + + + s.",
"^ ^ ^ ^ ^ ^ ^ ^ ^ ^ C.D.+ + + + + + + + + + + + + + + + + + + + + + + + + + + + + + + + + + + + + + + + + + + + s.",
"^ ^ ^ ^ ^ ^ ^ ^ ^ ^ ^ E.F.+ + + + + + + + + + + + + + + + + + + + + + + + + + + + + + + + + + + + + + + + + + + M ",
"^ ^ ^ ^ ^ ^ ^ ^ ^ ^ ^ ^ G.+ + + + + + + + + + + + + + + + + + + + + + + + + + + + + + + + + + + + + + + + + + + M ",
"^ ^ ^ ^ ^ ^ ^ ^ ^ ^ ^ ^ ^ H.+ + + + + + + + + + + + + + + + + + + + + + + + + + + + + + + + + + + + + + + + + + & ",
"^ ^ ^ ^ ^ ^ ^ ^ ^ ^ ^ ^ ^ ^ t + + + + + + + + + + + + + + + + + + + + + + + + + + + + + + + + + + + + + + + + + & ",
"^ ^ ^ ^ ^ ^ ^ ^ ^ ^ ^ ^ ^ ^ I.J.+ + + + + + + + + + + + + + + + + + + + + + + + + + + + + + + + + + + + + + + + @.",
"^ ^ ^ ^ ^ ^ ^ ^ ^ ^ ^ ^ ^ ^ ^ K.L.+ + + + + + + + + + + + + + + + + + + + + + + + + + + + + + + + + + + + + + + t ",
"^ ^ ^ ^ ^ ^ ^ ^ ^ ^ ^ ^ ^ ^ ^ ^ #.M.+ + + + + + + + + + + + + + + + + + + + + + + + + + + + + + + + + + + + + + t ",
"^ ^ ^ ^ ^ ^ ^ ^ ^ ^ ^ ^ ^ ^ ^ ^ ^ K.@ + + + + + + + + + + + + + + + + + + + + + + + + + + + + + + + + + + + + + t ",
"^ ^ ^ ^ ^ ^ ^ ^ ^ ^ ^ ^ ^ ^ ^ ^ ^ ^ N.M + + + + + + + + + + + + + + + + + + + + + + + + + + + + + + + + + + + + . ",
"^ ^ ^ ^ ^ ^ ^ ^ ^ ^ ^ ^ ^ ^ ^ ^ ^ ^ ^ ^ O.+ + + + + + + + + + + + + + + + + + + + + + + + + + + + + + + + + + + . ",
"^ ^ ^ ^ ^ ^ ^ ^ ^ ^ ^ ^ ^ ^ ^ ^ ^ ^ ^ ^ ^ U z.+ + + + + + + + + + + + + + + + + + + + + + + + + + + + + + + + + ] ",
"^ ^ ^ ^ ^ ^ ^ ^ ^ ^ ^ ^ ^ ^ ^ ^ ^ ^ ^ ^ ^ ^ P.Q.+ + + + + + + + + + + + + + + + + + + + + + + + + + + + + + + + - ",
"^ ^ ^ ^ ^ ^ ^ ^ ^ ^ ^ ^ ^ ^ ^ ^ ^ ^ ^ ^ ^ ^ ^ R.M + + + + + + + + + + + + + + + + + + + + + + + + + + + + + + + # ",
"^ ^ ^ ^ ^ ^ ^ ^ ^ ^ ^ ^ ^ ^ ^ ^ ^ ^ ^ ^ ^ ^ ^ ^ ^ S.T.+ + + + + + + + + + + + + + + + + + + + + + + + + + + + + # ",
"^ ^ ^ ^ ^ ^ ^ ^ ^ ^ ^ ^ ^ ^ ^ ^ ^ ^ ^ ^ ^ ^ ^ ^ ^ ^ U.,.V.+ + + + + + + + + + + + + + + + + + + + + + + + + + + $ ",
"^ ^ ^ ^ ^ ^ ^ ^ ^ ^ ^ ^ ^ ^ ^ ^ ^ ^ ^ ^ ^ ^ ^ ^ ^ ^ ^ ^ W.M.+ + + + + + + + + + + + + + + + + + + + + + + + + + @ ",
"^ ^ ^ ^ ^ ^ ^ ^ ^ ^ ^ ^ ^ ^ ^ ^ ^ ^ ^ ^ ^ ^ ^ ^ ^ ^ ^ ^ ^ ^ X.Y.+ + + + + + + + + + + + + + + + + + + + + + + + @ ",
"^ ^ ^ ^ ^ ^ ^ ^ ^ ^ ^ ^ ^ ^ ^ ^ ^ ^ ^ ^ ^ ^ ^ ^ ^ ^ ^ ^ ^ ^ ^ ^ Z.`.+ + + + + + + + + + + + + + + + + + + + + + @ ",
"^ ^ ^ ^ ^ ^ ^ ^ ^ ^ ^ ^ ^ ^ ^ ^ ^ ^ ^ ^ ^ ^ ^ ^ ^ ^ ^ ^ ^ ^ ^ ^ ^ ^  +.+/ + + + + + + + + + + + + + + + + + + + % ",
"^ ^ ^ ^ ^ ^ ^ ^ ^ ^ ^ ^ ^ ^ ^ ^ ^ ^ ^ ^ ^ ^ ^ ^ ^ ^ ^ ^ ^ ^ ^ ^ ^ ^ ^ ^ I.++x.V.+ + + + + + + + + + + + + + + + @+",
"^ ^ ^ ^ ^ ^ ^ ^ ^ ^ ^ ^ ^ ^ ^ ^ ^ ^ ^ ^ ^ ^ ^ ^ ^ ^ ^ ^ ^ ^ ^ ^ ^ ^ ^ ^ ^ ^ ^ R.#+.+$++ + + + + + + + + + + + + %+",
"^ ^ ^ ^ ^ ^ ^ ^ ^ ^ ^ ^ ^ ^ ^ ^ ^ ^ ^ ^ ^ ^ ^ ^ ^ ^ ^ ^ ^ ^ ^ ^ ^ ^ ^ ^ ^ ^ ^ ^ ^ ^ ^ R.E.&+*+] ( =+-+;+;+;+;+D.7."};
