/* XPM */
static char *redo_disabled[] = {
/* columns rows colors chars-per-pixel */
"57 52 98 2",
"   c black",
".  c #000101",
"X  c #010101",
"o  c #010102",
"O  c #010203",
"+  c #020203",
"@  c #020304",
"#  c #020305",
"$  c #030406",
"%  c #040608",
"&  c #050609",
"*  c #05070A",
"=  c #06090D",
"-  c #070A0E",
";  c #070A0F",
":  c #080C11",
">  c #090C12",
",  c #090D12",
"<  c #090D13",
"1  c #0A0E14",
"2  c #0A0E15",
"3  c #0A0F15",
"4  c #0B1017",
"5  c #0C1118",
"6  c #0D131C",
"7  c #0E141D",
"8  c #0F151F",
"9  c #111822",
"0  c #121925",
"q  c #131B28",
"w  c #141C29",
"e  c #151E2C",
"r  c #161F2E",
"t  c #17202F",
"y  c #182232",
"u  c #182333",
"i  c #192333",
"p  c #192435",
"a  c #1B2739",
"s  c #1D293C",
"d  c #1E2B3F",
"f  c #1F2C40",
"g  c #1F2C41",
"h  c #202D42",
"j  c #202E43",
"k  c #212E44",
"l  c #212F44",
"z  c #212F45",
"x  c #223046",
"c  c #223047",
"v  c #223147",
"b  c #233148",
"n  c #233248",
"m  c #233249",
"M  c #24324A",
"N  c #24334A",
"B  c #24334B",
"V  c #24344C",
"C  c #25344C",
"Z  c #25354D",
"A  c #26354E",
"S  c #26364E",
"D  c #26364F",
"F  c #263650",
"G  c #273852",
"H  c #293A55",
"J  c #293B56",
"K  c #2A3B57",
"L  c #2B3D59",
"P  c #2B3D5A",
"I  c #2C3E5A",
"U  c #2C3E5B",
"Y  c #364357",
"T  c #314159",
"R  c #30405A",
"E  c #3B4554",
"W  c #3E4653",
"Q  c #3F4754",
"!  c #404855",
"~  c #404957",
"^  c #414A58",
"/  c #424B59",
"(  c #444D5B",
")  c #454E5C",
"_  c #454F5C",
"`  c #454F5E",
"'  c #464F5D",
"]  c #46505F",
"[  c #475160",
"{  c #5B6471",
"}  c #6F7783",
"|  c #848B95",
" . c #999EA6",
".. c #ADB1B8",
"X. c #C2C5CA",
"o. c #D6D8DB",
"O. c #EAEBED",
"+. c gray100",
/* pixels */
"x [ [ [ [ [ [ [ [ [ [ [ [ [ [ [ ] ] ] ' ' ' ' ' ( ' ( ( ( ( ( ( ( ' ( ' ( ' ' ( ' ' ( ] ] ] ] ] ] ] ] ] ] ] ] ] d ",
"z [ [ [ [ [ [ [ [ [ [ [ [ [ [ [ [ [ [ [ [ [ [ [ [ ] [ [ [ [ [ [ [ [ [ [ [ ] [ [ ] [ ] ] [ [ ] ] ] ] [ [ [ [ [ [ j ",
"z [ [ [ [ [ [ [ [ [ [ [ [ [ [ [ [ [ [ [ [ [ [ [ [ [ [ [ [ [ [ [ [ [ [ [ [ [ [ [ [ [ ] ] [ [ [ [ ] [ [ [ [ [ [ [ j ",
"d ] [ [ [ [ [ [ [ [ [ [ [ [ [ [ [ [ [ [ [ [ [ [ [ [ [ [ [ [ [ [ [ [ [ [ [ [ [ [ [ [ [ ] [ [ [ [ [ [ [ [ [ [ [ [ j ",
"y [ [ [ [ [ [ [ [ [ [ [ [ [ [ [ [ [ [ [ [ [ [ [ [ [ [ [ [ [ [ [ [ [ [ [ [ [ [ [ [ [ [ [ [ [ [ [ [ [ [ [ [ [ [ [ j ",
"0 [ [ [ [ [ [ [ [ [ [ [ [ [ [ [ [ [ [ [ [ [ [ [ [ [ [ [ [ [ [ [ [ [ [ [ [ [ [ [ [ [ [ [ [ [ [ [ [ [ [ [ [ [ [ [ z ",
"5 [ [ [ [ [ [ [ [ [ [ [ [ [ [ [ [ [ [ [ [ [ [ [ [ [ [ [ [ [ [ [ [ [ [ [ [ [ [ [ [ [ [ [ [ [ [ [ [ [ [ [ [ [ [ [ z ",
"# ] [ [ [ [ [ [ [ [ [ [ [ [ [ [ [ [ [ [ [ [ [ [ [ [ [ [ [ [ [ [ [ [ [ [ [ [ [ [ [ [ [ [ [ [ [ [ [ [ [ [ [ [ [ [ z ",
"  T [ [ [ [ [ [ [ [ [ [ [ [ [ [ [ [ [ [ [ [ [ [ [ [ [ [ [ [ [ [ [ [ [ [ [ X.+.+.[ [ [ [ [ [ [ [ [ [ [ [ [ [ [ [ z ",
"  x [ [ [ [ [ [ [ [ [ [ [ [ [ [ [ [ [ [ [ [ [ [ [ [ [ [ [ [ [ [ [ [ [ [ [ X.+.+.[ [ [ [ [ [ [ [ [ [ [ [ [ [ [ [ x ",
"  t [ [ [ [ [ [ [ [ [ [ [ [ [ [ [ [ [ [ [ [ [ [ [ [ [ [ [ [ [ [ [ [ [ [ [ X.+.+.[ [ [ [ [ [ [ [ [ [ [ [ [ [ [ [ x ",
"  3 [ [ [ [ [ [ [ [ [ [  .X.X.{ X.+.+.[ [ } X.+.+.+...{ [ [ [ [  .O.+.O.| X.+.+.[ [ [ { ..O.+.+.o. .[ [ [ [ [ [ x ",
"    Y [ [ [ [ [ [ [ [ [ X.+.+.O.+.+.+.[ | +.+.+.+.+.+.O.{ [ [ | +.+.+.+.+.+.+.+.[ [ { O.+.+.+.+.+.+.X.[ [ [ [ [ x ",
"    a [ [ [ [ [ [ [ [ [ X.+.+.O.{ [ { [ O.+.O.} [ } +.+...[ [ O.+.+.| [ | +.+.+.[ [ ..+.+.X.[ { O.+.+.} [ [ [ [ v ",
"    : [ [ [ [ [ [ [ [ [ X.+.+.} [ [ [ } +.+.X.| | | o.+.O.[ | +.+.o.[ [ [ o.+.+.[ [ O.+.+.{ [ [  .+.+...[ [ [ [ v ",
"      U [ [ [ [ [ [ [ [ X.+.+.[ [ [ [ | +.+.+.+.+.+.+.+.+.[ | +.+.X.[ [ [ X.+.+.[ [ +.+.+.[ [ [ | +.+.X.[ [ [ [ B ",
"      y [ [ [ [ [ [ [ [ X.+.+.[ [ [ [ | +.+...| | | | | | [ | +.+.X.[ [ [ X.+.+.[ [ +.+.+.[ [ [ | +.+.X.[ [ [ [ B ",
"      = [ [ [ [ [ [ [ [ X.+.+.[ [ [ [ [ +.+.o.[ [ [ [ { | [ { +.+.+.{ [ { +.+.+.[ [ X.+.+. .[ [ o.+.+.| [ [ [ [ n ",
"        F [ [ [ [ [ [ [ X.+.+.[ [ [ [ [ ..+.+.O.X.X.O.+.X.[ [ X.+.+.O.X.O.+.+.+.[ [ } +.+.+.X.o.+.+.O.[ [ [ [ [ B ",
"        5 [ [ [ [ [ [ [ X.+.+.[ [ [ [ [ [ ..+.+.+.+.+.O.| [ [ { o.+.+.+.o.o.+.+.[ [ [ | O.+.+.+.+.o.{ [ [ [ [ [ B ",
"          Z [ [ [ [ [ [ [ [ [ [ [ [ [ [ [ [ [ | | | { [ [ [ [ [ [ } | } [ [ [ [ [ [ [ [ [ } | | { [ [ [ [ [ [ [ B ",
"          3 [ [ [ [ [ [ [ [ [ [ [ [ [ [ [ [ [ [ [ [ [ [ [ [ [ [ [ [ [ [ [ [ [ [ [ [ [ [ [ [ [ [ [ [ [ [ [ [ [ [ B ",
"            Z [ [ [ [ [ [ [ [ [ [ [ [ [ [ [ [ [ [ [ [ [ [ [ [ [ [ [ [ [ [ [ [ [ [ [ [ [ [ [ [ [ [ [ [ [ [ [ ] ] B ",
"            3 [ [ [ [ [ [ [ [ [ [ [ [ [ [ [ [ [ [ [ [ [ [ [ [ [ [ [ [ [ [ [ [ [ [ [ [ [ [ [ [ [ [ [ [ [ [ ] ] ] B ",
"              B [ [ [ [ [ [ [ [ [ [ [ [ [ [ [ [ [ [ [ [ [ [ [ [ [ [ [ [ [ [ [ [ [ [ [ [ [ [ [ [ [ [ [ [ [ [ [ [ Z ",
"              & ^ [ [ [ [ [ [ [ [ [ [ [ [ [ [ [ [ [ [ [ [ [ [ [ [ [ [ [ [ [ [ [ [ [ [ [ [ [ [ [ [ [ [ [ [ [ [ [ Z ",
"                9 [ [ [ [ [ [ [ [ [ [ [ [ [ [ [ [ [ [ [ [ [ [ [ [ [ [ [ [ [ [ [ [ [ [ [ [ [ [ [ [ [ [ [ [ [ [ [ Z ",
"                  x [ [ [ [ [ [ [ [ [ [ [ [ [ [ [ [ [ [ [ [ [ [ [ [ [ [ [ [ [ [ [ [ [ [ [ [ [ [ [ [ [ [ [ [ [ [ Z ",
"                  $ W [ [ [ [ [ [ [ [ [ [ [ [ [ [ [ [ [ [ [ [ [ [ [ [ [ [ [ [ [ [ [ [ [ [ [ [ [ [ [ [ [ [ [ [ [ B ",
"                    6 [ [ [ [ [ [ [ [ [ [ [ [ [ [ [ [ [ [ [ [ [ [ [ [ [ [ [ [ [ [ [ [ [ [ [ [ [ [ [ [ [ [ [ [ [ Z ",
"                      d [ [ [ [ [ [ [ [ [ [ [ [ [ [ [ [ [ [ [ [ [ [ [ [ [ [ [ [ [ [ [ [ [ [ [ [ [ [ [ [ [ [ [ [ B ",
"                        Z [ [ [ [ [ [ [ [ [ [ [ [ [ [ [ [ [ [ [ [ [ [ [ [ [ [ [ [ [ [ [ [ [ [ [ [ [ [ [ [ [ [ [ B ",
"                        # P [ [ [ [ [ [ [ [ [ [ [ [ [ [ [ [ [ [ [ [ [ [ [ [ [ [ [ [ [ [ [ [ [ [ [ [ [ [ [ [ [ [ B ",
"                          & W [ [ [ [ [ [ [ [ [ [ [ [ [ [ [ [ [ [ [ [ [ [ [ [ [ [ [ [ [ [ [ [ [ [ [ [ [ [ [ [ [ B ",
"                            : ( [ [ [ [ [ [ [ [ [ [ [ [ [ [ [ [ [ [ [ [ [ [ [ [ [ [ [ [ [ [ [ [ [ [ [ [ [ [ [ [ B ",
"                              7 ] [ [ [ [ [ [ [ [ [ [ [ [ [ [ [ [ [ [ [ [ [ [ [ [ [ [ [ [ [ [ [ [ [ [ [ [ [ [ [ B ",
"                                8 ' [ [ [ [ [ [ [ [ [ [ [ [ [ [ [ [ [ [ [ [ [ [ [ [ [ [ [ [ [ [ [ [ [ [ [ [ [ [ B ",
"                                  5 Q [ [ [ [ [ [ [ [ [ [ [ [ [ [ [ [ [ [ [ [ [ [ [ [ [ [ [ [ [ [ [ [ [ [ [ [ [ B ",
"                                    = E [ [ ] [ [ [ [ [ [ [ [ [ [ [ [ [ [ [ [ [ [ [ [ [ [ [ [ [ [ [ [ [ [ [ [ [ x ",
"                                      & U [ ] ] [ [ [ [ [ [ [ [ [ [ [ [ [ [ [ [ [ [ [ [ [ [ [ [ [ [ [ [ [ [ [ [ B ",
"                                        # Z ] ] [ [ [ [ [ [ [ [ [ [ [ [ [ [ [ [ [ [ [ [ [ [ [ [ [ [ [ [ [ [ [ [ v ",
"                                            r ( [ [ [ [ [ [ [ [ [ [ [ [ [ [ [ [ [ [ [ [ [ [ [ [ [ [ [ [ [ [ [ [ v ",
"                                              : J [ ] [ [ [ [ [ [ [ [ [ [ [ [ [ [ [ [ [ [ [ [ [ [ [ [ [ [ [ [ [ B ",
"                                                  y ' [ [ [ [ [ [ [ [ [ [ [ [ [ [ [ [ [ [ [ [ [ [ [ [ [ [ [ [ [ x ",
"                                                    : U [ [ [ [ [ [ [ [ [ [ [ [ [ [ [ [ [ [ [ [ [ [ [ [ [ [ [ [ B ",
"                                                        e E [ [ [ [ [ [ [ [ [ [ [ [ [ [ [ [ [ [ [ [ [ [ [ [ [ [ x ",
"                                                            r Q [ [ [ [ [ [ [ [ [ [ [ [ [ [ [ [ [ [ [ [ [ [ [ [ x ",
"                                                                y Q [ [ [ [ [ [ [ [ [ [ [ [ [ [ [ [ [ [ [ [ [ [ x ",
"                                                                    e J ] ] [ [ [ [ [ [ [ [ [ [ [ [ [ [ [ [ [ [ x ",
"                                                                        = p T [ [ [ [ [ [ [ [ [ [ [ [ [ [ [ [ [ x ",
"                                                                              = j U [ [ [ [ [ [ [ [ [ [ [ [ [ [ z ",
"                                                                                      3 q g B F P E ( ] [ [ [ [ z "
};
