/* XPM */
static char * replace_selected_xpm[] = {
"77 25 181 2",
"  	c None",
". 	c #0A0E15",
"+ 	c #111824",
"@ 	c #111823",
"# 	c #111822",
"$ 	c #101722",
"% 	c #101721",
"& 	c #101621",
"* 	c #101620",
"= 	c #0F1620",
"- 	c #0F151F",
"; 	c #0F151E",
"> 	c #0B1017",
", 	c #202D42",
"' 	c #2F7868",
") 	c #293A54",
"! 	c #1F2D41",
"~ 	c #1F2C41",
"{ 	c #1F2C40",
"] 	c #536685",
"^ 	c #576A88",
"/ 	c #3E8172",
"( 	c #E5E8ED",
"_ 	c #FFFFFF",
": 	c #95A1B4",
"< 	c #283954",
"[ 	c #317868",
"} 	c #397E6E",
"| 	c #367B6C",
"1 	c #546887",
"2 	c #556987",
"3 	c #3A7F6F",
"4 	c #546786",
"5 	c #1F2B3F",
"6 	c #F3F4F6",
"7 	c #8896AB",
"8 	c #ABB4C3",
"9 	c #FCFCFD",
"0 	c #61738F",
"a 	c #357A6B",
"b 	c #B2BBC9",
"c 	c #FDFDFD",
"d 	c #AAB4C3",
"e 	c #8392A8",
"f 	c #CCD1DB",
"g 	c #BDC4D0",
"h 	c #377C6D",
"i 	c #DEE2E8",
"j 	c #EBEDF1",
"k 	c #687994",
"l 	c #919DB1",
"m 	c #EDEFF2",
"n 	c #E0E3E9",
"o 	c #637591",
"p 	c #283953",
"q 	c #1E2B3F",
"r 	c #D4D9E1",
"s 	c #C0C7D2",
"t 	c #B9C1CE",
"u 	c #EEF0F3",
"v 	c #E4E7EC",
"w 	c #347B6B",
"x 	c #F4F5F7",
"y 	c #D8DCE3",
"z 	c #D3D8E0",
"A 	c #337A6A",
"B 	c #EFF1F3",
"C 	c #FBFCFC",
"D 	c #CBD1DA",
"E 	c #F7F8F9",
"F 	c #FAFAFB",
"G 	c #9DA8BA",
"H 	c #FBFBFC",
"I 	c #F7F8FA",
"J 	c #F6F7F8",
"K 	c #97A3B6",
"L 	c #5B6D8B",
"M 	c #417E75",
"N 	c #F8F9FA",
"O 	c #8C99AE",
"P 	c #3D8071",
"Q 	c #8A97AC",
"R 	c #667893",
"S 	c #5F728E",
"T 	c #5A6D8A",
"U 	c #E7EAEE",
"V 	c #A5AFBF",
"W 	c #5B6E8B",
"X 	c #B8C0CD",
"Y 	c #919EB2",
"Z 	c #77869F",
"` 	c #DADFE5",
" .	c #B4BDCA",
"..	c #387D6E",
"+.	c #96A2B5",
"@.	c #576B89",
"#.	c #C8CFD8",
"$.	c #6B7C97",
"%.	c #7F8DA4",
"&.	c #ACB6C4",
"*.	c #CFD5DD",
"=.	c #8694A9",
"-.	c #AFB8C6",
";.	c #E8EAEE",
">.	c #ECEFF2",
",.	c #8492A8",
"'.	c #9EA9BA",
").	c #DADEE5",
"!.	c #657692",
"~.	c #A7B1C1",
"{.	c #327969",
"].	c #F1F3F5",
"^.	c #9CA7B9",
"/.	c #6D7D98",
"(.	c #A4AFBF",
"_.	c #4E6282",
":.	c #47707A",
"<.	c #74849D",
"[.	c #506483",
"}.	c #3C7F70",
"|.	c #4F6383",
"1.	c #457478",
"2.	c #7C8BA2",
"3.	c #98A4B6",
"4.	c #A2ADBD",
"5.	c #75859E",
"6.	c #E1E5EA",
"7.	c #6C7D97",
"8.	c #76869E",
"9.	c #F2F3F6",
"0.	c #516584",
"a.	c #8794AA",
"b.	c #AEB7C6",
"c.	c #D5DAE1",
"d.	c #5E708D",
"e.	c #FEFEFE",
"f.	c #A8B2C2",
"g.	c #DDE1E7",
"h.	c #ABB5C4",
"i.	c #72829C",
"j.	c #BDC5D1",
"k.	c #DCE0E6",
"l.	c #E1E4E9",
"m.	c #F5F6F8",
"n.	c #70809A",
"o.	c #9FAABB",
"p.	c #E2E6EB",
"q.	c #D2D7DF",
"r.	c #3F8273",
"s.	c #7E8DA4",
"t.	c #293A55",
"u.	c #818FA6",
"v.	c #5C6F8C",
"w.	c #78879F",
"x.	c #808FA5",
"y.	c #677994",
"z.	c #45757A",
"A.	c #7F8EA5",
"B.	c #6D7E98",
"C.	c #293B56",
"D.	c #202E43",
"E.	c #2A3B56",
"F.	c #B6BECB",
"G.	c #60728F",
"H.	c #2A3B57",
"I.	c #212E44",
"J.	c #2A3C57",
"K.	c #2A3C58",
"L.	c #0E141D",
"M.	c #172130",
"N.	c #182131",
"O.	c #182231",
"P.	c #182232",
"Q.	c #182333",
"R.	c #192333",
"S.	c #192334",
"T.	c #192434",
"U.	c #192435",
"V.	c #1A2435",
"W.	c #1A2536",
"X.	c #141C29",
". + + @ @ @ @ @ @ # # # $ $ $ $ $ $ $ % % % & & & & * * * = = = - - - - - - - ; - - - - - - - - - - - - - - - - - - - - - - - - - - - - - - - - - - - - > ",
", ' ' ' ' ' ' ' ' ' ' ' ' ' ' ' ' ' ' ' ' ' ' ' ' ' ' ' ' ' ' ' ' ' ' ' ' ' ' ' ' ' ' ' ' ' ' ' ' ' ' ' ' ' ' ' ' ' ' ' ' ' ' ' ' ' ' ' ' ' ' ' ' ' ' ' ) ",
"! ' ' ' ' ' ' ' ' ' ' ' ' ' ' ' ' ' ' ' ' ' ' ' ' ' ' ' ' ' ' ' ' ' ' ' ' ' ' ' ' ' ' ' ' ' ' ' ' ' ' ' ' ' ' ' ' ' ' ' ' ' ' ' ' ' ' ' ' ' ' ' ' ' ' ' ) ",
"! ' ' ' ' ' ' ' ' ' ' ' ' ' ' ' ' ' ' ' ' ' ' ' ' ' ' ' ' ' ' ' ' ' ' ' ' ' ' ' ' ' ' ' ' ' ' ' ' ' ' ' ' ' ' ' ' ' ' ' ' ' ' ' ' ' ' ' ' ' ' ' ' ' ' ' ) ",
"~ ' ' ' ' ' ' ' ' ' ' ' ' ' ' ' ' ' ' ' ' ' ' ' ' ' ' ' ' ' ' ' ' ' ' ' ' ' ' ' ' ' ' ' ' ' ' ' ' ' ' ' ' ' ' ' ' ' ' ' ' ' ' ' ' ' ' ' ' ' ' ' ' ' ' ' ) ",
"{ ' ' ' ' ' ' ' ' ' ' ' ' ' ' ' ' ' ' ' ' ' ' ' ' ' ' ' ' ' ' ' ' ' ' ' ' ' ' ] ^ / ' ' ' ' ' ' ' ' ' ' ' ' ' ' ' ' ' ' ' ' ' ' ' ' ' ' ' ' ' ' ' ' ' ' ) ",
"{ ' ' ' ' ' ' ' ' ' ' ' ' ' ' ' ' ' ' ' ' ' ' ' ' ' ' ' ' ' ' ' ' ' ' ' ' ' ' ( _ : ' ' ' ' ' ' ' ' ' ' ' ' ' ' ' ' ' ' ' ' ' ' ' ' ' ' ' ' ' ' ' ' ' ' < ",
"{ ' ' ' ' ' ' ' ' ' ' ' ' ' ' ' ' ' ' ' ' ' ' ' ' ' ' ' ' ' ' ' ' ' ' ' ' ' ' ( _ : ' ' ' ' ' ' ' ' ' ' ' ' ' ' ' ' ' ' ' ' ' ' ' ' ' ' ' ' ' ' ' ' ' ' < ",
"{ ' ' ' ' ' ' ' ' ' ' ' ' [ [ ' ' } | ' ' ' 1 ' ' ' ' ' ' [ [ ' ' / ' ' ' ' ' ( _ : ' ' ' ' ' 2 3 ' ' ' ' ' ' ' 4 [ ' ' ' ' ' ' ' 1 ' ' ' ' ' ' ' ' ' ' < ",
"5 ' ' ' ' ' ' ' ' ' ' ' ' 6 _ 7 8 9 0 a b 9 _ c d } ' ' a _ _ e f _ c g h ' ' ( _ : ' ' ^ i _ _ _ j k ' ' [ l m _ _ n o ' ' a b 9 _ c d } ' ' ' ' ' ' ' p ",
"q ' ' ' ' ' ' ' ' ' ' ' ' 6 _ r _ _ 0 s _ 9 t u _ v w ' a _ _ x c y _ _ z ' ' ( _ : ' A B _ C D E _ F 3 ' G _ c f H _ I 1 ' s _ 9 t u _ v w ' ' ' ' ' ' p ",
"q ' ' ' ' ' ' ' ' ' ' ' ' 6 _ J K L o _ _ L ' M N _ O ' a _ _ u P ' Q _ _ R ' ( _ : ' S E J 1 ' T _ _ o / F _ : ' a U _ V W _ _ L ' M N _ O ' ' ' ' ' ' p ",
"q ' ' ' ' ' ' ' ' ' ' ' ' 6 _ X ' ' Y _ u Z Z Z ` _ b ' a _ _  .' ' ..F _ +.' ( _ : ' ' ' ' @.e #._ _ $.$._ _ @.' ' S %.$.Y _ u Z Z Z ` _ b ' ' ' ' ' ' p ",
"q ' ' ' ' ' ' ' ' ' ' ' ' 6 _ Q ' ' &._ _ _ _ _ _ _ *.' a _ _ =.' ' ' z _ -.' ( _ : ' ' %.;._ _ >._ _ $.,._ C [ ' ' ' ' ' &._ _ _ _ _ _ _ *.' ' ' ' ' ' p ",
"5 ' ' ' ' ' ' ' ' ' ' ' ' 6 _ 7 ' ' '._ ).!.!.!.!.!.W ' a _ _ ~.' ' {.]._ ^.' ( _ : ' /._ _ (._.:._ _ $.<._ _ [.' ' }.|.1.'._ ).!.!.!.!.!.W ' ' ' ' ' ' < ",
"{ ' ' ' ' ' ' ' ' ' ' ' ' 6 _ 7 ' ' 2._ ].| ' ' 3.4.5.' a _ _ 6.[ ' 7._ _ 8.' ( _ : ' 3._ 9.' ' ,._ _ $.0._ _ a.' ' r _ b.2._ ].| ' ' 3.4.5.' ' ' ' ' ' ) ",
"{ ' ' ' ' ' ' ' ' ' ' ' ' 6 _ 7 ' ' w 6._ c.Q #._ c d.' a _ _ e.i f.6 _ g.{.' ( _ : ' ,._ _ z h.9 _ _ i.' j._ 9 &.k._ c d.w 6._ c.Q #._ c d.' ' ' ' ' ' ) ",
"! ' ' ' ' ' ' ' ' ' ' ' ' 6 _ 7 ' ' ' ^ l._ _ _ m.n.' ' a _ _ o.6 _ _ p.1 ' ' ( _ : ' A q._ _ H Q >._ j.' r.f _ _ _ N s.' ' ^ l._ _ _ m.n.' ' ' ' ' ' ' t.",
", ' ' ' ' ' ' ' ' ' ' ' ' ' ' ' ' ' ' ' A d.u.v.' ' ' ' a _ _ w...x.y.A ' ' ' ' ' ' ' ' ' T %.}.' ' ' ' ' ' ' z.A.B.P ' ' ' ' A d.u.v.' ' ' ' ' ' ' ' ' t.",
", ' ' ' ' ' ' ' ' ' ' ' ' ' ' ' ' ' ' ' ' ' ' ' ' ' ' ' a _ _ w.' ' ' ' ' ' ' ' ' ' ' ' ' ' ' ' ' ' ' ' ' ' ' ' ' ' ' ' ' ' ' ' ' ' ' ' ' ' ' ' ' ' ' ' C.",
"D.' ' ' ' ' ' ' ' ' ' ' ' ' ' ' ' ' ' ' ' ' ' ' ' ' ' ' a _ _ w.' ' ' ' ' ' ' ' ' ' ' ' ' ' ' ' ' ' ' ' ' ' ' ' ' ' ' ' ' ' ' ' ' ' ' ' ' ' ' ' ' ' ' ' E.",
"D.' ' ' ' ' ' ' ' ' ' ' ' ' ' ' ' ' ' ' ' ' ' ' ' ' ' ' A F.F.G.' ' ' ' ' ' ' ' ' ' ' ' ' ' ' ' ' ' ' ' ' ' ' ' ' ' ' ' ' ' ' ' ' ' ' ' ' ' ' ' ' ' ' ' H.",
"I.' ' ' ' ' ' ' ' ' ' ' ' ' ' ' ' ' ' ' ' ' ' ' ' ' ' ' ' ' ' ' ' ' ' ' ' ' ' ' ' ' ' ' ' ' ' ' ' ' ' ' ' ' ' ' ' ' ' ' ' ' ' ' ' ' ' ' ' ' ' ' ' ' ' ' J.",
"I.' ' ' ' ' ' ' ' ' ' ' ' ' ' ' ' ' ' ' ' ' ' ' ' ' ' ' ' ' ' ' ' ' ' ' ' ' ' ' ' ' ' ' ' ' ' ' ' ' ' ' ' ' ' ' ' ' ' ' ' ' ' ' ' ' ' ' ' ' ' ' ' ' ' ' K.",
"L.M.M.M.N.N.O.O.O.P.P.P.P.P.P.Q.Q.R.R.R.R.R.R.S.S.S.T.T.U.U.U.V.V.V.W.W.W.W.W.W.W.W.W.W.W.W.W.W.W.W.W.W.W.W.W.W.V.V.V.V.V.V.V.V.V.V.V.U.U.U.U.U.U.U.U.U.X."};
