/* XPM */
static char * replace_active[] = {
"77 25 13 1",
" 	c None",
".	c #4B0719",
"+	c #750924",
"@	c #4A0719",
"#	c #933F54",
"$	c #D1ADB6",
"%	c #A35B6D",
"&	c #FFFFFF",
"*	c #B27685",
"=	c #C1919D",
"-	c #E0C8CE",
";	c #EFE3E6",
">	c #84243C",
".+++++++++++++++++++++++++++++++++++++++++++++++++++++++++++++++++++++++++++@",
".+++++++++++++++++++++++++++++++++++++++++++++++++++++++++++++++++++++++++++.",
".+++++++++++++++++++++++++++++++++++++++++++++++++++++++++++++++++++++++++++.",
".+++++++++++++++++++++++++++++++++++++++++++++++++++++++++++++++++++++++++++.",
".+++++++++++++++++++++++++++++++++++++++++++++++++++++++++++++++++++++++++++.",
".+++++++++++++++++++++++++++++++++++++++++++++++++++++++++++++++++++++++++++.",
".++++++++++++++++++++++++++++++++++++#$$++++++++++++++++++++++++++++++++++++.",
".++++++++++++++++++++++++++++++++++++%&&++++++++++++++++++++++++++++++++++++.",
".++++++++++++++++++++++++++++++++++++%&&++++++++++++++++++++++++++++++++++++.",
".++++++++++*$*=&&++*-&&-#++#$$#-&;%++%&&++*;&&&$>+++#$&&&*++>=;&&=>+++++++++.",
".++++++++++$&&&&&+=&&$-&&#+%&&&$;&&%+%&&++$;$$;&;++#&&&$-$++;&;$;&;+++++++++.",
".++++++++++$&&%+>>&&#++*&-+%&&%+>;&-+%&&++>+++>&&%+-&&>++>+*&;+++-&*++++++++.",
".++++++++++$&-+++%&&&&&&&&+%&&+++$&&+%&&++%-&&&&&%+&&$+++++$&&&&&&&$++++++++.",
".++++++++++$&$+++%&&$$$$$$+%&&+++$&&+%&&+>&&=%%&&%+&&$+++++$&;$$$$$*++++++++.",
".++++++++++$&$+++>&&%+++>%+%&&%+>;&-+%&&+%&&++%&&%+-&&>++>+*&;>+++##++++++++.",
".++++++++++$&$++++=&&$$-&$+%&&&$;&&%+%&&+>&&-$&&&%+#&&;$-$++;&;$$;&%++++++++.",
".++++++++++$&$+++++*-&&&$%+%&&#-&;%++%&&++%;&-%&&%++#$&&&*++>=;&&;$>++++++++.",
".++++++++++++++++++++++++++%&&++++++++++++++++++++++++++++++++++++++++++++++.",
".++++++++++++++++++++++++++%&&++++++++++++++++++++++++++++++++++++++++++++++.",
".++++++++++++++++++++++++++%&&++++++++++++++++++++++++++++++++++++++++++++++.",
".+++++++++++++++++++++++++++++++++++++++++++++++++++++++++++++++++++++++++++.",
".+++++++++++++++++++++++++++++++++++++++++++++++++++++++++++++++++++++++++++.",
".+++++++++++++++++++++++++++++++++++++++++++++++++++++++++++++++++++++++++++.",
".+++++++++++++++++++++++++++++++++++++++++++++++++++++++++++++++++++++++++++.",
".+++++++++++++++++++++++++++++++++++++++++++++++++++++++++++++++++++++++++++."};
