/* XPM */
static char *replace_active[] = {
/* columns rows colors chars-per-pixel */
"77 25 11 1",
"  c #730923",
". c #750924",
"X c #84243C",
"o c #933F54",
"O c #A35B6D",
"+ c #B27685",
"@ c #C1919D",
"# c #D1ADB6",
"$ c #E0C8CE",
"% c #EFE3E6",
"& c gray100",
/* pixels */
"............................................................................ ",
".............................................................................",
".............................................................................",
".............................................................................",
".............................................................................",
".............................................................................",
".....................................o##.....................................",
".....................................O&&.....................................",
".....................................O&&.....................................",
"...........+#+@&&..+$&&$o..o##o$&%O..O&&..+%&&&#X...o#&&&+..X@%&&@X..........",
"...........#&&&&&.@&&#$&&o.O&&&#%&&O.O&&..#%##%&%..o&&&#$#..%&%#%&%..........",
"...........#&&O.XX&&o..+&$.O&&O.X%&$.O&&..X...X&&O.$&&X..X.+&%...$&+.........",
"...........#&$...O&&&&&&&&.O&&...#&&.O&&..O$&&&&&O.&&#.....#&&&&&&&#.........",
"...........#&#...O&&######.O&&...#&&.O&&.X&&@OO&&O.&&#.....#&%#####+.........",
"...........#&#...X&&O...XO.O&&O.X%&$.O&&.O&&..O&&O.$&&X..X.+&%X...oo.........",
"...........#&#....@&&##$&#.O&&&#%&&O.O&&.X&&$#&&&O.o&&%#$#..%&%##%&O.........",
"...........#&#.....+$&&&#O.O&&o$&%O..O&&..O%&$O&&O..o#&&&+..X@%&&%#X.........",
"...........................O&&...............................................",
"...........................O&&...............................................",
"...........................O&&...............................................",
".............................................................................",
".............................................................................",
".............................................................................",
".............................................................................",
"............................................................................."
};
