/* XPM */
static char * replace_normal[] = {
"77 25 24 1",
" 	c None",
".	c #212E44",
"+	c #374E72",
"@	c #293A54",
"#	c #202D42",
"$	c #1F2D41",
"%	c #1F2C41",
"&	c #1F2C40",
"*	c #637591",
"=	c #BCC4D0",
"-	c #283954",
";	c #7A89A1",
">	c #FFFFFF",
",	c #1F2B3F",
"'	c #909CB0",
")	c #A6B0C0",
"!	c #D2D7DF",
"~	c #E8EBEF",
"{	c #4D6181",
"]	c #1E2B3F",
"^	c #202E43",
"/	c #293A55",
"(	c #293B55",
"_	c #293B56",
".+++++++++++++++++++++++++++++++++++++++++++++++++++++++++++++++++++++++++++@",
"#+++++++++++++++++++++++++++++++++++++++++++++++++++++++++++++++++++++++++++@",
"$+++++++++++++++++++++++++++++++++++++++++++++++++++++++++++++++++++++++++++@",
"$+++++++++++++++++++++++++++++++++++++++++++++++++++++++++++++++++++++++++++@",
"%+++++++++++++++++++++++++++++++++++++++++++++++++++++++++++++++++++++++++++@",
"&+++++++++++++++++++++++++++++++++++++++++++++++++++++++++++++++++++++++++++@",
"&++++++++++++++++++++++++++++++++++++*==++++++++++++++++++++++++++++++++++++-",
"&++++++++++++++++++++++++++++++++++++;>>++++++++++++++++++++++++++++++++++++-",
"&++++++++++++++++++++++++++++++++++++;>>++++++++++++++++++++++++++++++++++++-",
",++++++++++'=')>>++'!>>!*++*==*!>~;++;>>++'~>>>={+++*=>>>'++{)~>>){+++++++++@",
"]++++++++++=>>>>>+)>>=!>>*+;>>>=~>>;+;>>++=~==~>~++*>>>=!=++~>~=~>~+++++++++@",
"]++++++++++=>>;+{{>>*++'>!+;>>;+{~>!+;>>++{+++{>>;+!>>{++{+'>~+++!>'++++++++@",
"]++++++++++=>!+++;>>>>>>>>+;>>+++=>>+;>>++;!>>>>>;+>>=+++++=>>>>>>>=++++++++@",
"]++++++++++=>=+++;>>======+;>>+++=>>+;>>+{>>);;>>;+>>=+++++=>~====='++++++++@",
",++++++++++=>=+++{>>;+++{;+;>>;+{~>!+;>>+;>>++;>>;+!>>{++{+'>~{+++**++++++++-",
"&++++++++++=>=++++)>>==!>=+;>>>=~>>;+;>>+{>>!=>>>;+*>>~=!=++~>~==~>;++++++++@",
"&++++++++++=>=+++++'!>>>=;+;>>*!>~;++;>>++;~>!;>>;++*=>>>'++{)~>>~={++++++++@",
"$++++++++++++++++++++++++++;>>++++++++++++++++++++++++++++++++++++++++++++++@",
"#++++++++++++++++++++++++++;>>++++++++++++++++++++++++++++++++++++++++++++++@",
"#++++++++++++++++++++++++++;>>++++++++++++++++++++++++++++++++++++++++++++++@",
"^+++++++++++++++++++++++++++++++++++++++++++++++++++++++++++++++++++++++++++@",
"^+++++++++++++++++++++++++++++++++++++++++++++++++++++++++++++++++++++++++++/",
".+++++++++++++++++++++++++++++++++++++++++++++++++++++++++++++++++++++++++++(",
".+++++++++++++++++++++++++++++++++++++++++++++++++++++++++++++++++++++++++++_",
".+++++++++++++++++++++++++++++++++++++++++++++++++++++++++++++++++++++++++++@"};
