/* XPM */
static char * reverse_active[] = {
"36 25 13 1",
" 	c None",
".	c #4B0719",
"+	c #750924",
"@	c #4A0719",
"#	c #B27685",
"$	c #D1ADB6",
"%	c #C1919D",
"&	c #FFFFFF",
"*	c #E0C8CE",
"=	c #933F54",
"-	c #84243C",
";	c #EFE3E6",
">	c #A35B6D",
".++++++++++++++++++++++++++++++++++@",
".++++++++++++++++++++++++++++++++++.",
".++++++++++++++++++++++++++++++++++.",
".++++++++++++++++++++++++++++++++++.",
".++++++++++++++++++++++++++++++++++.",
".++++++++++++++++++++++++++++++++++.",
".++++++++++++++++++++++++++++++++++.",
".++++++++++++++++++++++++++++++++++.",
".++++++++++++++++++++++++++++++++++.",
".+++++#$#%&&++#*&&*=+-$$-++=$$-++++.",
".+++++$&&&&&+%&&$*&&=+;&%++%&;+++++.",
".+++++$&&>+--&&=++#&*+#&;++;&#+++++.",
".+++++$&*+++>&&&&&&&&+-&&==&&-+++++.",
".+++++$&$+++>&&$$$$$$++*&%%&*++++++.",
".+++++$&$+++-&&>+++->++>&;&&>++++++.",
".+++++$&$++++%&&$$*&$+++;&&;+++++++.",
".+++++$&$+++++#*&&&$>+++%&&%+++++++.",
".++++++++++++++++++++++++++++++++++.",
".++++++++++++++++++++++++++++++++++.",
".++++++++++++++++++++++++++++++++++.",
".++++++++++++++++++++++++++++++++++.",
".++++++++++++++++++++++++++++++++++.",
".++++++++++++++++++++++++++++++++++.",
".++++++++++++++++++++++++++++++++++.",
".++++++++++++++++++++++++++++++++++."};
