/* XPM */
static char * reverse_normal[] = {
"36 25 24 1",
" 	c None",
".	c #212E44",
"+	c #374E72",
"@	c #293A54",
"#	c #202D42",
"$	c #1F2D41",
"%	c #1F2C41",
"&	c #1F2C40",
"*	c #283954",
"=	c #1F2B3F",
"-	c #909CB0",
";	c #BCC4D0",
">	c #A6B0C0",
",	c #FFFFFF",
"'	c #D2D7DF",
")	c #637591",
"!	c #4D6181",
"~	c #1E2B3F",
"{	c #E8EBEF",
"]	c #7A89A1",
"^	c #202E43",
"/	c #293A55",
"(	c #293B55",
"_	c #293B56",
".++++++++++++++++++++++++++++++++++@",
"#++++++++++++++++++++++++++++++++++@",
"$++++++++++++++++++++++++++++++++++@",
"$++++++++++++++++++++++++++++++++++@",
"%++++++++++++++++++++++++++++++++++@",
"&++++++++++++++++++++++++++++++++++@",
"&++++++++++++++++++++++++++++++++++*",
"&++++++++++++++++++++++++++++++++++*",
"&++++++++++++++++++++++++++++++++++*",
"=+++++-;->,,++-',,')+!;;!++);;!++++@",
"~+++++;,,,,,+>,,;',,)+{,>++>,{+++++@",
"~+++++;,,]+!!,,)++-,'+-,{++{,-+++++@",
"~+++++;,'+++],,,,,,,,+!,,)),,!+++++@",
"~+++++;,;+++],,;;;;;;++',>>,'++++++@",
"=+++++;,;+++!,,]+++!]++],{,,]++++++*",
"&+++++;,;++++>,,;;',;+++{,,{+++++++@",
"&+++++;,;+++++-',,,;]+++>,,>+++++++@",
"$++++++++++++++++++++++++++++++++++@",
"#++++++++++++++++++++++++++++++++++@",
"#++++++++++++++++++++++++++++++++++@",
"^++++++++++++++++++++++++++++++++++@",
"^++++++++++++++++++++++++++++++++++/",
".++++++++++++++++++++++++++++++++++(",
".++++++++++++++++++++++++++++++++++_",
".++++++++++++++++++++++++++++++++++@"};
