/* XPM */
static char * reverse_selected[] = {
"36 25 28 1",
" 	c None",
".	c #212E44",
"+	c #2F7868",
"@	c #202D42",
"#	c #293A54",
"$	c #1F2D41",
"%	c #1F2C41",
"&	c #1F2C40",
"*	c #283954",
"=	c #1F2B3F",
"-	c #8BB4AB",
";	c #BAD2CD",
">	c #A2C3BB",
",	c #FFFFFF",
"'	c #D1E1DD",
")	c #5D9689",
"!	c #468779",
"~	c #283953",
"{	c #1E2B3F",
"]	c #E7F0EE",
"^	c #74A59A",
"/	c #293A55",
"(	c #293B56",
"_	c #202E43",
":	c #2A3B56",
"<	c #2A3B57",
"[	c #2A3C57",
"}	c #2A3C58",
".++++++++++++++++++++++++++++++++++.",
"@++++++++++++++++++++++++++++++++++#",
"$++++++++++++++++++++++++++++++++++#",
"$++++++++++++++++++++++++++++++++++#",
"%++++++++++++++++++++++++++++++++++#",
"&++++++++++++++++++++++++++++++++++#",
"&++++++++++++++++++++++++++++++++++*",
"&++++++++++++++++++++++++++++++++++*",
"&++++++++++++++++++++++++++++++++++*",
"=+++++-;->,,++-',,')+!;;!++);;!++++~",
"{+++++;,,,,,+>,,;',,)+],>++>,]+++++~",
"{+++++;,,^+!!,,)++-,'+-,]++],-+++++~",
"{+++++;,'+++^,,,,,,,,+!,,)),,!+++++~",
"{+++++;,;+++^,,;;;;;;++',>>,'++++++~",
"=+++++;,;+++!,,^+++!^++^,],,^++++++*",
"&+++++;,;++++>,,;;',;+++],,]+++++++#",
"&+++++;,;+++++-',,,;^+++>,,>+++++++#",
"$++++++++++++++++++++++++++++++++++/",
"@++++++++++++++++++++++++++++++++++/",
"@++++++++++++++++++++++++++++++++++(",
"_++++++++++++++++++++++++++++++++++:",
"_++++++++++++++++++++++++++++++++++<",
".++++++++++++++++++++++++++++++++++[",
".++++++++++++++++++++++++++++++++++}",
".++++++++++++++++++++++++++++++++++."};
