/* XPM */
static char * reverse_selected_xpm[] = {
"77 24 158 2",
"  	c None",
". 	c #192334",
"+ 	c #2C3E5A",
"@ 	c #2C3E5B",
"# 	c #2C415B",
"$ 	c #2C465C",
"% 	c #2C475B",
"& 	c #2B4B5B",
"* 	c #2C4C5B",
"= 	c #2B515B",
"- 	c #2A575B",
"; 	c #2B5C5B",
"> 	c #223047",
", 	c #1F2D41",
"' 	c #2F7868",
") 	c #293A55",
"! 	c #1F2C41",
"~ 	c #1F2C40",
"{ 	c #1F2B3F",
"] 	c #293B56",
"^ 	c #1E2B3F",
"/ 	c #1E2A3E",
"( 	c #317868",
"_ 	c #397E6E",
": 	c #367B6C",
"< 	c #546887",
"[ 	c #556987",
"} 	c #2A3B56",
"| 	c #1E2A3D",
"1 	c #F3F4F6",
"2 	c #FFFFFF",
"3 	c #8896AB",
"4 	c #ABB4C3",
"5 	c #FCFCFD",
"6 	c #61738F",
"7 	c #357A6B",
"8 	c #B2BBC9",
"9 	c #FDFDFD",
"0 	c #AAB4C3",
"a 	c #ABB5C4",
"b 	c #E5E8EC",
"c 	c #B3BCC9",
"d 	c #DBDFE6",
"e 	c #4F6383",
"f 	c #D7DCE3",
"g 	c #E0E3E9",
"h 	c #627490",
"i 	c #1D2A3D",
"j 	c #D4D9E1",
"k 	c #C0C7D2",
"l 	c #B9C1CE",
"m 	c #EEF0F3",
"n 	c #E4E7EC",
"o 	c #347B6B",
"p 	c #667793",
"q 	c #596C8A",
"r 	c #EAECF0",
"s 	c #96A2B5",
"t 	c #DADFE5",
"u 	c #F4F5F7",
"v 	c #C1C8D3",
"w 	c #F7F8F9",
"x 	c #F7F8FA",
"y 	c #4B687E",
"z 	c #1D293C",
"A 	c #F6F7F8",
"B 	c #97A3B6",
"C 	c #5B6D8B",
"D 	c #5B6E8B",
"E 	c #417E75",
"F 	c #F8F9FA",
"G 	c #8C99AE",
"H 	c #E6E9ED",
"I 	c #95A1B4",
"J 	c #FEFEFE",
"K 	c #516584",
"L 	c #4E6282",
"M 	c #71819A",
"N 	c #387D6E",
"O 	c #E1E4E9",
"P 	c #E9ECF0",
"Q 	c #7A89A1",
"R 	c #2A3B57",
"S 	c #1D293B",
"T 	c #B8C0CD",
"U 	c #919EB2",
"V 	c #77869F",
"W 	c #A0ABBC",
"X 	c #D0D6DE",
"Y 	c #929FB2",
"Z 	c #D3D8E0",
"` 	c #B6BFCC",
" .	c #7D8CA3",
"..	c #3C7F70",
"+.	c #1C283B",
"@.	c #8A97AC",
"#.	c #ACB6C4",
"$.	c #CFD5DD",
"%.	c #5A6D8A",
"&.	c #3F8273",
"*.	c #CAD0D9",
"=.	c #8E9BAF",
"-.	c #8794AA",
";.	c #FAFAFB",
">.	c #AEB7C6",
",.	c #3A7F6F",
"'.	c #9EA9BA",
").	c #DADEE5",
"!.	c #657692",
"~.	c #8795AA",
"{.	c #F9FAFB",
"].	c #496C7D",
"^.	c #6F7F99",
"/.	c #ADB6C5",
"(.	c #ECEEF1",
"_.	c #7C8BA2",
":.	c #F1F3F5",
"<.	c #98A4B6",
"[.	c #A2ADBD",
"}.	c #75859E",
"|.	c #EBEDF1",
"1.	c #CCD1DB",
"2.	c #6D7D98",
"3.	c #BCC4D0",
"4.	c #1C283A",
"5.	c #E1E5EA",
"6.	c #D5DAE1",
"7.	c #C8CFD8",
"8.	c #5E708D",
"9.	c #506483",
"0.	c #8694A9",
"a.	c #5F718E",
"b.	c #BDC4D0",
"c.	c #8A98AD",
"d.	c #576A88",
"e.	c #F5F6F8",
"f.	c #70809A",
"g.	c #3F8072",
"h.	c #FBFBFC",
"i.	c #1C273A",
"j.	c #337A6A",
"k.	c #818FA6",
"l.	c #5C6F8C",
"m.	c #697A95",
"n.	c #8290A7",
"o.	c #71829B",
"p.	c #4D6481",
"q.	c #1C2739",
"r.	c #293A54",
"s.	c #1B2739",
"t.	c #1B2738",
"u.	c #16202E",
"v.	c #2B5D5B",
"w.	c #29625A",
"x.	c #29685A",
"y.	c #2A695B",
"z.	c #2A695A",
"A.	c #212E44",
". + + + @ @ @ @ @ # # # # # $ $ % % % % % & & * * * = = = = = - - - - - ; ; ; ; ; ; ; ; ; ; ; ; ; - - - - - - - - - - - - - - - - - = = = = = = = = = = > ",
", ' ' ' ' ' ' ' ' ' ' ' ' ' ' ' ' ' ' ' ' ' ' ' ' ' ' ' ' ' ' ' ' ' ' ' ' ' ' ' ' ' ' ' ' ' ' ' ' ' ' ' ' ' ' ' ' ' ' ' ' ' ' ' ' ' ' ' ' ' ' ' ' ' ' ' ) ",
"! ' ' ' ' ' ' ' ' ' ' ' ' ' ' ' ' ' ' ' ' ' ' ' ' ' ' ' ' ' ' ' ' ' ' ' ' ' ' ' ' ' ' ' ' ' ' ' ' ' ' ' ' ' ' ' ' ' ' ' ' ' ' ' ' ' ' ' ' ' ' ' ' ' ' ' ) ",
"~ ' ' ' ' ' ' ' ' ' ' ' ' ' ' ' ' ' ' ' ' ' ' ' ' ' ' ' ' ' ' ' ' ' ' ' ' ' ' ' ' ' ' ' ' ' ' ' ' ' ' ' ' ' ' ' ' ' ' ' ' ' ' ' ' ' ' ' ' ' ' ' ' ' ' ' ) ",
"{ ' ' ' ' ' ' ' ' ' ' ' ' ' ' ' ' ' ' ' ' ' ' ' ' ' ' ' ' ' ' ' ' ' ' ' ' ' ' ' ' ' ' ' ' ' ' ' ' ' ' ' ' ' ' ' ' ' ' ' ' ' ' ' ' ' ' ' ' ' ' ' ' ' ' ' ] ",
"^ ' ' ' ' ' ' ' ' ' ' ' ' ' ' ' ' ' ' ' ' ' ' ' ' ' ' ' ' ' ' ' ' ' ' ' ' ' ' ' ' ' ' ' ' ' ' ' ' ' ' ' ' ' ' ' ' ' ' ' ' ' ' ' ' ' ' ' ' ' ' ' ' ' ' ' ] ",
"^ ' ' ' ' ' ' ' ' ' ' ' ' ' ' ' ' ' ' ' ' ' ' ' ' ' ' ' ' ' ' ' ' ' ' ' ' ' ' ' ' ' ' ' ' ' ' ' ' ' ' ' ' ' ' ' ' ' ' ' ' ' ' ' ' ' ' ' ' ' ' ' ' ' ' ' ] ",
"/ ' ' ' ' ' ' ' ' ( ( ' ' _ : ' ' ' ' < ' ' ' ' ' ' ' ' ' ' ' ' ' ' ' ' ' ' < ' ' ' ' ' ( ( ' ' _ : ' ' ' ' [ ( ' ' ' ' ' ' ' < ' ' ' ' ' ' ' ' ' ' ' ' } ",
"| ' ' ' ' ' ' ' ' 1 2 3 4 5 6 ' 7 8 5 2 9 0 _ ' a 2 b ' ' ' c 2 d ' ' 7 8 5 2 9 0 _ ' ' 1 2 3 4 5 6 ' e f 2 2 2 g h ' ' 7 8 5 2 9 0 _ ' ' ' ' ' ' ' ' ' } ",
"i ' ' ' ' ' ' ' ' 1 2 j 2 2 6 ' k 2 5 l m 2 n o p 2 2 q ' ' r 2 s ' ' k 2 5 l m 2 n o ' 1 2 j 2 2 6 ' t 2 u v w 2 x y ' k 2 5 l m 2 n o ' ' ' ' ' ' ' ' } ",
"z ' ' ' ' ' ' ' ' 1 2 A B C _ D 2 2 C ' E F 2 G ' H 2 I ' C 2 J K ' D 2 2 C ' E F 2 G ' 1 2 A B C _ L 2 2 M ' N O P Q D 2 2 C ' E F 2 G ' ' ' ' ' ' ' ' R ",
"S ' ' ' ' ' ' ' ' 1 2 T ' ' ' U 2 m V V V t 2 8 ' W 2 X ' Y 2 Z ' ' U 2 m V V V t 2 8 ' 1 2 T ' ' ' 7 1 2 u `  ...' ' U 2 m V V V t 2 8 ' ' ' ' ' ' ' ' R ",
"+.' ' ' ' ' ' ' ' 1 2 @.' ' ' #.2 2 2 2 2 2 2 $.' %.2 5 &.*.2 =.' ' #.2 2 2 2 2 2 2 $.' 1 2 @.' ' ' ' -.;.2 2 2 5 >.,.#.2 2 2 2 2 2 2 $.' ' ' ' ' ' ' ' R ",
"+.' ' ' ' ' ' ' ' 1 2 3 ' ' ' '.2 ).!.!.!.!.!.D ' ' d 2 ~.{.5 ].' ' '.2 ).!.!.!.!.!.D ' 1 2 3 ' ' ' ' ' o ^./.(.2 2 s '.2 ).!.!.!.!.!.D ' ' ' ' ' ' ' ' } ",
"+.' ' ' ' ' ' ' ' 1 2 3 ' ' ' _.2 :.: ' ' <.[.}.' ' I 2 |.2 1.' ' ' _.2 :.: ' ' <.[.}.' 1 2 3 ' ' ' 2.8 /.( ' ' Z 2 3._.2 :.: ' ' <.[.}.' ' ' ' ' ' ' ' } ",
"4.' ' ' ' ' ' ' ' 1 2 3 ' ' ' o 5.2 6.@.7.2 9 8.' ' 9.J 2 2 0.' ' ' o 5.2 6.@.7.2 9 8.' 1 2 3 ' ' ' a.2 2 j I b.J 2 c.o 5.2 6.@.7.2 9 8.' ' ' ' ' ' ' ' ] ",
"4.' ' ' ' ' ' ' ' 1 2 3 ' ' ' ' d.O 2 2 2 e.f.' ' ' ' X 2 ;.g.' ' ' ' d.O 2 2 2 e.f.' ' 1 2 3 ' ' ' ' @.h.2 2 2 J a ' ' d.O 2 2 2 e.f.' ' ' ' ' ' ' ' ' ) ",
"i.' ' ' ' ' ' ' ' ' ' ' ' ' ' ' ' j.8.k.l.' ' ' ' ' ' ' ' ' ' ' ' ' ' ' j.8.k.l.' ' ' ' ' ' ' ' ' ' ' ' ,.m.n.o.p.' ' ' ' j.8.k.l.' ' ' ' ' ' ' ' ' ' ' ) ",
"i.' ' ' ' ' ' ' ' ' ' ' ' ' ' ' ' ' ' ' ' ' ' ' ' ' ' ' ' ' ' ' ' ' ' ' ' ' ' ' ' ' ' ' ' ' ' ' ' ' ' ' ' ' ' ' ' ' ' ' ' ' ' ' ' ' ' ' ' ' ' ' ' ' ' ' ) ",
"q.' ' ' ' ' ' ' ' ' ' ' ' ' ' ' ' ' ' ' ' ' ' ' ' ' ' ' ' ' ' ' ' ' ' ' ' ' ' ' ' ' ' ' ' ' ' ' ' ' ' ' ' ' ' ' ' ' ' ' ' ' ' ' ' ' ' ' ' ' ' ' ' ' ' ' r.",
"q.' ' ' ' ' ' ' ' ' ' ' ' ' ' ' ' ' ' ' ' ' ' ' ' ' ' ' ' ' ' ' ' ' ' ' ' ' ' ' ' ' ' ' ' ' ' ' ' ' ' ' ' ' ' ' ' ' ' ' ' ' ' ' ' ' ' ' ' ' ' ' ' ' ' ' r.",
"s.' ' ' ' ' ' ' ' ' ' ' ' ' ' ' ' ' ' ' ' ' ' ' ' ' ' ' ' ' ' ' ' ' ' ' ' ' ' ' ' ' ' ' ' ' ' ' ' ' ' ' ' ' ' ' ' ' ' ' ' ' ' ' ' ' ' ' ' ' ' ' ' ' ' ' r.",
"t.' ' ' ' ' ' ' ' ' ' ' ' ' ' ' ' ' ' ' ' ' ' ' ' ' ' ' ' ' ' ' ' ' ' ' ' ' ' ' ' ' ' ' ' ' ' ' ' ' ' ' ' ' ' ' ' ' ' ' ' ' ' ' ' ' ' ' ' ' ' ' ' ' ' ' r.",
"u.& * * * = = = = = - - - - - ; ; ; ; ; ; v.v.w.w.w.w.w.w.x.x.x.x.x.y.y.y.z.z.z.y.y.x.x.x.x.x.w.w.w.w.w.v.v.; ; ; ; ; - - - - = = = = = * * & & & % % % A."};
