/* XPM */
static char *reverse_active[] = {
/* columns rows colors chars-per-pixel */
"77 25 11 1",
"  c #730923",
". c #750924",
"X c #84243C",
"o c #933F54",
"O c #A35B6D",
"+ c #B27685",
"@ c #C1919D",
"# c #D1ADB6",
"$ c #E0C8CE",
"% c #EFE3E6",
"& c gray100",
/* pixels */
"............................................................................ ",
".............................................................................",
".............................................................................",
".............................................................................",
".............................................................................",
".............................................................................",
".............................................................................",
".............................................................................",
".............................................................................",
"...........+#+@&&..+$&&$o.X##X..o##X.o#&&%+...##O$&#.@&&&%+...+$&&$o.........",
"...........#&&&&&.@&&#$&&o.%&@..@&%.o&&$#&&@..&&&&&#@&&##%#..@&&#$&&o........",
"...........#&&O.XX&&o..+&$.+&%..%&+.$&@..X&&X.&&%X.X#&$...X.X&&o..+&$........",
"...........#&$...O&&&&&&&&.X&&oo&&X.&&&&&&&&O.&&+...+&&&%#o.O&&&&&&&&........",
"...........#&#...O&&######..$&@@&$..&&$#####o.&&O....O#$&&&XO&&######........",
"...........#&#...X&&O...XO..O&%&&O..$&#....+..&&O...X...X&&OX&&O...XO........",
"...........#&#....@&&##$&#...%&&%...o&&$##&&..&&O...#&##$&&X.@&&##$&#........",
"...........#&#.....+$&&&#O...@&&@....o#&&&$@..&&O...+%&&&$O...+$&&&#O........",
".............................................................................",
".............................................................................",
".............................................................................",
".............................................................................",
".............................................................................",
".............................................................................",
".............................................................................",
"............................................................................."
};
