/* XPM */
static char * reverse_disabled_xpm[] = {
"77 24 156 2",
"  	c None",
". 	c #192334",
"+ 	c #2C3E5A",
"@ 	c #2C3E5B",
"# 	c #2D3F5B",
"$ 	c #30405A",
"% 	c #314159",
"& 	c #334259",
"* 	c #344258",
"= 	c #364357",
"- 	c #394456",
"; 	c #223047",
"> 	c #1F2D41",
", 	c #475160",
"' 	c #293A55",
") 	c #1F2C41",
"! 	c #1F2C40",
"~ 	c #1F2B3F",
"{ 	c #293B56",
"] 	c #1E2B3F",
"^ 	c #1E2A3E",
"/ 	c #495260",
"( 	c #505967",
"_ 	c #4D5664",
": 	c #546887",
"< 	c #556987",
"[ 	c #2A3B56",
"} 	c #1E2A3D",
"| 	c #F3F4F6",
"1 	c #FFFFFF",
"2 	c #8896AB",
"3 	c #ABB4C3",
"4 	c #FCFCFD",
"5 	c #61738F",
"6 	c #4C5563",
"7 	c #B2BBC9",
"8 	c #FDFDFD",
"9 	c #AAB4C3",
"0 	c #ABB5C4",
"a 	c #E5E8EC",
"b 	c #B3BCC9",
"c 	c #DBDFE6",
"d 	c #4F6383",
"e 	c #D7DCE3",
"f 	c #E0E3E9",
"g 	c #627490",
"h 	c #1D2A3D",
"i 	c #D4D9E1",
"j 	c #C0C7D2",
"k 	c #B9C1CE",
"l 	c #EEF0F3",
"m 	c #E4E7EC",
"n 	c #4B5564",
"o 	c #667793",
"p 	c #596C8A",
"q 	c #EAECF0",
"r 	c #96A2B5",
"s 	c #DADFE5",
"t 	c #F4F5F7",
"u 	c #C1C8D3",
"v 	c #F7F8F9",
"w 	c #F7F8FA",
"x 	c #4F617D",
"y 	c #1D293C",
"z 	c #F6F7F8",
"A 	c #97A3B6",
"B 	c #5B6D8B",
"C 	c #5B6E8B",
"D 	c #545F6F",
"E 	c #F8F9FA",
"F 	c #8C99AE",
"G 	c #E6E9ED",
"H 	c #95A1B4",
"I 	c #FEFEFE",
"J 	c #516584",
"K 	c #4E6282",
"L 	c #71819A",
"M 	c #4F5866",
"N 	c #E1E4E9",
"O 	c #E9ECF0",
"P 	c #7A89A1",
"Q 	c #2A3B57",
"R 	c #1D293B",
"S 	c #B8C0CD",
"T 	c #919EB2",
"U 	c #77869F",
"V 	c #A0ABBC",
"W 	c #D0D6DE",
"X 	c #929FB2",
"Y 	c #D3D8E0",
"Z 	c #B6BFCC",
"` 	c #7D8CA3",
" .	c #525B69",
"..	c #1C283B",
"+.	c #8A97AC",
"@.	c #ACB6C4",
"#.	c #CFD5DD",
"$.	c #5A6D8A",
"%.	c #555E6C",
"&.	c #CAD0D9",
"*.	c #8E9BAF",
"=.	c #8794AA",
"-.	c #FAFAFB",
";.	c #AEB7C6",
">.	c #515A68",
",.	c #9EA9BA",
"'.	c #DADEE5",
").	c #657692",
"!.	c #8795AA",
"~.	c #F9FAFB",
"{.	c #50617A",
"].	c #6F7F99",
"^.	c #ADB6C5",
"/.	c #ECEEF1",
"(.	c #7C8BA2",
"_.	c #F1F3F5",
":.	c #98A4B6",
"<.	c #A2ADBD",
"[.	c #75859E",
"}.	c #EBEDF1",
"|.	c #CCD1DB",
"1.	c #6D7D98",
"2.	c #BCC4D0",
"3.	c #1C283A",
"4.	c #E1E5EA",
"5.	c #D5DAE1",
"6.	c #C8CFD8",
"7.	c #5E708D",
"8.	c #506483",
"9.	c #8694A9",
"0.	c #5F718E",
"a.	c #BDC4D0",
"b.	c #8A98AD",
"c.	c #576A88",
"d.	c #F5F6F8",
"e.	c #70809A",
"f.	c #545D6B",
"g.	c #FBFBFC",
"h.	c #1C273A",
"i.	c #4A5463",
"j.	c #818FA6",
"k.	c #5C6F8C",
"l.	c #697A95",
"m.	c #8290A7",
"n.	c #71829B",
"o.	c #4E6281",
"p.	c #1C2739",
"q.	c #293A54",
"r.	c #1B2739",
"s.	c #1B2738",
"t.	c #16202E",
"u.	c #3B4554",
"v.	c #3E4653",
"w.	c #3F4754",
"x.	c #3F4854",
"y.	c #212E44",
". + + + @ @ @ @ @ # # # # # $ $ $ $ $ $ $ % % & & & * * * * * = = = = = - - - - - - - - - - - - - = = = = = = = = = = = = = = = = = * * * * * * * * * * ; ",
"> , , , , , , , , , , , , , , , , , , , , , , , , , , , , , , , , , , , , , , , , , , , , , , , , , , , , , , , , , , , , , , , , , , , , , , , , , , , ' ",
") , , , , , , , , , , , , , , , , , , , , , , , , , , , , , , , , , , , , , , , , , , , , , , , , , , , , , , , , , , , , , , , , , , , , , , , , , , , ' ",
"! , , , , , , , , , , , , , , , , , , , , , , , , , , , , , , , , , , , , , , , , , , , , , , , , , , , , , , , , , , , , , , , , , , , , , , , , , , , ' ",
"~ , , , , , , , , , , , , , , , , , , , , , , , , , , , , , , , , , , , , , , , , , , , , , , , , , , , , , , , , , , , , , , , , , , , , , , , , , , , { ",
"] , , , , , , , , , , , , , , , , , , , , , , , , , , , , , , , , , , , , , , , , , , , , , , , , , , , , , , , , , , , , , , , , , , , , , , , , , , , { ",
"] , , , , , , , , , , , , , , , , , , , , , , , , , , , , , , , , , , , , , , , , , , , , , , , , , , , , , , , , , , , , , , , , , , , , , , , , , , , { ",
"^ , , , , , , , , / / , , ( _ , , , , : , , , , , , , , , , , , , , , , , , : , , , , , / / , , ( _ , , , , < / , , , , , , , : , , , , , , , , , , , , [ ",
"} , , , , , , , , | 1 2 3 4 5 , 6 7 4 1 8 9 ( , 0 1 a , , , b 1 c , , 6 7 4 1 8 9 ( , , | 1 2 3 4 5 , d e 1 1 1 f g , , 6 7 4 1 8 9 ( , , , , , , , , , [ ",
"h , , , , , , , , | 1 i 1 1 5 , j 1 4 k l 1 m n o 1 1 p , , q 1 r , , j 1 4 k l 1 m n , | 1 i 1 1 5 , s 1 t u v 1 w x , j 1 4 k l 1 m n , , , , , , , , [ ",
"y , , , , , , , , | 1 z A B ( C 1 1 B , D E 1 F , G 1 H , B 1 I J , C 1 1 B , D E 1 F , | 1 z A B ( K 1 1 L , M N O P C 1 1 B , D E 1 F , , , , , , , , Q ",
"R , , , , , , , , | 1 S , , , T 1 l U U U s 1 7 , V 1 W , X 1 Y , , T 1 l U U U s 1 7 , | 1 S , , , 6 | 1 t Z `  ., , T 1 l U U U s 1 7 , , , , , , , , Q ",
".., , , , , , , , | 1 +., , , @.1 1 1 1 1 1 1 #., $.1 4 %.&.1 *., , @.1 1 1 1 1 1 1 #., | 1 +., , , , =.-.1 1 1 4 ;.>.@.1 1 1 1 1 1 1 #., , , , , , , , Q ",
".., , , , , , , , | 1 2 , , , ,.1 '.).).).).).C , , c 1 !.~.4 {., , ,.1 '.).).).).).C , | 1 2 , , , , , n ].^./.1 1 r ,.1 '.).).).).).C , , , , , , , , [ ",
".., , , , , , , , | 1 2 , , , (.1 _._ , , :.<.[., , H 1 }.1 |., , , (.1 _._ , , :.<.[., | 1 2 , , , 1.7 ^./ , , Y 1 2.(.1 _._ , , :.<.[., , , , , , , , [ ",
"3., , , , , , , , | 1 2 , , , n 4.1 5.+.6.1 8 7., , 8.I 1 1 9., , , n 4.1 5.+.6.1 8 7., | 1 2 , , , 0.1 1 i H a.I 1 b.n 4.1 5.+.6.1 8 7., , , , , , , , { ",
"3., , , , , , , , | 1 2 , , , , c.N 1 1 1 d.e., , , , W 1 -.f., , , , c.N 1 1 1 d.e., , | 1 2 , , , , +.g.1 1 1 I 0 , , c.N 1 1 1 d.e., , , , , , , , , ' ",
"h., , , , , , , , , , , , , , , , i.7.j.k., , , , , , , , , , , , , , , i.7.j.k., , , , , , , , , , , , >.l.m.n.o., , , , i.7.j.k., , , , , , , , , , , ' ",
"h., , , , , , , , , , , , , , , , , , , , , , , , , , , , , , , , , , , , , , , , , , , , , , , , , , , , , , , , , , , , , , , , , , , , , , , , , , , ' ",
"p., , , , , , , , , , , , , , , , , , , , , , , , , , , , , , , , , , , , , , , , , , , , , , , , , , , , , , , , , , , , , , , , , , , , , , , , , , , q.",
"p., , , , , , , , , , , , , , , , , , , , , , , , , , , , , , , , , , , , , , , , , , , , , , , , , , , , , , , , , , , , , , , , , , , , , , , , , , , q.",
"r., , , , , , , , , , , , , , , , , , , , , , , , , , , , , , , , , , , , , , , , , , , , , , , , , , , , , , , , , , , , , , , , , , , , , , , , , , , q.",
"s., , , , , , , , , , , , , , , , , , , , , , , , , , , , , , , , , , , , , , , , , , , , , , , , , , , , , , , , , , , , , , , , , , , , , , , , , , , q.",
"t.% & & & * * * * * = = = = = - - - - - - - - u.u.u.u.u.u.v.v.v.v.v.w.w.w.x.x.x.w.w.v.v.v.v.v.u.u.u.u.u.- - - - - - - = = = = * * * * * & & % % % $ $ $ y."};
