/* XPM */
static char * reverse_normal_xpm[] = {
"77 24 159 2",
"  	c None",
". 	c #192334",
"+ 	c #2C3E5A",
"@ 	c #2C3E5B",
"# 	c #2C3F5C",
"$ 	c #2D3F5D",
"% 	c #2D405D",
"& 	c #2D405E",
"* 	c #2E415E",
"= 	c #2E415F",
"- 	c #2E4160",
"; 	c #2E4260",
"> 	c #2F4261",
", 	c #223047",
"' 	c #1F2D41",
") 	c #374E72",
"! 	c #293A55",
"~ 	c #1F2C41",
"{ 	c #1F2C40",
"] 	c #1F2B3F",
"^ 	c #293B56",
"/ 	c #1E2B3F",
"( 	c #1E2A3E",
"_ 	c #384F73",
": 	c #405678",
"< 	c #3D5376",
"[ 	c #546887",
"} 	c #556987",
"| 	c #2A3B56",
"1 	c #1E2A3D",
"2 	c #F3F4F6",
"3 	c #FFFFFF",
"4 	c #8896AB",
"5 	c #ABB4C3",
"6 	c #FCFCFD",
"7 	c #61738F",
"8 	c #3C5275",
"9 	c #B2BBC9",
"0 	c #FDFDFD",
"a 	c #AAB4C3",
"b 	c #ABB5C4",
"c 	c #E5E8EC",
"d 	c #B3BCC9",
"e 	c #DBDFE6",
"f 	c #4F6383",
"g 	c #D7DCE3",
"h 	c #E0E3E9",
"i 	c #627490",
"j 	c #1D2A3D",
"k 	c #D4D9E1",
"l 	c #C0C7D2",
"m 	c #B9C1CE",
"n 	c #EEF0F3",
"o 	c #E4E7EC",
"p 	c #3B5275",
"q 	c #667793",
"r 	c #596C8A",
"s 	c #EAECF0",
"t 	c #96A2B5",
"u 	c #DADFE5",
"v 	c #F4F5F7",
"w 	c #C1C8D3",
"x 	c #F7F8F9",
"y 	c #F7F8FA",
"z 	c #4C6080",
"A 	c #1D293C",
"B 	c #F6F7F8",
"C 	c #97A3B6",
"D 	c #5B6D8B",
"E 	c #5B6E8B",
"F 	c #475C7D",
"G 	c #F8F9FA",
"H 	c #8C99AE",
"I 	c #E6E9ED",
"J 	c #95A1B4",
"K 	c #FEFEFE",
"L 	c #516584",
"M 	c #4E6282",
"N 	c #71819A",
"O 	c #3F5578",
"P 	c #E1E4E9",
"Q 	c #E9ECF0",
"R 	c #7A89A1",
"S 	c #2A3B57",
"T 	c #1D293B",
"U 	c #B8C0CD",
"V 	c #919EB2",
"W 	c #77869F",
"X 	c #A0ABBC",
"Y 	c #D0D6DE",
"Z 	c #929FB2",
"` 	c #D3D8E0",
" .	c #B6BFCC",
"..	c #7D8CA3",
"+.	c #42587A",
"@.	c #1C283B",
"#.	c #8A97AC",
"$.	c #ACB6C4",
"%.	c #CFD5DD",
"&.	c #5A6D8A",
"*.	c #465B7D",
"=.	c #CAD0D9",
"-.	c #8E9BAF",
";.	c #8794AA",
">.	c #FAFAFB",
",.	c #AEB7C6",
"'.	c #415779",
").	c #9EA9BA",
"!.	c #DADEE5",
"~.	c #657692",
"{.	c #8795AA",
"].	c #F9FAFB",
"^.	c #4B6080",
"/.	c #6F7F99",
"(.	c #ADB6C5",
"_.	c #ECEEF1",
":.	c #7C8BA2",
"<.	c #F1F3F5",
"[.	c #98A4B6",
"}.	c #A2ADBD",
"|.	c #75859E",
"1.	c #EBEDF1",
"2.	c #CCD1DB",
"3.	c #6D7D98",
"4.	c #BCC4D0",
"5.	c #1C283A",
"6.	c #E1E5EA",
"7.	c #D5DAE1",
"8.	c #C8CFD8",
"9.	c #5E708D",
"0.	c #506483",
"a.	c #8694A9",
"b.	c #5F718E",
"c.	c #BDC4D0",
"d.	c #8A98AD",
"e.	c #576A88",
"f.	c #F5F6F8",
"g.	c #70809A",
"h.	c #455A7B",
"i.	c #FBFBFC",
"j.	c #1C273A",
"k.	c #3A5074",
"l.	c #818FA6",
"m.	c #5C6F8C",
"n.	c #697A95",
"o.	c #8290A7",
"p.	c #71829B",
"q.	c #4D6282",
"r.	c #1C2739",
"s.	c #293A54",
"t.	c #1B2739",
"u.	c #1B2738",
"v.	c #16202E",
"w.	c #2F4361",
"x.	c #2F4362",
"y.	c #304463",
"z.	c #304464",
"A.	c #304564",
"B.	c #212E44",
". + + + @ @ @ @ @ # # # # # $ $ % % % % % & & * * * = = = = = - - ; ; ; > > > > > > > > > > > > > ; ; ; ; ; ; ; ; ; - - - - - - - - = = = = = = = = = = , ",
"' ) ) ) ) ) ) ) ) ) ) ) ) ) ) ) ) ) ) ) ) ) ) ) ) ) ) ) ) ) ) ) ) ) ) ) ) ) ) ) ) ) ) ) ) ) ) ) ) ) ) ) ) ) ) ) ) ) ) ) ) ) ) ) ) ) ) ) ) ) ) ) ) ) ) ) ! ",
"~ ) ) ) ) ) ) ) ) ) ) ) ) ) ) ) ) ) ) ) ) ) ) ) ) ) ) ) ) ) ) ) ) ) ) ) ) ) ) ) ) ) ) ) ) ) ) ) ) ) ) ) ) ) ) ) ) ) ) ) ) ) ) ) ) ) ) ) ) ) ) ) ) ) ) ) ! ",
"{ ) ) ) ) ) ) ) ) ) ) ) ) ) ) ) ) ) ) ) ) ) ) ) ) ) ) ) ) ) ) ) ) ) ) ) ) ) ) ) ) ) ) ) ) ) ) ) ) ) ) ) ) ) ) ) ) ) ) ) ) ) ) ) ) ) ) ) ) ) ) ) ) ) ) ) ! ",
"] ) ) ) ) ) ) ) ) ) ) ) ) ) ) ) ) ) ) ) ) ) ) ) ) ) ) ) ) ) ) ) ) ) ) ) ) ) ) ) ) ) ) ) ) ) ) ) ) ) ) ) ) ) ) ) ) ) ) ) ) ) ) ) ) ) ) ) ) ) ) ) ) ) ) ) ^ ",
"/ ) ) ) ) ) ) ) ) ) ) ) ) ) ) ) ) ) ) ) ) ) ) ) ) ) ) ) ) ) ) ) ) ) ) ) ) ) ) ) ) ) ) ) ) ) ) ) ) ) ) ) ) ) ) ) ) ) ) ) ) ) ) ) ) ) ) ) ) ) ) ) ) ) ) ) ^ ",
"/ ) ) ) ) ) ) ) ) ) ) ) ) ) ) ) ) ) ) ) ) ) ) ) ) ) ) ) ) ) ) ) ) ) ) ) ) ) ) ) ) ) ) ) ) ) ) ) ) ) ) ) ) ) ) ) ) ) ) ) ) ) ) ) ) ) ) ) ) ) ) ) ) ) ) ) ^ ",
"( ) ) ) ) ) ) ) ) _ _ ) ) : < ) ) ) ) [ ) ) ) ) ) ) ) ) ) ) ) ) ) ) ) ) ) ) [ ) ) ) ) ) _ _ ) ) : < ) ) ) ) } _ ) ) ) ) ) ) ) [ ) ) ) ) ) ) ) ) ) ) ) ) | ",
"1 ) ) ) ) ) ) ) ) 2 3 4 5 6 7 ) 8 9 6 3 0 a : ) b 3 c ) ) ) d 3 e ) ) 8 9 6 3 0 a : ) ) 2 3 4 5 6 7 ) f g 3 3 3 h i ) ) 8 9 6 3 0 a : ) ) ) ) ) ) ) ) ) | ",
"j ) ) ) ) ) ) ) ) 2 3 k 3 3 7 ) l 3 6 m n 3 o p q 3 3 r ) ) s 3 t ) ) l 3 6 m n 3 o p ) 2 3 k 3 3 7 ) u 3 v w x 3 y z ) l 3 6 m n 3 o p ) ) ) ) ) ) ) ) | ",
"A ) ) ) ) ) ) ) ) 2 3 B C D : E 3 3 D ) F G 3 H ) I 3 J ) D 3 K L ) E 3 3 D ) F G 3 H ) 2 3 B C D : M 3 3 N ) O P Q R E 3 3 D ) F G 3 H ) ) ) ) ) ) ) ) S ",
"T ) ) ) ) ) ) ) ) 2 3 U ) ) ) V 3 n W W W u 3 9 ) X 3 Y ) Z 3 ` ) ) V 3 n W W W u 3 9 ) 2 3 U ) ) ) 8 2 3 v  ...+.) ) V 3 n W W W u 3 9 ) ) ) ) ) ) ) ) S ",
"@.) ) ) ) ) ) ) ) 2 3 #.) ) ) $.3 3 3 3 3 3 3 %.) &.3 6 *.=.3 -.) ) $.3 3 3 3 3 3 3 %.) 2 3 #.) ) ) ) ;.>.3 3 3 6 ,.'.$.3 3 3 3 3 3 3 %.) ) ) ) ) ) ) ) S ",
"@.) ) ) ) ) ) ) ) 2 3 4 ) ) ) ).3 !.~.~.~.~.~.E ) ) e 3 {.].6 ^.) ) ).3 !.~.~.~.~.~.E ) 2 3 4 ) ) ) ) ) p /.(._.3 3 t ).3 !.~.~.~.~.~.E ) ) ) ) ) ) ) ) | ",
"@.) ) ) ) ) ) ) ) 2 3 4 ) ) ) :.3 <.< ) ) [.}.|.) ) J 3 1.3 2.) ) ) :.3 <.< ) ) [.}.|.) 2 3 4 ) ) ) 3.9 (._ ) ) ` 3 4.:.3 <.< ) ) [.}.|.) ) ) ) ) ) ) ) | ",
"5.) ) ) ) ) ) ) ) 2 3 4 ) ) ) p 6.3 7.#.8.3 0 9.) ) 0.K 3 3 a.) ) ) p 6.3 7.#.8.3 0 9.) 2 3 4 ) ) ) b.3 3 k J c.K 3 d.p 6.3 7.#.8.3 0 9.) ) ) ) ) ) ) ) ^ ",
"5.) ) ) ) ) ) ) ) 2 3 4 ) ) ) ) e.P 3 3 3 f.g.) ) ) ) Y 3 >.h.) ) ) ) e.P 3 3 3 f.g.) ) 2 3 4 ) ) ) ) #.i.3 3 3 K b ) ) e.P 3 3 3 f.g.) ) ) ) ) ) ) ) ) ! ",
"j.) ) ) ) ) ) ) ) ) ) ) ) ) ) ) ) k.9.l.m.) ) ) ) ) ) ) ) ) ) ) ) ) ) ) k.9.l.m.) ) ) ) ) ) ) ) ) ) ) ) '.n.o.p.q.) ) ) ) k.9.l.m.) ) ) ) ) ) ) ) ) ) ) ! ",
"j.) ) ) ) ) ) ) ) ) ) ) ) ) ) ) ) ) ) ) ) ) ) ) ) ) ) ) ) ) ) ) ) ) ) ) ) ) ) ) ) ) ) ) ) ) ) ) ) ) ) ) ) ) ) ) ) ) ) ) ) ) ) ) ) ) ) ) ) ) ) ) ) ) ) ) ! ",
"r.) ) ) ) ) ) ) ) ) ) ) ) ) ) ) ) ) ) ) ) ) ) ) ) ) ) ) ) ) ) ) ) ) ) ) ) ) ) ) ) ) ) ) ) ) ) ) ) ) ) ) ) ) ) ) ) ) ) ) ) ) ) ) ) ) ) ) ) ) ) ) ) ) ) ) s.",
"r.) ) ) ) ) ) ) ) ) ) ) ) ) ) ) ) ) ) ) ) ) ) ) ) ) ) ) ) ) ) ) ) ) ) ) ) ) ) ) ) ) ) ) ) ) ) ) ) ) ) ) ) ) ) ) ) ) ) ) ) ) ) ) ) ) ) ) ) ) ) ) ) ) ) ) s.",
"t.) ) ) ) ) ) ) ) ) ) ) ) ) ) ) ) ) ) ) ) ) ) ) ) ) ) ) ) ) ) ) ) ) ) ) ) ) ) ) ) ) ) ) ) ) ) ) ) ) ) ) ) ) ) ) ) ) ) ) ) ) ) ) ) ) ) ) ) ) ) ) ) ) ) ) s.",
"u.) ) ) ) ) ) ) ) ) ) ) ) ) ) ) ) ) ) ) ) ) ) ) ) ) ) ) ) ) ) ) ) ) ) ) ) ) ) ) ) ) ) ) ) ) ) ) ) ) ) ) ) ) ) ) ) ) ) ) ) ) ) ) ) ) ) ) ) ) ) ) ) ) ) ) s.",
"v.& * * * = = = = = - - - ; ; > > > > > > w.w.x.x.x.x.x.x.y.y.y.y.y.z.z.z.A.A.A.z.z.y.y.y.y.y.x.x.x.x.x.w.w.> > > > > ; ; - - = = = = = * * & & & % % % B."};
