/* XPM */
static char *reverse_focus[] = {
/* columns rows colors chars-per-pixel */
"77 25 52 1",
"  c #0A0E15",
". c #0B1017",
"X c #0E141D",
"o c #0F151E",
"O c #0F151F",
"+ c #0F1620",
"@ c #101620",
"# c #101621",
"$ c #101721",
"% c #101722",
"& c #111822",
"* c #111823",
"= c #111824",
"- c #141C29",
"; c #172130",
": c #182131",
"> c #182231",
", c #182232",
"< c #182333",
"1 c #192333",
"2 c #192334",
"3 c #192434",
"4 c #192435",
"5 c #1A2435",
"6 c #1A2536",
"7 c #1E2B3F",
"8 c #1F2B3F",
"9 c #1F2C40",
"0 c #1F2C41",
"q c #1F2D41",
"w c #202D42",
"e c #202E43",
"r c #212E44",
"t c #283953",
"y c #283954",
"u c #293A54",
"i c #293A55",
"p c #293B56",
"a c #2A3B56",
"s c #2A3B57",
"d c #2A3C57",
"f c #2A3C58",
"g c #43608C",
"h c #587199",
"j c #6C83A5",
"k c #8295B2",
"l c #96A6BF",
"z c #ABB8CC",
"x c #C0CAD9",
"c c #D5DBE5",
"v c #EAEDF2",
"b c gray100",
/* pixels */
" ==*%*******%%%%%%%%@%@%@%@@@OOOOOOOOOOOOOOOOOOOOOOOOOOOOOOOOOOOOOOOOOOOOOOO ",
"wgggggggggggggggggggggggggggggggggggggggggggggggggggggggggggggggggggggggggggt",
"qggggggggggggggggggggggggggggggggggggggggggggggggggggggggggggggggggggggggggga",
"qgggggggggggggggggggggggggggggggggggggggggggggggggggggggggggggggggggggggggggy",
"qgggggggggggggggggggggggggggggggggggggggggggggggggggggggggggggggggggggggggggy",
"9ggggggggggggggggggggggggggggggggggggggggggggggggggggggggggggggggggggggggggga",
"9gggggggggggggggggggggggggggggggggggggggggggggggggggggggggggggggggggggggggggt",
"9gggggggggggggggggggggggggggggggggggggggggggggggggggggggggggggggggggggggggggt",
"8gggggggggggggggggggggggggggggggggggggggggggggggggggggggggggggggggggggggggggy",
"8gggggggggglxlzbbgglcbbcjghxxhggjxxhgjxbbvlgggxxkcbxgzbbbvlggglcbbcjggggggggt",
"8ggggggggggxbbbbbgzbbxcbbjgvbzggzbvgjbbcxbbzggbbbbbxzbbxxvxggzbbxcbbjgggggggt",
"8ggggggggggxbbkghhbbjgglbcglbvggvblgcbzgghbbhgbbvhghxbcggghghbbjgglbcgggggggt",
"8ggggggggggxbcgggkbbbbbbbbghbbjjbbhgbbbbbbbbkgbblggglbbbvxjgkbbbbbbbbgggggggt",
"8ggggggggggxbxgggkbbxxxxxxggcbzzbcggbbcxxxxxjgbbkggggkxcbbbhkbbxxxxxxgggggggt",
"8ggggggggggxbxggghbbkggghkggkbvbbkggcbxgggglggbbkggghggghbbkhbbkggghkgggggggt",
"8ggggggggggxbxggggzbbxxcbxgggvbbvgggjbbcxxbbggbbkgggxbxxcbbhgzbbxxcbxggggggga",
"qggggggggggxbxggggglcbbbxkgggzbbzggggjxbbbczggbbkggglvbbbckggglcbbbxkgggggggy",
"qggggggggggggggggggggggggggggggggggggggggggggggggggggggggggggggggggggggggggga",
"qggggggggggggggggggggggggggggggggggggggggggggggggggggggggggggggggggggggggggga",
"qggggggggggggggggggggggggggggggggggggggggggggggggggggggggggggggggggggggggggga",
"qggggggggggggggggggggggggggggggggggggggggggggggggggggggggggggggggggggggggggga",
"qggggggggggggggggggggggggggggggggggggggggggggggggggggggggggggggggggggggggggga",
"rgggggggggggggggggggggggggggggggggggggggggggggggggggggggggggggggggggggggggggd",
"rgggggggggggggggggggggggggggggggggggggggggggggggggggggggggggggggggggggggggggd",
"O;;;;;;2;2;2;2;4;4;44;442245444544445566666666666665555544445555555444444444-"
};
