/* XPM */
static char *save_active[] = {
/* columns rows colors chars-per-pixel */
"46 25 35 1",
"  c #101621",
". c #141C29",
"X c #141C2A",
"o c #141D2A",
"O c #151D2B",
"+ c #151E2B",
"@ c #151E2C",
"# c #161F2D",
"$ c #161F2E",
"% c #16202E",
"& c #17202F",
"* c #172130",
"= c #182131",
"- c #182231",
"; c #202D42",
": c #202E43",
"> c #212E44",
", c #212F44",
"< c #212F45",
"1 c #223046",
"2 c #223047",
"3 c #233148",
"4 c #233249",
"5 c #24334A",
"6 c #24334B",
"7 c #750924",
"8 c #84243C",
"9 c #933F54",
"0 c #A35B6D",
"q c #B27685",
"w c #C1919D",
"e c #D1ADB6",
"r c #E0C8CE",
"t c #EFE3E6",
"y c gray100",
/* pixels */
"777777777777777777777777777777777777777777777;",
"777777777777777777777777777777777777777777777;",
"777777777777777777777777777777777777777777777;",
"777777777777777777777777777777777777777777777:",
"777777777777777777777777777777777777777777777:",
"777777777777777777777777777777777777777777777:",
"777777777777777777777777777777777777777777777:",
"777777777777777777777777777777777777777777777:",
"777777777777777777777777777777777777777777777:",
"777778qeeeq8779weeeq8779007777009779wee077777:",
"77777tyyyyy077eyyyyyy970yy9779yy070yyyyyr7777:",
"77770yy878097709779tyr77tyw77eyy79yye78yyw777:",
"77770yye00777777000ryy77wyy77yyw7wyy000ryt777:",
"77777tyyyyy077wyyyyyyy779yy00yy97eyyyyyyyy7771",
"7777770eeyyt79yyr00ryy777ryeeyr77eyy000000777:",
"7777877770yy70yy078tyy777qyyyyq770yyq777807772",
"77770yreeyyr78yytetyyy7777yyyy7777eyyrerye7772",
"77779ryyytw8770tytqeyy7777eyye77777wtyyte07772",
"7777777777777777777777777777777777777777777772",
"7777777777777777777777777777777777777777777774",
"7777777777777777777777777777777777777777777772",
"7777777777777777777777777777777777777777777774",
"7777777777777777777777777777777777777777777775",
"7777777777777777777777777777777777777777777775",
"XXXXXX%.XXXXXXXXX......XXXXXX%X%%%%%%%&&%-%-& "
};
