/* XPM */
static char * scratch_selected[] = {
"46 25 22 1",
" 	c None",
".	c #2F7868",
"+	c #202D42",
"@	c #202E43",
"#	c #5D9689",
"$	c #74A59A",
"%	c #BAD2CD",
"&	c #FFFFFF",
"*	c #E7F0EE",
"=	c #D1E1DD",
"-	c #A2C3BB",
";	c #8BB4AB",
">	c #468779",
",	c #212E44",
"'	c #212F44",
")	c #212F45",
"!	c #223046",
"~	c #223047",
"{	c #233148",
"]	c #233249",
"^	c #24334A",
"/	c #24334B",
".............................................+",
".............................................+",
".............................................+",
".............................................+",
".............................................+",
".............................................+",
".............................................@",
".....................................#$......@",
"..........................#%#........%&......@",
"..........................$&$........%&......@",
"..#*&&=..-&&*..&==&$&&&*$$&&&&.$*&&#.%&-&&$..@",
"..%&#.;.;&$.$..&&;;>#$$*&.$&$.>&%.>#.%&$.=&..@",
"..$&&&=.%&.....&%..$&=%*&.$&$.$&$....%&..%&..,",
"..>.>-&$-&>.>..&%..%&..=&.$&$.#&;..>.%&..%&..'",
"..%=%*&>>**%*..&%..$&==*&.#&=%.%&%=$.%&..%&..)",
"...$$$....$$#..$#...#$>#$..#$$..#$$..#$..#$..)",
".............................................!",
".............................................~",
".............................................{",
".............................................{",
".............................................]",
".............................................]",
".............................................^",
"............................................./",
".............................................]"};
