/* XPM */
static char *scratch_active[] = {
/* columns rows colors chars-per-pixel */
"46 25 27 1",
"  c #101621",
". c #141C29",
"X c #141C2A",
"o c #141D2A",
"O c #151D2B",
"+ c #151E2B",
"@ c #151E2C",
"# c #161F2D",
"$ c #161F2E",
"% c #16202E",
"& c #17202F",
"* c #172130",
"= c #182131",
"- c #182231",
"; c #202D42",
": c #202E43",
"> c #212E44",
", c #212F44",
"< c #212F45",
"1 c #223046",
"2 c #223047",
"3 c #233148",
"4 c #233249",
"5 c #24334A",
"6 c #24334B",
"7 c #750924",
"8 c gray100",
/* pixels */
"777777777777777777777777777777777777777777777<",
"7777777777777777777777777777777777777777777773",
"777777777777777777777777777777777777777777777-",
"777777777777777777777777777777777777777777777:",
"777777777777777777777777777777777777777777777:",
"777777777777777777777777777777777777777777777:",
"777777777777777777777777777777777777777777777:",
"777777777777777777777777777777777777788777777:",
"777777777777777777777777778877777777788777777:",
"777777777777777777777777778877777777788777777:",
"778888877888878888788888788888778888788888777:",
"778877778877778877777778878877788777788778877:",
"778888878877778877778888878877788777788778877,",
"777778878877778877788778878877788777788778877,",
"7788887778888788777888888788887788887887788771",
"7777777777777777777777777777777777777777777771",
"7777777777777777777777777777777777777777777771",
"7777777777777777777777777777777777777777777771",
"7777777777777777777777777777777777777777777771",
"7777777777777777777777777777777777777777777774",
"7777777777777777777777777777777777777777777775",
"7777777777777777777777777777777777777777777774",
"7777777777777777777777777777777777777777777775",
"7777777777777777777777777777777777777777777775",
"%X.X%...XXXXXXXXX......XXXXXX%X%&&%%%%%%&&&&& "
};
