/* XPM */
static char * scratch_active[] = {
"46 25 25 1",
" 	c None",
".	c #750924",
"+	c #161F2D",
"@	c #933F54",
"#	c #A35B6D",
"$	c #D1ADB6",
"%	c #FFFFFF",
"&	c #EFE3E6",
"*	c #E0C8CE",
"=	c #C1919D",
"-	c #B27685",
";	c #84243C",
">	c #151D2B",
",	c #141D2A",
"'	c #141C2A",
")	c #141C29",
"!	c #151E2B",
"~	c #151E2C",
"{	c #161F2E",
"]	c #16202E",
"^	c #17202F",
"/	c #172130",
"(	c #182131",
"_	c #182231",
":	c #101621",
".............................................+",
".............................................+",
".............................................+",
".............................................+",
".............................................+",
".............................................+",
".............................................+",
".....................................@#......+",
"..........................@$@........$%......+",
"..........................#%#........$%......+",
"..@&%%*..=%%&..%**%#%%%&##%%%%.#&%%@.$%=%%#..+",
"..$%@.-.-%#.#..%%--;@##&%.#%#.;%$.;@.$%#.*%..+",
"..#%%%*.$%.....%$..#%*$&%.#%#.#%#....$%..$%..+",
"..;.;=%#=%;.;..%$..$%..*%.#%#.@%-..;.$%..$%..+",
"..$*$&%;;&&$&..%$..#%**&%.@%*$.$%$*#.$%..$%..+",
"...###....##@..#@...@#;@#..@##..@##..@#..@#..+",
".............................................+",
".............................................+",
".............................................+",
".............................................+",
".............................................+",
".............................................+",
".............................................+",
".............................................+",
">>,,,,,,,,,,''''')))))))',,,>!~~+++{]]^^^//(_:"};
