/* XPM */
static char * scratch_active[] = {
"46 25 11 1",
" 	c None",
".	c #750924",
"+	c #933F54",
"@	c #A35B6D",
"#	c #D1ADB6",
"$	c #FFFFFF",
"%	c #EFE3E6",
"&	c #E0C8CE",
"*	c #C1919D",
"=	c #B27685",
"-	c #84243C",
"..............................................",
"..............................................",
"..............................................",
"..............................................",
"..............................................",
"..............................................",
"..............................................",
".....................................+@.......",
"..........................+#+........#$.......",
"..........................@$@........#$.......",
"..+%$$&..*$$%..$&&$@$$$%@@$$$$.@%$$+.#$*$$@...",
"..#$+.=.=$@.@..$$==-+@@%$.@$@.-$#.-+.#$@.&$...",
"..@$$$&.#$.....$#..@$&#%$.@$@.@$@....#$..#$...",
"..-.-*$@*$-.-..$#..#$..&$.@$@.+$=..-.#$..#$...",
"..#&#%$--%%#%..$#..@$&&%$.+$&#.#$#&@.#$..#$...",
"...@@@....@@+..@+...+@-+@..+@@..+@@..+@..+@...",
"..............................................",
"..............................................",
"..............................................",
"..............................................",
"..............................................",
"..............................................",
"..............................................",
"..............................................",
".............................................."};
