/* XPM */
static char * sl_logo_xpm[] = {
"31 25 57 1",
" 	c None",
".	c #000000",
"+	c #0A0C0F",
"@	c #1F202C",
"#	c #201E2A",
"$	c #161219",
"%	c #171017",
"&	c #180F16",
"*	c #190D14",
"=	c #1A0C12",
"-	c #1A0A10",
";	c #1C090E",
">	c #1C070D",
",	c #131821",
"'	c #425675",
")	c #58688E",
"!	c #5D6086",
"~	c #60597D",
"{	c #655274",
"]	c #694B6B",
"^	c #6D4363",
"/	c #713C5A",
"(	c #753552",
"_	c #792E49",
":	c #7D2641",
"<	c #811F38",
"[	c #2B0B13",
"}	c #1C2533",
"|	c #556E97",
"1	c #090C10",
"2	c #2F3D53",
"3	c #4B4561",
"4	c #44374E",
"5	c #453247",
"6	c #492D42",
"7	c #4B283C",
"8	c #4F2337",
"9	c #6B2841",
"0	c #484B68",
"a	c #501E31",
"b	c #3E4059",
"c	c #394964",
"d	c #16141B",
"e	c #263143",
"f	c #4B6186",
"g	c #382D40",
"h	c #390E19",
"i	c #64182B",
"j	c #211B27",
"k	c #290F18",
"l	c #561525",
"m	c #564F6E",
"n	c #6F223A",
"o	c #2A0D16",
"p	c #4E5C7D",
"q	c #731C31",
"r	c #0E0406",
"...............................",
"...............................",
"...............................",
"..........+@#$%&*=-;>>>>.......",
"........,')!~{]^/(_:<<<[.......",
".......}||)!~{]^/(_:<<<[.......",
"......1|||)!~{]^/(_:<<<[.......",
"......2|||)!~{]^/(_:<<<[.......",
"......||||)!3456789:<<<[.......",
"......||||)0......a:<<<[.......",
"......||||)b......a:<<<[.......",
"......c|||)!d.....a:<<<[.......",
"......e|||)!3.....a:<<<[.......",
".......f||)!~$....a:<<<[.......",
".......,||)!~g....a:<<<[.......",
"........||)!~4....a:<<<h.......",
"...222}'||)!~4....a:<<<<iiih...",
"...|||||||)!~j....k:<<<<<<<l...",
"...|||||||)!m......n<<<<<<<l...",
"...|||||||)!#......o<<<<<<<l...",
"...|||||||p@........>q<<<<<l...",
"...}}}ccc}............r[[[[>...",
"...............................",
"...............................",
"..............................."};
