/* XPM */
static char * solo_disabled[] = {
"46 25 69 1",
" 	c #475160",
".	c #202D42",
"+	c #202E43",
"@	c #FFFFFF",
"#	c #ACB1B7",
"$	c #646C79",
"%	c #C7CACE",
"&	c #F1F2F3",
"*	c #FDFDFD",
"=	c #F5F5F6",
"-	c #DCDEE0",
";	c #A4A9B0",
">	c #707884",
",	c #CACDD1",
"'	c #F3F4F5",
")	c #FBFCFC",
"!	c #E6E8EA",
"~	c #A9AEB5",
"{	c #4E5866",
"]	c #DFE1E4",
"^	c #FEFEFE",
"/	c #DEE0E2",
"(	c #E2E4E6",
"_	c #DDDFE2",
":	c #747B87",
"<	c #F2F3F4",
"[	c #DFE0E3",
"}	c #D3D5D9",
"|	c #485261",
"1	c #FBFBFB",
"2	c #C0C4C9",
"3	c #505967",
"4	c #D2D4D8",
"5	c #ECEDEE",
"6	c #525B69",
"7	c #9298A1",
"8	c #7E858F",
"9	c #C5C8CC",
"0	c #D4D6DA",
"a	c #A8ADB4",
"b	c #58616F",
"c	c #F8F8F9",
"d	c #B7BBC1",
"e	c #223046",
"f	c #4B5564",
"g	c #8E949D",
"h	c #BFC2C8",
"i	c #D6D8DB",
"j	c #79808B",
"k	c #4B5463",
"l	c #BDC1C6",
"m	c #223047",
"n	c #D9DCDF",
"o	c #FCFCFD",
"p	c #B5B9BF",
"q	c #F7F7F8",
"r	c #EFF0F1",
"s	c #5D6673",
"t	c #CBCED2",
"u	c #F4F5F6",
"v	c #233249",
"w	c #24334A",
"x	c #141C2A",
"y	c #16202E",
"z	c #141C29",
"A	c #172130",
"B	c #17202F",
"C	c #182231",
"D	c #101621",
"                                             .",
"                                             .",
"                                             .",
"                                             +",
"                                             +",
"                                             +",
"                                             +",
"                          @@#                +",
"                          @@#                +",
"                          @@#                +",
"       $%&*=-;   >,')!~{  @@#   >,')!~{      +",
"       ]@^/(*_  :)@<[^@}| @@#  :)@<[^@}|     +",
"       1@2  3>  4@56 7@@8 @@#  4@56 7@@8     +",
"       9@@&0ab  c@d  6@@; @@#  c@d  6@@;     e",
"       fgh/^@i  c@d  6@@; @@#  c@d  6@@;     +",
"       jk  l@)  4@56 7@@8 @@#  4@56 7@@8     m",
"       @c/]^@n  :o@</^@}| @@#  :o@</^@}|     m",
"       p_q^r2s   >tu)!~{  @@#   >tu)!~{      m",
"                                             m",
"                                             v",
"                                             m",
"                                             v",
"                                             w",
"                                             w",
"xxxxxyzxxxxxxxxxxzzzzzzxxxxxxyxyyyyyyyyABBBCBD"};
