/* XPM */
static char * solo_selected[] = {
"46 25 69 1",
" 	c #2F7868",
".	c #202D42",
"+	c #202E43",
"@	c #FFFFFF",
"#	c #A1C2BB",
"$	c #508D80",
"%	c #BFD6D1",
"&	c #F0F5F4",
"*	c #FDFDFD",
"=	c #F4F8F7",
"-	c #D7E5E2",
";	c #98BCB4",
">	c #5D968A",
",	c #C3D8D4",
"'	c #F2F7F6",
")	c #FBFCFC",
"!	c #E3EDEB",
"~	c #9EC0B9",
"{	c #377D6E",
"]	c #DBE8E5",
"^	c #FDFEFE",
"/	c #D9E7E4",
"(	c #DEEAE7",
"_	c #D9E6E3",
":	c #62998D",
"<	c #DAE7E4",
"[	c #FEFEFE",
"}	c #CDDFDB",
"|	c #317969",
"1	c #FAFCFB",
"2	c #B8D1CB",
"3	c #397E6F",
"4	c #CCDEDA",
"5	c #E9F1EF",
"6	c #3B8071",
"7	c #84AFA6",
"8	c #6DA095",
"9	c #BDD4CF",
"0	c #CEDFDB",
"a	c #9DBFB8",
"b	c #438576",
"c	c #F7FAF9",
"d	c #ADCAC4",
"e	c #223046",
"f	c #347B6C",
"g	c #7FACA2",
"h	c #B6D0CA",
"i	c #D1E1DD",
"j	c #679D91",
"k	c #337B6B",
"l	c #B5CFC9",
"m	c #223047",
"n	c #D5E3E0",
"o	c #FCFDFD",
"p	c #ABC8C2",
"q	c #F6F9F8",
"r	c #EDF3F2",
"s	c #48887A",
"t	c #C4D9D4",
"u	c #F3F7F6",
"v	c #233249",
"w	c #24334A",
"x	c #141C2A",
"y	c #16202E",
"z	c #141C29",
"A	c #172130",
"B	c #17202F",
"C	c #182231",
"D	c #101621",
"                                             .",
"                                             .",
"                                             .",
"                                             +",
"                                             +",
"                                             +",
"                                             +",
"                          @@#                +",
"                          @@#                +",
"                          @@#                +",
"       $%&*=-;   >,')!~{  @@#   >,')!~{      +",
"       ]@^/(*_  :)@&<[@}| @@#  :)@&<[@}|     +",
"       1@2  3>  4@56 7@@8 @@#  4@56 7@@8     +",
"       9@@&0ab  c@d  6@@; @@#  c@d  6@@;     e",
"       fgh/[@i  c@d  6@@; @@#  c@d  6@@;     +",
"       jk  l@)  4@56 7@@8 @@#  4@56 7@@8     m",
"       @c/][@n  :o@&/[@}| @@#  :o@&/[@}|     m",
"       p_q^r2s   >tu)!~{  @@#   >tu)!~{      m",
"                                             m",
"                                             v",
"                                             m",
"                                             v",
"                                             w",
"                                             w",
"xxxxxyzxxxxxxxxxxzzzzzzxxxxxxyxyyyyyyyyABBBCBD"};
