/* XPM */
static char * solo_focus[] = {
"46 25 70 1",
" 	c #43608C",
".	c #202D42",
"+	c #202E43",
"@	c #FFFFFF",
"#	c #AAB7CB",
"$	c #60799E",
"%	c #C5CEDC",
"&	c #F1F3F6",
"*	c #FDFDFE",
"=	c #F5F6F9",
"-	c #DBE0E9",
";	c #A2B0C6",
">	c #6D84A6",
",	c #C9D1DE",
"'	c #F3F5F8",
")	c #FBFCFD",
"!	c #E6EAF0",
"~	c #A7B5C9",
"{	c #4A6691",
"]	c #DFE4EB",
"^	c #FEFEFE",
"/	c #DDE2EA",
"(	c #E2E6ED",
"_	c #DCE2EA",
":	c #7187A8",
"<	c #F2F4F7",
"[	c #DEE3EB",
"}	c #FEFEFF",
"|	c #D2D9E3",
"1	c #44618D",
"2	c #FBFBFC",
"3	c #BFC9D8",
"4	c #4C6791",
"5	c #D1D8E3",
"6	c #EBEEF3",
"7	c #4E6993",
"8	c #90A1BB",
"9	c #7B8FAE",
"0	c #C3CCDA",
"a	c #D3DAE4",
"b	c #A7B4C9",
"c	c #556F97",
"d	c #F8F9FA",
"e	c #B5C1D2",
"f	c #223046",
"g	c #47648F",
"h	c #8B9DB8",
"i	c #BDC8D7",
"j	c #D5DBE5",
"k	c #768BAB",
"l	c #47638E",
"m	c #BCC6D6",
"n	c #223047",
"o	c #D9DFE8",
"p	c #FCFDFD",
"q	c #B3BFD1",
"r	c #F7F8FA",
"s	c #EFF1F5",
"t	c #5A739A",
"u	c #CAD2DF",
"v	c #F4F6F8",
"w	c #233249",
"x	c #24334A",
"y	c #141C2A",
"z	c #16202E",
"A	c #141C29",
"B	c #172130",
"C	c #17202F",
"D	c #182231",
"E	c #101621",
"                                             .",
"                                             .",
"                                             .",
"                                             +",
"                                             +",
"                                             +",
"                                             +",
"                          @@#                +",
"                          @@#                +",
"                          @@#                +",
"       $%&*=-;   >,')!~{  @@#   >,')!~{      +",
"       ]@^/(*_  :)@<[}@|1 @@#  :)@<[}@|1     +",
"       2@3  4>  5@67 8@@9 @@#  5@67 8@@9     +",
"       0@@&abc  d@e  7@@; @@#  d@e  7@@;     f",
"       ghi/}@j  d@e  7@@; @@#  d@e  7@@;     +",
"       kl  m@)  5@67 8@@9 @@#  5@67 8@@9     n",
"       @d/]}@o  :p@</}@|1 @@#  :p@</}@|1     n",
"       q_r^s3t   >uv)!~{  @@#   >uv)!~{      n",
"                                             n",
"                                             w",
"                                             n",
"                                             w",
"                                             x",
"                                             x",
"yyyyyzAyyyyyyyyyyAAAAAAyyyyyyzyzzzzzzzzBCCCDCE"};
