/* XPM */
static char * solo_active[] = {
"46 25 65 1",
" 	c #770978",
".	c #4F0650",
"+	c #FFFFFF",
"@	c #C290C2",
"#	c #8C308D",
"$	c #D5B4D6",
"%	c #F5EDF5",
"&	c #FDFCFD",
"*	c #F8F1F8",
"=	c #E5D0E5",
"-	c #BC85BC",
";	c #954096",
">	c #D8B9D8",
",	c #F6F0F7",
"'	c #FCFAFC",
")	c #EDDEED",
"!	c #C08CC0",
"~	c #7C137D",
"{	c #E8D5E8",
"]	c #FEFDFE",
"^	c #E6D3E7",
"/	c #EAD8EA",
"(	c #E6D2E6",
"_	c #984599",
":	c #F5EEF5",
"<	c #E7D4E7",
"[	c #FEFEFE",
"}	c #DEC4DF",
"|	c #780B79",
"1	c #FCF9FC",
"2	c #D1ABD1",
"3	c #7D157E",
"4	c #DDC2DE",
"5	c #F1E5F1",
"6	c #7F1780",
"7	c #AE6DAF",
"8	c #A052A0",
"9	c #D4B1D4",
"0	c #DFC5DF",
"a	c #BF8BBF",
"b	c #842085",
"c	c #FAF5FA",
"d	c #CA9FCA",
"e	c #7A0F7B",
"f	c #AB68AC",
"g	c #D0A9D0",
"h	c #E1C8E1",
"i	c #9C4C9D",
"j	c #7A0E7B",
"k	c #CEA7CF",
"l	c #E3CDE3",
"m	c #FDFBFD",
"n	c #C89CC8",
"o	c #F9F4F9",
"p	c #F3EAF3",
"q	c #882788",
"r	c #D9BAD9",
"s	c #F7F1F7",
"t	c #141C2A",
"u	c #16202E",
"v	c #141C29",
"w	c #172130",
"x	c #17202F",
"y	c #182231",
"z	c #101621",
"                                             .",
"                                             .",
"                                             .",
"                                             .",
"                                             .",
"                                             .",
"                                             .",
"                          ++@                .",
"                          ++@                .",
"                          ++@                .",
"       #$%&*=-   ;>,')!~  ++@   ;>,')!~      .",
"       {+]^/&(  _'+:<[+}| ++@  _'+:<[+}|     .",
"       1+2  3;  4+56 7++8 ++@  4+56 7++8     .",
"       9++%0ab  c+d  6++- ++@  c+d  6++-     .",
"       efg^[+h  c+d  6++- ++@  c+d  6++-     .",
"       ij  k+'  4+56 7++8 ++@  4+56 7++8     .",
"       +c^{[+l  _m+:^[+}| ++@  _m+:^[+}|     .",
"       n(o]p2q   ;rs')!~  ++@   ;rs')!~      .",
"                                             .",
"                                             .",
"                                             .",
"                                             .",
"                                             .",
"                                             .",
"tttttuvttttttttttvvvvvvttttttutuuuuuuuuwxxxyxz"};
