/* XPM */
static char * substitute_active[] = {
"77 25 13 1",
" 	c None",
".	c #4B0719",
"+	c #750924",
"@	c #4A0719",
"#	c #A35B6D",
"$	c #FFFFFF",
"%	c #D1ADB6",
"&	c #84243C",
"*	c #933F54",
"=	c #C1919D",
"-	c #B27685",
";	c #E0C8CE",
">	c #EFE3E6",
".+++++++++++++++++++++++++++++++++++++++++++++++++++++++++++++++++++++++++++@",
".+++++++++++++++++++++++++++++++++++++++++++++++++++++++++++++++++++++++++++.",
".+++++++++++++++++++++++++++++++++++++++++++++++++++++++++++++++++++++++++++.",
".+++++++++++++++++++++++++++++++++++++++++++++++++++++++++++++++++++++++++++.",
".+++++++++++++++++++++++++++++++++++++++++++++++++++++++++++++++++++++++++++.",
".+++++++++++++++++++++++++++++++++++++++++++++++++++++++++++++++++++++++++++.",
".+++++++++++++++++++++++++++++++++++++++++++++++++++++++++++++++++++++++++++.",
".+++++++++++++++++++++++++++++++++++++++++++++++++++++++++++++++++++++++++++.",
".+++++++++++++++++++#$%+++++++++++++&#*+++$$++*#&+++++++++++&#*+++++++++++++.",
".+++++++++++++++++++#$%+++++++++++++#$%+++%%++%$#+++++++++++#$%+++++++++++++.",
".++++*=%%-&+%%++*%-+#$%*%=&++&-%%=**;$>%%+%%+->$;%-*%-++-%**;$>%%++#%%-&++++.",
".+++*$$%%$#+$$++#$%+#$$$$$>&+>$;%>%#$$$$$+$$+%$$$$%#$%++%$##$$$$$+%$>%$>&+++.",
".+++#$;+++&+$$++#$%+#$>&+%$=+$$&++&+#$%+++$$++%$#++#$%++%$#+#$%++*$>++-$-+++.",
".+++&>$$>=&+$$++#$%+#$%++#$%+%$$$%*+#$%+++$$++%$#++#$%++%$#+#$%++#$$$$$$%+++.",
".+++++*#%$=+$$++=$%+#$;++-$%++&#-$>+#$%+++$$++%$#++#$%++>$#+#$%++#$;####*+++.",
".+++#%##%$=+;$;;$$%+#$$;%$$*+;-#-$>+#$$%-+$$++%$>%*&$$%>$$#+#$$%-+>$=##%#+++.",
".+++*;$$$%&+*>$;=$%+#$;=$>#++%$$$;#++%$$%+$$++&>$$#+-$$=;$#++%$$%+&%$$$;*+++.",
".+++++++++++++++++++++++++++++++++++++++++++++++++++++++++++++++++++++++++++.",
".+++++++++++++++++++++++++++++++++++++++++++++++++++++++++++++++++++++++++++.",
".+++++++++++++++++++++++++++++++++++++++++++++++++++++++++++++++++++++++++++.",
".+++++++++++++++++++++++++++++++++++++++++++++++++++++++++++++++++++++++++++.",
".+++++++++++++++++++++++++++++++++++++++++++++++++++++++++++++++++++++++++++.",
".+++++++++++++++++++++++++++++++++++++++++++++++++++++++++++++++++++++++++++.",
".+++++++++++++++++++++++++++++++++++++++++++++++++++++++++++++++++++++++++++.",
".+++++++++++++++++++++++++++++++++++++++++++++++++++++++++++++++++++++++++++."};
