/* XPM */
static char * substitute_focus[] = {
"77 25 28 1",
" 	c None",
".	c #1E2B3F",
"+	c #43608C",
"@	c #293A54",
"#	c #202D42",
"$	c #1F2D41",
"%	c #1F2C41",
"&	c #1F2C40",
"*	c #283954",
"=	c #8295B2",
"-	c #FFFFFF",
";	c #C0CAD9",
">	c #587199",
",	c #6C83A5",
"'	c #1F2B3F",
")	c #283953",
"!	c #ABB8CC",
"~	c #96A6BF",
"{	c #D5DBE5",
"]	c #EAEDF2",
"^	c #293A55",
"/	c #293B56",
"(	c #202E43",
"_	c #2A3B56",
":	c #2A3B57",
"<	c #212E44",
"[	c #2A3C57",
"}	c #2A3C58",
".+++++++++++++++++++++++++++++++++++++++++++++++++++++++++++++++++++++++++++@",
"#+++++++++++++++++++++++++++++++++++++++++++++++++++++++++++++++++++++++++++@",
"$+++++++++++++++++++++++++++++++++++++++++++++++++++++++++++++++++++++++++++@",
"$+++++++++++++++++++++++++++++++++++++++++++++++++++++++++++++++++++++++++++@",
"%+++++++++++++++++++++++++++++++++++++++++++++++++++++++++++++++++++++++++++@",
"&+++++++++++++++++++++++++++++++++++++++++++++++++++++++++++++++++++++++++++@",
"&+++++++++++++++++++++++++++++++++++++++++++++++++++++++++++++++++++++++++++*",
"&+++++++++++++++++++++++++++++++++++++++++++++++++++++++++++++++++++++++++++*",
"&+++++++++++++++++++=-;+++++++++++++>=,+++--++,=>+++++++++++>=,+++++++++++++*",
"'+++++++++++++++++++=-;+++++++++++++=-;+++;;++;-=+++++++++++=-;+++++++++++++)",
".++++,!;;~>+;;++,;~+=-;,;!>++>~;;!,,{-];;+;;+~]-{;~,;~++~;,,{-];;++=;;~>++++)",
".+++,--;;-=+--++=-;+=-----]>+]-{;];=-----+--+;----;=-;++;-==-----+;-];-]>+++)",
".+++=-{+++>+--++=-;+=-]>+;-!+-->++>+=-;+++--++;-=++=-;++;-=+=-;++,-]++~-~+++)",
".+++>]--]!>+--++=-;+=-;++=-;+;---;,+=-;+++--++;-=++=-;++;-=+=-;++=------;+++)",
"'+++++,=;-!+--++!-;+=-{++~-;++>=~-]+=-;+++--++;-=++=-;++]-=+=-;++=-{====,+++*",
"&+++=;==;-!+{-{{--;+=--{;--,+{~=~-]+=--;~+--++;-];,>--;]--=+=--;~+]-!==;=+++@",
"&+++,{---;>+,]-{!-;+=-{!-]=++;---{=++;--;+--++>]--=+~--!{-=++;--;+>;---{,+++@",
"$+++++++++++++++++++++++++++++++++++++++++++++++++++++++++++++++++++++++++++^",
"#+++++++++++++++++++++++++++++++++++++++++++++++++++++++++++++++++++++++++++^",
"#+++++++++++++++++++++++++++++++++++++++++++++++++++++++++++++++++++++++++++/",
"(+++++++++++++++++++++++++++++++++++++++++++++++++++++++++++++++++++++++++++_",
"(+++++++++++++++++++++++++++++++++++++++++++++++++++++++++++++++++++++++++++:",
"<+++++++++++++++++++++++++++++++++++++++++++++++++++++++++++++++++++++++++++[",
"<+++++++++++++++++++++++++++++++++++++++++++++++++++++++++++++++++++++++++++}",
".+++++++++++++++++++++++++++++++++++++++++++++++++++++++++++++++++++++++++++@"};
