/* XPM */
static char * substitute_disabled[] = {
"77 25 28 1",
" 	c None",
".	c #1F2C40",
"+	c #475160",
"@	c #293A54",
"#	c #202D42",
"$	c #1F2D41",
"%	c #1F2C41",
"&	c #283954",
"*	c #848B95",
"=	c #FFFFFF",
"-	c #C2C5CA",
";	c #5B6471",
">	c #6F7783",
",	c #1F2B3F",
"'	c #283953",
")	c #1E2B3F",
"!	c #ADB1B8",
"~	c #999EA6",
"{	c #D6D8DB",
"]	c #EAEBED",
"^	c #293A55",
"/	c #293B56",
"(	c #202E43",
"_	c #2A3B56",
":	c #2A3B57",
"<	c #212E44",
"[	c #2A3C57",
"}	c #2A3C58",
".+++++++++++++++++++++++++++++++++++++++++++++++++++++++++++++++++++++++++++@",
"#+++++++++++++++++++++++++++++++++++++++++++++++++++++++++++++++++++++++++++@",
"$+++++++++++++++++++++++++++++++++++++++++++++++++++++++++++++++++++++++++++@",
"$+++++++++++++++++++++++++++++++++++++++++++++++++++++++++++++++++++++++++++@",
"%+++++++++++++++++++++++++++++++++++++++++++++++++++++++++++++++++++++++++++@",
".+++++++++++++++++++++++++++++++++++++++++++++++++++++++++++++++++++++++++++@",
".+++++++++++++++++++++++++++++++++++++++++++++++++++++++++++++++++++++++++++&",
".+++++++++++++++++++++++++++++++++++++++++++++++++++++++++++++++++++++++++++&",
".+++++++++++++++++++*=-+++++++++++++;*>+++==++>*;+++++++++++;*>+++++++++++++&",
",+++++++++++++++++++*=-+++++++++++++*=-+++--++-=*+++++++++++*=-+++++++++++++'",
")++++>!--~;+--++>-~+*=->-!;++;~--!>>{=]--+--+~]={-~>-~++~->>{=]--++*--~;++++'",
")+++>==--=*+==++*=-+*=====];+]={-]-*=====+==+-====-*=-++-=**=====+-=]-=];+++'",
")+++*={+++;+==++*=-+*=];+-=!+==;++;+*=-+++==++-=*++*=-++-=*+*=-++>=]++~=~+++'",
")+++;]==]!;+==++*=-+*=-++*=-+-===->+*=-+++==++-=*++*=-++-=*+*=-++*======-+++'",
",+++++>*-=!+==++!=-+*={++~=-++;*~=]+*=-+++==++-=*++*=-++]=*+*=-++*={****>+++&",
".+++*-**-=!+{={{==-+*=={-==>+{~*~=]+*==-~+==++-=]->;==-]==*+*==-~+]=!**-*+++@",
".+++>{===-;+>]={!=-+*={!=]*++-==={*++-==-+==++;]==*+~==!{=*++-==-+;-==={>+++@",
"$+++++++++++++++++++++++++++++++++++++++++++++++++++++++++++++++++++++++++++^",
"#+++++++++++++++++++++++++++++++++++++++++++++++++++++++++++++++++++++++++++^",
"#+++++++++++++++++++++++++++++++++++++++++++++++++++++++++++++++++++++++++++/",
"(+++++++++++++++++++++++++++++++++++++++++++++++++++++++++++++++++++++++++++_",
"(+++++++++++++++++++++++++++++++++++++++++++++++++++++++++++++++++++++++++++:",
"<+++++++++++++++++++++++++++++++++++++++++++++++++++++++++++++++++++++++++++[",
"<+++++++++++++++++++++++++++++++++++++++++++++++++++++++++++++++++++++++++++}",
".+++++++++++++++++++++++++++++++++++++++++++++++++++++++++++++++++++++++++++@"};
