/* XPM */
static char *tap_tempo_selected[] = {
/* columns rows colors chars-per-pixel */
"22 22 2 1",
"  c #2F7868",
". c gray100",
/* pixels */
"                      ",
"                      ",
"                      ",
"                      ",
"                      ",
"                      ",
"                      ",
"  ..                  ",
"  ..                  ",
" ..... .....  .....   ",
"  ..       .. ..  ..  ",
"  ..    ..... ..  ..  ",
"  ..   ..  .. ..  ..  ",
"  .... ...... .....   ",
"              ..      ",
"              ..      ",
"                      ",
"                      ",
"                      ",
"                      ",
"                      ",
"                      "
};
