/* XPM */
static char * tap_normal_xpm[] = {
"77 25 146 2",
"  	c None",
". 	c #080B10",
"+ 	c #0D131B",
"@ 	c #0D131C",
"# 	c #0E131C",
"$ 	c #0E141D",
"% 	c #0E141E",
"& 	c #0F151E",
"* 	c #0F151F",
"= 	c #0F1620",
"- 	c #101620",
"; 	c #101621",
"> 	c #101721",
", 	c #101722",
"' 	c #111822",
") 	c #111823",
"! 	c #111824",
"~ 	c #111924",
"{ 	c #121925",
"] 	c #121A26",
"^ 	c #202D42",
"/ 	c #374E72",
"( 	c #2C3E5A",
"_ 	c #1F2C41",
": 	c #2C3E5B",
"< 	c #1F2C40",
"[ 	c #2C3F5C",
"} 	c #1F2B3F",
"| 	c #546887",
"1 	c #677994",
"2 	c #5B6D8B",
"3 	c #2D405D",
"4 	c #1E2B3F",
"5 	c #B0B9C7",
"6 	c #FFFFFF",
"7 	c #CCD1DB",
"8 	c #1E2B3E",
"9 	c #556987",
"0 	c #415779",
"a 	c #384F73",
"b 	c #455B7C",
"c 	c #2D405E",
"d 	c #1E2A3E",
"e 	c #B5BDCB",
"f 	c #F0F2F5",
"g 	c #F6F7F8",
"h 	c #DBDFE6",
"i 	c #3F5578",
"j 	c #576A88",
"k 	c #DEE2E8",
"l 	c #EBEDF1",
"m 	c #687994",
"n 	c #3C5275",
"o 	c #8392A8",
"p 	c #FDFDFD",
"q 	c #BDC4D0",
"r 	c #3E5477",
"s 	c #2E415F",
"t 	c #1D2A3D",
"u 	c #A6B0C0",
"v 	c #E9ECF0",
"w 	c #C8CED8",
"x 	c #42587A",
"y 	c #EFF1F3",
"z 	c #FBFCFC",
"A 	c #CBD1DA",
"B 	c #F7F8F9",
"C 	c #FAFAFB",
"D 	c #F4F5F7",
"E 	c #D8DCE3",
"F 	c #D3D8E0",
"G 	c #1D293C",
"H 	c #5F728E",
"I 	c #5A6D8A",
"J 	c #637591",
"K 	c #EEF0F3",
"L 	c #44597B",
"M 	c #8A97AC",
"N 	c #667893",
"O 	c #2E4160",
"P 	c #576B89",
"Q 	c #C8CFD8",
"R 	c #6B7C97",
"S 	c #B4BDCA",
"T 	c #96A2B5",
"U 	c #2F4261",
"V 	c #1D293B",
"W 	c #7F8DA4",
"X 	c #E8EAEE",
"Y 	c #ECEFF2",
"Z 	c #8694A9",
"` 	c #AFB8C6",
" .	c #6D7D98",
"..	c #A4AFBF",
"+.	c #4E6282",
"@.	c #4A5F7F",
"#.	c #A7B1C1",
"$.	c #395073",
"%.	c #F1F3F5",
"&.	c #9CA7B9",
"*.	c #CED3DC",
"=.	c #98A4B6",
"-.	c #F2F3F6",
";.	c #8492A8",
">.	c #E1E5EA",
",.	c #6C7D97",
"'.	c #76869E",
").	c #9CA8B9",
"!.	c #F3F4F6",
"~.	c #8593A9",
"{.	c #8795AA",
"].	c #ABB5C4",
"^.	c #FCFCFD",
"/.	c #72829C",
"(.	c #FEFEFE",
"_.	c #A8B2C2",
":.	c #DDE1E7",
"<.	c #D2D7DF",
"[.	c #FBFBFC",
"}.	c #BDC5D1",
"|.	c #9FAABB",
"1.	c #E2E6EB",
"2.	c #2E415E",
"3.	c #3A5174",
"4.	c #7E8DA4",
"5.	c #6D7E98",
"6.	c #78879F",
"7.	c #808FA5",
"8.	c #2D3F5D",
"9.	c #3A5074",
"0.	c #B6BECB",
"a.	c #60728F",
"b.	c #2B3D5A",
"c.	c #182131",
"d.	c #172130",
"e.	c #17202F",
"f.	c #16202E",
"g.	c #161F2E",
"h.	c #161F2D",
"i.	c #151E2C",
"j.	c #151E2B",
"k.	c #182231",
"l.	c #182232",
"m.	c #182333",
"n.	c #192333",
"o.	c #141C29",
". + + @ @ # # $ $ $ $ % % % & & * * * * = - - ; ; > > , , , , ' ) ) ) ) ! ! ~ ~ ~ ~ ~ ~ ~ ~ ~ { { { { { { { { { { { { { { { { { { { { { { { { { { { { ] % ",
"^ / / / / / / / / / / / / / / / / / / / / / / / / / / / / / / / / / / / / / / / / / / / / / / / / / / / / / / / / / / / / / / / / / / / / / / / / / / / ( ",
"_ / / / / / / / / / / / / / / / / / / / / / / / / / / / / / / / / / / / / / / / / / / / / / / / / / / / / / / / / / / / / / / / / / / / / / / / / / / / : ",
"< / / / / / / / / / / / / / / / / / / / / / / / / / / / / / / / / / / / / / / / / / / / / / / / / / / / / / / / / / / / / / / / / / / / / / / / / / / / [ ",
"< / / / / / / / / / / / / / / / / / / / / / / / / / / / / / / / / / / / / / / / / / / / / / / / / / / / / / / / / / / / / / / / / / / / / / / / / / / / [ ",
"} / / / / / / / / / / / / / / / / / / / / / / / / / / / | 1 2 / / / / / / / / / / / / / / / / / / / / / / / / / / / / / / / / / / / / / / / / / / / / / 3 ",
"4 / / / / / / / / / / / / / / / / / / / / / / / / / / / 5 6 7 / / / / / / / / / / / / / / / / / / / / / / / / / / / / / / / / / / / / / / / / / / / / / 3 ",
"8 / / / / / / / / / / / / / / / / / / / / / / / / / / / 5 6 7 / / / / / 9 0 / / / / / a a / / b / / / / / / / / / / / / / / / / / / / / / / / / / / / / c ",
"d / / / / / / / / / / / / / / / / / / / / / / / / / / e f 6 g h i j k 6 6 6 l m / / n 6 6 o 7 6 p q r / / / / / / / / / / / / / / / / / / / / / / / / / s ",
"t / / / / / / / / / / / / / / / / / / / / / / / / / / u v 6 f w x y 6 z A B 6 C 0 / n 6 6 D p E 6 6 F / / / / / / / / / / / / / / / / / / / / / / / / / s ",
"G / / / / / / / / / / / / / / / / / / / / / / / / / / / 5 6 7 / H B g | / I 6 6 J / n 6 6 K L / M 6 6 N / / / / / / / / / / / / / / / / / / / / / / / / O ",
"G / / / / / / / / / / / / / / / / / / / / / / / / / / / 5 6 7 / / / / P o Q 6 6 R / n 6 6 S / / i C 6 T / / / / / / / / / / / / / / / / / / / / / / / / U ",
"V / / / / / / / / / / / / / / / / / / / / / / / / / / / 5 6 7 / / W X 6 6 Y 6 6 R / n 6 6 Z / / / F 6 ` / / / / / / / / / / / / / / / / / / / / / / / / U ",
"G / / / / / / / / / / / / / / / / / / / / / / / / / / / 5 6 7 /  .6 6 ..+.@.6 6 R / n 6 6 #./ / $.%.6 &./ / / / / / / / / / / / / / / / / / / / / / / / U ",
"G / / / / / / / / / / / / / / / / / / / / / / / / / / / 5 6 *./ =.6 -./ / ;.6 6 R / n 6 6 >.a / ,.6 6 './ / / / / / / / / / / / / / / / / / / / / / / / O ",
"t / / / / / / / / / / / / / / / / / / / / / / / / / / / ).6 !.~.{.6 6 F ].^.6 6 /./ n 6 6 (.k _.!.6 :.$./ / / / / / / / / / / / / / / / / / / / / / / / s ",
"d / / / / / / / / / / / / / / / / / / / / / / / / / / / j (.6 6 b <.6 6 [.M Y 6 }./ n 6 6 |.!.6 6 1.| / / / / / / / / / / / / / / / / / / / / / / / / / 2.",
"8 / / / / / / / / / / / / / / / / / / / / / / / / / / / / 3.4.5.$./ I W x / / / / / n 6 6 6.i 7.1 3./ / / / / / / / / / / / / / / / / / / / / / / / / / c ",
"4 / / / / / / / / / / / / / / / / / / / / / / / / / / / / / / / / / / / / / / / / / n 6 6 6./ / / / / / / / / / / / / / / / / / / / / / / / / / / / / / 3 ",
"4 / / / / / / / / / / / / / / / / / / / / / / / / / / / / / / / / / / / / / / / / / n 6 6 6./ / / / / / / / / / / / / / / / / / / / / / / / / / / / / / 8.",
"< / / / / / / / / / / / / / / / / / / / / / / / / / / / / / / / / / / / / / / / / / 9.0.0.a./ / / / / / / / / / / / / / / / / / / / / / / / / / / / / / [ ",
"< / / / / / / / / / / / / / / / / / / / / / / / / / / / / / / / / / / / / / / / / / / / / / / / / / / / / / / / / / / / / / / / / / / / / / / / / / / / : ",
"_ / / / / / / / / / / / / / / / / / / / / / / / / / / / / / / / / / / / / / / / / / / / / / / / / / / / / / / / / / / / / / / / / / / / / / / / / / / / : ",
"^ / / / / / / / / / / / / / / / / / / / / / / / / / / / / / / / / / / / / / / / / / / / / / / / / / / / / / / / / / / / / / / / / / / / / / / / / / / / b.",
"# c.c.c.d.d.d.d.d.d.e.e.e.e.e.e.f.f.f.f.f.f.g.g.h.h.h.h.h.h.i.i.i.i.i.i.j.j.j.j.i.i.i.i.h.h.h.h.g.g.f.f.f.f.e.e.e.e.d.d.d.d.c.c.k.k.l.l.l.l.m.m.n.n.n.n.o."};
