/* XPM */
static char *trig_selected[] = {
/* columns rows colors chars-per-pixel */
"46 25 35 1",
"  c #101621",
". c #141C29",
"X c #141C2A",
"o c #141D2A",
"O c #151D2B",
"+ c #151E2B",
"@ c #151E2C",
"# c #161F2D",
"$ c #161F2E",
"% c #16202E",
"& c #17202F",
"* c #172130",
"= c #182131",
"- c #182231",
"; c #202D42",
": c #202E43",
"> c #212E44",
", c #212F44",
"< c #212F45",
"1 c #223046",
"2 c #223047",
"3 c #233148",
"4 c #233249",
"5 c #24334A",
"6 c #24334B",
"7 c #2F7868",
"8 c #468779",
"9 c #5D9689",
"0 c #74A59A",
"q c #8BB4AB",
"w c #A2C3BB",
"e c #BAD2CD",
"r c #D1E1DD",
"t c #E7F0EE",
"y c gray100",
/* pixels */
"777777777777777777777777777777777777777777777;",
"777777777777777777777777777777777777777777777;",
"777777777777777777777777777777777777777777777;",
"777777777777777777777777777777777777777777777:",
"777777777777777777777777777777777777777777777:",
"777777777777777777777777777777777777777777777:",
"777777777777777777777777009777777777777777777:",
"7777777779ee977777777777yye777777777777777777:",
"7777777770yy077777777777eeq777777777777777777:",
"777777779wyyw00780089eq7009777qew890077777777:",
"77777777eyyyyyy70yyeyye7yye77eyyyytyy77777777:",
"77777777qryyree70yyyw007yye79yyt0eyyy77777777:",
"7777777770yy07770yyw7777yye7wyy877tyy77777777:",
"7777777770yy07770yy07777yye7eyy777eyy777777771",
"7777777770yy07770yy07777yye7eyy777ryy77777777:",
"7777777770yyq7770yy07777yye70yyw70yyy777777772",
"7777777778yyyye70yy07777yye77tyyyyyyy777777772",
"77777777770tyye70yy07777yye778rytqeyy777777772",
"7777777777777777777777777777777777tyt777777772",
"77777777777777777777777777777ww00ryyq777777774",
"77777777777777777777777777777eyyyyyq7777777772",
"7777777777777777777777777777777777777777777774",
"7777777777777777777777777777777777777777777775",
"7777777777777777777777777777777777777777777775",
"XXXXXX%.XXXXXXXXX......XXXXXX%X%%%%%%%&&%-%-& "
};
