/* XPM */
static char *undo_focus[] = {
/* columns rows colors chars-per-pixel */
"57 52 100 2",
"   c black",
".  c #000101",
"X  c #010101",
"o  c #010102",
"O  c #010203",
"+  c #020203",
"@  c #020304",
"#  c #020305",
"$  c #030406",
"%  c #040608",
"&  c #050609",
"*  c #05070A",
"=  c #06090D",
"-  c #070A0E",
";  c #070A0F",
":  c #080C11",
">  c #090C12",
",  c #090D12",
"<  c #090D13",
"1  c #0A0E14",
"2  c #0A0E15",
"3  c #0A0F15",
"4  c #0B1017",
"5  c #0C1118",
"6  c #0D131C",
"7  c #0E141D",
"8  c #0F151F",
"9  c #111822",
"0  c #121925",
"q  c #131B28",
"w  c #141C29",
"e  c #151E2C",
"r  c #161F2E",
"t  c #17202F",
"y  c #182232",
"u  c #182333",
"i  c #192333",
"p  c #192435",
"a  c #1B2739",
"s  c #1D293C",
"d  c #1E2B3F",
"f  c #1F2C40",
"g  c #1F2C41",
"h  c #202D42",
"j  c #202E43",
"k  c #212E44",
"l  c #212F44",
"z  c #212F45",
"x  c #223046",
"c  c #223047",
"v  c #223147",
"b  c #233148",
"n  c #233248",
"m  c #233249",
"M  c #24324A",
"N  c #24334A",
"B  c #24334B",
"V  c #24344C",
"C  c #25344C",
"Z  c #25354D",
"A  c #26354E",
"S  c #26364E",
"D  c #26364F",
"F  c #263650",
"G  c #273852",
"H  c #293A55",
"J  c #293B56",
"K  c #2A3B57",
"L  c #2B3D59",
"P  c #2B3D5A",
"I  c #2C3E5A",
"U  c #2C3E5B",
"Y  c #304463",
"T  c #314667",
"R  c #364D71",
"E  c #3A5379",
"W  c #3D577E",
"Q  c #3D5880",
"!  c #3E5981",
"~  c #3F5A82",
"^  c #3F5B84",
"/  c #405C87",
"(  c #415D86",
")  c #425E87",
"_  c #415D88",
"`  c #415F88",
"'  c #425E89",
"]  c #425F8B",
"[  c #435F8A",
"{  c #43608C",
"}  c #44608B",
"|  c #587199",
" . c #6C83A5",
".. c #8295B2",
"X. c #96A6BF",
"o. c #ABB8CC",
"O. c #C0CAD9",
"+. c #D5DBE5",
"@. c #EAEDF2",
"#. c gray100",
/* pixels */
"                                                                                      1 w d N G U E Q { { { { { z ",
"                                                                              = j U { { { { { { { { { { { { { { z ",
"                                                                        = p T { { { { { { { { { { { { { { { { { b ",
"                                                                    w J { { ] { { { { { { { { { { { { { { { { { z ",
"                                                              @ t Q { { { { { { { { { { { { { { { { { { { { { { v ",
"                                                            e Q { { { { { { { { { { { { { { { { { { { { { { { { z ",
"                                                        w E { { { { { { { { { { { { { { { { { { { { { { { { { { v ",
"                                                    > U { { { { { { { { { { { { { { { { { { { { { { { { { { { { b ",
"                                                  p _ { { { { { { { { { { { { { { { { { { { { { { { { { { { { { N ",
"                                              ; J { { { { { { { { { { { { { { { { { { { { { { { { { { { { { { { N ",
"                                            e _ { { { { { { { { { { { { { { { { { { { { { { { { { { { { { { { { b ",
"                                          D { { { { { { { { { { { { { { { { { { { { { { { { { { { { { { { { { { b ",
"                                      * J { { { { { { { { { { { { { { { { { { { { { { { { { { { { { { { { { { { N ",
"                                    ; R { { { { { { { { { { { { { { { { { { { { { { { { { { { { { { { { { { { { v ",
"                                  4 ( } { { { { { { { { { { { { { { { { { { { { { { { { { { { { { { { { { { { { N ",
"                                8 ( } } { { { { { { { { { { { { { { { { { { { { { { { { { { { { { { { { { { { { N ",
"                              8 _ { { { { { { { { { { { { { { { { { { { { { { { { { { { { { { { { { { { { { { { m ",
"                            > Q { { { { { { { { { { { { { { { { { { { { { { { { { { { { { { { { { { { { { { { { m ",
"                          * W { { { { { { { { { { { { { { { { { { { { { { { { { { { { { { { { { { { { { { { { { C ",
"                        @ I { { { { { { { { { { { { { { { { { { { { { { { { { { { { { { { { { { { { { { { { { { m ",
"                        D } { { { { { { { { { { { { { { { { { { { { { { { { { { { { { { { { { { { { { { { { { { D ",
"                      s { { { { { { { { { { { { { { { { { { { { { { { { { { { { { { { { { { { { { { { { { { { { C ",
"                    8 } { { { { { { { { { { { { { { { { { { { { { { { { { { { { { { { { { { { { { { { { { { { ] C ",
"                  @ W } { { { { { { { { { { { { { { { { { { { { { { { { { { { { { { { { { { { { { { { { { { { ] C ",
"                  v { { { { { { { { { { { { { { { { { { { { { { { { { { { { { { { { { { { { { { { { { { { { { { C ",
"                0 { { { { { { { { { { { { { { { { { { { { { { { { { { { { { { { { { { { { { { { { { { { { { { { D ",
"              * Q { { { { { { { { { { { { { { { { { { { { { { { { { { { { { { { { { { { { { { { { { { { { { { { D ",
"              N { { { { { { { { { { { { { { { { { { { { { { { { { { { { { { { { { { { { { { { { { { { { { { { { C ",
"            1 } { { { { { { { { { { { { { { { { { { { { { { { { { { { { { { { { { { { { { { { { { { { { { { { { C ",
"            D { { { { { { { { { { { { { { { { { { { { { { { { { { { { { { { { { { { { { { { { { { { { { { { { { C ",
"          1 } { { { { { { { { { { { { { { { { { { { { { { { { { { { { { { { { { { { { { { { { { { { { { { { { { N ",
"          D { { { { { { { { { { { { { { { { { { { { { { { { { { { { { { { { { { { { { { { { { { { { { { { { { { N ",
"        4 { { { { { { { { { { { { { { { { { { { { { { { { { { { { { { { { { #.#.O.{ { { { { { { { { { { { { { { m ",
"        F { { { { { { { { { { { { { { { { { { { { { { { { { { { { { { { { { #.#.O.{ { { { { { { { { { { { { { { N ",
"      = } { { { { { { { { { { { { { { { { { { { { { { { { { { { { { { { { { #.#.O.{ { { { { { { { { { { { { { { m ",
"      i { { { { { X.O.O.{ { { X.O.O.{ {  .O.O. .o.#.#.+.| { { { | o.#.#.+.| #.#.O.{ { {  .O.#.#.#.O. .{ { { { { m ",
"      I { { { { { O.#.#.{ { { O.#.#.{ { ..#.#.#.#.#.#.#.@.{ { { O.#.#.#.#.#.#.#.O.{ { ..#.#.#.#.#.#.#...{ { { { m ",
"    > { { { { { { O.#.#.{ { { O.#.#.{ { ..#.#.@. .{ O.#.#...{  .#.#.@.| { O.#.#.O.{ { @.#.#...{ ..#.#.@.{ { { { m ",
"    a { { { { { { O.#.#.{ { { O.#.#.{ { ..#.#.X.{ { ..#.#...{ O.#.#.X.{ { | #.#.O.{  .#.#.+.{ { { +.#.#. .{ { { v ",
"    R { { { { { { O.#.#.{ { { O.#.#.{ { ..#.#...{ { ..#.#...{ O.#.#...{ { { #.#.O.{ ..#.#.O.{ { { O.#.#...{ { { v ",
"  1 { { { { { { { O.#.#.{ { { O.#.#.{ { ..#.#...{ { ..#.#...{ O.#.#...{ { { #.#.O.{ ..#.#.O.{ { { O.#.#...{ { { m ",
"  t { { { { { { { O.#.#.| { | #.#.#.{ { ..#.#...{ { ..#.#...{ X.#.#.+.{ { X.#.#.O.{ { #.#.#.| { | #.#.#.{ { { { v ",
"  v { { { { { { { X.#.#.@.O.@.#.#.#.{ { ..#.#...{ { ..#.#...{ | @.#.#.+.O.#.#.#.O.{ { o.#.#.@.O.@.#.#.o.{ { { { v ",
"  T { { { { { { { { O.#.#.#.O.+.#.#.{ { ..#.#...{ { ..#.#...{ { ..@.#.#.#.o.#.#.O.{ { { o.#.#.#.#.#.o.{ { { { { g ",
"@ ] { { { { { { { { {  ... .{ { { { { { { { { { { { { { { { { { { { ....| { { { { { { { { { ......{ { { { { { { v ",
"5 { { { { { { { { { { { { { { { { { { { { { { { { { { { { { { { { { { { { { { { { { { { { { { { { { { { { { { { g ",
"0 { { { { { { { { { { { { { { { { { { { { { { { { { { { { { { { { { { { { { { { { { { { { { { { { { { { { { { { v ",
"i { { { { { { { { { { { { { { { { { { { { { { { { { { { { { { { { { { { { { { { { { { { { { { { { { { { { { { { g ",
"s { { { { { { { { { { { { { { { { { { { { { { { { { { { { { { { { { { { { { { { { { { { { { { { { { { { { { { { g ",
"z { { { { { { { { { { { { { { { { { { { { { { { { { { { { { { { { { { { { { { { { { { { { { { { { { { { { { { { g ",
"z { { { { { { { { { { { { { { { { { { { { { { { { { { { { { { { { { { { { { { { { { } } { { { { { { { { { { { { g ",
"v { { { { { { { { { { { { { { { _ { [ _ _ _ } _ _ _ ( _ ( ( ( _ ^ _ _ _ _ _ _ _ ^ ^ } } } } ^ { } } } ^ } } { { f "
};
