/* XPM */
static char * undo_selected_xpm[] = {
"57 52 203 2",
"  	c None",
". 	c #000000",
"+ 	c #000101",
"@ 	c #090D13",
"# 	c #131B28",
"$ 	c #1F2C40",
"% 	c #24334A",
"& 	c #273852",
"* 	c #2B3D5A",
"= 	c #29625A",
"- 	c #2C6F60",
"; 	c #307767",
"> 	c #2F7868",
", 	c #212F45",
"' 	c #070A0E",
") 	c #202E43",
"! 	c #2C3E5B",
"~ 	c #06090D",
"{ 	c #192435",
"] 	c #2C475B",
"^ 	c #223046",
"/ 	c #141C29",
"( 	c #293A55",
"_ 	c #010203",
": 	c #17202F",
"< 	c #2A6B5C",
"[ 	c #010102",
"} 	c #151E2C",
"| 	c #2A695B",
"1 	c #223047",
"2 	c #010101",
"3 	c #223147",
"4 	c #090C12",
"5 	c #2C3E5A",
"6 	c #233148",
"7 	c #182333",
"8 	c #2E7364",
"9 	c #070A0F",
"0 	c #293B56",
"a 	c #161F2E",
"b 	c #2D7263",
"c 	c #233248",
"d 	c #020203",
"e 	c #26364E",
"f 	c #040608",
"g 	c #2A3B57",
"h 	c #233249",
"i 	c #2A575B",
"j 	c #0B1017",
"k 	c #2B6C5D",
"l 	c #24324A",
"m 	c #0F151F",
"n 	c #0E141D",
"o 	c #2E7565",
"p 	c #090D12",
"q 	c #24334B",
"r 	c #05070A",
"s 	c #29685A",
"t 	c #020304",
"u 	c #2B3D59",
"v 	c #26354E",
"w 	c #24344C",
"x 	c #1D293C",
"y 	c #25344C",
"z 	c #0D131C",
"A 	c #030406",
"B 	c #25354D",
"C 	c #111822",
"D 	c #050609",
"E 	c #2B6E5F",
"F 	c #0A0E14",
"G 	c #0A0F15",
"H 	c #556987",
"I 	c #6C7D97",
"J 	c #6B7C97",
"K 	c #26364F",
"L 	c #ABB4C3",
"M 	c #FFFFFF",
"N 	c #FBFCFC",
"O 	c #263650",
"P 	c #D2D7DF",
"Q 	c #DCE0E6",
"R 	c #9EA9BA",
"S 	c #A3ADBE",
"T 	c #CDD3DC",
"U 	c #C2C9D4",
"V 	c #AEB7C6",
"W 	c #60728F",
"X 	c #C8CED8",
"Y 	c #F8F9FA",
"Z 	c #E2E6EB",
"` 	c #ACB6C4",
" .	c #337A6A",
"..	c #4B687F",
"+.	c #B6BECB",
"@.	c #F7F8FA",
"#.	c #D9DDE4",
"$.	c #8694A9",
"%.	c #387D6E",
"&.	c #ADB6C5",
"*.	c #FAFAFB",
"=.	c #DADFE5",
"-.	c #B0B9C7",
";.	c #3C7F70",
">.	c #192333",
",.	c #F2F3F6",
"'.	c #B4BDCA",
").	c #B9C1CE",
"!.	c #ECEFF2",
"~.	c #E0E3E9",
"{.	c #E1E5EA",
"].	c #9AA6B8",
"^.	c #627490",
"/.	c #E1E4E9",
"(.	c #526685",
"_.	c #F7F8F9",
":.	c #F9FAFB",
"<.	c #5B6E8B",
"[.	c #667793",
"}.	c #8D9AAE",
"|.	c #E3E6EB",
"1.	c #D6DAE2",
"2.	c #566988",
"3.	c #C1C8D3",
"4.	c #C3CAD4",
"5.	c #8392A8",
"6.	c #3F8273",
"7.	c #7E8DA4",
"8.	c #CFD5DD",
"9.	c #080C11",
"0.	c #F0F2F5",
"a.	c #377C6C",
"b.	c #FEFEFE",
"c.	c #5E708D",
"d.	c #A7B1C1",
"e.	c #45757A",
"f.	c #9CA8B9",
"g.	c #1B2739",
"h.	c #C7CDD7",
"i.	c #71829B",
"j.	c #D3D8E0",
"k.	c #687994",
"l.	c #72829C",
"m.	c #74849D",
"n.	c #C6CDD7",
"o.	c #8A98AD",
"p.	c #BBC3CF",
"q.	c #697A95",
"r.	c #8290A7",
"s.	c #0A0E15",
"t.	c #BCC4D0",
"u.	c #CCD2DB",
"v.	c #6F7F99",
"w.	c #8E9BAF",
"x.	c #317868",
"y.	c #EDEFF2",
"z.	c #576A88",
"A.	c #7D8CA3",
"B.	c #657692",
"C.	c #F3F4F6",
"D.	c #71819A",
"E.	c #3D8071",
"F.	c #DADEE5",
"G.	c #347B6B",
"H.	c #77869F",
"I.	c #377C6D",
"J.	c #367B6C",
"K.	c #3A7F6F",
"L.	c #B7BFCC",
"M.	c #FDFDFD",
"N.	c #DFE3E8",
"O.	c #F4F5F7",
"P.	c #C8CFD8",
"Q.	c #FCFCFD",
"R.	c #808FA5",
"S.	c #B9C1CD",
"T.	c #EFF1F3",
"U.	c #8C99AE",
"V.	c #2B4B5B",
"W.	c #4F6383",
"X.	c #F1F3F5",
"Y.	c #B2BBC9",
"Z.	c #D7DBE2",
"`.	c #8794AA",
" +	c #020305",
".+	c #2E7766",
"++	c #6E7F99",
"@+	c #586B89",
"#+	c #506483",
"$+	c #8492A8",
"%+	c #667893",
"&+	c #8795AA",
"*+	c #397E6E",
"=+	c #0C1118",
"-+	c #212F44",
";+	c #121925",
">+	c #212E44",
",+	c #182232",
"'+	c #1E2B3F",
")+	c #202D42",
"!+	c #2F7666",
"~+	c #2E7362",
"{+	c #1F2C41",
". . . . . . . . . . . . . . . . . . . . . . . . . . . . . . . . . . . . . . . . . . + @ # $ % & * = - ; > > > > , ",
". . . . . . . . . . . . . . . . . . . . . . . . . . . . . . . . . . . . . . . ' ) ! ; > > > > > > > > > > > > > , ",
". . . . . . . . . . . . . . . . . . . . . . . . . . . . . . . . . . . . ~ { ] > > > > > > > > > > > > > > > > > ^ ",
". . . . . . . . . . . . . . . . . . . . . . . . . . . . . . . . . + / ( > > > > > > > > > > > > > > > > > > > > ^ ",
". . . . . . . . . . . . . . . . . . . . . . . . . . . . . . . _ : < > > > > > > > > > > > > > > > > > > > > > > ^ ",
". . . . . . . . . . . . . . . . . . . . . . . . . . . . . [ } | > > > > > > > > > > > > > > > > > > > > > > > > 1 ",
". . . . . . . . . . . . . . . . . . . . . . . . . . . 2 / = > > > > > > > > > > > > > > > > > > > > > > > > > > 3 ",
". . . . . . . . . . . . . . . . . . . . . . . . . . 4 5 > > > > > > > > > > > > > > > > > > > > > > > > > > > > 6 ",
". . . . . . . . . . . . . . . . . . . . . . . . + 7 8 > > > > > > > > > > > > > > > > > > > > > > > > > > > > > 6 ",
". . . . . . . . . . . . . . . . . . . . . . . 9 0 > > > > > > > > > > > > > > > > > > > > > > > > > > > > > > > 6 ",
". . . . . . . . . . . . . . . . . . . . . . a b > > > > > > > > > > > > > > > > > > > > > > > > > > > > > > > > c ",
". . . . . . . . . . . . . . . . . . . . d e > > > > > > > > > > > > > > > > > > > > > > > > > > > > > > > > > > c ",
". . . . . . . . . . . . . . . . . . . f g > > > > > > > > > > > > > > > > > > > > > > > > > > > > > > > > > > > h ",
". . . . . . . . . . . . . . . . . . ' i > > > > > > > > > > > > > > > > > > > > > > > > > > > > > > > > > > > > h ",
". . . . . . . . . . . . . . . . . j k > > > > > > > > > > > > > > > > > > > > > > > > > > > > > > > > > > > > > l ",
". . . . . . . . . . . . . . . . m 8 > > > > > > > > > > > > > > > > > > > > > > > > > > > > > > > > > > > > > > l ",
". . . . . . . . . . . . . . . n o > > > > > > > > > > > > > > > > > > > > > > > > > > > > > > > > > > > > > > > % ",
". . . . . . . . . . . . . . p - > > > > > > > > > > > > > > > > > > > > > > > > > > > > > > > > > > > > > > > > q ",
". . . . . . . . . . . . . r s > > > > > > > > > > > > > > > > > > > > > > > > > > > > > > > > > > > > > > > > > q ",
". . . . . . . . . . . . t u > > > > > > > > > > > > > > > > > > > > > > > > > > > > > > > > > > > > > > > > > > q ",
". . . . . . . . . . . + v > > > > > > > > > > > > > > > > > > > > > > > > > > > > > > > > > > > > > > > > > > > w ",
". . . . . . . . . . . x > > > > > > > > > > > > > > > > > > > > > > > > > > > > > > > > > > > > > > > > > > > > y ",
". . . . . . . . . . z ; > > > > > > > > > > > > > > > > > > > > > > > > > > > > > > > > > > > > > > > > > > > > y ",
". . . . . . . . . A s > > > > > > > > > > > > > > > > > > > > > > > > > > > > > > > > > > > > > > > > > > > > > y ",
". . . . . . . . . ^ > > > > > > > > > > > > > > > > > > > > > > > > > > > > > > > > > > > > > > > > > > > > > > B ",
". . . . . . . . C > > > > > > > > > > > > > > > > > > > > > > > > > > > > > > > > > > > > > > > > > > > > > > > B ",
". . . . . . . D E > > > > > > > > > > > > > > > > > > > > > > > > > > > > > > > > > > > > > > > > > > > > > > > B ",
". . . . . . . l > > > > > > > > > > > > > > > > > > > > > > > > > > > > > > > > > > > > > > > > > > > > > > > > y ",
". . . . . . F ; > > > > > > > > > > > > > > > > > > > > > > > > > > > > > > > > > > > > > > > > > > > > > > > > y ",
". . . . . . B > > > > > > > > > > > > > > > > > > > > > > > > > > > > > > > > > > > > > > > > > > > > > > > > > w ",
". . . . . G > > > > > > > > > > > > > > > > > > > > > > > > > > > > > > > > H I J > > > > > > > > > > > > > > > q ",
". . . . . K > > > > > > > > > > > > > > > > > > > > > > > > > > > > > > > > L M N > > > > > > > > > > > > > > > q ",
". . . . j > > > > > > > > > > > > > > > > > > > > > > > > > > > > > > > > > L M N > > > > > > > > > > > > > > > % ",
". . . . O > > > > > > > > > > > > > > > > > > > > > > > > > > > > > > > > > L M N > > > > > > > > > > > > > > > l ",
". . . ~ ; > > > > > P Q R > > > S Q T > > U Q V W X Y Z `  .> > > ..+.@.#.$.L M N > > > %.&.#.*.=.-.;.> > > > > h ",
". . . >.> > > > > > ,.M '.> > > ).M !.> > ~.M {.Y M M M M ].> > ^.*.M M M M /.M N > > (._.M M M M M :.<.> > > > h ",
". . . ! > > > > > > ,.M '.> > > ).M !.> > ~.M M X [.}.Y M |.> > 1.M :.$.2.3.M M N > > 4.M N 5.6.7.Y M 8.> > > > c ",
". . 9.> > > > > > > ,.M '.> > > ).M !.> > ~.M 0.a.> > 4.M b.> c.M M d.> > ;.N M N > e.M M L > > > f.M M 2.> > > 6 ",
". . g.> > > > > > > ,.M '.> > > ).M !.> > ~.M h.> > > d.M M > 7.M M i.> > > j.M N > k.M M l.> > > [.M M m.> > > 6 ",
". . i > > > > > > > ,.M '.> > > ).M !.> > ~.M n.> > > d.M M > o.M M <.> > > p.M N > m.M M q.> > > <.M M r.> > > 3 ",
". s.> > > > > > > > ,.M t.> > > u.M !.> > ~.M n.> > > d.M M > v.M M w.> > x.y.M N > z.M M o.> > > A.M M B.> > > 1 ",
". : > > > > > > > > |.M C.;.> D.b.M !.> > ~.M n.> > > d.M M > E.Y M F.G.> H.M M N >  .C.M |.I.> J.Q M @.K.> > > ^ ",
". ^ > > > > > > > > L.M M M.N.M N M !.> > ~.M n.> > > d.M M > > d.M M O.P.Q.M M N > > R.M M 0.S.T.M M U.> > > > ^ ",
". V.> > > > > > > > W.X.M M M +.t.M !.> > ~.M n.> > > d.M M > > G.Y.M M M Z.p.M N > > > `.O.M M M _.w.x.> > > > , ",
" +.+> > > > > > > > > a.++`.@+> > > > > > > > > > > > > > > > > > > #+$+%+G.> > > > > > > %.%+&+k.*+> > > > > > , ",
"=+> > > > > > > > > > > > > > > > > > > > > > > > > > > > > > > > > > > > > > > > > > > > > > > > > > > > > > > -+",
";+> > > > > > > > > > > > > > > > > > > > > > > > > > > > > > > > > > > > > > > > > > > > > > > > > > > > > > > >+",
",+> > > > > > > > > > > > > > > > > > > > > > > > > > > > > > > > > > > > > > > > > > > > > > > > > > > > > > > ) ",
"'+> > > > > > > > > > > > > > > > > > > > > > > > > > > > > > > > > > > > > > > > > > > > > > > > > > > > > > > ) ",
"-+> > > > > > > > > > > > > > > > > > > > > > > > > > > > > > > > > > > > > > > > > > > > > > > > > > > > > > > )+",
", > > > > > > > > > > > > > > > > > > > > > > > > > > > > > > > > > > > > > > > > > > > > > > > > > > > > > > > )+",
"^ > > > > > > > > > > > > > > ; .+!+!+o o o ~+8 8 8 b b b b b b b 8 8 8 8 8 8 8 8 ~+~+~+o o o o o !+!+!+!+!+!+.+{+"};
