/* XPM */
static char *undo_selected[] = {
/* columns rows colors chars-per-pixel */
"57 52 99 2",
"   c black",
".  c #000101",
"X  c #010101",
"o  c #010102",
"O  c #010203",
"+  c #020203",
"@  c #020304",
"#  c #020305",
"$  c #030406",
"%  c #040608",
"&  c #050609",
"*  c #05070A",
"=  c #06090D",
"-  c #070A0E",
";  c #070A0F",
":  c #080C11",
">  c #090C12",
",  c #090D12",
"<  c #090D13",
"1  c #0A0E14",
"2  c #0A0E15",
"3  c #0A0F15",
"4  c #0B1017",
"5  c #0C1118",
"6  c #0D131C",
"7  c #0E141D",
"8  c #0F151F",
"9  c #111822",
"0  c #121925",
"q  c #131B28",
"w  c #141C29",
"e  c #151E2C",
"r  c #161F2E",
"t  c #17202F",
"y  c #182232",
"u  c #182333",
"i  c #192333",
"p  c #192435",
"a  c #1B2739",
"s  c #1D293C",
"d  c #1E2B3F",
"f  c #1F2C40",
"g  c #1F2C41",
"h  c #202D42",
"j  c #202E43",
"k  c #212E44",
"l  c #212F44",
"z  c #212F45",
"x  c #223046",
"c  c #223047",
"v  c #223147",
"b  c #233148",
"n  c #233248",
"m  c #233249",
"M  c #24324A",
"N  c #24334A",
"B  c #24334B",
"V  c #24344C",
"C  c #25344C",
"Z  c #25354D",
"A  c #26354E",
"S  c #26364E",
"D  c #26364F",
"F  c #263650",
"G  c #273852",
"H  c #293A55",
"J  c #293B56",
"K  c #2A3B57",
"L  c #2B3D59",
"P  c #2B3D5A",
"I  c #2C3E5A",
"U  c #2C3E5B",
"Y  c #2C475B",
"T  c #2B4B5B",
"R  c #2A575B",
"E  c #29625A",
"W  c #29685A",
"Q  c #2A695B",
"!  c #2A6B5C",
"~  c #2B6C5D",
"^  c #2B6E5F",
"/  c #2C6F60",
"(  c #2D7263",
")  c #2E7362",
"_  c #2E7364",
"`  c #2E7565",
"'  c #2E7766",
"]  c #2F7666",
"[  c #2F7868",
"{  c #307767",
"}  c #468779",
"|  c #5D9689",
" . c #74A59A",
".. c #8BB4AB",
"X. c #A2C3BB",
"o. c #BAD2CD",
"O. c #D1E1DD",
"+. c #E7F0EE",
"@. c gray100",
/* pixels */
"                                                                                      > w d B G U E ( { ' [ [ [ z ",
"                                                                              - x U [ [ [ [ ' [ [ [ [ [ ' [ [ [ z ",
"                                                                        = p Y [ [ [ [ [ [ [ [ [ [ [ [ [ [ [ [ [ z ",
"                                                                    w J [ [ [ [ [ [ [ [ [ [ [ [ [ [ [ [ [ [ [ [ v ",
"                                                              @ t ~ ' [ [ [ [ [ [ [ [ [ [ [ [ [ [ [ [ [ [ [ [ [ v ",
"                                                            e Q [ [ [ [ [ [ [ [ [ [ [ [ [ [ [ [ [ [ [ [ [ [ [ [ v ",
"                                                        w E [ [ [ [ [ [ [ [ [ [ [ [ [ [ [ [ [ [ [ [ [ [ [ [ [ [ v ",
"                                                    > U [ [ [ [ [ [ [ [ [ [ [ [ [ [ [ [ [ [ [ [ [ [ [ [ [ [ [ [ v ",
"                                                  p _ [ [ [ [ [ [ [ [ [ [ [ [ [ [ [ [ [ [ [ [ [ [ [ [ [ [ [ [ [ M ",
"                                              ; J [ [ [ [ [ [ [ [ [ [ [ [ [ [ [ [ [ [ [ [ [ [ [ [ [ [ [ [ [ [ [ v ",
"                                            e _ [ [ [ [ [ [ [ [ [ [ [ [ [ [ [ [ [ [ [ [ [ [ [ [ [ [ [ [ [ [ [ [ M ",
"                                          D [ [ [ [ [ [ [ [ [ [ [ [ [ [ [ [ [ [ [ [ [ [ [ [ [ [ [ [ [ [ [ [ [ [ v ",
"                                      * J [ [ [ [ [ [ [ [ [ [ [ [ [ [ [ [ [ [ [ [ [ [ [ [ [ [ [ [ [ [ [ [ [ [ [ M ",
"                                    ; R [ [ [ [ [ [ [ [ [ [ [ [ [ [ [ [ [ [ [ [ [ [ [ [ [ [ [ [ [ [ [ [ [ [ [ [ m ",
"                                  4 ~ [ [ [ [ [ [ [ [ [ [ [ [ [ [ [ [ [ [ [ [ [ [ [ [ [ [ [ [ [ [ [ [ [ [ [ [ [ M ",
"                                8 ` [ [ [ [ [ [ [ [ [ [ [ [ [ [ [ [ [ [ [ [ [ [ [ [ [ [ [ [ [ [ [ [ [ [ [ [ [ [ M ",
"                              7 ` [ [ [ [ [ [ [ [ [ [ [ [ [ [ [ [ [ [ [ [ [ [ [ [ [ [ [ [ [ [ [ [ [ [ [ [ [ [ [ B ",
"                            > ( [ [ [ [ [ [ [ [ [ [ [ [ [ [ [ [ [ [ [ [ [ [ [ [ [ [ [ [ [ [ [ [ [ [ [ [ [ [ [ [ B ",
"                          * Q ` [ [ [ [ [ [ [ [ [ [ [ [ [ [ [ [ [ [ [ [ [ [ [ [ [ [ [ [ [ [ [ [ [ [ [ [ [ [ [ [ B ",
"                        @ L [ [ [ [ [ [ [ [ [ [ [ [ [ [ [ [ [ [ [ [ [ [ [ [ [ [ [ [ [ [ [ [ [ [ [ [ [ [ [ [ [ [ B ",
"                        D [ [ [ [ [ [ [ [ [ [ [ [ [ [ [ [ [ [ [ [ [ [ [ [ [ [ [ [ [ [ [ [ [ [ [ [ [ [ [ [ [ [ [ B ",
"                      s [ [ [ [ [ [ [ [ [ [ [ [ [ [ [ [ [ [ [ [ [ [ [ [ [ [ [ [ [ [ [ [ [ [ [ [ [ [ [ [ [ [ [ [ B ",
"                    7 { [ [ [ [ [ [ [ [ [ [ [ [ [ [ [ [ [ [ [ [ [ [ [ [ [ [ [ [ [ [ [ [ [ [ [ [ [ [ [ [ [ [ [ [ B ",
"                  @ Q [ [ [ [ [ [ [ [ [ [ [ [ [ [ [ [ [ [ [ [ [ [ [ [ [ [ [ [ [ [ [ [ [ [ [ [ [ [ [ [ [ [ [ [ ' D ",
"                  v [ [ [ [ [ [ [ [ [ [ [ [ [ [ [ [ [ [ [ [ [ [ [ [ [ [ [ [ [ [ [ [ [ [ [ [ [ [ [ [ [ [ [ [ [ [ B ",
"                9 [ [ [ [ [ [ [ [ [ [ [ [ [ [ [ [ [ [ [ [ [ [ [ [ [ [ [ [ [ [ [ [ [ [ [ [ [ [ [ [ [ [ [ [ [ [ [ D ",
"              * ~ [ [ [ [ [ [ [ [ [ [ [ [ [ [ [ [ [ [ [ [ [ [ [ [ [ [ [ [ [ [ [ [ [ [ [ [ [ [ [ [ [ [ [ [ [ [ [ D ",
"              M [ [ [ [ [ [ [ [ [ [ [ [ [ [ [ [ [ [ [ [ [ [ [ [ [ [ [ [ [ [ [ [ [ [ [ [ [ [ [ [ [ [ [ [ [ [ [ [ B ",
"            1 { [ [ [ [ [ [ [ [ [ [ [ [ [ [ [ [ [ [ [ [ [ [ [ [ [ [ [ [ [ [ [ [ [ [ [ [ [ [ [ [ [ [ [ [ [ [ [ [ B ",
"            D [ [ [ [ [ [ [ [ [ [ [ [ [ [ [ [ [ [ [ [ [ [ [ [ [ [ [ [ [ [ [ [ [ [ [ [ [ [ [ [ [ [ [ [ [ [ [ [ [ D ",
"          4 ` [ [ [ [ [ [ [ [ [ [ [ [ [ [ [ [ [ [ [ [ [ [ [ [ [ [ [ [ [ [ [ [ [ [ [ [ [ [ [ [ [ [ [ [ [ [ [ [ [ M ",
"          D [ [ [ [ [ [ [ [ [ [ [ [ [ [ [ [ [ [ [ [ [ [ [ [ [ [ [ [ [ [ [ [ [ [ [ [ [ [ [ [ [ [ [ [ [ [ [ [ [ [ M ",
"        4 [ [ [ [ [ [ [ [ [ [ [ [ [ [ [ [ [ [ [ [ [ [ [ [ [ [ [ [ [ [ [ [ [ @.@.o.[ [ [ [ [ [ [ [ [ [ [ [ [ [ [ M ",
"        F [ [ [ [ [ [ [ [ [ [ [ [ [ [ [ [ [ [ [ [ [ [ [ [ [ [ [ [ [ [ [ [ [ @.@.o.[ [ [ [ [ [ [ [ [ [ [ [ [ [ [ M ",
"      = [ [ [ [ [ [ [ [ [ [ [ [ [ [ [ [ [ [ [ [ [ [ [ [ [ [ [ [ [ [ [ [ [ [ @.@.o.[ [ [ [ [ [ [ [ [ [ [ [ [ [ [ m ",
"      i [ [ [ [ [ ..o.o.[ [ [ ..o.o.[ [ | o.o.| X.@.@.O.} [ [ [ } X.@.@.O.} @.@.o.[ [ [ | o.@.@.@.o.| [ [ [ [ [ m ",
"      L [ [ [ [ [ o.@.@.[ [ [ o.@.@.[ [  .@.@.@.@.@.@.@.+.[ [ [ o.@.@.@.@.@.@.@.o.[ [  .@.@.@.@.@.@.@. .[ [ [ [ m ",
"    > [ [ [ [ [ [ o.@.@.[ [ [ o.@.@.[ [  .@.@.+.| [ o.@.@. .[ | @.@.+.} [ o.@.@.o.[ [ +.@.@. .[  .@.@.+.[ [ [ [ v ",
"    a [ [ [ [ [ [ o.@.@.[ [ [ o.@.@.[ [  .@.@...[ [  .@.@. .[ o.@.@...[ [ } @.@.o.[ | @.@.O.[ [ [ O.@.@.| [ [ [ m ",
"    R [ [ [ [ [ [ o.@.@.[ [ [ o.@.@.[ [  .@.@. .[ [  .@.@. .[ o.@.@. .[ [ [ @.@.o.[  .@.@.o.[ [ [ o.@.@. .[ [ [ v ",
"  1 [ [ [ [ [ [ [ o.@.@.[ [ [ o.@.@.[ [  .@.@. .[ [  .@.@. .[ o.@.@. .[ [ [ @.@.o.[  .@.@.o.[ [ [ o.@.@. .[ [ [ z ",
"  t [ [ [ [ [ [ [ o.@.@.} [ } @.@.@.[ [  .@.@. .[ [  .@.@. .[ ..@.@.O.[ [ ..@.@.o.[ [ @.@.@.} [ } @.@.@.[ [ [ [ v ",
"  v [ [ [ [ [ [ [ ..@.@.+.o.+.@.@.@.[ [  .@.@. .[ [  .@.@. .[ } +.@.@.O.o.@.@.@.o.[ [ X.@.@.+.o.+.@.@.X.[ [ [ [ z ",
"  T [ [ [ [ [ [ [ [ o.@.@.@.o.O.@.@.[ [  .@.@. .[ [  .@.@. .[ [  .+.@.@.@.X.@.@.o.[ [ [ X.@.@.@.@.@.X.[ [ [ [ [ z ",
"@ ` [ [ [ [ [ [ [ [ [ |  .| [ [ [ [ [ [ [ [ [ [ [ [ [ [ [ [ [ [ [ [  . .} [ [ [ [ [ [ [ [ [  . . .[ [ [ [ [ [ [ z ",
"5 [ [ [ [ [ [ [ [ [ [ [ [ [ [ [ [ [ [ [ [ [ [ [ [ [ [ [ [ [ [ [ [ [ [ [ [ [ [ [ [ [ [ [ [ [ [ [ [ [ [ [ [ [ [ [ z ",
"0 [ [ [ [ [ [ [ [ [ [ [ [ [ [ [ [ [ [ [ [ [ [ [ [ [ [ [ [ [ [ [ [ [ [ [ [ [ [ [ [ [ [ [ [ [ [ [ [ [ [ [ [ [ [ [ z ",
"i [ [ [ [ [ [ [ [ [ [ [ [ [ [ [ [ [ [ [ [ [ [ [ [ [ [ [ [ [ [ [ [ [ [ [ [ [ [ [ [ [ [ [ [ [ [ [ [ [ [ [ [ [ [ { j ",
"s [ [ [ [ [ [ [ [ [ [ [ [ [ [ [ [ [ [ [ [ [ [ [ [ [ [ [ [ [ [ [ [ [ [ [ [ [ [ [ [ [ [ [ [ [ [ [ [ [ [ [ [ [ [ [ j ",
"v [ [ [ [ [ [ [ [ [ [ [ [ [ [ [ [ [ [ [ [ [ [ [ [ [ [ [ [ [ [ [ [ [ [ [ [ [ [ [ [ [ [ [ [ [ [ [ [ [ [ [ [ [ [ [ j ",
"z [ [ [ [ [ [ [ [ [ [ [ [ [ [ [ [ [ [ [ [ [ [ [ [ [ [ [ [ [ [ [ [ [ [ [ [ [ [ [ [ [ [ ' [ [ [ [ [ ` [ [ [ [ [ [ j ",
"v [ [ [ [ [ [ [ [ [ [ [ [ [ [ ` ' ` { ` ` ` ( ` _ _ ( ( ( ( ( ( ( _ _ _ _ _ _ _ ` ) ) ( ` ` ` ` ` { { ` { ` { ' g "
};
