/* XPM */
static char * undo_normal_xpm[] = {
"57 52 209 2",
"  	c None",
". 	c #000000",
"+ 	c #000101",
"@ 	c #090D13",
"# 	c #131B28",
"$ 	c #1F2C40",
"% 	c #24334A",
"& 	c #273852",
"* 	c #2B3D5A",
"= 	c #2F4362",
"- 	c #33486A",
"; 	c #374D71",
"> 	c #374E72",
", 	c #212F45",
"' 	c #070A0E",
") 	c #202E43",
"! 	c #2C3E5B",
"~ 	c #06090D",
"{ 	c #192435",
"] 	c #2D405D",
"^ 	c #223046",
"/ 	c #141C29",
"( 	c #293A55",
"_ 	c #010203",
": 	c #17202F",
"< 	c #314666",
"[ 	c #010102",
"} 	c #151E2C",
"| 	c #304464",
"1 	c #223047",
"2 	c #010101",
"3 	c #223147",
"4 	c #090C12",
"5 	c #2C3E5A",
"6 	c #233148",
"7 	c #182333",
"8 	c #354B6E",
"9 	c #070A0F",
"0 	c #293B56",
"a 	c #161F2E",
"b 	c #344A6C",
"c 	c #233248",
"d 	c #020203",
"e 	c #26364E",
"f 	c #040608",
"g 	c #2A3B57",
"h 	c #233249",
"i 	c #2E4160",
"j 	c #0B1017",
"k 	c #324767",
"l 	c #24324A",
"m 	c #0F151F",
"n 	c #354B6D",
"o 	c #0E141D",
"p 	c #364C6F",
"q 	c #090D12",
"r 	c #33496A",
"s 	c #24334B",
"t 	c #05070A",
"u 	c #304463",
"v 	c #020304",
"w 	c #2B3D59",
"x 	c #26354E",
"y 	c #24344C",
"z 	c #1D293C",
"A 	c #25344C",
"B 	c #0D131C",
"C 	c #030406",
"D 	c #25354D",
"E 	c #111822",
"F 	c #050609",
"G 	c #324768",
"H 	c #0A0E14",
"I 	c #0A0F15",
"J 	c #556987",
"K 	c #6C7D97",
"L 	c #6B7C97",
"M 	c #26364F",
"N 	c #ABB4C3",
"O 	c #FFFFFF",
"P 	c #FBFCFC",
"Q 	c #263650",
"R 	c #D2D7DF",
"S 	c #DCE0E6",
"T 	c #9EA9BA",
"U 	c #A3ADBE",
"V 	c #CDD3DC",
"W 	c #C2C9D4",
"X 	c #AEB7C6",
"Y 	c #60728F",
"Z 	c #C8CED8",
"` 	c #F8F9FA",
" .	c #E2E6EB",
"..	c #ACB6C4",
"+.	c #3A5174",
"@.	c #4C6181",
"#.	c #B6BECB",
"$.	c #F7F8FA",
"%.	c #D9DDE4",
"&.	c #8694A9",
"*.	c #3F5578",
"=.	c #ADB6C5",
"-.	c #FAFAFB",
";.	c #DADFE5",
">.	c #B0B9C7",
",.	c #42587A",
"'.	c #192333",
").	c #F2F3F6",
"!.	c #B4BDCA",
"~.	c #B9C1CE",
"{.	c #ECEFF2",
"].	c #E0E3E9",
"^.	c #E1E5EA",
"/.	c #9AA6B8",
"(.	c #627490",
"_.	c #E1E4E9",
":.	c #526685",
"<.	c #F7F8F9",
"[.	c #F9FAFB",
"}.	c #5B6E8B",
"|.	c #667793",
"1.	c #8D9AAE",
"2.	c #E3E6EB",
"3.	c #D6DAE2",
"4.	c #566988",
"5.	c #C1C8D3",
"6.	c #C3CAD4",
"7.	c #8392A8",
"8.	c #465B7D",
"9.	c #7E8DA4",
"0.	c #CFD5DD",
"a.	c #080C11",
"b.	c #F0F2F5",
"c.	c #3E5476",
"d.	c #FEFEFE",
"e.	c #5E708D",
"f.	c #A7B1C1",
"g.	c #495E7F",
"h.	c #9CA8B9",
"i.	c #1B2739",
"j.	c #C7CDD7",
"k.	c #71829B",
"l.	c #D3D8E0",
"m.	c #687994",
"n.	c #72829C",
"o.	c #74849D",
"p.	c #2E4260",
"q.	c #C6CDD7",
"r.	c #8A98AD",
"s.	c #BBC3CF",
"t.	c #697A95",
"u.	c #8290A7",
"v.	c #0A0E15",
"w.	c #BCC4D0",
"x.	c #CCD2DB",
"y.	c #6F7F99",
"z.	c #8E9BAF",
"A.	c #384F73",
"B.	c #EDEFF2",
"C.	c #576A88",
"D.	c #7D8CA3",
"E.	c #657692",
"F.	c #F3F4F6",
"G.	c #71819A",
"H.	c #44597B",
"I.	c #DADEE5",
"J.	c #3B5275",
"K.	c #77869F",
"L.	c #3E5477",
"M.	c #3D5376",
"N.	c #415779",
"O.	c #B7BFCC",
"P.	c #FDFDFD",
"Q.	c #DFE3E8",
"R.	c #F4F5F7",
"S.	c #C8CFD8",
"T.	c #FCFCFD",
"U.	c #808FA5",
"V.	c #B9C1CD",
"W.	c #EFF1F3",
"X.	c #8C99AE",
"Y.	c #2D405E",
"Z.	c #4F6383",
"`.	c #F1F3F5",
" +	c #B2BBC9",
".+	c #D7DBE2",
"++	c #8794AA",
"@+	c #020305",
"#+	c #364D71",
"$+	c #6E7F99",
"%+	c #586B89",
"&+	c #506483",
"*+	c #8492A8",
"=+	c #667893",
"-+	c #8795AA",
";+	c #405678",
">+	c #0C1118",
",+	c #212F44",
"'+	c #121925",
")+	c #212E44",
"!+	c #182232",
"~+	c #1E2B3F",
"{+	c #202D42",
"]+	c #364D70",
"^+	c #364C70",
"/+	c #354C6F",
"(+	c #354C6E",
"_+	c #344A6D",
":+	c #1F2C41",
". . . . . . . . . . . . . . . . . . . . . . . . . . . . . . . . . . . . . . . . . . + @ # $ % & * = - ; > > > > , ",
". . . . . . . . . . . . . . . . . . . . . . . . . . . . . . . . . . . . . . . ' ) ! ; > > > > > > > > > > > > > , ",
". . . . . . . . . . . . . . . . . . . . . . . . . . . . . . . . . . . . ~ { ] > > > > > > > > > > > > > > > > > ^ ",
". . . . . . . . . . . . . . . . . . . . . . . . . . . . . . . . . + / ( > > > > > > > > > > > > > > > > > > > > ^ ",
". . . . . . . . . . . . . . . . . . . . . . . . . . . . . . . _ : < > > > > > > > > > > > > > > > > > > > > > > ^ ",
". . . . . . . . . . . . . . . . . . . . . . . . . . . . . [ } | > > > > > > > > > > > > > > > > > > > > > > > > 1 ",
". . . . . . . . . . . . . . . . . . . . . . . . . . . 2 / = > > > > > > > > > > > > > > > > > > > > > > > > > > 3 ",
". . . . . . . . . . . . . . . . . . . . . . . . . . 4 5 > > > > > > > > > > > > > > > > > > > > > > > > > > > > 6 ",
". . . . . . . . . . . . . . . . . . . . . . . . + 7 8 > > > > > > > > > > > > > > > > > > > > > > > > > > > > > 6 ",
". . . . . . . . . . . . . . . . . . . . . . . 9 0 > > > > > > > > > > > > > > > > > > > > > > > > > > > > > > > 6 ",
". . . . . . . . . . . . . . . . . . . . . . a b > > > > > > > > > > > > > > > > > > > > > > > > > > > > > > > > c ",
". . . . . . . . . . . . . . . . . . . . d e > > > > > > > > > > > > > > > > > > > > > > > > > > > > > > > > > > c ",
". . . . . . . . . . . . . . . . . . . f g > > > > > > > > > > > > > > > > > > > > > > > > > > > > > > > > > > > h ",
". . . . . . . . . . . . . . . . . . ' i > > > > > > > > > > > > > > > > > > > > > > > > > > > > > > > > > > > > h ",
". . . . . . . . . . . . . . . . . j k > > > > > > > > > > > > > > > > > > > > > > > > > > > > > > > > > > > > > l ",
". . . . . . . . . . . . . . . . m n > > > > > > > > > > > > > > > > > > > > > > > > > > > > > > > > > > > > > > l ",
". . . . . . . . . . . . . . . o p > > > > > > > > > > > > > > > > > > > > > > > > > > > > > > > > > > > > > > > % ",
". . . . . . . . . . . . . . q r > > > > > > > > > > > > > > > > > > > > > > > > > > > > > > > > > > > > > > > > s ",
". . . . . . . . . . . . . t u > > > > > > > > > > > > > > > > > > > > > > > > > > > > > > > > > > > > > > > > > s ",
". . . . . . . . . . . . v w > > > > > > > > > > > > > > > > > > > > > > > > > > > > > > > > > > > > > > > > > > s ",
". . . . . . . . . . . + x > > > > > > > > > > > > > > > > > > > > > > > > > > > > > > > > > > > > > > > > > > > y ",
". . . . . . . . . . . z > > > > > > > > > > > > > > > > > > > > > > > > > > > > > > > > > > > > > > > > > > > > A ",
". . . . . . . . . . B ; > > > > > > > > > > > > > > > > > > > > > > > > > > > > > > > > > > > > > > > > > > > > A ",
". . . . . . . . . C u > > > > > > > > > > > > > > > > > > > > > > > > > > > > > > > > > > > > > > > > > > > > > A ",
". . . . . . . . . ^ > > > > > > > > > > > > > > > > > > > > > > > > > > > > > > > > > > > > > > > > > > > > > > D ",
". . . . . . . . E > > > > > > > > > > > > > > > > > > > > > > > > > > > > > > > > > > > > > > > > > > > > > > > D ",
". . . . . . . F G > > > > > > > > > > > > > > > > > > > > > > > > > > > > > > > > > > > > > > > > > > > > > > > D ",
". . . . . . . l > > > > > > > > > > > > > > > > > > > > > > > > > > > > > > > > > > > > > > > > > > > > > > > > A ",
". . . . . . H ; > > > > > > > > > > > > > > > > > > > > > > > > > > > > > > > > > > > > > > > > > > > > > > > > A ",
". . . . . . D > > > > > > > > > > > > > > > > > > > > > > > > > > > > > > > > > > > > > > > > > > > > > > > > > y ",
". . . . . I > > > > > > > > > > > > > > > > > > > > > > > > > > > > > > > > J K L > > > > > > > > > > > > > > > s ",
". . . . . M > > > > > > > > > > > > > > > > > > > > > > > > > > > > > > > > N O P > > > > > > > > > > > > > > > s ",
". . . . j > > > > > > > > > > > > > > > > > > > > > > > > > > > > > > > > > N O P > > > > > > > > > > > > > > > % ",
". . . . Q > > > > > > > > > > > > > > > > > > > > > > > > > > > > > > > > > N O P > > > > > > > > > > > > > > > l ",
". . . ~ ; > > > > > R S T > > > U S V > > W S X Y Z `  ...+.> > > @.#.$.%.&.N O P > > > *.=.%.-.;.>.,.> > > > > h ",
". . . '.> > > > > > ).O !.> > > ~.O {.> > ].O ^.` O O O O /.> > (.-.O O O O _.O P > > :.<.O O O O O [.}.> > > > h ",
". . . ! > > > > > > ).O !.> > > ~.O {.> > ].O O Z |.1.` O 2.> > 3.O [.&.4.5.O O P > > 6.O P 7.8.9.` O 0.> > > > c ",
". . a.> > > > > > > ).O !.> > > ~.O {.> > ].O b.c.> > 6.O d.> e.O O f.> > ,.P O P > g.O O N > > > h.O O 4.> > > 6 ",
". . i.> > > > > > > ).O !.> > > ~.O {.> > ].O j.> > > f.O O > 9.O O k.> > > l.O P > m.O O n.> > > |.O O o.> > > 6 ",
". . p.> > > > > > > ).O !.> > > ~.O {.> > ].O q.> > > f.O O > r.O O }.> > > s.O P > o.O O t.> > > }.O O u.> > > 3 ",
". v.> > > > > > > > ).O w.> > > x.O {.> > ].O q.> > > f.O O > y.O O z.> > A.B.O P > C.O O r.> > > D.O O E.> > > 1 ",
". : > > > > > > > > 2.O F.,.> G.d.O {.> > ].O q.> > > f.O O > H.` O I.J.> K.O O P > +.F.O 2.L.> M.S O $.N.> > > ^ ",
". ^ > > > > > > > > O.O O P.Q.O P O {.> > ].O q.> > > f.O O > > f.O O R.S.T.O O P > > U.O O b.V.W.O O X.> > > > ^ ",
". Y.> > > > > > > > Z.`.O O O #.w.O {.> > ].O q.> > > f.O O > > J. +O O O .+s.O P > > > ++R.O O O <.z.A.> > > > , ",
"@+#+> > > > > > > > > c.$+++%+> > > > > > > > > > > > > > > > > > > &+*+=+J.> > > > > > > *.=+-+m.;+> > > > > > , ",
">+> > > > > > > > > > > > > > > > > > > > > > > > > > > > > > > > > > > > > > > > > > > > > > > > > > > > > > > ,+",
"'+> > > > > > > > > > > > > > > > > > > > > > > > > > > > > > > > > > > > > > > > > > > > > > > > > > > > > > > )+",
"!+> > > > > > > > > > > > > > > > > > > > > > > > > > > > > > > > > > > > > > > > > > > > > > > > > > > > > > > ) ",
"~+> > > > > > > > > > > > > > > > > > > > > > > > > > > > > > > > > > > > > > > > > > > > > > > > > > > > > > > ) ",
",+> > > > > > > > > > > > > > > > > > > > > > > > > > > > > > > > > > > > > > > > > > > > > > > > > > > > > > > {+",
", > > > > > > > > > > > > > > > > > > > > > > > > > > > > > > > > > > > > > > > > > > > > > > > > > > > > > > > {+",
"^ > > > > > > > > > > > > > > ; #+]+^+p p /+(+8 8 n _+_+b b _+_+_+n n n 8 8 8 8 8 (+(+(+/+/+/+p p ^+^+^+]+]+]+#+:+"};
