/* XPM */
static char * undo_disabled_xpm[] = {
"57 52 201 2",
"  	c None",
". 	c #000000",
"+ 	c #000101",
"@ 	c #090D13",
"# 	c #131B28",
"$ 	c #1F2C40",
"% 	c #24334A",
"& 	c #273852",
"* 	c #2B3D5A",
"= 	c #3B4554",
"- 	c #424B59",
"; 	c #475160",
"> 	c #212F45",
", 	c #070A0E",
"' 	c #202E43",
") 	c #2C3E5B",
"! 	c #06090D",
"~ 	c #192435",
"{ 	c #30405A",
"] 	c #223046",
"^ 	c #141C29",
"/ 	c #293A55",
"( 	c #010203",
"_ 	c #17202F",
": 	c #404855",
"< 	c #010102",
"[ 	c #151E2C",
"} 	c #3F4754",
"| 	c #223047",
"1 	c #010101",
"2 	c #223147",
"3 	c #090C12",
"4 	c #2C3E5A",
"5 	c #233148",
"6 	c #182333",
"7 	c #454E5C",
"8 	c #070A0F",
"9 	c #293B56",
"0 	c #161F2E",
"a 	c #444D5B",
"b 	c #233248",
"c 	c #020203",
"d 	c #26364E",
"e 	c #040608",
"f 	c #2A3B57",
"g 	c #233249",
"h 	c #364357",
"i 	c #0B1017",
"j 	c #404957",
"k 	c #24324A",
"l 	c #0F151F",
"m 	c #0E141D",
"n 	c #464F5D",
"o 	c #090D12",
"p 	c #24334B",
"q 	c #05070A",
"r 	c #3E4653",
"s 	c #020304",
"t 	c #2B3D59",
"u 	c #26354E",
"v 	c #24344C",
"w 	c #1D293C",
"x 	c #25344C",
"y 	c #0D131C",
"z 	c #030406",
"A 	c #25354D",
"B 	c #111822",
"C 	c #050609",
"D 	c #414A58",
"E 	c #0A0E14",
"F 	c #0A0F15",
"G 	c #556987",
"H 	c #6C7D97",
"I 	c #6B7C97",
"J 	c #26364F",
"K 	c #ABB4C3",
"L 	c #FFFFFF",
"M 	c #FBFCFC",
"N 	c #263650",
"O 	c #D2D7DF",
"P 	c #DCE0E6",
"Q 	c #9EA9BA",
"R 	c #A3ADBE",
"S 	c #CDD3DC",
"T 	c #C2C9D4",
"U 	c #AEB7C6",
"V 	c #60728F",
"W 	c #C8CED8",
"X 	c #F8F9FA",
"Y 	c #E2E6EB",
"Z 	c #ACB6C4",
"` 	c #4A5463",
" .	c #4F617E",
"..	c #B6BECB",
"+.	c #F7F8FA",
"@.	c #D9DDE4",
"#.	c #8694A9",
"$.	c #4F5866",
"%.	c #ADB6C5",
"&.	c #FAFAFB",
"*.	c #DADFE5",
"=.	c #B0B9C7",
"-.	c #525B69",
";.	c #192333",
">.	c #F2F3F6",
",.	c #B4BDCA",
"'.	c #B9C1CE",
").	c #ECEFF2",
"!.	c #E0E3E9",
"~.	c #E1E5EA",
"{.	c #9AA6B8",
"].	c #627490",
"^.	c #E1E4E9",
"/.	c #526685",
"(.	c #F7F8F9",
"_.	c #F9FAFB",
":.	c #5B6E8B",
"<.	c #667793",
"[.	c #8D9AAE",
"}.	c #E3E6EB",
"|.	c #D6DAE2",
"1.	c #566988",
"2.	c #C1C8D3",
"3.	c #C3CAD4",
"4.	c #8392A8",
"5.	c #555E6C",
"6.	c #7E8DA4",
"7.	c #CFD5DD",
"8.	c #080C11",
"9.	c #F0F2F5",
"0.	c #4E5765",
"a.	c #FEFEFE",
"b.	c #5E708D",
"c.	c #A7B1C1",
"d.	c #536075",
"e.	c #9CA8B9",
"f.	c #1B2739",
"g.	c #C7CDD7",
"h.	c #71829B",
"i.	c #D3D8E0",
"j.	c #687994",
"k.	c #72829C",
"l.	c #74849D",
"m.	c #C6CDD7",
"n.	c #8A98AD",
"o.	c #BBC3CF",
"p.	c #697A95",
"q.	c #8290A7",
"r.	c #0A0E15",
"s.	c #BCC4D0",
"t.	c #CCD2DB",
"u.	c #6F7F99",
"v.	c #8E9BAF",
"w.	c #495260",
"x.	c #EDEFF2",
"y.	c #576A88",
"z.	c #7D8CA3",
"A.	c #657692",
"B.	c #F3F4F6",
"C.	c #71819A",
"D.	c #535C6A",
"E.	c #DADEE5",
"F.	c #4B5564",
"G.	c #77869F",
"H.	c #4D5664",
"I.	c #515A68",
"J.	c #B7BFCC",
"K.	c #FDFDFD",
"L.	c #DFE3E8",
"M.	c #F4F5F7",
"N.	c #C8CFD8",
"O.	c #FCFCFD",
"P.	c #808FA5",
"Q.	c #B9C1CD",
"R.	c #EFF1F3",
"S.	c #8C99AE",
"T.	c #314159",
"U.	c #4F6383",
"V.	c #F1F3F5",
"W.	c #B2BBC9",
"X.	c #D7DBE2",
"Y.	c #8794AA",
"Z.	c #020305",
"`.	c #46505F",
" +	c #6E7F99",
".+	c #586B89",
"++	c #506483",
"@+	c #8492A8",
"#+	c #667893",
"$+	c #8795AA",
"%+	c #505967",
"&+	c #0C1118",
"*+	c #212F44",
"=+	c #121925",
"-+	c #212E44",
";+	c #182232",
">+	c #1E2B3F",
",+	c #202D42",
"'+	c #454F5E",
")+	c #454F5C",
"!+	c #1F2C41",
". . . . . . . . . . . . . . . . . . . . . . . . . . . . . . . . . . . . . . . . . . + @ # $ % & * = - ; ; ; ; ; > ",
". . . . . . . . . . . . . . . . . . . . . . . . . . . . . . . . . . . . . . . , ' ) ; ; ; ; ; ; ; ; ; ; ; ; ; ; > ",
". . . . . . . . . . . . . . . . . . . . . . . . . . . . . . . . . . . . ! ~ { ; ; ; ; ; ; ; ; ; ; ; ; ; ; ; ; ; ] ",
". . . . . . . . . . . . . . . . . . . . . . . . . . . . . . . . . + ^ / ; ; ; ; ; ; ; ; ; ; ; ; ; ; ; ; ; ; ; ; ] ",
". . . . . . . . . . . . . . . . . . . . . . . . . . . . . . . ( _ : ; ; ; ; ; ; ; ; ; ; ; ; ; ; ; ; ; ; ; ; ; ; ] ",
". . . . . . . . . . . . . . . . . . . . . . . . . . . . . < [ } ; ; ; ; ; ; ; ; ; ; ; ; ; ; ; ; ; ; ; ; ; ; ; ; | ",
". . . . . . . . . . . . . . . . . . . . . . . . . . . 1 ^ = ; ; ; ; ; ; ; ; ; ; ; ; ; ; ; ; ; ; ; ; ; ; ; ; ; ; 2 ",
". . . . . . . . . . . . . . . . . . . . . . . . . . 3 4 ; ; ; ; ; ; ; ; ; ; ; ; ; ; ; ; ; ; ; ; ; ; ; ; ; ; ; ; 5 ",
". . . . . . . . . . . . . . . . . . . . . . . . + 6 7 ; ; ; ; ; ; ; ; ; ; ; ; ; ; ; ; ; ; ; ; ; ; ; ; ; ; ; ; ; 5 ",
". . . . . . . . . . . . . . . . . . . . . . . 8 9 ; ; ; ; ; ; ; ; ; ; ; ; ; ; ; ; ; ; ; ; ; ; ; ; ; ; ; ; ; ; ; 5 ",
". . . . . . . . . . . . . . . . . . . . . . 0 a ; ; ; ; ; ; ; ; ; ; ; ; ; ; ; ; ; ; ; ; ; ; ; ; ; ; ; ; ; ; ; ; b ",
". . . . . . . . . . . . . . . . . . . . c d ; ; ; ; ; ; ; ; ; ; ; ; ; ; ; ; ; ; ; ; ; ; ; ; ; ; ; ; ; ; ; ; ; ; b ",
". . . . . . . . . . . . . . . . . . . e f ; ; ; ; ; ; ; ; ; ; ; ; ; ; ; ; ; ; ; ; ; ; ; ; ; ; ; ; ; ; ; ; ; ; ; g ",
". . . . . . . . . . . . . . . . . . , h ; ; ; ; ; ; ; ; ; ; ; ; ; ; ; ; ; ; ; ; ; ; ; ; ; ; ; ; ; ; ; ; ; ; ; ; g ",
". . . . . . . . . . . . . . . . . i j ; ; ; ; ; ; ; ; ; ; ; ; ; ; ; ; ; ; ; ; ; ; ; ; ; ; ; ; ; ; ; ; ; ; ; ; ; k ",
". . . . . . . . . . . . . . . . l 7 ; ; ; ; ; ; ; ; ; ; ; ; ; ; ; ; ; ; ; ; ; ; ; ; ; ; ; ; ; ; ; ; ; ; ; ; ; ; k ",
". . . . . . . . . . . . . . . m n ; ; ; ; ; ; ; ; ; ; ; ; ; ; ; ; ; ; ; ; ; ; ; ; ; ; ; ; ; ; ; ; ; ; ; ; ; ; ; % ",
". . . . . . . . . . . . . . o - ; ; ; ; ; ; ; ; ; ; ; ; ; ; ; ; ; ; ; ; ; ; ; ; ; ; ; ; ; ; ; ; ; ; ; ; ; ; ; ; p ",
". . . . . . . . . . . . . q r ; ; ; ; ; ; ; ; ; ; ; ; ; ; ; ; ; ; ; ; ; ; ; ; ; ; ; ; ; ; ; ; ; ; ; ; ; ; ; ; ; p ",
". . . . . . . . . . . . s t ; ; ; ; ; ; ; ; ; ; ; ; ; ; ; ; ; ; ; ; ; ; ; ; ; ; ; ; ; ; ; ; ; ; ; ; ; ; ; ; ; ; p ",
". . . . . . . . . . . + u ; ; ; ; ; ; ; ; ; ; ; ; ; ; ; ; ; ; ; ; ; ; ; ; ; ; ; ; ; ; ; ; ; ; ; ; ; ; ; ; ; ; ; v ",
". . . . . . . . . . . w ; ; ; ; ; ; ; ; ; ; ; ; ; ; ; ; ; ; ; ; ; ; ; ; ; ; ; ; ; ; ; ; ; ; ; ; ; ; ; ; ; ; ; ; x ",
". . . . . . . . . . y ; ; ; ; ; ; ; ; ; ; ; ; ; ; ; ; ; ; ; ; ; ; ; ; ; ; ; ; ; ; ; ; ; ; ; ; ; ; ; ; ; ; ; ; ; x ",
". . . . . . . . . z r ; ; ; ; ; ; ; ; ; ; ; ; ; ; ; ; ; ; ; ; ; ; ; ; ; ; ; ; ; ; ; ; ; ; ; ; ; ; ; ; ; ; ; ; ; x ",
". . . . . . . . . ] ; ; ; ; ; ; ; ; ; ; ; ; ; ; ; ; ; ; ; ; ; ; ; ; ; ; ; ; ; ; ; ; ; ; ; ; ; ; ; ; ; ; ; ; ; ; A ",
". . . . . . . . B ; ; ; ; ; ; ; ; ; ; ; ; ; ; ; ; ; ; ; ; ; ; ; ; ; ; ; ; ; ; ; ; ; ; ; ; ; ; ; ; ; ; ; ; ; ; ; A ",
". . . . . . . C D ; ; ; ; ; ; ; ; ; ; ; ; ; ; ; ; ; ; ; ; ; ; ; ; ; ; ; ; ; ; ; ; ; ; ; ; ; ; ; ; ; ; ; ; ; ; ; A ",
". . . . . . . k ; ; ; ; ; ; ; ; ; ; ; ; ; ; ; ; ; ; ; ; ; ; ; ; ; ; ; ; ; ; ; ; ; ; ; ; ; ; ; ; ; ; ; ; ; ; ; ; x ",
". . . . . . E ; ; ; ; ; ; ; ; ; ; ; ; ; ; ; ; ; ; ; ; ; ; ; ; ; ; ; ; ; ; ; ; ; ; ; ; ; ; ; ; ; ; ; ; ; ; ; ; ; x ",
". . . . . . A ; ; ; ; ; ; ; ; ; ; ; ; ; ; ; ; ; ; ; ; ; ; ; ; ; ; ; ; ; ; ; ; ; ; ; ; ; ; ; ; ; ; ; ; ; ; ; ; ; v ",
". . . . . F ; ; ; ; ; ; ; ; ; ; ; ; ; ; ; ; ; ; ; ; ; ; ; ; ; ; ; ; ; ; ; ; G H I ; ; ; ; ; ; ; ; ; ; ; ; ; ; ; p ",
". . . . . J ; ; ; ; ; ; ; ; ; ; ; ; ; ; ; ; ; ; ; ; ; ; ; ; ; ; ; ; ; ; ; ; K L M ; ; ; ; ; ; ; ; ; ; ; ; ; ; ; p ",
". . . . i ; ; ; ; ; ; ; ; ; ; ; ; ; ; ; ; ; ; ; ; ; ; ; ; ; ; ; ; ; ; ; ; ; K L M ; ; ; ; ; ; ; ; ; ; ; ; ; ; ; % ",
". . . . N ; ; ; ; ; ; ; ; ; ; ; ; ; ; ; ; ; ; ; ; ; ; ; ; ; ; ; ; ; ; ; ; ; K L M ; ; ; ; ; ; ; ; ; ; ; ; ; ; ; k ",
". . . ! ; ; ; ; ; ; O P Q ; ; ; R P S ; ; T P U V W X Y Z ` ; ; ;  ...+.@.#.K L M ; ; ; $.%.@.&.*.=.-.; ; ; ; ; g ",
". . . ;.; ; ; ; ; ; >.L ,.; ; ; '.L ).; ; !.L ~.X L L L L {.; ; ].&.L L L L ^.L M ; ; /.(.L L L L L _.:.; ; ; ; g ",
". . . ) ; ; ; ; ; ; >.L ,.; ; ; '.L ).; ; !.L L W <.[.X L }.; ; |.L _.#.1.2.L L M ; ; 3.L M 4.5.6.X L 7.; ; ; ; b ",
". . 8.; ; ; ; ; ; ; >.L ,.; ; ; '.L ).; ; !.L 9.0.; ; 3.L a.; b.L L c.; ; -.M L M ; d.L L K ; ; ; e.L L 1.; ; ; 5 ",
". . f.; ; ; ; ; ; ; >.L ,.; ; ; '.L ).; ; !.L g.; ; ; c.L L ; 6.L L h.; ; ; i.L M ; j.L L k.; ; ; <.L L l.; ; ; 5 ",
". . h ; ; ; ; ; ; ; >.L ,.; ; ; '.L ).; ; !.L m.; ; ; c.L L ; n.L L :.; ; ; o.L M ; l.L L p.; ; ; :.L L q.; ; ; 2 ",
". r.; ; ; ; ; ; ; ; >.L s.; ; ; t.L ).; ; !.L m.; ; ; c.L L ; u.L L v.; ; w.x.L M ; y.L L n.; ; ; z.L L A.; ; ; | ",
". _ ; ; ; ; ; ; ; ; }.L B.-.; C.a.L ).; ; !.L m.; ; ; c.L L ; D.X L E.F.; G.L L M ; ` B.L }.0.; H.P L +.I.; ; ; ] ",
". ] ; ; ; ; ; ; ; ; J.L L K.L.L M L ).; ; !.L m.; ; ; c.L L ; ; c.L L M.N.O.L L M ; ; P.L L 9.Q.R.L L S.; ; ; ; ] ",
". T.; ; ; ; ; ; ; ; U.V.L L L ..s.L ).; ; !.L m.; ; ; c.L L ; ; F.W.L L L X.o.L M ; ; ; Y.M.L L L (.v.w.; ; ; ; > ",
"Z.`.; ; ; ; ; ; ; ; ; 0. +Y..+; ; ; ; ; ; ; ; ; ; ; ; ; ; ; ; ; ; ; ++@+#+F.; ; ; ; ; ; ; $.#+$+j.%+; ; ; ; ; ; > ",
"&+; ; ; ; ; ; ; ; ; ; ; ; ; ; ; ; ; ; ; ; ; ; ; ; ; ; ; ; ; ; ; ; ; ; ; ; ; ; ; ; ; ; ; ; ; ; ; ; ; ; ; ; ; ; ; *+",
"=+; ; ; ; ; ; ; ; ; ; ; ; ; ; ; ; ; ; ; ; ; ; ; ; ; ; ; ; ; ; ; ; ; ; ; ; ; ; ; ; ; ; ; ; ; ; ; ; ; ; ; ; ; ; ; -+",
";+; ; ; ; ; ; ; ; ; ; ; ; ; ; ; ; ; ; ; ; ; ; ; ; ; ; ; ; ; ; ; ; ; ; ; ; ; ; ; ; ; ; ; ; ; ; ; ; ; ; ; ; ; ; ; ' ",
">+; ; ; ; ; ; ; ; ; ; ; ; ; ; ; ; ; ; ; ; ; ; ; ; ; ; ; ; ; ; ; ; ; ; ; ; ; ; ; ; ; ; ; ; ; ; ; ; ; ; ; ; ; ; ; ' ",
"*+; ; ; ; ; ; ; ; ; ; ; ; ; ; ; ; ; ; ; ; ; ; ; ; ; ; ; ; ; ; ; ; ; ; ; ; ; ; ; ; ; ; ; ; ; ; ; ; ; ; ; ; ; ; ; ,+",
"> ; ; ; ; ; ; ; ; ; ; ; ; ; ; ; ; ; ; ; ; ; ; ; ; ; ; ; ; ; ; ; ; ; ; ; ; ; ; ; ; ; ; ; ; ; ; ; ; ; ; ; ; ; ; ; ,+",
"] ; ; ; ; ; ; ; ; ; ; ; ; ; ; ; `.`.`.n n '+)+7 7 7 a a a a a a a 7 7 7 7 7 7 7 7 )+)+)+'+'+'+n n `.`.`.`.`.`.`.!+"};
