/* XPM */
static char *undo_active[] = {
/* columns rows colors chars-per-pixel */
"57 52 60 1",
"  c black",
". c #000101",
"X c #010101",
"o c #010102",
"O c #010202",
"+ c #020204",
"@ c #020304",
"# c #020305",
"$ c #030405",
"% c #030406",
"& c #030507",
"* c #050609",
"= c #06080C",
"- c #070A0E",
"; c #080B10",
": c #080C11",
"> c #090C12",
", c #090D13",
"< c #0E141E",
"1 c #0F151E",
"2 c #101721",
"3 c #101722",
"4 c #111924",
"5 c #121925",
"6 c #131B27",
"7 c #141C2A",
"8 c #151D2B",
"9 c #151E2C",
"0 c #161F2D",
"q c #16202E",
"w c #172130",
"e c #192333",
"r c #1B2739",
"t c #1C283A",
"y c #1C283B",
"u c #1E2A3D",
"i c #1E2B3F",
"p c #202D42",
"a c #2C2C43",
"s c #2C2D43",
"d c #342B44",
"f c #3B2840",
"g c #3B2841",
"h c #501F3A",
"j c #5D1934",
"k c #49223C",
"l c #49223D",
"z c #6F0D28",
"x c #631530",
"c c #750924",
"v c #422540",
"b c #84243C",
"n c #933F54",
"m c #A35B6D",
"M c #B27685",
"N c #C1919D",
"B c #D1ADB6",
"V c #E0C8CE",
"C c #EFE3E6",
"Z c gray100",
/* pixels */
"                                           :5rgzccccccccc",
"                                       ;qgccccccccccccccc",
"                                    -yccccccccccccccccccc",
"                                  5hccccccccccccccccccccc",
"                                7cccccccccccccccccccccccc",
"                              5cccccccccccccccccccccccccc",
"                            -xccccccccccccccccccccccccccc",
"                          #iccccccccccccccccccccccccccccc",
"                         2ccccccccccccccccccccccccccccccc",
"                       #scccccccccccccccccccccccccccccccc",
"                      :cccccccccccccccccccccccccccccccccc",
"                     5ccccccccccccccccccccccccccccccccccc",
"                    pcccccccccccccccccccccccccccccccccccc",
"                   sccccccccccccccccccccccccccccccccccccc",
"                 %vcccccccccccccccccccccccccccccccccccccc",
"                %jccccccccccccccccccccccccccccccccccccccc",
"               #jcccccccccccccccccccccccccccccccccccccccc",
"               lccccccccccccccccccccccccccccccccccccccccc",
"              scccccccccccccccccccccccccccccccccccccccccc",
"             iccccccccccccccccccccccccccccccccccccccccccc",
"            6cccccccccccccccccccccccccccccccccccccccccccc",
"           :ccccccccccccccccccccccccccccccccccccccccccccc",
"          #cccccccccccccccccccccccccccccccccccccccccccccc",
"          scccccccccccccccccccccccccccccccccccccccccccccc",
"         5ccccccccccccccccccccccccccccccccccccccccccccccc",
"        *cccccccccccccccccccccccccccccccccccccccccccccccc",
"        dcccccccccccccccccccccccccccccccccccccccccccccccc",
"       2ccccccccccccccccccccccccccccccccccccccccccccccccc",
"      #cccccccccccccccccccccccccccccccccccccccccccccccccc",
"      ecccccccccccccccccccccccccccccccccccccccccccccccccc",
"     %ccccccccccccccccccccccccccccccccccccccccccccccccccc",
"     yccccccccccccccccccccccccccccccccccccccccccccccccccc",
"     cccccccccccccccccccccccccccccccccZZBcccccccccccccccc",
"    ecccccccccccccccccccccccccccccccccZZBcccccccccccccccc",
"    ccccccccccccccccccccccccccccccccccZZBcccccccccccccccc",
"   1cccccMBBcccMBBccnBBnNZZVbcccbNZZVbZZBcccnBZZZBncccccc",
"   fcccccBZZcccBZZccmZZZZZZZCcccBZZZZZZZBccmZZZZZZZmccccc",
"  %ccccccBZZcccBZZccmZZCncBZZmcnZZCbcBZZBccCZZmcmZZCccccc",
"  7ccccccBZZcccBZZccmZZMccmZZmcBZZMccbZZBcnZZVcccVZZncccc",
"  lccccccBZZcccBZZccmZZmccmZZmcBZZmcccZZBcmZZBcccBZZmcccc",
" %cccccccBZZcccBZZccmZZmccmZZmcBZZmcccZZBcmZZBcccBZZmcccc",
" 2cccccccBZZbcbZZZccmZZmccmZZmcMZZVccMZZBccZZZbcbZZZccccc",
" rcccccccMZZCBCZZZccmZZmccmZZmcbCZZVBZZZBccNZZCBCZZNccccc",
" lccccccccBZZZBVZZccmZZmccmZZmccmCZZZNZZBcccNZZZZZNcccccc",
" ccccccccccnmnccccccccccccccccccccmmbcccccccccmmmcccccccc",
"%cccccccccccccccccccccccccccccccccccccccccccccccccccccccc",
":cccccccccccccccccccccccccccccccccccccccccccccccccccccccc",
"1cccccccccccccccccccccccccccccccccccccccccccccccccccccccc",
"7cccccccccccccccccccccccccccccccccccccccccccccccccccccccc",
"qcccccccccccccccccccccccccccccccccccccccccccccccccccccccc",
"0cccccccccccccccccccccccccccccccccccccccccccccccccccccccc",
"7cccccccccccccccccccccccccccccccccccccccccccccccccccccccc"
};
